<svg version="1.1" xmlns="http://www.w3.org/2000/svg" xmlns:xlink="http://www.w3.org/1999/xlink" width="445.61634" height="277.68625" viewBox="0,0,445.61634,277.68625"><g transform="translate(-22.73592,-33.65975)"><g data-paper-data="{&quot;isPaintingLayer&quot;:true}" fill-rule="nonzero" stroke-linejoin="miter" stroke-miterlimit="10" stroke-dasharray="" stroke-dashoffset="0" style="mix-blend-mode: normal"><g stroke-width="3.5"><g stroke="none" stroke-linecap="butt"><path d="M304.54313,184.78377c-7.1458,1.90738 0.11422,-0.21866 0.16919,-0.1712c11.86482,10.24355 17.20124,26.51208 20.10396,41.42063c1.42618,7.32238 2.3302,14.73422 2.81122,22.17643c0.19448,3.01803 0.4211,6.0775 0.36865,9.10299c-0.08002,4.60089 -1.74009,9.06231 -4.74047,12.56011c-3.34086,3.89348 -8.0648,5.77817 -12.7827,7.4653c-5.04538,1.8048 -10.29299,3.07512 -15.61707,3.70348c-8.38178,0.98906 -17.00314,0.248 -25.05088,-2.31932c-3.25047,-1.03736 -6.59386,-2.26928 -9.55433,-3.98813c-3.9817,-2.3121 -7.05207,-5.9889 -8.60578,-10.32505c-0.78448,-2.19022 -1.17929,-4.57534 -1.11455,-6.90157c0.07673,-2.72334 0.60679,-5.43152 0.78884,-8.15117c0.32341,-4.81745 0.26078,-9.66546 -0.27803,-14.46539c-0.42609,-3.79734 -1.16716,-7.54673 -2.26519,-11.207c-0.44775,-1.49031 -0.95176,-2.96476 -1.51859,-4.41402c-0.27131,-0.6932 -0.5553,-1.37975 -0.85503,-2.06049c-0.12559,-0.28603 -0.25407,-0.56991 -0.3845,-0.85269c-0.04489,-0.09586 -0.23651,-0.49971 -0.26465,-0.56136c-0.80428,-1.65053 -1.70562,-3.26011 -2.73081,-4.78434c-0.15587,-0.23143 61.68345,-25.99911 61.52074,-26.22719zM270.64853,275.10303c-0.15384,-1.5392 -0.33664,-3.07694 -0.56293,-4.60346c-0.57239,-3.85904 -1.36567,-7.74998 -2.78359,-11.4001c-0.53628,-1.37971 -1.43067,-3.16887 -2.2151,-4.08947c-0.27462,-0.32256 -0.58388,-0.61733 -0.90991,-0.88723c-0.01983,-0.01602 -0.20032,-0.14007 -0.26067,-0.18509c-0.10955,-0.06756 -0.21915,-0.13612 -0.33408,-0.19139c-0.34685,-0.16672 -0.87661,-0.30717 -1.3651,-0.30453c-0.50746,0.0036 -0.83463,0.14729 -1.47058,0.66002c0.13947,-0.11318 -0.43972,0.45276 -0.57113,0.60658c-0.24475,0.28871 -0.31217,0.38123 -0.43966,0.57291c-0.97554,1.46107 -1.57013,3.07011 -2.04688,4.6732c-0.56758,1.90606 -0.99554,3.88016 -1.25906,5.85897c3.00824,5.02365 8.65499,7.61211 14.21869,9.2896zM298.73706,276.68418c3.17194,-0.59676 6.29605,-1.44643 9.35546,-2.48708c0.1025,-3.20425 -0.15653,-6.46934 -0.71921,-9.60094c-0.83686,-4.65471 -2.8336,-10.34824 -7.13711,-12.78726c-4.87761,-2.76348 -11.33462,-1.23282 -14.95512,2.77391c-3.63003,4.01622 -5.16067,9.65261 -5.99253,14.98936c-0.18517,1.19086 -0.32698,2.38753 -0.44263,3.58689c-0.00566,0.06637 -0.01912,0.21624 -0.02478,0.28261c-0.00952,0.12864 -0.01999,0.25834 -0.02947,0.38798c-0.01553,0.20805 -0.03005,0.41605 -0.04253,0.62494c-0.02854,0.44601 -0.05108,0.89171 -0.06859,1.33816c-0.01533,0.39027 -0.02662,0.78134 -0.03491,1.17225c6.64579,1.07714 13.45883,0.96533 20.09141,-0.28082zM323.02748,263.21376c1.41721,-3.30269 1.24362,-6.75934 1.09584,-10.26034c-0.79362,-1.39975 -1.95459,-3.2135 -3.59232,-3.36508c-0.4165,-0.03904 -0.75133,0.07199 -1.13753,0.19663c-0.44627,0.1447 -0.12479,0.0073 -0.53618,0.28741c-0.10553,0.07141 -0.20892,0.14572 -0.3091,0.22388c-0.02017,0.01704 -0.04033,0.03408 -0.05086,0.04362c-0.19407,0.18202 -0.37339,0.37832 -0.54433,0.5822c-0.55732,0.66196 -1.04882,1.61596 -1.46983,2.6375c-0.42196,1.02259 -0.74726,2.19449 -1.02023,3.35173c-0.6038,2.55671 -0.95128,5.1926 -1.15785,7.80334c-0.18791,2.38552 -0.28761,4.79261 -0.27846,7.1942c0.1352,-0.05889 0.27165,-0.11285 0.40586,-0.17169c3.8765,-1.6937 6.91987,-4.61794 8.595,-8.5234zM302.84357,188.13867c-18.72658,6.59384 -68.60838,30.66052 -56.50749,21.13694c1.50411,2.24399 2.74035,4.69575 3.79768,7.15354c2.7955,6.50126 4.30603,13.55104 4.87374,20.58837c0.39233,4.87341 0.29083,9.76276 -0.14122,14.62975c-0.19862,2.23286 -0.6297,4.46244 -0.58248,6.70592c0.18568,-0.56609 0.37346,-1.13028 0.58582,-1.68369c1.35572,-3.52888 3.99458,-7.464 8.30088,-6.91252c4.02314,0.51572 6.25034,4.54751 7.60233,7.94263c2.2921,5.7527 3.29628,12.2333 3.74506,18.44257c0.12975,0.03149 0.26125,0.0579 0.39196,0.08834c0.07889,-3.37428 0.50249,-6.78298 1.18543,-10.05259c1.26575,-6.06357 3.71754,-12.37428 8.75912,-16.27655c5.28153,-4.08762 13.34506,-4.37974 18.72413,-0.35094c4.06476,3.04484 6.07751,8.00462 7.15285,12.90061c0.34665,-3.3858 0.96628,-6.73932 2.13987,-9.88953c0.8446,-2.26949 2.1498,-4.6774 4.35498,-5.87916c2.43908,-1.32873 4.6797,-0.8972 6.55351,0.37991c-0.08494,-1.18623 -0.16989,-2.37245 -0.27681,-3.55757c-0.65416,-7.26225 -1.70656,-14.49937 -3.3917,-21.59641c-3.20133,-13.48568 -5.40561,-25.56352 -17.26765,-33.76961z" data-paper-data="{&quot;index&quot;:null}" fill="#152345"/><path d="M314.41349,271.78341c-0.1342,0.05884 -0.27181,0.1123 -0.40701,0.1712c-0.00915,-2.4016 0.07294,-4.82168 0.26085,-7.20719c0.20657,-2.61074 0.55754,-5.3158 1.16135,-7.87251c0.27297,-1.15724 0.61591,-2.3399 1.03787,-3.36248c0.42101,-1.02154 0.92388,-1.97811 1.48119,-2.64007c0.17093,-0.20388 0.35316,-0.40039 0.54723,-0.58243c0.01053,-0.00954 0.03096,-0.0266 0.05112,-0.04363c0.10019,-0.07815 0.20508,-0.15251 0.31061,-0.22392c0.41139,-0.28011 0.09239,-0.14268 0.53866,-0.28738c0.3862,-0.12464 0.72608,-0.23522 1.14258,-0.19618c1.63773,0.15158 2.81954,1.97326 3.61315,3.37301c0.14779,3.501 0.33586,7.02599 -1.08135,10.32868c-1.67513,3.90547 -4.77973,6.8492 -8.65623,8.5429z" data-paper-data="{&quot;noHover&quot;:false,&quot;origItem&quot;:[&quot;Path&quot;,{&quot;applyMatrix&quot;:true,&quot;segments&quot;:[[[704.65248,589.44356],[-3.74,7.632],[3.164,-6.454]],[[707.87648,569.05956],[-0.058,7.008],[-1.444,-2.876]],[[701.04048,561.97556],[3.256,0.468],[-0.828,-0.12]],[[698.74848,562.25356],[0.784,-0.21],[-0.906,0.244]],[[697.64848,562.77356],[0.85,-0.518],[-0.218,0.132]],[[697.00848,563.18956],[0.208,-0.146],[-0.042,0.032]],[[696.90248,563.27156],[0.022,-0.018],[-0.406,0.344]],[[695.75648,564.37956],[0.362,-0.39],[-1.18,1.266]],[[692.55448,569.49956],[0.944,-1.998],[-0.946,2]],[[690.17848,576.09156],[0.662,-2.284],[-1.464,5.046]],[[687.07848,591.56156],[0.676,-5.194],[-0.616,4.746]],[[685.79648,605.90356],[0.224,-4.798],[0.276,-0.104]],[[686.62448,605.60156],[-0.274,0.104],[7.914,-2.992]]],&quot;closed&quot;:true,&quot;fillColor&quot;:[0,0,0,1]}]}" fill="#67d440"/><path d="M278.6087,276.99869c0.00829,-0.39092 0.01808,-0.78371 0.03341,-1.17398c0.0175,-0.44645 0.03831,-0.89436 0.06685,-1.34037c0.01248,-0.2089 0.0262,-0.41802 0.04172,-0.62607c0.00947,-0.12964 0.01944,-0.26007 0.02896,-0.38871c0.00566,-0.06637 0.01876,-0.21679 0.02442,-0.28316c0.11565,-1.19936 0.25307,-2.40441 0.43823,-3.59526c0.83186,-5.33676 2.37742,-11.03108 6.00745,-15.0473c3.6205,-4.00673 10.13472,-5.54121 15.01233,-2.77773c4.30351,2.43902 6.32433,8.17737 7.16119,12.83209c0.56268,3.1316 0.81331,6.42246 0.71081,9.62671c-3.0594,1.04065 -6.20405,1.90789 -9.37599,2.50464c-6.63258,1.24615 -13.5036,1.34628 -20.14939,0.26914z" data-paper-data="{&quot;noHover&quot;:false,&quot;origItem&quot;:[&quot;Path&quot;,{&quot;applyMatrix&quot;:true,&quot;segments&quot;:[[[654.7745,613.89956],[-13.374,1.82],[6.396,-0.872]],[[673.7125,609.87556],[-6.216,1.77],[0.528,-6.39]],[[673.2445,590.62556],[0.808,6.312],[-1.202,-9.382]],[[660.2785,564.36356],[8.35,5.306],[-9.464,-6.012]],[[630.1265,568.39556],[7.636,-7.638],[-7.656,7.656]],[[616.6445,597.73156],[2.2,-10.576],[-0.49,2.36]],[[615.3985,604.85156],[0.352,-2.384],[-0.018,0.132]],[[615.3205,605.41356],[0.018,-0.132],[-0.032,0.256]],[[615.2225,606.18556],[0.032,-0.258],[-0.052,0.414]],[[615.0745,607.42956],[0.046,-0.416],[-0.102,0.888]],[[614.8025,610.09556],[0.08,-0.89],[-0.07,0.778]],[[614.6145,612.43356],[0.056,-0.78],[13.166,2.822]]],&quot;closed&quot;:true,&quot;fillColor&quot;:[0,0,0,1]}]}" fill="#67d440"/><path d="M256.38084,265.82337c0.26352,-1.97881 0.70158,-3.99426 1.26917,-5.90032c0.47674,-1.60309 1.09238,-3.22742 2.06792,-4.68849c0.12749,-0.19168 0.19776,-0.28519 0.4425,-0.5739c0.13141,-0.15382 0.7139,-0.72067 0.57443,-0.60749c0.63595,-0.51273 0.97021,-0.6576 1.47768,-0.6612c0.48849,-0.00264 1.02448,0.13763 1.37133,0.30434c0.11493,0.05527 0.22615,0.12391 0.3357,0.19147c0.06035,0.04501 0.24214,0.16917 0.26198,0.18519c0.32603,0.2699 0.64038,0.5654 0.915,0.88796c0.78444,0.9206 1.69951,2.71907 2.23579,4.09878c1.41793,3.65012 2.21831,7.61398 2.7907,11.47302c0.22629,1.52653 0.40019,3.07217 0.55403,4.61137c-5.5637,-1.67749 -11.288,-4.29706 -14.29623,-9.32072z" data-paper-data="{&quot;noHover&quot;:false,&quot;origItem&quot;:[&quot;Path&quot;,{&quot;applyMatrix&quot;:true,&quot;segments&quot;:[[[598.82848,607.90756],[-10.944,-3.912],[-0.152,-3.09]],[[598.16848,598.65556],[0.298,3.072],[-0.754,-7.766]],[[593.75848,575.60356],[2.464,7.434],[-0.932,-2.81]],[[589.74648,567.21156],[1.474,1.918],[-0.516,-0.672]],[[588.01848,565.34756],[0.624,0.572],[-0.038,-0.034]],[[587.51648,564.95156],[0.116,0.096],[-0.212,-0.146]],[[586.86848,564.53556],[0.224,0.122],[-0.676,-0.368]],[[584.17248,563.78956],[0.976,0.044],[-1.014,-0.044]],[[581.16848,564.95956],[1.322,-0.96],[0.29,-0.212]],[[579.96648,566.11356],[0.278,-0.294],[-0.518,0.552]],[[579.03048,567.21356],[0.274,-0.37],[-2.096,2.82]],[[574.47048,576.34156],[1.114,-3.154],[-1.326,3.75]],[[571.36448,587.91756],[0.726,-3.926],[5.502,10.338]]],&quot;closed&quot;:true,&quot;fillColor&quot;:[0,0,0,1]}]}" fill="#67d440"/><path d="M320.1592,221.89421c1.68514,7.09703 2.73767,14.36183 3.39183,21.62408c0.10692,1.18512 0.19063,2.37512 0.27556,3.56135c-1.87381,-1.27711 -4.11542,-1.70614 -6.5545,-0.37741c-2.20519,1.20177 -3.5154,3.6186 -4.36,5.88809c-1.17359,3.15021 -1.80105,6.51246 -2.1477,9.89826c-1.07534,-4.89599 -3.08374,-9.8601 -7.14851,-12.90494c-5.37907,-4.02879 -13.47836,-3.7199 -18.75989,0.36772c-5.04158,3.90228 -7.50679,10.2116 -8.77254,16.27517c-0.68294,3.26961 -1.08428,6.58083 -1.16317,9.95511c-0.1307,-0.03045 -0.28357,0.04085 -0.41332,0.00935c-0.44878,-6.20927 -1.46563,-12.69457 -3.75773,-18.44727c-1.35198,-3.39512 -3.59425,-7.43928 -7.61739,-7.955c-4.3063,-0.55148 -6.86795,3.3201 -8.22366,6.84898c-0.21235,0.55342 -0.47654,1.18211 -0.66222,1.74819c-0.04723,-2.24347 0.37983,-4.47839 0.57845,-6.71126c0.43205,-4.86699 0.52601,-9.77593 0.13368,-14.64934c-0.5677,-7.03732 -2.07412,-14.11607 -4.86962,-20.61732c-1.05732,-2.45779 -2.29098,-4.91438 -3.79509,-7.15837c-12.10089,9.52357 37.84293,-14.5632 56.56951,-21.15704c11.86204,8.20609 14.09497,20.31598 17.2963,33.80166z" data-paper-data="{&quot;noHover&quot;:false,&quot;origItem&quot;:[&quot;Path&quot;,{&quot;applyMatrix&quot;:true,&quot;segments&quot;:[[[671.91,437.44826],[22.866,17.588],[-38.0707,11.28166]],[[556.90648,473.96756],[-25.13176,17.8021],[2.778,4.634]],[[563.77048,488.63956],[-1.864,-5.016],[4.928,13.268]],[[571.42848,530.25556],[-0.424,-14.114],[0.292,9.774]],[[569.67048,559.46356],[1.354,-9.678],[-0.622,4.44]],[[567.83048,572.79956],[0.132,-4.486],[0.428,-1.112]],[[569.17048,569.49556],[-0.48,1.084],[3.064,-6.912]],[[586.44848,556.52556],[-8.546,-1.536],[7.984,1.436]],[[600.83248,573.15756],[-2.358,-6.918],[3.998,11.722]],[[606.45248,610.37356],[-0.27,-12.448],[0.256,0.076]],[[607.22648,610.58956],[-0.258,-0.074],[0.498,-6.732]],[[610.60848,590.62956],[-1.694,6.462],[3.14,-11.984]],[[629.74648,559.00156],[-10.464,7.286],[10.962,-7.632]],[[667.18248,560.18956],[-10.338,-8.59],[7.812,6.492]],[[680.16848,586.67956],[-1.654,-9.888],[1.034,-6.728]],[[685.44048,567.14156],[-2.662,6.174],[1.916,-4.448]],[[694.73248,555.83756],[-4.526,2.178],[5.006,-2.408]],[[707.78448,557.25756],[-3.614,-2.74],[-0.05,-2.378]],[[707.59048,550.12356],[0.094,2.378],[-0.574,-14.572]],[[702.99448,506.64356],[2.65,14.346],[-5.034,-27.26]]],&quot;closed&quot;:true,&quot;fillColor&quot;:[0,0,0,1]}]}" fill="#67d440"/></g><path d="M286.84789,281.15141c0.36557,7.23807 -4.94606,13.38892 -11.86386,13.73831c-6.91778,0.3494 -12.82213,-5.23496 -13.1877,-12.47304c-0.36557,-7.23807 4.94606,-13.38892 11.86385,-13.73831c6.91778,-0.3494 12.82214,5.23496 13.18771,12.47304z" fill="#000000" stroke="#000000" stroke-linecap="butt"/><path d="M320.26167,279.69632c0.37204,7.36618 -4.88243,13.61824 -11.73615,13.9644c-6.85376,0.34616 -12.71143,-5.34471 -13.08347,-12.71084c-0.37204,-7.36618 4.88242,-13.61828 11.73619,-13.96444c6.85376,-0.34616 12.71139,5.3447 13.08344,12.71088z" fill="#000000" stroke="#000000" stroke-linecap="butt"/><path d="M305.41731,281.67096c-4.65325,-0.46992 3.45634,-9.49811 3.45634,-9.49811l7.83865,-0.66232c0,0 9.86851,9.28972 2.64245,9.45649c-5.44572,0.1257 -10.55416,1.0456 -13.93744,0.70394z" fill="#1fba00" stroke="#1fba00" stroke-linecap="round"/><path d="M265.28035,283.72815c-21.06331,1.12685 -12.03937,-45.70892 -12.03937,-45.70892l71.36212,-2.5617c0,0 10.77091,44.63495 -5.34531,45.54439c-42.45366,2.39558 -0.61591,-0.12846 -53.97744,2.72623z" fill="#ff0000" stroke="#000000" stroke-linecap="butt"/><path d="M301.93492,279.89949c0,0 4.88755,-5.0792 4.85225,-9.52941c-0.03531,-4.45021 -4.86168,-4.67077 -4.99952,-9.03183c-0.13784,-4.3611 -8.26256,-6.72245 -6.72517,-11.90773c1.53739,-5.18528 4.76469,-7.35208 4.76469,-7.35208c0,0 8.84146,6.01053 11.66098,11.85602c2.81952,5.84545 -2.52933,4.37877 -2.16343,8.01085c0.36596,3.63208 4.81992,4.48268 5.33393,7.82972c0.51401,3.34705 -2.68482,9.41994 -2.68482,9.41994z" data-paper-data="{&quot;index&quot;:null}" fill="#eac100" stroke="#000000" stroke-linecap="round"/><path d="M269.69028,281.44092c0,0 4.88755,-5.0792 4.85225,-9.52942c-0.03531,-4.45021 -4.86168,-4.67072 -4.99952,-9.03183c-0.13784,-4.3611 -8.26256,-6.72245 -6.72517,-11.90777c1.53739,-5.18528 4.76469,-7.35208 4.76469,-7.35208c0,0 8.84146,6.01058 11.66098,11.85602c2.81952,5.84545 -2.52934,4.37877 -2.16338,8.01084c0.36596,3.63208 4.81992,4.48263 5.33388,7.82968c0.51401,3.34705 -2.68482,9.41994 -2.68482,9.41994z" data-paper-data="{&quot;index&quot;:null}" fill="#eac100" stroke="#eac100" stroke-linecap="round"/></g><g><g data-paper-data="{&quot;index&quot;:null}" stroke="none" stroke-linecap="butt"><path d="M153.81964,185.87716c-0.13329,0.24644 64.41561,18.17727 64.28952,18.42619c-0.82904,1.6392 -1.52463,3.3478 -2.11885,5.08505c-0.02031,0.06466 -0.16057,0.48909 -0.19328,0.58976c-0.0945,0.29673 -0.18693,0.59431 -0.27622,0.89366c-0.21333,0.71256 -0.41033,1.42893 -0.59393,2.15034c-0.38345,1.50818 -0.70145,3.0336 -0.96166,4.56781c-0.63744,3.76788 -0.90965,7.5801 -0.86336,11.40099c0.05829,4.82973 0.59505,9.64834 1.51112,14.38893c0.51663,2.67632 1.3772,5.29828 1.78977,7.99128c0.35162,2.30041 0.25448,4.71604 -0.25341,6.98639c-1.00613,4.49487 -3.59876,8.52282 -7.26433,11.30909c-2.72545,2.07142 -5.89105,3.70693 -8.98846,5.1379c-7.66894,3.54185 -16.13271,5.34229 -24.57247,5.39627c-5.36092,0.03418 -10.72526,-0.57814 -15.95496,-1.74582c-4.89019,-1.09137 -9.81078,-2.37804 -13.60703,-5.82897c-3.40951,-3.10035 -5.60801,-7.32251 -6.2558,-11.87827c-0.42581,-2.99584 -0.57889,-6.05987 -0.75874,-9.07881c-0.44206,-7.44463 -0.4606,-14.91137 0.05007,-22.35384c1.03872,-15.15295 4.3245,-31.95611 14.83297,-43.58694c0.04869,-0.05389 7.51574,1.15899 0.18904,0.14899zM211.57458,260.34233c-0.50596,-1.9311 -1.17452,-3.83721 -1.97322,-5.65855c-0.67113,-1.53191 -1.45995,-3.05518 -2.60851,-4.38454c-0.1502,-0.17446 -0.22853,-0.25794 -0.50707,-0.5142c-0.1494,-0.13641 -0.79407,-0.62646 -0.64169,-0.53138c-0.69442,-0.43024 -1.03683,-0.53241 -1.54085,-0.47329c-0.48507,0.05772 -0.99342,0.26255 -1.31702,0.47084c-0.10723,0.06905 -0.20751,0.15062 -0.30788,0.2312c-0.05432,0.05212 -0.2181,0.19752 -0.23581,0.21587c-0.29019,0.30811 -0.56067,0.63883 -0.79334,0.99284c-0.6647,1.01046 -1.33121,2.89641 -1.69293,4.33179c-0.95614,3.79733 -1.26267,7.75646 -1.35393,11.65665c-0.03597,1.54279 -0.02741,3.09133 0.01008,4.63774c5.31385,-2.35196 10.59758,-5.61818 12.96216,-10.97498zM190.90658,274.15296c-0.05652,-0.3869 -0.11603,-0.77357 -0.17946,-1.15896c-0.07252,-0.44087 -0.14996,-0.88037 -0.23337,-1.31944c-0.03819,-0.20575 -0.0783,-0.41036 -0.11941,-0.6149c-0.02542,-0.12748 -0.05183,-0.25489 -0.07717,-0.38137c-0.01382,-0.06516 -0.04568,-0.21222 -0.0595,-0.27738c-0.26293,-1.17589 -0.55149,-2.34588 -0.88236,-3.50474c-1.48478,-5.19311 -3.69999,-10.59723 -7.79837,-14.13424c-4.08775,-3.52877 -10.68439,-4.25002 -15.18324,-0.90514c-3.96923,2.95199 -5.24731,8.84857 -5.50273,13.57101c-0.1715,3.17713 -0.02519,6.44921 0.47237,9.61625c3.16453,0.65473 6.36968,1.11194 9.59104,1.31228c6.73572,0.41723 13.51038,-0.31348 19.9722,-2.20337zM154.74802,273.38618c0.14044,0.04181 0.28252,0.0785 0.42396,0.12024c-0.2876,-2.38433 -0.68391,-4.76067 -1.16508,-7.1047c-0.52751,-2.56523 -1.19796,-5.13799 -2.11299,-7.60053c-0.41384,-1.11466 -0.88143,-2.23739 -1.42648,-3.20002c-0.54398,-0.9617 -1.14957,-1.84768 -1.7844,-2.43572c-0.19481,-0.1812 -0.39701,-0.35384 -0.61208,-0.51049c-0.01163,-0.00817 -0.03375,-0.02259 -0.05586,-0.037c-0.10907,-0.06518 -0.22084,-0.12615 -0.33439,-0.18398c-0.44285,-0.22714 -0.10686,-0.13052 -0.56758,-0.21897c-0.39864,-0.07597 -0.74462,-0.14479 -1.15311,-0.0546c-1.60646,0.35274 -2.53447,2.29602 -3.14909,3.78309c0.28585,3.49244 0.54062,6.94405 2.35498,10.04637c2.14477,3.66861 5.52608,6.19448 9.58212,7.39631zM142.95708,224.64053c-0.79548,7.25085 -0.94576,14.56255 -0.69775,21.84998c0.04031,1.18925 0.10256,2.37688 0.16481,3.56451c1.70168,-1.49881 3.87183,-2.20383 6.45637,-1.1866c2.33676,0.92014 3.92943,3.14835 5.04792,5.29612c1.55377,2.9811 2.58294,6.23239 3.3452,9.54942c0.46226,-4.99133 1.84687,-10.16177 5.50435,-13.68544c4.84016,-4.66245 12.87801,-5.36872 18.62406,-1.96488c5.48504,3.24956 8.69765,9.20904 10.70278,15.0698c1.08163,3.1602 1.92308,6.49046 2.41822,9.82915c0.12594,-0.04636 0.25317,-0.0888 0.37804,-0.13609c-0.32173,-6.21714 -0.12584,-12.77215 1.43803,-18.76395c0.9222,-3.53614 2.63427,-7.81218 6.56288,-8.82096c4.20519,-1.07925 7.30997,2.49973 9.09125,5.8341c0.2791,0.52294 0.53514,1.05961 0.78933,1.59843c-0.23029,-2.23212 -0.93351,-4.39137 -1.40645,-6.58259c-1.02999,-4.77633 -1.73473,-9.61569 -1.94745,-14.50024c-0.30602,-7.05355 0.32203,-14.23593 2.29297,-21.03275c0.7456,-2.56959 1.66949,-5.15529 2.88486,-7.5679c13.18471,7.95571 -39.28813,-9.76435 -58.68584,-13.99425c-10.75741,9.60864 -11.45275,21.86627 -12.96357,35.64414z" data-paper-data="{&quot;index&quot;:null}" fill="#152345" stroke-width="1"/><path d="M154.77256,273.42972c-4.05604,-1.20183 -7.50052,-3.73948 -9.64529,-7.40809c-1.81436,-3.10232 -2.0632,-6.62354 -2.34905,-10.11598c0.61462,-1.48707 1.56232,-3.44079 3.16878,-3.79353c0.40849,-0.09019 0.75942,-0.02244 1.15806,0.05353c0.46073,0.08846 0.12719,-0.00851 0.57004,0.21863c0.11355,0.05783 0.22682,0.11866 0.33589,0.18384c0.02212,0.01442 0.04449,0.02882 0.05612,0.03698c0.21507,0.15666 0.42018,0.32916 0.61499,0.51036c0.63483,0.58804 1.25201,1.47516 1.79599,2.43686c0.54505,0.96263 1.03147,2.09386 1.44531,3.20851c0.91504,2.46253 1.59749,5.10351 2.125,7.66874c0.48117,2.34403 0.86161,4.73543 1.14921,7.11976c-0.14144,-0.04174 -0.2846,-0.07779 -0.42504,-0.11961z" data-paper-data="{&quot;noHover&quot;:false,&quot;origItem&quot;:[&quot;Path&quot;,{&quot;applyMatrix&quot;:true,&quot;segments&quot;:[[[704.65248,589.44356],[-3.74,7.632],[3.164,-6.454]],[[707.87648,569.05956],[-0.058,7.008],[-1.444,-2.876]],[[701.04048,561.97556],[3.256,0.468],[-0.828,-0.12]],[[698.74848,562.25356],[0.784,-0.21],[-0.906,0.244]],[[697.64848,562.77356],[0.85,-0.518],[-0.218,0.132]],[[697.00848,563.18956],[0.208,-0.146],[-0.042,0.032]],[[696.90248,563.27156],[0.022,-0.018],[-0.406,0.344]],[[695.75648,564.37956],[0.362,-0.39],[-1.18,1.266]],[[692.55448,569.49956],[0.944,-1.998],[-0.946,2]],[[690.17848,576.09156],[0.662,-2.284],[-1.464,5.046]],[[687.07848,591.56156],[0.676,-5.194],[-0.616,4.746]],[[685.79648,605.90356],[0.224,-4.798],[0.276,-0.104]],[[686.62448,605.60156],[-0.274,0.104],[7.914,-2.992]]],&quot;closed&quot;:true,&quot;fillColor&quot;:[0,0,0,1]}]}" fill="#67d440" stroke-width="0.5"/><path d="M170.91911,276.40395c-3.22136,-0.20033 -6.44906,-0.67244 -9.61358,-1.32717c-0.49756,-3.16704 -0.65539,-6.46365 -0.48389,-9.64078c0.25542,-4.72244 1.55186,-10.66648 5.52109,-13.61847c4.49885,-3.34488 11.15274,-2.6269 15.24048,0.90187c4.09838,3.53701 6.33556,8.99678 7.82034,14.18989c0.33086,1.15886 0.6161,2.3377 0.87903,3.51358c0.01382,0.06516 0.0454,0.21281 0.05921,0.27798c0.02534,0.12647 0.05134,0.25467 0.07676,0.38215c0.04111,0.20454 0.08056,0.41037 0.11875,0.61612c0.08342,0.43907 0.15941,0.88097 0.23193,1.32184c0.06343,0.38539 0.12167,0.77396 0.17819,1.16086c-6.46182,1.88989 -13.29257,2.63936 -20.0283,2.22212z" data-paper-data="{&quot;noHover&quot;:false,&quot;origItem&quot;:[&quot;Path&quot;,{&quot;applyMatrix&quot;:true,&quot;segments&quot;:[[[654.7745,613.89956],[-13.374,1.82],[6.396,-0.872]],[[673.7125,609.87556],[-6.216,1.77],[0.528,-6.39]],[[673.2445,590.62556],[0.808,6.312],[-1.202,-9.382]],[[660.2785,564.36356],[8.35,5.306],[-9.464,-6.012]],[[630.1265,568.39556],[7.636,-7.638],[-7.656,7.656]],[[616.6445,597.73156],[2.2,-10.576],[-0.49,2.36]],[[615.3985,604.85156],[0.352,-2.384],[-0.018,0.132]],[[615.3205,605.41356],[0.018,-0.132],[-0.032,0.256]],[[615.2225,606.18556],[0.032,-0.258],[-0.052,0.414]],[[615.0745,607.42956],[0.046,-0.416],[-0.102,0.888]],[[614.8025,610.09556],[0.08,-0.89],[-0.07,0.778]],[[614.6145,612.43356],[0.056,-0.78],[13.166,2.822]]],&quot;closed&quot;:true,&quot;fillColor&quot;:[0,0,0,1]}]}" fill="#67d440" stroke-width="0.5"/><path d="M211.62445,260.34616c-2.36458,5.3568 -7.72142,8.66347 -13.03526,11.01544c-0.03749,-1.54641 -0.05587,-3.1017 -0.0199,-4.64449c0.09127,-3.90019 0.39584,-7.93256 1.35198,-11.72989c0.36173,-1.43539 1.04761,-3.33313 1.71231,-4.34359c0.23267,-0.35401 0.5081,-0.68608 0.79829,-0.99419c0.0177,-0.01835 0.18277,-0.16401 0.23709,-0.21614c0.10036,-0.08058 0.20224,-0.16243 0.30947,-0.23147c0.3236,-0.20829 0.83815,-0.4137 1.32323,-0.47142c0.50402,-0.05912 0.85363,0.04335 1.54804,0.47359c-0.15238,-0.09508 0.49567,0.39546 0.64508,0.53187c0.27854,0.25627 0.35982,0.34038 0.51001,0.51484c1.14857,1.32936 1.96015,2.8652 2.63129,4.39711c0.79871,1.82134 1.4824,3.76724 1.98836,5.69834z" data-paper-data="{&quot;noHover&quot;:false,&quot;origItem&quot;:[&quot;Path&quot;,{&quot;applyMatrix&quot;:true,&quot;segments&quot;:[[[598.82848,607.90756],[-10.944,-3.912],[-0.152,-3.09]],[[598.16848,598.65556],[0.298,3.072],[-0.754,-7.766]],[[593.75848,575.60356],[2.464,7.434],[-0.932,-2.81]],[[589.74648,567.21156],[1.474,1.918],[-0.516,-0.672]],[[588.01848,565.34756],[0.624,0.572],[-0.038,-0.034]],[[587.51648,564.95156],[0.116,0.096],[-0.212,-0.146]],[[586.86848,564.53556],[0.224,0.122],[-0.676,-0.368]],[[584.17248,563.78956],[0.976,0.044],[-1.014,-0.044]],[[581.16848,564.95956],[1.322,-0.96],[0.29,-0.212]],[[579.96648,566.11356],[0.278,-0.294],[-0.518,0.552]],[[579.03048,567.21356],[0.274,-0.37],[-2.096,2.82]],[[574.47048,576.34156],[1.114,-3.154],[-1.326,3.75]],[[571.36448,587.91756],[0.726,-3.926],[5.502,10.338]]],&quot;closed&quot;:true,&quot;fillColor&quot;:[0,0,0,1]}]}" fill="#67d440" stroke-width="0.5"/><path d="M142.90772,224.63249c1.51082,-13.77787 2.23063,-26.07084 12.98805,-35.67948c19.39772,4.2299 71.93458,21.96224 58.74987,14.00653c-1.21537,2.41261 -2.1361,5.00278 -2.88169,7.57237c-1.97094,6.7968 -2.59133,14.00742 -2.28531,21.06097c0.21273,4.88455 0.9124,9.74428 1.9424,14.52061c0.47294,2.19123 1.17283,4.35627 1.40311,6.58839c-0.25419,-0.5388 -0.59402,-1.13005 -0.87311,-1.65299c-1.78127,-3.33437 -4.80158,-6.85983 -9.00677,-5.78059c-3.92861,1.00878 -5.6541,5.29895 -6.5763,8.83509c-1.56387,5.9918 -1.77175,12.55304 -1.45002,18.77019c-0.12487,0.04728 -0.28537,-0.00458 -0.41131,0.04178c-0.49514,-3.33868 -1.30246,-6.57496 -2.38409,-9.73515c-2.00513,-5.86075 -5.23089,-11.8172 -10.71593,-15.06676c-5.74605,-3.40384 -13.82146,-2.7098 -18.66162,1.95265c-3.65748,3.52367 -5.03725,8.69786 -5.49951,13.68919c-0.76227,-3.31704 -1.80028,-6.57602 -3.35405,-9.55711c-1.11849,-2.14776 -2.71724,-4.38422 -5.054,-5.30436c-2.58454,-1.01723 -4.75599,-0.31456 -6.45767,1.18425c-0.06226,-1.18764 -0.1262,-2.37887 -0.16651,-3.56812c-0.24801,-7.28743 -0.10101,-14.62661 0.69447,-21.87745z" data-paper-data="{&quot;noHover&quot;:false,&quot;origItem&quot;:[&quot;Path&quot;,{&quot;applyMatrix&quot;:true,&quot;segments&quot;:[[[671.91,437.44826],[22.866,17.588],[-38.0707,11.28166]],[[556.90648,473.96756],[-25.13176,17.8021],[2.778,4.634]],[[563.77048,488.63956],[-1.864,-5.016],[4.928,13.268]],[[571.42848,530.25556],[-0.424,-14.114],[0.292,9.774]],[[569.67048,559.46356],[1.354,-9.678],[-0.622,4.44]],[[567.83048,572.79956],[0.132,-4.486],[0.428,-1.112]],[[569.17048,569.49556],[-0.48,1.084],[3.064,-6.912]],[[586.44848,556.52556],[-8.546,-1.536],[7.984,1.436]],[[600.83248,573.15756],[-2.358,-6.918],[3.998,11.722]],[[606.45248,610.37356],[-0.27,-12.448],[0.256,0.076]],[[607.22648,610.58956],[-0.258,-0.074],[0.498,-6.732]],[[610.60848,590.62956],[-1.694,6.462],[3.14,-11.984]],[[629.74648,559.00156],[-10.464,7.286],[10.962,-7.632]],[[667.18248,560.18956],[-10.338,-8.59],[7.812,6.492]],[[680.16848,586.67956],[-1.654,-9.888],[1.034,-6.728]],[[685.44048,567.14156],[-2.662,6.174],[1.916,-4.448]],[[694.73248,555.83756],[-4.526,2.178],[5.006,-2.408]],[[707.78448,557.25756],[-3.614,-2.74],[-0.05,-2.378]],[[707.59048,550.12356],[0.094,2.378],[-0.574,-14.572]],[[702.99448,506.64356],[2.65,14.346],[-5.034,-27.26]]],&quot;closed&quot;:true,&quot;fillColor&quot;:[0,0,0,1]}]}" fill="#67d440" stroke-width="0.5"/></g><path d="M194.83015,265.31393c6.90795,-0.50788 12.93876,4.93966 13.47016,12.16745c0.5314,7.22779 -4.63784,13.49878 -11.5458,14.00667c-6.90795,0.50788 -12.93877,-4.93966 -13.47017,-12.16745c-0.5314,-7.22779 4.63784,-13.49878 11.54581,-14.00667z" data-paper-data="{&quot;index&quot;:null}" fill="#000000" stroke="#000000" stroke-width="0.5" stroke-linecap="butt"/><path d="M161.35969,267.77469c6.84403,-0.50318 12.83061,5.0519 13.37142,12.40762c0.5408,7.35567 -4.56896,13.72658 -11.41299,14.22977c-6.84398,0.50318 -12.83057,-5.05186 -13.37137,-12.40758c-0.5408,-7.35572 4.56892,-13.72662 11.41295,-14.2298z" data-paper-data="{&quot;index&quot;:null}" fill="#000000" stroke="#000000" stroke-width="0.5" stroke-linecap="butt"/><path d="M151.00372,283.15342c-7.19131,0.7272 1.45397,-9.71049 1.45397,-9.71049l7.86044,-0.31112c0,0 9.16279,7.9572 4.60324,8.99837c-3.31516,0.75701 -8.49811,0.47523 -13.91764,1.02325z" data-paper-data="{&quot;index&quot;:null}" fill="#1fba00" stroke="#1fba00" stroke-width="0.5" stroke-linecap="round"/><path d="M151.10424,283.17607c-16.10511,1.08848 -10.93079,-44.53517 -10.93079,-44.53517l71.13194,-6.2738c0,0 14.74079,45.36222 -6.30039,46.8461c-53.30543,3.75932 -11.47636,1.0955 -53.90076,3.96288z" data-paper-data="{&quot;index&quot;:null}" fill="#ff0000" stroke="#000000" stroke-width="3.5" stroke-linecap="butt"/><path d="M158.10917,280.48313c0,0 -3.92456,-5.6312 -3.82797,-9.01611c0.09659,-3.38491 4.41134,-4.77922 4.32581,-8.42868c-0.08559,-3.64947 -5.21228,-1.53323 -3.13649,-7.68222c2.07579,-6.14904 10.10701,-13.20577 10.10701,-13.20577c0,0 3.47026,1.75151 5.63645,6.70715c2.16619,4.95564 -5.60458,8.3026 -5.2026,12.64733c0.40197,4.34468 -4.36019,5.15979 -3.84546,9.58027c0.51473,4.42049 5.99232,8.85698 5.99232,8.85698z" data-paper-data="{&quot;index&quot;:null}" fill="#eac100" stroke="#000000" stroke-width="0" stroke-linecap="round"/><path d="M190.29723,278.02924c0,0 -3.92455,-5.63119 -3.82797,-9.01611c0.09654,-3.38491 4.41131,-4.77917 4.32576,-8.42864c-0.08554,-3.64947 -5.21224,-1.53324 -3.13644,-7.68222c2.07579,-6.14899 10.107,-13.20577 10.107,-13.20577c0,0 3.47026,1.75151 5.63645,6.70715c2.16619,4.95568 -5.60457,8.30265 -5.2026,12.64737c0.40197,4.34472 -4.36019,5.15979 -3.84546,9.58027c0.51473,4.42049 5.99232,8.85699 5.99232,8.85699z" data-paper-data="{&quot;index&quot;:null}" fill="#eac100" stroke="#eac100" stroke-width="0" stroke-linecap="round"/></g><g><g data-paper-data="{&quot;index&quot;:null}" stroke="none" stroke-linecap="butt"><path d="M143.97595,194.86931c-0.20119,0.19499 55.97496,36.69589 55.77988,36.89541c-1.28335,1.31427 -2.46027,2.73484 -3.54912,4.2132c-0.03881,0.05557 -0.30013,0.41823 -0.36159,0.50441c-0.17931,0.25461 -0.35689,0.51066 -0.53202,0.76933c-0.41761,0.61551 -0.8208,1.23956 -1.21272,1.87244c-0.81897,1.32321 -1.58071,2.68256 -2.28997,4.06764c-1.74034,3.40213 -3.14566,6.95631 -4.24981,10.61448c-1.39589,4.62397 -2.33208,9.38115 -2.88307,14.1779c-0.31157,2.70786 -0.27877,5.46724 -0.6946,8.15974c-0.35598,2.29974 -1.1746,4.5745 -2.34133,6.58726c-2.31046,3.98471 -5.99377,7.04728 -10.32725,8.60313c-3.22198,1.15657 -6.73277,1.76512 -10.11704,2.19906c-8.37886,1.07336 -16.99245,0.24694 -25.05828,-2.23799c-5.12337,-1.57854 -10.0557,-3.7747 -14.69272,-6.46008c-4.33613,-2.51058 -8.64257,-5.21656 -11.22621,-9.64885c-2.32014,-3.98169 -3.14812,-8.66938 -2.39681,-13.20923c0.49422,-2.98531 1.26905,-5.95371 2.00481,-8.88714c1.81572,-7.23333 4.04203,-14.36046 6.76579,-21.30542c5.54465,-14.14029 13.7284,-29.17919 27.24652,-37.11422c0.06264,-0.03676 6.82,3.36413 0.13553,0.19891zM176.68183,283.24927c0.09779,-1.99389 0.03298,-4.0128 -0.18143,-5.98998c-0.17972,-1.66279 -0.47428,-3.3527 -1.17023,-4.96579c-0.09083,-0.21153 -0.14045,-0.3147 -0.3291,-0.64283c-0.1015,-0.175 -0.56909,-0.83615 -0.45233,-0.69966c-0.53301,-0.61904 -0.82889,-0.8194 -1.32739,-0.91448c-0.47999,-0.09072 -1.0264,-0.04815 -1.39763,0.05327c-0.12302,0.03363 -0.24319,0.08129 -0.36313,0.12799c-0.06747,0.03339 -0.26739,0.12285 -0.28978,0.13502c-0.36937,0.20665 -0.72674,0.4408 -1.05505,0.70853c-0.93765,0.76398 -2.14013,2.36244 -2.91651,3.62276c-2.05316,3.33444 -3.53536,7.01843 -4.79454,10.71088c-0.49797,1.46065 -0.95519,2.94019 -1.38417,4.42638c5.77503,-0.64626 11.79612,-2.17356 15.66127,-6.57209zM152.81875,290.21007c0.06237,-0.386 0.12182,-0.77268 0.17714,-1.15932c0.06333,-0.44228 0.12155,-0.88474 0.17394,-1.32858c0.02541,-0.20772 0.04865,-0.41492 0.07091,-0.62236c0.01407,-0.12923 0.02717,-0.25868 0.04101,-0.38693c0.00641,-0.0663 0.02021,-0.21614 0.02661,-0.28244c0.10262,-1.20055 0.17901,-2.40318 0.21172,-3.6079c0.14456,-5.39926 -0.34415,-11.2193 -3.19008,-15.8245c-2.83827,-4.59413 -8.9132,-7.26454 -14.20932,-5.42635c-4.6729,1.62265 -7.66401,6.86254 -9.32687,11.28991c-1.1184,2.97871 -1.96221,6.14351 -2.43945,9.31367c2.82147,1.5755 5.74104,2.97483 8.75328,4.13403c6.29895,2.42225 12.98003,3.76131 19.71111,3.90077zM118.56218,278.61195c0.12139,0.08209 0.24586,0.15977 0.36822,0.24209c0.44226,-2.36054 0.77844,-4.74613 1.02396,-7.12641c0.26781,-2.60518 0.40155,-5.2605 0.26889,-7.88419c-0.05973,-1.1875 -0.16828,-2.39886 -0.39883,-3.48079c-0.22981,-1.08073 -0.54115,-2.10775 -0.9699,-2.85939c-0.13134,-0.23138 -0.27232,-0.4568 -0.43037,-0.67085c-0.00864,-0.01129 -0.0254,-0.03168 -0.04216,-0.05208c-0.08444,-0.09494 -0.17273,-0.18669 -0.26364,-0.27596c-0.35412,-0.34973 -0.06269,-0.1566 -0.47553,-0.37943c-0.35739,-0.19227 -0.66669,-0.36188 -1.08339,-0.39862c-1.63821,-0.14636 -3.10733,1.42819 -4.14044,2.6618c-0.77696,3.4169 -1.57128,6.78552 -0.77314,10.28968c0.94309,4.14359 3.40898,7.56888 6.91633,9.93413zM121.96591,228.57618c-2.93781,6.67659 -5.27855,13.60512 -7.23211,20.63019c-0.31896,1.14639 -0.61651,2.29782 -0.91406,3.44926c2.07346,-0.91811 4.35516,-0.93834 6.51452,0.8086c1.9522,1.57987 2.80159,4.18373 3.22291,6.56835c0.58602,3.31025 0.5905,6.72053 0.32066,10.11331c1.94095,-4.62166 4.81543,-9.13697 9.3628,-11.39856c6.01762,-2.9923 13.89615,-1.25028 18.35361,3.72307c4.25488,4.74777 5.52797,11.39724 5.67906,17.58967c0.08189,3.33918 -0.11641,6.76837 -0.64754,10.10151c0.13405,-0.00637 0.26815,-0.00861 0.40146,-0.01619c1.56159,-6.02643 3.71842,-12.21954 7.01071,-17.46435c1.94229,-3.09552 4.8603,-6.65935 8.91047,-6.44083c4.33513,0.23444 6.2208,4.58105 6.91765,8.2966c0.10903,0.58264 0.19195,1.17146 0.27246,1.76176c0.45118,-2.19815 0.42939,-4.46892 0.63685,-6.70098c0.45306,-4.86508 1.23529,-9.69251 2.50035,-14.41519c1.82795,-6.81944 4.58549,-13.48105 8.50798,-19.37133c1.48337,-2.22672 3.14164,-4.41523 5.02589,-6.35106c10.18426,11.55035 -34.53741,-21.12028 -51.76719,-30.98427c-13.14782,5.93151 -17.49481,17.41352 -23.07647,30.10041z" data-paper-data="{&quot;index&quot;:null}" fill="#152345" stroke-width="1"/><path d="M118.5725,278.66086c-3.50735,-2.36524 -6.02996,-5.82075 -6.97304,-9.96434c-0.79814,-3.50418 0.02276,-6.9374 0.79971,-10.3543c1.03311,-1.23361 2.52416,-2.8122 4.16237,-2.66584c0.41671,0.03673 0.73106,0.20682 1.08844,0.39909c0.41284,0.22283 0.12387,0.03011 0.47798,0.37984c0.09092,0.08928 0.18068,0.18134 0.26512,0.27628c0.01676,0.0204 0.03378,0.04085 0.04241,0.05214c0.15804,0.21406 0.30183,0.44022 0.43318,0.67159c0.42875,0.75164 0.7508,1.78324 0.98061,2.86397c0.23056,1.08193 0.35451,2.30705 0.41424,3.49455c0.13267,2.62369 -0.01012,5.34768 -0.27793,7.95286c-0.24553,2.38028 -0.60136,4.77546 -1.04363,7.136c-0.12236,-0.08232 -0.24807,-0.15973 -0.36945,-0.24182z" data-paper-data="{&quot;noHover&quot;:false,&quot;origItem&quot;:[&quot;Path&quot;,{&quot;applyMatrix&quot;:true,&quot;segments&quot;:[[[704.65248,589.44356],[-3.74,7.632],[3.164,-6.454]],[[707.87648,569.05956],[-0.058,7.008],[-1.444,-2.876]],[[701.04048,561.97556],[3.256,0.468],[-0.828,-0.12]],[[698.74848,562.25356],[0.784,-0.21],[-0.906,0.244]],[[697.64848,562.77356],[0.85,-0.518],[-0.218,0.132]],[[697.00848,563.18956],[0.208,-0.146],[-0.042,0.032]],[[696.90248,563.27156],[0.022,-0.018],[-0.406,0.344]],[[695.75648,564.37956],[0.362,-0.39],[-1.18,1.266]],[[692.55448,569.49956],[0.944,-1.998],[-0.946,2]],[[690.17848,576.09156],[0.662,-2.284],[-1.464,5.046]],[[687.07848,591.56156],[0.676,-5.194],[-0.616,4.746]],[[685.79648,605.90356],[0.224,-4.798],[0.276,-0.104]],[[686.62448,605.60156],[-0.274,0.104],[7.914,-2.992]]],&quot;closed&quot;:true,&quot;fillColor&quot;:[0,0,0,1]}]}" fill="#67d440" stroke-width="0.5"/><path d="M133.07876,286.35014c-3.01224,-1.15918 -5.94883,-2.5795 -8.7703,-4.155c0.47724,-3.17017 1.31744,-6.36182 2.43584,-9.34053c1.66285,-4.42737 4.68574,-9.70701 9.35864,-11.32965c5.29612,-1.8382 11.42664,0.84628 14.26491,5.44043c2.84594,4.6052 3.33887,10.48492 3.19431,15.88417c-0.03271,1.20472 -0.11494,2.41479 -0.21755,3.61534c-0.00641,0.0663 -0.02066,0.21662 -0.02706,0.28293c-0.01384,0.12825 -0.02757,0.25833 -0.04164,0.38756c-0.02226,0.20743 -0.04649,0.41561 -0.07191,0.62333c-0.05239,0.44384 -0.11272,0.88816 -0.17605,1.33044c-0.05532,0.38664 -0.11655,0.77475 -0.17892,1.16075c-6.73108,-0.13945 -13.4713,-1.4775 -19.77025,-3.89974z" data-paper-data="{&quot;noHover&quot;:false,&quot;origItem&quot;:[&quot;Path&quot;,{&quot;applyMatrix&quot;:true,&quot;segments&quot;:[[[654.7745,613.89956],[-13.374,1.82],[6.396,-0.872]],[[673.7125,609.87556],[-6.216,1.77],[0.528,-6.39]],[[673.2445,590.62556],[0.808,6.312],[-1.202,-9.382]],[[660.2785,564.36356],[8.35,5.306],[-9.464,-6.012]],[[630.1265,568.39556],[7.636,-7.638],[-7.656,7.656]],[[616.6445,597.73156],[2.2,-10.576],[-0.49,2.36]],[[615.3985,604.85156],[0.352,-2.384],[-0.018,0.132]],[[615.3205,605.41356],[0.018,-0.132],[-0.032,0.256]],[[615.2225,606.18556],[0.032,-0.258],[-0.052,0.414]],[[615.0745,607.42956],[0.046,-0.416],[-0.102,0.888]],[[614.8025,610.09556],[0.08,-0.89],[-0.07,0.778]],[[614.6145,612.43356],[0.056,-0.78],[13.166,2.822]]],&quot;closed&quot;:true,&quot;fillColor&quot;:[0,0,0,1]}]}" fill="#67d440" stroke-width="0.5"/><path d="M176.72825,283.26791c-3.86516,4.39853 -9.96812,5.94245 -15.74315,6.58871c0.42899,-1.48619 0.87887,-2.97511 1.37684,-4.43577c1.25918,-3.69247 2.76152,-7.44689 4.81468,-10.78133c0.77639,-1.26032 2.00089,-2.8642 2.93854,-3.62819c0.32831,-0.26773 0.6908,-0.50166 1.06017,-0.70832c0.0224,-0.01218 0.2236,-0.1015 0.29109,-0.13489c0.11994,-0.04669 0.24171,-0.09414 0.36472,-0.12776c0.37124,-0.1014 0.92374,-0.14268 1.40373,-0.05196c0.49849,0.09509 0.80113,0.29788 1.33415,0.91693c-0.11676,-0.13648 0.35391,0.52614 0.45541,0.70115c0.18865,0.32813 0.24088,0.43278 0.33171,0.64432c0.69595,1.61308 1.00846,3.32183 1.18818,4.98462c0.21442,1.97718 0.2817,4.03859 0.18391,6.03247z" data-paper-data="{&quot;noHover&quot;:false,&quot;origItem&quot;:[&quot;Path&quot;,{&quot;applyMatrix&quot;:true,&quot;segments&quot;:[[[598.82848,607.90756],[-10.944,-3.912],[-0.152,-3.09]],[[598.16848,598.65556],[0.298,3.072],[-0.754,-7.766]],[[593.75848,575.60356],[2.464,7.434],[-0.932,-2.81]],[[589.74648,567.21156],[1.474,1.918],[-0.516,-0.672]],[[588.01848,565.34756],[0.624,0.572],[-0.038,-0.034]],[[587.51648,564.95156],[0.116,0.096],[-0.212,-0.146]],[[586.86848,564.53556],[0.224,0.122],[-0.676,-0.368]],[[584.17248,563.78956],[0.976,0.044],[-1.014,-0.044]],[[581.16848,564.95956],[1.322,-0.96],[0.29,-0.212]],[[579.96648,566.11356],[0.278,-0.294],[-0.518,0.552]],[[579.03048,567.21356],[0.274,-0.37],[-2.096,2.82]],[[574.47048,576.34156],[1.114,-3.154],[-1.326,3.75]],[[571.36448,587.91756],[0.726,-3.926],[5.502,10.338]]],&quot;closed&quot;:true,&quot;fillColor&quot;:[0,0,0,1]}]}" fill="#67d440" stroke-width="0.5"/><path d="M121.92126,228.55367c5.58166,-12.68689 9.96263,-24.19526 23.11044,-30.12676c17.22978,9.86399 62.00883,42.56558 51.82456,31.01522c-1.88425,1.93582 -3.54085,4.12955 -5.02422,6.35627c-3.92247,5.89027 -6.6812,12.58111 -8.50915,19.40055c-1.26507,4.72267 -2.05824,9.56803 -2.5113,14.43311c-0.20745,2.23207 -0.19059,4.50736 -0.64178,6.70551c-0.08051,-0.59029 -0.22694,-1.25633 -0.33598,-1.83897c-0.69685,-3.71555 -2.51802,-7.98575 -6.85315,-8.22018c-4.05017,-0.21852 -6.98523,3.35476 -8.92751,6.45027c-3.2923,5.24482 -5.46243,11.44027 -7.02402,17.4667c-0.1333,0.00757 -0.27081,-0.09013 -0.40485,-0.08376c0.53114,-3.33315 0.73373,-6.66244 0.65185,-10.00161c-0.15109,-6.19242 -1.43764,-12.84297 -5.69252,-17.59073c-4.45745,-4.97336 -12.36814,-6.73832 -18.38576,-3.74602c-4.54737,2.26158 -7.41837,6.78193 -9.35931,11.40359c0.26984,-3.39278 0.25924,-6.81306 -0.32678,-10.12331c-0.42132,-2.38461 -1.27403,-4.99816 -3.22624,-6.57803c-2.15936,-1.74694 -4.4416,-1.72934 -6.51505,-0.81123c0.29754,-1.15146 0.59456,-2.30683 0.91353,-3.4532c1.95356,-7.02508 4.29942,-13.9808 7.23723,-20.65739z" data-paper-data="{&quot;noHover&quot;:false,&quot;origItem&quot;:[&quot;Path&quot;,{&quot;applyMatrix&quot;:true,&quot;segments&quot;:[[[671.91,437.44826],[22.866,17.588],[-38.0707,11.28166]],[[556.90648,473.96756],[-25.13176,17.8021],[2.778,4.634]],[[563.77048,488.63956],[-1.864,-5.016],[4.928,13.268]],[[571.42848,530.25556],[-0.424,-14.114],[0.292,9.774]],[[569.67048,559.46356],[1.354,-9.678],[-0.622,4.44]],[[567.83048,572.79956],[0.132,-4.486],[0.428,-1.112]],[[569.17048,569.49556],[-0.48,1.084],[3.064,-6.912]],[[586.44848,556.52556],[-8.546,-1.536],[7.984,1.436]],[[600.83248,573.15756],[-2.358,-6.918],[3.998,11.722]],[[606.45248,610.37356],[-0.27,-12.448],[0.256,0.076]],[[607.22648,610.58956],[-0.258,-0.074],[0.498,-6.732]],[[610.60848,590.62956],[-1.694,6.462],[3.14,-11.984]],[[629.74648,559.00156],[-10.464,7.286],[10.962,-7.632]],[[667.18248,560.18956],[-10.338,-8.59],[7.812,6.492]],[[680.16848,586.67956],[-1.654,-9.888],[1.034,-6.728]],[[685.44048,567.14156],[-2.662,6.174],[1.916,-4.448]],[[694.73248,555.83756],[-4.526,2.178],[5.006,-2.408]],[[707.78448,557.25756],[-3.614,-2.74],[-0.05,-2.378]],[[707.59048,550.12356],[0.094,2.378],[-0.574,-14.572]],[[702.99448,506.64356],[2.65,14.346],[-5.034,-27.26]]],&quot;closed&quot;:true,&quot;fillColor&quot;:[0,0,0,1]}]}" fill="#67d440" stroke-width="0.5"/></g><path d="M159.21735,282.95882c6.74125,1.59166 10.85611,8.59981 9.19076,15.65318c-1.66535,7.05337 -8.48026,11.48094 -15.2215,9.88928c-6.74125,-1.59166 -10.85612,-8.59982 -9.19077,-15.65318c1.66535,-7.05337 8.48026,-11.48094 15.22151,-9.88928z" data-paper-data="{&quot;index&quot;:null}" fill="#000000" stroke="#000000" stroke-width="0.5" stroke-linecap="butt"/><path d="M126.55463,275.24688c6.67886,1.57692 10.71922,8.67436 9.0244,15.85257c-1.69481,7.17815 -8.48302,11.71891 -15.16188,10.14199c-6.67881,-1.57692 -10.71919,-8.67432 -9.02437,-15.85252c1.69482,-7.1782 8.483,-11.71896 15.16185,-10.14203z" data-paper-data="{&quot;index&quot;:null}" fill="#000000" stroke="#000000" stroke-width="0.5" stroke-linecap="butt"/><path d="M112.0556,286.80239c-7.07741,-1.46763 4.30507,-8.82463 4.30507,-8.82463l7.59057,2.06557c0,0 6.34782,10.34306 1.68615,9.96581c-3.38941,-0.27429 -8.24809,-2.10068 -13.58176,-3.20675z" data-paper-data="{&quot;index&quot;:null}" fill="#1fba00" stroke="#1fba00" stroke-width="0.5" stroke-linecap="round"/><path d="M112.14466,286.85421c-15.68773,-3.80193 2.95874,-45.76144 2.95874,-45.76144l69.72912,15.39362c0,0 0.42657,47.69527 -20.08787,42.78703c-51.97101,-12.43443 -11.27505,-2.40416 -52.59999,-12.4192z" data-paper-data="{&quot;index&quot;:null}" fill="#ff0000" stroke="#000000" stroke-width="3.5" stroke-linecap="butt"/><path d="M119.63509,286.39096c0,0 -2.05078,-6.55034 -0.94139,-9.74974c1.10939,-3.19941 5.64372,-3.23254 6.65892,-6.739c1.01514,-3.50649 -4.51055,-3.02881 -0.68275,-8.2697c3.8278,-5.24094 13.60853,-9.55781 13.60853,-9.55781c0,0 2.78345,2.71347 3.36018,8.09102c0.57673,5.37755 -7.84068,6.23443 -8.76302,10.49912c-0.92233,4.26464 -5.70931,3.61088 -6.54687,7.98172c-0.83756,4.37083 3.0535,10.24842 3.0535,10.24842z" data-paper-data="{&quot;index&quot;:null}" fill="#eac100" stroke="#000000" stroke-width="0" stroke-linecap="round"/><path d="M151.07262,293.72404c0,0 -2.05078,-6.55033 -0.94139,-9.74974c1.10934,-3.19942 5.64367,-3.2325 6.65887,-6.73897c1.01519,-3.50647 -4.51051,-3.02881 -0.6827,-8.26969c3.8278,-5.24089 13.60852,-9.55782 13.60852,-9.55782c0,0 2.78345,2.71347 3.36018,8.09102c0.57671,5.37759 -7.8407,6.23448 -8.76303,10.49916c-0.92234,4.26468 -5.70931,3.61088 -6.54687,7.98172c-0.83756,4.37083 3.0535,10.24843 3.0535,10.24843z" data-paper-data="{&quot;index&quot;:null}" fill="#eac100" stroke="#eac100" stroke-width="0" stroke-linecap="round"/></g><g><g stroke="none" stroke-linecap="butt"><path d="M341.8909,204.66093c-7.39597,-0.0148 0.16711,-0.18148 0.20786,-0.12136c8.79577,12.97454 9.72192,30.07087 8.65129,45.2216c-0.52536,7.44146 -1.57818,14.83362 -3.04737,22.14521c-0.59637,2.96491 -1.17246,5.97818 -2.00922,8.88614c-1.2727,4.42209 -4.03496,8.29895 -7.84111,10.89704c-4.23775,2.89171 -9.28914,3.48426 -14.28337,3.88762c-5.34103,0.43189 -10.73847,0.29511 -16.04296,-0.48145c-8.35089,-1.22272 -16.48361,-4.17839 -23.5879,-8.74856c-2.8693,-1.84629 -5.77778,-3.90461 -8.18997,-6.33364c-3.2442,-3.26724 -5.25379,-7.61552 -5.62749,-12.20645c-0.18846,-2.31883 0.05,-4.72461 0.71694,-6.95412c0.78169,-2.60987 1.99721,-5.08732 2.87964,-7.66625c1.564,-4.56796 2.76317,-9.26574 3.49002,-14.04082c0.5752,-3.77763 0.83377,-7.59081 0.72449,-11.41066c-0.04515,-1.55547 -0.14874,-3.11024 -0.31955,-4.65698c-0.08189,-0.73989 -0.17774,-1.47664 -0.29029,-2.21188c-0.04696,-0.30884 -0.09726,-0.61635 -0.14974,-0.92331c-0.01844,-0.10423 -0.09855,-0.54399 -0.1097,-0.61084c-0.3478,-1.80282 -0.79998,-3.59132 -1.39392,-5.32957c-0.09038,-0.26398 66.32021,-9.07916 66.22235,-9.34169zM285.69303,283.07147c0.25137,-1.52631 0.47439,-3.05873 0.65251,-4.59162c0.44995,-3.87523 0.69489,-7.83865 0.27406,-11.73182c-0.15937,-1.47166 -0.55818,-3.43176 -1.07647,-4.52457c-0.18138,-0.38283 -0.40343,-0.74784 -0.64814,-1.09318c-0.01499,-0.02062 -0.15704,-0.18731 -0.20363,-0.24645c-0.08823,-0.0937 -0.17625,-0.18839 -0.27288,-0.27162c-0.29162,-0.25111 -0.76669,-0.52439 -1.23909,-0.64876c-0.49097,-0.12838 -0.84423,-0.07463 -1.59157,0.25525c0.16408,-0.07306 -0.54226,0.32296 -0.70912,0.43735c-0.31135,0.21521 -0.4005,0.28703 -0.57342,0.439c-1.32166,1.15741 -2.31391,2.55671 -3.1908,3.98087c-1.04333,1.69312 -1.96952,3.48822 -2.73813,5.3306c1.59964,5.63274 6.37991,9.59947 11.31667,12.66494zM312.40604,291.89648c3.21805,0.24789 6.45563,0.23913 9.68035,0.02914c0.93153,-3.06757 1.52975,-6.28782 1.80007,-9.45807c0.4013,-4.71228 -0.04753,-10.72908 -3.56951,-14.2025c-3.99206,-3.9359 -10.62502,-4.13552 -15.16222,-1.2071c-4.54888,2.93511 -7.49143,7.98021 -9.68135,12.91754c-0.48822,1.10185 -0.9361,2.22058 -1.3594,3.34869c-0.02271,0.06262 -0.07465,0.20384 -0.09736,0.26646c-0.04262,0.12176 -0.08644,0.24427 -0.12926,0.367c-0.06905,0.19687 -0.13712,0.39395 -0.20345,0.59243c-0.14344,0.42327 -0.28102,0.84781 -0.41393,1.27438c-0.11621,0.37288 -0.22872,0.74759 -0.3383,1.12292c6.13767,2.7669 12.74577,4.42914 19.47434,4.94912zM339.36219,285.20001c2.22666,-2.82104 2.95717,-6.20407 3.72411,-9.62323c-0.40267,-1.55788 -1.0525,-3.61098 -2.59461,-4.18289c-0.39205,-0.14592 -0.74422,-0.1257 -1.14955,-0.10568c-0.46854,0.02377 -0.12241,-0.02537 -0.59245,0.13823c-0.12046,0.04154 -0.2396,0.08644 -0.35666,0.13588c-0.0239,0.01121 -0.0478,0.02242 -0.06045,0.02891c-0.23469,0.12535 -0.45886,0.2683 -0.6769,0.42078c-0.71017,0.49441 -1.43267,1.28795 -2.10464,2.16502c-0.67316,0.87783 -1.29178,1.92496 -1.85606,2.97153c-1.24737,2.31202 -2.26779,4.76708 -3.1456,7.23449c-0.80127,2.25476 -1.52299,4.55328 -2.13815,6.87477c0.14586,-0.02174 0.29164,-0.03839 0.43652,-0.06035c4.18343,-0.62831 7.88207,-2.66137 10.51441,-5.99746zM339.37801,207.45902c-19.79667,1.5017 -74.21847,11.78118 -60.0587,5.72883c0.8694,2.55773 1.42615,5.24649 1.80856,7.8946c1.01029,7.00432 0.63722,14.20446 -0.64307,21.14759c-0.88739,4.80797 -2.25579,9.50302 -3.93756,14.0906c-0.77195,2.10456 -1.76754,4.14557 -2.30485,6.32427c0.32639,-0.4984 0.65432,-0.99442 1.00317,-1.47366c2.22606,-3.05543 5.79673,-6.16975 9.81185,-4.51832c3.75097,1.54332 4.85412,6.01533 5.27752,9.64513c0.71867,6.15068 0.00452,12.66961 -1.17544,18.78223c0.11711,0.06413 0.23724,0.12378 0.35554,0.18715c0.95291,-3.23789 2.24763,-6.41946 3.75665,-9.39933c2.79775,-5.52644 6.80503,-10.98336 12.68738,-13.44168c6.16221,-2.57494 14.0247,-0.7619 18.17224,4.52615c3.13403,3.9964 3.78896,9.30881 3.55526,14.31605c1.21447,-3.17945 2.68416,-6.2568 4.63594,-8.99388c1.40526,-1.9721 3.29128,-3.95817 5.73298,-4.54571c2.70055,-0.64936 4.7521,0.34953 6.22972,2.06964c0.22619,-1.16755 0.45237,-2.33511 0.65705,-3.5073c1.25523,-7.18279 2.11938,-14.44481 2.33612,-21.73594c0.41256,-13.85431 1.42213,-26.09007 -7.90034,-37.0964z" data-paper-data="{&quot;index&quot;:null}" fill="#152345" stroke-width="1"/><path d="M328.81742,291.23718c-0.14488,0.02195 -0.29166,0.03783 -0.43751,0.05957c0.61516,-2.32149 1.32324,-4.63713 2.12451,-6.89189c0.87782,-2.46741 1.91958,-4.98837 3.16695,-7.30039c0.56428,-1.04657 1.20273,-2.0995 1.87588,-2.97733c0.67197,-0.87706 1.40612,-1.67012 2.11628,-2.16454c0.21803,-0.15246 0.44507,-0.29488 0.67976,-0.42024c0.01265,-0.00647 0.0368,-0.01764 0.0607,-0.02886c0.11705,-0.04944 0.23767,-0.09399 0.35812,-0.13552c0.47004,-0.16359 0.12629,-0.11377 0.59483,-0.13754c0.40533,-0.02002 0.76226,-0.03849 1.15431,0.10742c1.5421,0.57191 2.20999,2.63808 2.61267,4.19596c-0.76694,3.41916 -1.50122,6.87195 -3.72788,9.69299c-2.63235,3.33609 -6.39518,5.37206 -10.57861,6.00037z" data-paper-data="{&quot;noHover&quot;:false,&quot;origItem&quot;:[&quot;Path&quot;,{&quot;applyMatrix&quot;:true,&quot;segments&quot;:[[[704.65248,589.44356],[-3.74,7.632],[3.164,-6.454]],[[707.87648,569.05956],[-0.058,7.008],[-1.444,-2.876]],[[701.04048,561.97556],[3.256,0.468],[-0.828,-0.12]],[[698.74848,562.25356],[0.784,-0.21],[-0.906,0.244]],[[697.64848,562.77356],[0.85,-0.518],[-0.218,0.132]],[[697.00848,563.18956],[0.208,-0.146],[-0.042,0.032]],[[696.90248,563.27156],[0.022,-0.018],[-0.406,0.344]],[[695.75648,564.37956],[0.362,-0.39],[-1.18,1.266]],[[692.55448,569.49956],[0.944,-1.998],[-0.946,2]],[[690.17848,576.09156],[0.662,-2.284],[-1.464,5.046]],[[687.07848,591.56156],[0.676,-5.194],[-0.616,4.746]],[[685.79648,605.90356],[0.224,-4.798],[0.276,-0.104]],[[686.62448,605.60156],[-0.274,0.104],[7.914,-2.992]]],&quot;closed&quot;:true,&quot;fillColor&quot;:[0,0,0,1]}]}" fill="#67d440" stroke-width="0.5"/><path d="M292.88726,286.97029c0.10957,-0.37534 0.22109,-0.7521 0.3373,-1.12498c0.1329,-0.42657 0.26938,-0.85369 0.41282,-1.27696c0.06633,-0.19848 0.13391,-0.39686 0.20296,-0.59373c0.04284,-0.12273 0.08634,-0.24609 0.12896,-0.36783c0.02271,-0.06262 0.07444,-0.20447 0.09715,-0.26709c0.4233,-1.12812 0.86911,-2.25607 1.35733,-3.35792c2.18993,-4.93733 5.16194,-10.0345 9.71082,-12.9696c4.53721,-2.92842 11.2264,-2.71763 15.21846,1.21828c3.52198,3.47343 3.98242,9.53975 3.58112,14.25204c-0.27032,3.17025 -0.88335,6.4132 -1.81488,9.48077c-3.22472,0.21 -6.48669,0.23038 -9.70474,-0.01751c-6.72857,-0.51997 -13.38962,-2.20856 -19.52729,-4.97546z" data-paper-data="{&quot;noHover&quot;:false,&quot;origItem&quot;:[&quot;Path&quot;,{&quot;applyMatrix&quot;:true,&quot;segments&quot;:[[[654.7745,613.89956],[-13.374,1.82],[6.396,-0.872]],[[673.7125,609.87556],[-6.216,1.77],[0.528,-6.39]],[[673.2445,590.62556],[0.808,6.312],[-1.202,-9.382]],[[660.2785,564.36356],[8.35,5.306],[-9.464,-6.012]],[[630.1265,568.39556],[7.636,-7.638],[-7.656,7.656]],[[616.6445,597.73156],[2.2,-10.576],[-0.49,2.36]],[[615.3985,604.85156],[0.352,-2.384],[-0.018,0.132]],[[615.3205,605.41356],[0.018,-0.132],[-0.032,0.256]],[[615.2225,606.18556],[0.032,-0.258],[-0.052,0.414]],[[615.0745,607.42956],[0.046,-0.416],[-0.102,0.888]],[[614.8025,610.09556],[0.08,-0.89],[-0.07,0.778]],[[614.6145,612.43356],[0.056,-0.78],[13.166,2.822]]],&quot;closed&quot;:true,&quot;fillColor&quot;:[0,0,0,1]}]}" fill="#67d440" stroke-width="0.5"/><path d="M274.32646,270.40339c0.76861,-1.84238 1.7153,-3.67479 2.75865,-5.36791c0.8769,-1.42416 1.89344,-2.83275 3.2151,-3.99016c0.17292,-0.15196 0.26506,-0.22401 0.57643,-0.43922c0.16687,-0.1144 0.87663,-0.51043 0.71255,-0.43738c0.74732,-0.32988 1.10775,-0.38292 1.59872,-0.25455c0.4724,0.12437 0.95353,0.39909 1.24515,0.6502c0.09663,0.08324 0.18619,0.17842 0.27441,0.27211c0.04658,0.05914 0.18987,0.22628 0.20486,0.2469c0.2447,0.34534 0.47147,0.71236 0.65285,1.0952c0.5183,1.09281 0.93465,3.06727 1.09403,4.53893c0.42083,3.89318 0.16381,7.92885 -0.28614,11.80408c-0.17811,1.53289 -0.41179,3.07064 -0.66316,4.59695c-4.93675,-3.06547 -9.78382,-7.0824 -11.38346,-12.71514z" data-paper-data="{&quot;noHover&quot;:false,&quot;origItem&quot;:[&quot;Path&quot;,{&quot;applyMatrix&quot;:true,&quot;segments&quot;:[[[598.82848,607.90756],[-10.944,-3.912],[-0.152,-3.09]],[[598.16848,598.65556],[0.298,3.072],[-0.754,-7.766]],[[593.75848,575.60356],[2.464,7.434],[-0.932,-2.81]],[[589.74648,567.21156],[1.474,1.918],[-0.516,-0.672]],[[588.01848,565.34756],[0.624,0.572],[-0.038,-0.034]],[[587.51648,564.95156],[0.116,0.096],[-0.212,-0.146]],[[586.86848,564.53556],[0.224,0.122],[-0.676,-0.368]],[[584.17248,563.78956],[0.976,0.044],[-1.014,-0.044]],[[581.16848,564.95956],[1.322,-0.96],[0.29,-0.212]],[[579.96648,566.11356],[0.278,-0.294],[-0.518,0.552]],[[579.03048,567.21356],[0.274,-0.37],[-2.096,2.82]],[[574.47048,576.34156],[1.114,-3.154],[-1.326,3.75]],[[571.36448,587.91756],[0.726,-3.926],[5.502,10.338]]],&quot;closed&quot;:true,&quot;fillColor&quot;:[0,0,0,1]}]}" fill="#67d440" stroke-width="0.5"/><path d="M347.32835,244.55431c-0.21673,7.29113 -1.08794,14.5799 -2.34318,21.76269c-0.20468,1.17219 -0.43303,2.34307 -0.65923,3.51064c-1.47762,-1.72011 -3.53078,-2.71684 -6.23133,-2.06748c-2.4417,0.58752 -4.33487,2.58092 -5.74014,4.55302c-1.95179,2.73709 -3.4313,5.82083 -4.64577,9.00028c0.2337,-5.00724 -0.41591,-10.3227 -3.54994,-14.31909c-4.14754,-5.28805 -12.04892,-7.09418 -18.21113,-4.51924c-5.88234,2.45832 -9.90222,7.91042 -12.69997,13.43686c-1.50902,2.97987 -2.75691,6.07309 -3.70982,9.31098c-0.1183,-0.06336 -0.28444,-0.03424 -0.40156,-0.09836c1.17997,-6.11261 1.8831,-12.63939 1.16442,-18.79006c-0.4234,-3.62981 -1.53788,-8.11766 -5.28885,-9.66099c-4.01511,-1.65143 -7.49473,1.4216 -9.72076,4.47702c-0.34885,0.47923 -0.76731,1.01769 -1.0937,1.51608c0.53731,-2.17869 1.5304,-4.22589 2.30235,-6.33047c1.68178,-4.58758 3.04799,-9.30351 3.93538,-14.11148c1.28028,-6.94313 1.66485,-14.17017 0.65456,-21.17448c-0.38241,-2.64811 -0.93541,-5.34086 -1.80481,-7.89859c-14.15977,6.05235 40.32714,-4.23041 60.12381,-5.73212c9.32248,11.00633 8.33225,23.28048 7.91969,37.1348z" data-paper-data="{&quot;noHover&quot;:false,&quot;origItem&quot;:[&quot;Path&quot;,{&quot;applyMatrix&quot;:true,&quot;segments&quot;:[[[671.91,437.44826],[22.866,17.588],[-38.0707,11.28166]],[[556.90648,473.96756],[-25.13176,17.8021],[2.778,4.634]],[[563.77048,488.63956],[-1.864,-5.016],[4.928,13.268]],[[571.42848,530.25556],[-0.424,-14.114],[0.292,9.774]],[[569.67048,559.46356],[1.354,-9.678],[-0.622,4.44]],[[567.83048,572.79956],[0.132,-4.486],[0.428,-1.112]],[[569.17048,569.49556],[-0.48,1.084],[3.064,-6.912]],[[586.44848,556.52556],[-8.546,-1.536],[7.984,1.436]],[[600.83248,573.15756],[-2.358,-6.918],[3.998,11.722]],[[606.45248,610.37356],[-0.27,-12.448],[0.256,0.076]],[[607.22648,610.58956],[-0.258,-0.074],[0.498,-6.732]],[[610.60848,590.62956],[-1.694,6.462],[3.14,-11.984]],[[629.74648,559.00156],[-10.464,7.286],[10.962,-7.632]],[[667.18248,560.18956],[-10.338,-8.59],[7.812,6.492]],[[680.16848,586.67956],[-1.654,-9.888],[1.034,-6.728]],[[685.44048,567.14156],[-2.662,6.174],[1.916,-4.448]],[[694.73248,555.83756],[-4.526,2.178],[5.006,-2.408]],[[707.78448,557.25756],[-3.614,-2.74],[-0.05,-2.378]],[[707.59048,550.12356],[0.094,2.378],[-0.574,-14.572]],[[702.99448,506.64356],[2.65,14.346],[-5.034,-27.26]]],&quot;closed&quot;:true,&quot;fillColor&quot;:[0,0,0,1]}]}" fill="#67d440" stroke-width="0.5"/></g><path d="M299.7645,293.12115c-1.52763,7.08447 -8.25499,11.64396 -15.02598,10.18393c-6.77098,-1.46003 -11.02157,-8.38671 -9.49394,-15.47118c1.52763,-7.08447 8.25499,-11.64396 15.02597,-10.18393c6.77098,1.46003 11.02158,8.38671 9.49395,15.47118z" fill="#000000" stroke="#000000" stroke-width="0.5" stroke-linecap="butt"/><path d="M332.40876,300.39784c-1.55467,7.20985 -8.25313,11.88194 -14.9614,10.43543c-6.70831,-1.44652 -10.88616,-8.46392 -9.33151,-15.67372c1.55467,-7.20985 8.25313,-11.88198 14.96145,-10.43545c6.70831,1.44652 10.88612,8.4639 9.33146,15.67376z" fill="#000000" stroke="#000000" stroke-width="0.5" stroke-linecap="butt"/><path d="M317.56115,298.44769c-4.37133,-1.66281 5.8055,-8.27385 5.8055,-8.27385l7.74152,1.39713c0,0 7.11585,11.53477 0.09465,9.81829c-5.29135,-1.29357 -10.46336,-1.73257 -13.64167,-2.94156z" fill="#1fba00" stroke="#1fba00" stroke-width="0.5" stroke-linecap="round"/><path d="M278.26819,290.00557c-20.63269,-4.38466 0.25052,-47.26722 0.25052,-47.26722l69.5768,16.06808c0,0 -1.19637,45.90055 -16.99538,42.59132c-41.61803,-8.71729 -0.56139,-0.28408 -52.83194,-11.39219z" fill="#ff0000" stroke="#000000" stroke-width="3.5" stroke-linecap="butt"/><path d="M314.65866,295.83225c0,0 6.0394,-3.63484 7.16159,-7.94138c1.12219,-4.30654 -3.48112,-5.77355 -2.4811,-10.02064c1.00003,-4.24714 -6.23211,-8.63841 -3.40025,-13.24614c2.83186,-4.60774 6.51131,-5.86158 6.51131,-5.86158c0,0 6.97611,8.10134 8.17997,14.47867c1.20388,6.37727 -3.58019,3.5712 -4.17056,7.1736c-0.59033,3.60243 3.48966,5.58107 3.11637,8.94671c-0.3733,3.36565 -5.04016,8.39883 -5.04016,8.39883z" data-paper-data="{&quot;index&quot;:null}" fill="#eac100" stroke="#000000" stroke-width="0" stroke-linecap="round"/><path d="M283.12094,288.94271c0,0 6.0394,-3.63484 7.1616,-7.94139c1.12219,-4.30654 -3.48113,-5.7735 -2.4811,-10.02064c1.00003,-4.24714 -6.23211,-8.63841 -3.40023,-13.24618c2.83186,-4.60774 6.51131,-5.86158 6.51131,-5.86158c0,0 6.9761,8.10139 8.17997,14.47867c1.20388,6.37727 -3.5802,3.57119 -4.17051,7.17361c-0.59033,3.60243 3.48968,5.58102 3.11633,8.94666c-0.3733,3.36565 -5.04016,8.39883 -5.04016,8.39883z" data-paper-data="{&quot;index&quot;:null}" fill="#eac100" stroke="#eac100" stroke-width="0" stroke-linecap="round"/></g><path d="M26.48968,123.90928c2.682,-1.246 5.838,-1.188 8.716,-0.879c3.508,0.377 6.96,1.154 10.355,2.102c4.923,1.374 9.78,3.073 14.498,5.046c0.01,0 0.014,0.001 0.025,0.001c0.435,0.027 0.867,0.064 1.303,0.076c1.696,0.049 3.397,-0.059 5.083,-0.248c0.272,-0.031 0.544,-0.064 0.816,-0.099c0.007,-0.001 0.008,-0.001 0.015,-0.002c0.017,-0.002 0.028,-0.004 0.055,-0.008c0.171,-0.024 0.342,-0.049 0.513,-0.075c0.681,-0.103 1.36,-0.219 2.037,-0.347c1.506,-0.284 3.002,-0.627 4.484,-1.017c3.84,-1.01 7.603,-2.327 11.261,-3.867c11.009,-4.634 21.211,-11.157 30.702,-18.358c6.736,-5.111 13.135,-10.671 19.278,-16.479c7.479,-7.071 14.203,-14.844 21.539,-22.044c11.792,-11.573 26.18,-21.338 42.656,-24.467c13.16,-2.499 26.603,-0.538 38.936,4.495c12.208,4.982 23.184,12.43 33.379,20.711c9.121,7.409 17.548,15.587 26.102,23.628c5.648,5.31 11.56,10.19 18.125,14.34c6.705,4.238 13.839,7.807 21.226,10.693c8.374,3.273 17.094,5.789 25.965,7.322c-2.787,-4.772 -4.837,-9.965 -5.791,-15.386c-1.654,-9.397 0.301,-18.938 5.559,-26.915c12.051,-18.286 36.109,-25.474 57.022,-22.716c19.706,2.599 40.821,15.096 44.889,35.988c0.442,2.268 0.672,4.577 0.683,6.887c-0.079,18.084 -12.466,34.452 -27.889,43.325c-0.522,2.206 -1.242,4.381 -1.995,6.512c-2.145,6.065 -4.87,11.941 -8.103,17.502c-4.408,7.581 -9.808,14.633 -16.097,20.751c-7.644,7.436 -16.619,13.487 -26.411,17.715c-12.268,5.297 -25.511,7.818 -38.841,8.184c-1.773,0.049 -6.267,0.699 -6.749,1.02c-0.002,0.001 -0.005,0.003 -0.007,0.004c1.55269,1.29673 -12.7423,5.56049 -27.35812,13.5223c-25.42302,13.84893 -66.65672,15.15351 -71.66288,15.2897c-16.472,0.447 -37.75569,-2.81909 -49.136,-4.501c-11.38031,-1.68191 -62.03898,-23.77348 -61.514,-24.205c-13.474,-8.075 -26.083,-17.721 -37.084,-28.941c-9.758,-9.952 -18.227,-21.168 -25.007,-33.341c-9.322,1.603 -18.897,0.675 -27.512,-3.403c-6.427,-3.042 -12.611,-7.995 -15.926,-14.405c-2.18,-4.212 -3.477,-10.932 1.861,-13.411zM62.36668,134.03528c3.914,10.247 8.958,20.036 15.006,29.171c3.504,-1.917 7.008,-3.835 10.512,-5.752c-3.286,-4.637 -6.281,-9.481 -8.927,-14.521c-1.801,-3.431 -3.421,-6.95 -4.909,-10.527c-1.284,0.308 -2.573,0.592 -3.874,0.82c-2.543,0.446 -5.191,0.815 -7.808,0.809zM125.39968,103.81528c-10.192,8.404 -21.132,16.087 -33.057,21.84c-4.718,2.276 -9.621,4.285 -14.664,5.778c6.476,15.432 16.105,29.383 27.923,41.215c11.139,11.152 24.057,20.401 37.881,27.932c3.835,2.089 7.752,4.043 11.725,5.882c0.122,-3.168 0.468,-5.75 1.686,-9.547c1.589,-4.954 9.735,-29.705 9.735,-29.705c0,0 8.084,-24.772 9.736,-29.706c1.266,-3.782 2.516,-6.069 4.294,-8.696l-0.327,-0.377c-7.308,-8.411 -17.803,-20.491 -21.357,-24.582c-6.209,-7.185 -9.513,-11.867 -13.683,-18.296c-6.337,6.396 -12.944,12.533 -19.892,18.262zM173.10668,232.79628c10.231,3.281 20.716,5.727 31.329,7.337l2.305,-14.46c0.01,-0.065 0.021,-0.131 0.031,-0.196c-2.905,-0.365 -5.807,-0.799 -8.705,-1.323c-16.415,-2.964 -32.316,-8.476 -47.345,-15.671c-6.034,-2.888 -11.916,-6.102 -17.615,-9.609c-2.56,3.572 -5.121,7.143 -7.681,10.715l-0.218,0.304c14.848,9.75 30.983,17.477 47.899,22.903zM253.13268,129.10728h-0.032c-19.93,-0.007 -37,-0.014 -37,-0.014c0,0 -14.659,0.005 -34.287,0.012h-0.052c-0.119,3.198 -0.463,5.79 -1.689,9.613c-1.59,4.954 -9.736,29.706 -9.736,29.706c0,0 -8.084,24.771 -9.736,29.705c-1.283,3.835 -2.548,6.132 -4.366,8.804c8.91,4.063 18.126,7.483 27.539,10.106c21.424,5.969 43.604,7.297 65.68,5.078c9.698,-0.975 19.372,-2.473 28.893,-4.619c-1.819,-3.103 -3.081,-5.744 -4.351,-10.095c-1.631,-5.592 -9.611,-33.65 -9.611,-33.65c0,0 -8.043,-28.041 -9.611,-33.65c-1.234,-4.417 -1.552,-7.341 -1.641,-10.996zM246.79268,55.66128c-11.436,-6.162 -24.152,-10.212 -37.252,-9.761c-15.696,0.54 -30.166,7.722 -42.108,17.589c-7.93,6.551 -14.558,14.382 -21.761,21.682c5.802,5.035 9.984,8.958 16.246,16.119c3.465,3.982 13.511,15.527 20.789,23.892c19.176,0.007 33.393,0.012 33.393,0.012c0,0 16.617,-0.006 36.202,-0.013c7.799,-7.594 17.34,-16.885 20.814,-20.268c6.825,-6.613 11.314,-10.178 17.501,-14.71c-4.113,-3.931 -8.185,-7.907 -12.417,-11.671c-9.684,-8.616 -19.963,-16.705 -31.407,-22.871zM346.80868,124.27328c-14.979,-4.564 -29.28,-11.539 -41.652,-21.184c-4.96,-3.867 -9.585,-8.158 -14.152,-12.517c-4.695,6.076 -8.374,10.473 -15.166,17.132c-3.556,3.469 -13.478,13.148 -21.368,20.844l-0.333,0.325c1.839,3.13 3.109,5.777 4.386,10.158c1.631,5.592 9.611,33.65 9.611,33.65c0,0 8.043,28.04 9.611,33.65c1.228,4.393 1.548,7.31 1.64,10.937c6.511,-1.503 12.95,-3.308 19.264,-5.497c11.883,-4.119 23.328,-9.632 33.62,-16.894c7.898,-5.573 15.055,-12.243 21.011,-19.867c4.468,-5.719 8.4,-12.37 11.337,-19.187c0.124,-0.287 0.096,-0.225 0.098,-0.229c0.073,-0.174 0.145,-0.348 0.217,-0.522c0.161,-0.392 0.319,-0.786 0.475,-1.18c0.281,-0.715 0.553,-1.435 0.814,-2.158c0.487,-1.346 0.939,-2.705 1.354,-4.075c0.693,-2.285 1.285,-4.602 1.759,-6.943c0.189,-0.935 0.36,-1.874 0.509,-2.817c0.062,-0.391 0.118,-0.783 0.174,-1.174c0.003,-0.019 0.004,-0.023 0.005,-0.035c0.003,-0.03 0.006,-0.051 0.011,-0.095c0.021,-0.172 0.043,-0.344 0.063,-0.516c0.093,-0.796 0.153,-1.593 0.21,-2.391c-1.424,-1.598 -2.767,-3.285 -4.018,-5.041c-6.593,-0.782 -13.154,-2.447 -19.48,-4.374zM373.10668,176.81428c0.747,-1.332 1.476,-2.675 2.161,-4.041c3.013,-6.004 5.387,-12.292 7.019,-18.885c0.525,-2.118 0.969,-4.258 1.304,-6.414c0.049,-0.312 0.093,-0.625 0.137,-0.937c0.009,-0.079 0.082,-0.637 0.102,-0.811c0.028,-0.244 0.048,-0.488 0.071,-0.732c-3.669,-2.216 -7.09,-4.844 -10.188,-7.794c-0.084,0.597 -0.171,1.195 -0.265,1.785c-0.773,4.833 -2.075,9.583 -3.765,14.174c-2.113,5.744 -4.828,11.258 -8.074,16.443c3.765,2.361 7.529,4.723 11.294,7.085c0.068,0.041 0.136,0.084 0.204,0.127zM461.62368,108.35228c0.368,-2 0.538,-4.024 0.547,-6.057c-0.09,-19.437 -17.214,-33.127 -34.681,-37.693c-19.508,-5.1 -42.896,-0.75 -56.973,14.413c-5.918,6.375 -9.664,14.655 -9.626,23.428c0.039,9.007 3.773,17.674 9.031,24.85c12.067,16.471 33.33,25.481 53.4,20.35c18.331,-4.685 34.816,-20.359 38.302,-39.291zM380.23168,206.19228c9.81,-3.718 18.919,-9.287 26.691,-16.333c6.549,-5.937 11.955,-12.584 16.541,-20.056c1.877,-3.058 3.59,-6.215 5.135,-9.453c0.354,-0.742 0.699,-1.488 1.035,-2.238c0.141,-0.315 0.28,-0.63 0.418,-0.946c0.077,-0.177 0.153,-0.354 0.23,-0.531c0.054,-0.124 0.092,-0.215 0.117,-0.273c0.521,-1.242 1.019,-2.494 1.489,-3.757c0.565,-1.516 1.043,-3.048 1.5,-4.586c-0.655,0.302 -1.313,0.594 -1.974,0.868c-10.316,4.272 -21.845,5.14 -32.671,2.373c-3.912,-1 -7.702,-2.455 -11.299,-4.294c-0.199,1.507 -0.472,3.008 -0.769,4.484c-1.25,6.222 -3.266,12.264 -5.777,18.086c-3.652,8.466 -8.519,16.351 -14.278,23.543c-5.845,7.299 -12.659,13.775 -20.091,19.439c11.491,-0.33 22.913,-2.237 33.703,-6.326zM358.92768,196.27428c4.62,-4.99 8.737,-10.43 12.281,-16.225c-3.775,-2.368 -7.55,-4.736 -11.325,-7.104c-0.109,-0.068 -0.218,-0.137 -0.327,-0.205c-5.331,7.761 -11.815,14.691 -19.122,20.623c-9.539,7.744 -20.265,13.792 -31.585,18.519c-4.097,1.711 -8.269,3.224 -12.488,4.594c1.988,4.623 3.977,9.246 5.965,13.869c0.125,0.29 0.249,0.58 0.374,0.87c9.282,-3.201 18.304,-7.138 26.851,-11.986c10.861,-6.161 20.882,-13.78 29.376,-22.955zM282.94568,236.89528c5.455,-1.282 10.871,-2.775 16.211,-4.499c-1.99,-4.627 -3.98,-9.254 -5.97,-13.881c-0.132,-0.306 -0.263,-0.611 -0.395,-0.917c-9.801,2.954 -19.857,5.087 -29.969,6.6c-17.403,2.604 -34.918,3.503 -52.344,1.706l-2.323,14.57c-0.01,0.061 -0.02,0.123 -0.029,0.184c6.475,0.861 12.992,1.418 19.524,1.653c18.574,0.669 37.204,-1.164 55.295,-5.416zM122.11168,207.80228c2.507,-3.498 5.014,-6.995 7.522,-10.493l0.295,-0.412c-6.536,-4.211 -12.799,-8.844 -18.697,-13.917c-7.805,-6.713 -14.929,-14.245 -21.117,-22.474c-3.542,1.938 -7.083,3.876 -10.625,5.814c2.647,3.786 5.465,7.455 8.458,10.983c9.918,11.685 21.528,21.849 34.164,30.499zM26.48668,131.33428c0.001,0.007 0.001,0.01 0.001,0.016c0.023,0.146 0.047,0.292 0.077,0.437c0.051,0.247 0.106,0.492 0.17,0.736c0.154,0.588 0.35,1.166 0.577,1.73c0.014,0.024 0.213,0.482 0.25,0.56c0.127,0.268 0.26,0.533 0.399,0.795c0.342,0.644 0.717,1.27 1.119,1.878c0.791,1.197 1.625,2.224 2.624,3.294c2.372,2.539 5.138,4.654 8.157,6.367c7.988,4.533 17.319,5.84 26.323,4.503c-1.061,-2.031 -2.079,-4.086 -3.044,-6.167c-1.835,-3.953 -3.492,-7.986 -4.997,-12.076c-0.793,-0.32 -1.589,-0.631 -2.387,-0.936c-2.56,-0.975 -5.146,-1.882 -7.759,-2.703c-3.13,-0.985 -6.303,-1.859 -9.527,-2.479c-2.711,-0.521 -5.522,-0.928 -8.345,-0.571c-0.006,0.001 -0.006,0.001 -0.011,0.001c-0.032,0.006 -0.065,0.012 -0.12,0.022c-0.115,0.021 -0.231,0.041 -0.346,0.065c-0.276,0.056 -0.55,0.122 -0.82,0.203c-0.074,0.022 -0.493,0.18 -0.551,0.192c-0.189,0.089 -0.375,0.184 -0.556,0.289c-0.1,0.058 -0.195,0.125 -0.289,0.193c-0.01,0.009 -0.008,0.008 -0.02,0.019c-0.133,0.124 -0.254,0.256 -0.374,0.391c-0.021,0.055 -0.22,0.354 -0.264,0.433c-0.004,0.006 -0.008,0.015 -0.012,0.023c-0.037,0.095 -0.075,0.191 -0.101,0.288c-0.059,0.22 -0.116,0.436 -0.165,0.659c-0.021,0.095 -0.034,0.139 -0.043,0.167c0.002,0.032 0.003,0.079 0.001,0.172c-0.011,0.504 -0.013,0.995 0.033,1.499z" fill="#152345" stroke="none" stroke-width="1" stroke-linecap="butt"/><path d="M70.15858,133.17893c1.301,-0.228 2.60259,-0.51453 3.88659,-0.82253c1.488,3.577 3.14239,7.10657 4.94339,10.53758c2.646,5.04 5.64997,9.95346 8.93597,14.59046c-3.504,1.917 -7.04066,3.85432 -10.54466,5.77132c-6.048,-9.135 -11.13321,-19.01015 -15.04721,-29.25715c2.617,0.006 5.28291,-0.37367 7.82591,-0.81967z" data-paper-data="{&quot;noHover&quot;:false,&quot;origItem&quot;:[&quot;Path&quot;,{&quot;applyMatrix&quot;:true,&quot;segments&quot;:[[[121.91387,270.89],[5.234,0.012],[7.828,20.494]],[[151.92587,329.232],[-12.096,-18.27],[7.008,-3.834]],[[172.94987,317.728],[-7.008,3.834],[-6.572,-9.274]],[[155.09587,288.686],[5.292,10.08],[-3.602,-6.862]],[[145.27787,267.632],[2.976,7.154],[-2.568,0.616]],[[137.52987,269.272],[2.602,-0.456],[-5.086,0.892]]],&quot;closed&quot;:true,&quot;fillColor&quot;:[0,0,0,1]}]}" fill="#55af34" stroke="none" stroke-width="0.5" stroke-linecap="butt"/><path d="M87.90139,177.28436c-2.993,-3.528 -5.80554,-7.20695 -8.45254,-10.99295c3.542,-1.938 7.09757,-3.88968 10.63957,-5.82768c6.188,8.229 13.38747,15.7947 21.19247,22.5077c5.898,5.073 12.15641,9.7374 18.69241,13.94841l-0.2954,0.41279c-2.508,3.498 -5.02958,7.01193 -7.53659,10.50993c-12.636,-8.65 -24.32192,-18.87319 -34.23992,-30.55819z" data-paper-data="{&quot;noHover&quot;:false,&quot;origItem&quot;:[&quot;Path&quot;,{&quot;applyMatrix&quot;:true,&quot;segments&quot;:[[[241.40387,418.424],[-25.272,-17.3],[5.014,-6.996]],[[256.44787,397.438],[-5.016,6.996],[0,0]],[[257.03787,396.614],[0,0],[-13.072,-8.422]],[[219.64387,368.78],[11.796,10.146],[-15.61,-13.426]],[[177.40987,323.832],[12.376,16.458],[-7.084,3.876]],[[156.15987,335.46],[7.084,-3.876],[5.294,7.572]],[[173.07587,357.426],[-5.986,-7.056],[19.836,23.37]]],&quot;closed&quot;:true,&quot;fillColor&quot;:[0,0,0,1]}]}" fill="#55af34" stroke="none" stroke-width="0.5" stroke-linecap="butt"/><path d="M125.15901,209.88181l0.2181,-0.3044c2.56,-3.572 5.12722,-7.1577 7.68722,-10.7297c5.699,3.507 11.58281,6.7183 17.61681,9.6063c15.029,7.195 31.02003,12.74344 47.43503,15.70744c2.898,0.524 5.79999,0.95807 8.70499,1.32307c-0.01,0.065 -0.02104,0.13124 -0.03104,0.19624l-2.31038,14.47616c-10.613,-1.61 -21.11845,-4.03556 -31.34945,-7.31656c-16.916,-5.426 -33.12327,-13.20855 -47.97127,-22.95855z" data-paper-data="{&quot;noHover&quot;:false,&quot;origItem&quot;:[&quot;Path&quot;,{&quot;applyMatrix&quot;:true,&quot;segments&quot;:[[[343.39387,468.412],[-33.832,-10.852],[20.462,6.562]],[[406.05187,483.086],[-21.226,-3.22],[0,0]],[[410.66187,454.166],[0,0],[0.02,-0.13]],[[410.72387,453.774],[-0.02,0.13],[-5.81,-0.73]],[[393.31387,451.128],[5.796,1.048],[-32.83,-5.928]],[[298.62387,419.786],[30.058,14.39],[-12.068,-5.776]],[[263.39387,400.568],[11.398,7.014],[-5.12,7.144]],[[248.03187,421.998],[5.12,-7.144],[0,0]],[[247.59587,422.606],[0,0],[29.696,19.5]]],&quot;closed&quot;:true,&quot;fillColor&quot;:[0,0,0,1]}]}" fill="#55af34" stroke="none" stroke-width="0.5" stroke-linecap="butt"/><path d="M227.60547,242.33266c-6.532,-0.235 -13.05248,-0.802 -19.52748,-1.663c0.009,-0.061 0.01896,-0.12318 0.02896,-0.18418l2.32196,-14.58595c17.426,1.797 35.033,0.87597 52.43599,-1.72803c10.112,-1.513 20.17344,-3.63434 29.97444,-6.58835c0.132,0.306 0.26335,0.61216 0.39535,0.91816c1.99,4.627 3.98192,9.27057 5.97192,13.89757c-5.34,1.724 -10.75725,3.22581 -16.21225,4.50781c-18.091,4.252 -36.81488,6.09496 -55.38888,5.42596z" data-paper-data="{&quot;noHover&quot;:false,&quot;origItem&quot;:[&quot;Path&quot;,{&quot;applyMatrix&quot;:true,&quot;segments&quot;:[[[563.07187,476.61],[-36.182,8.504],[10.91,-2.564]],[[595.49387,467.612],[-10.68,3.448],[-3.98,-9.254]],[[583.55387,439.85],[3.98,9.254],[-0.264,-0.612]],[[582.76387,438.016],[0.264,0.612],[-19.602,5.908]],[[522.82587,451.216],[20.224,-3.026],[-34.806,5.208]],[[418.13787,454.628],[34.852,3.594],[0,0]],[[413.49187,483.768],[0,0],[-0.02,0.122]],[[413.43387,484.136],[0.018,-0.122],[12.95,1.722]],[[452.48187,487.442],[-13.064,-0.47],[37.148,1.338]]],&quot;closed&quot;:true,&quot;fillColor&quot;:[0,0,0,1]}]}" fill="#55af34" stroke="none" stroke-width="0.5" stroke-linecap="butt"/><path d="M329.53976,219.27784c-8.547,4.848 -17.5935,8.7707 -26.8755,11.9717c-0.125,-0.29 -0.24972,-0.58077 -0.37472,-0.87077c-1.988,-4.623 -3.98649,-9.26142 -5.97449,-13.88442c4.219,-1.37 8.39116,-2.8826 12.48816,-4.5936c11.32,-4.727 22.12302,-10.83304 31.66202,-18.57704c7.307,-5.932 13.72739,-12.78491 19.05839,-20.54591c0.109,0.068 0.28449,0.0623 0.39349,0.1303c3.775,2.368 7.55972,4.74791 11.33472,7.1159c-3.544,5.795 -7.65538,11.24922 -12.27538,16.23922c-8.494,9.175 -18.57567,16.85362 -29.43667,23.01462z" data-paper-data="{&quot;noHover&quot;:false,&quot;origItem&quot;:[&quot;Path&quot;,{&quot;applyMatrix&quot;:true,&quot;segments&quot;:[[[715.03587,395.368],[-16.988,18.35],[9.24,-9.98]],[[739.59787,362.918],[-7.088,11.59],[-7.55,-4.736]],[[716.94787,348.71],[7.55,4.736],[-0.218,-0.136]],[[716.29387,348.3],[0.218,0.136],[-10.662,15.522]],[[678.04987,389.546],[14.614,-11.864],[-19.078,15.488]],[[614.87987,426.584],[22.64,-9.454],[-8.194,3.422]],[[589.90387,435.772],[8.438,-2.74],[3.976,9.246]],[[601.83387,463.51],[-3.976,-9.246],[0.25,0.58]],[[602.58187,465.25],[-0.25,-0.58],[18.564,-6.402]],[[656.28387,441.278],[-17.094,9.696],[21.722,-12.322]]],&quot;closed&quot;:true,&quot;fillColor&quot;:[0,0,0,1]}]}" fill="#55af34" stroke="none" stroke-width="0.5" stroke-linecap="butt"/><path d="M372.90305,176.73728c-3.765,-2.362 -7.56251,-4.73656 -11.32751,-7.09755c3.246,-5.185 5.96294,-10.77552 8.07594,-16.51952c1.69,-4.591 3.02511,-9.35189 3.79811,-14.18489c0.094,-0.59 0.18149,-1.18797 0.26549,-1.78498c3.098,2.95 6.55059,5.59128 10.21959,7.80729c-0.023,0.244 -0.04198,0.48898 -0.06998,0.73298c-0.02,0.174 -0.09185,0.73316 -0.10085,0.81216c-0.044,0.312 -0.08664,0.62649 -0.13563,0.93849c-0.335,2.156 -0.76902,4.31348 -1.29402,6.43148c-1.632,6.593 -4.04565,12.94592 -7.05865,18.94992c-0.685,1.366 -1.42098,2.70962 -2.16798,4.04162c-0.068,-0.043 -0.13652,-0.08599 -0.20452,-0.12699z" data-paper-data="{&quot;noHover&quot;:false,&quot;origItem&quot;:[&quot;Path&quot;,{&quot;applyMatrix&quot;:true,&quot;segments&quot;:[[[743.39387,356.448],[-0.136,-0.086],[1.494,-2.664]],[[747.71587,348.366],[-1.37,2.732],[6.026,-12.008]],[[761.75387,310.596],[-3.264,13.186],[1.05,-4.236]],[[764.36187,297.768],[-0.67,4.312],[0.098,-0.624]],[[764.63587,295.894],[-0.088,0.624],[0.018,-0.158]],[[764.83987,294.272],[-0.04,0.348],[0.056,-0.488]],[[764.98187,292.808],[-0.046,0.488],[-7.338,-4.432]],[[744.60587,277.22],[6.196,5.9],[-0.168,1.194]],[[744.07587,280.79],[0.188,-1.18],[-1.546,9.666]],[[736.54587,309.138],[3.38,-9.182],[-4.226,11.488]],[[720.39787,342.024],[6.492,-10.37],[7.53,4.722]],[[742.98587,356.194],[-7.53,-4.724],[0.136,0.082]]],&quot;closed&quot;:true,&quot;fillColor&quot;:[0,0,0,1]}]}" fill="#55af34" stroke="none" stroke-width="0.5" stroke-linecap="butt"/><path d="M254.80973,140.06864c1.568,5.609 9.62488,33.68214 9.62488,33.68214c0,0 7.97384,28.08466 9.60484,33.67666c1.27,4.351 2.52961,6.99589 4.34861,10.09889c-9.521,2.146 -19.20774,3.65693 -28.90574,4.63192c-22.076,2.219 -44.31632,0.8887 -65.74032,-5.0803c-9.413,-2.623 -18.64195,-6.05915 -27.55195,-10.12215c1.818,-2.672 3.08103,-4.97343 4.36402,-8.80843c1.652,-4.934 9.73326,-29.73118 9.73326,-29.73118c0,0 8.16007,-24.77937 9.75007,-29.73337c1.226,-3.823 1.57513,-6.41945 1.69413,-9.61745l0.05203,-0.00002c19.628,-0.007 34.31586,-0.02208 34.31586,-0.02208c0,0 17.10156,0.01721 37.03157,0.02421l0.03202,0.00001c0.089,3.655 0.41274,6.58412 1.64674,11.00112z" data-paper-data="{&quot;noHover&quot;:false,&quot;origItem&quot;:[&quot;Path&quot;,{&quot;applyMatrix&quot;:true,&quot;segments&quot;:[[[503.44587,261.034],[0.178,7.31],[0,0]],[[503.38187,261.034],[0,0],[-39.86,-0.014]],[429.38187,261.006],[[360.80787,261.03],[39.256,-0.014],[0,0]],[[360.70387,261.03],[0,0],[-0.238,6.396]],[[357.32587,280.256],[2.452,-7.646],[-3.18,9.908]],[337.85387,339.668],[[318.38187,399.078],[3.304,-9.868],[-2.566,7.67]],[[309.64987,416.686],[3.636,-5.344],[17.82,8.126]],[[364.72787,436.898],[-18.826,-5.246],[42.848,11.938]],[[496.08787,447.054],[-44.152,4.438],[19.396,-1.95]],[[553.87387,437.816],[-19.042,4.292],[-3.638,-6.206]],[[545.17187,417.626],[2.54,8.702],[-3.262,-11.184]],[525.94987,350.326],[[506.72787,283.026],[3.136,11.218],[-2.468,-8.834]]],&quot;closed&quot;:true,&quot;fillColor&quot;:[0,0,0,1]}]}" fill="#55af34" stroke="none" stroke-width="0.5" stroke-linecap="butt"/><path d="M366.33397,128.6261c1.251,1.756 2.59592,3.44773 4.01992,5.04573c-0.057,0.798 -0.11643,1.59671 -0.20943,2.39271c-0.02,0.172 -0.04188,0.34438 -0.06288,0.51638c-0.005,0.044 -0.00798,0.06507 -0.01098,0.09507c-0.001,0.012 -0.00199,0.01603 -0.00499,0.03503c-0.056,0.391 -0.11176,0.78386 -0.17376,1.17486c-0.149,0.943 -0.31945,1.88413 -0.50845,2.81913c-0.474,2.341 -1.06504,4.66365 -1.75804,6.94864c-0.415,1.37 -0.86672,2.7326 -1.35372,4.0786c-0.261,0.723 -0.53296,1.445 -0.81396,2.16c-0.156,0.394 -0.31401,0.78912 -0.47501,1.18112c-0.072,0.174 -0.14401,0.3485 -0.21701,0.5225c-0.002,0.004 0.02599,-0.05778 -0.09801,0.22922c-2.937,6.817 -6.87449,13.48903 -11.34249,19.20803c-5.956,7.624 -13.13549,14.31606 -21.0335,19.88906c-10.292,7.262 -21.7704,12.77877 -33.6534,16.89777c-6.314,2.189 -12.76459,3.98971 -19.27559,5.49271c-0.092,-3.627 -0.41647,-6.54662 -1.64447,-10.93962c-1.568,-5.61 -9.62953,-33.67219 -9.62953,-33.67219c0,0 -7.98218,-28.09094 -9.61318,-33.68294c-1.277,-4.381 -2.54473,-7.03444 -4.38373,-10.16444l0.33313,-0.32531c7.89,-7.696 17.82685,-17.39418 21.38285,-20.86318c6.792,-6.659 10.48605,-11.06413 15.18105,-17.14012c4.567,4.359 9.201,8.64789 14.161,12.51489c12.372,9.645 26.71785,16.63698 41.69684,21.20098c6.326,1.927 12.89434,3.60336 19.48734,4.38536z" data-paper-data="{&quot;noHover&quot;:false,&quot;origItem&quot;:[&quot;Path&quot;,{&quot;applyMatrix&quot;:true,&quot;segments&quot;:[[[690.79787,251.366],[12.652,3.854],[-29.958,-9.128]],[[607.49387,208.998],[24.744,19.29],[-9.92,-7.734]],[[579.18987,183.964],[9.134,8.718],[-9.39,12.152]],[[548.85787,218.228],[13.584,-13.318],[-7.112,6.938]],[[506.12187,259.916],[15.78,-15.392],[0,0]],[[505.45587,260.566],[0,0],[3.678,6.26]],[[514.22787,280.882],[-2.554,-8.762],[3.262,11.184]],[533.44987,348.182],[[552.67187,415.482],[-3.136,-11.22],[2.456,8.786]],[[555.95187,437.356],[-0.184,-7.254],[13.022,-3.006]],[[594.47987,426.362],[-12.628,4.378],[23.766,-8.238]],[[661.71987,392.574],[-20.584,14.524],[15.796,-11.146]],[[703.74187,352.84],[-11.912,15.248],[8.936,-11.438]],[[726.41587,314.466],[-5.874,13.634],[0.248,-0.574]],[[726.61187,314.008],[-0.004,0.008],[0.146,-0.348]],[[727.04587,312.964],[-0.144,0.348],[0.322,-0.784]],[[727.99587,310.604],[-0.312,0.788],[0.562,-1.43]],[[729.62387,306.288],[-0.522,1.446],[0.974,-2.692]],[[732.33187,298.138],[-0.83,2.74],[1.386,-4.57]],[[735.84987,284.252],[-0.948,4.682],[0.378,-1.87]],[[736.86787,278.618],[-0.298,1.886],[0.124,-0.782]],[[737.21587,276.27],[-0.112,0.782],[0.006,-0.038]],[[737.22587,276.2],[-0.002,0.024],[0.006,-0.06]],[[737.24787,276.01],[-0.01,0.088],[0.042,-0.344]],[[737.37387,274.978],[-0.04,0.344],[0.186,-1.592]],[[737.79387,270.196],[-0.114,1.596],[-2.848,-3.196]],[[729.75787,260.114],[2.502,3.512],[-13.186,-1.564]]],&quot;closed&quot;:true,&quot;fillColor&quot;:[0,0,0,1]}]}" fill="#55af34" stroke="none" stroke-width="0.5" stroke-linecap="butt"/><path d="M278.24933,78.5265c4.232,3.764 8.30423,7.749 12.41723,11.68c-6.187,4.532 -10.67874,8.11041 -17.50374,14.72341c-3.474,3.383 -13.02952,12.69526 -20.82852,20.28925c-19.585,0.007 -36.23721,0.02506 -36.23721,0.02506c0,0 -14.24775,-0.01766 -33.42375,-0.02466c-7.278,-8.365 -17.33882,-19.93378 -20.80382,-23.91578c-6.262,-7.161 -10.44585,-11.09775 -16.24785,-16.13274c7.203,-7.3 13.83514,-15.15068 21.76514,-21.70168c11.942,-9.867 26.44725,-17.07793 42.14325,-17.61793c13.1,-0.451 25.86122,3.61178 37.29722,9.77378c11.444,6.166 21.73806,14.2853 31.42206,22.9013z" data-paper-data="{&quot;noHover&quot;:false,&quot;origItem&quot;:[&quot;Path&quot;,{&quot;applyMatrix&quot;:true,&quot;segments&quot;:[[[490.76587,114.142],[22.888,12.332],[-22.872,-12.324]],[[416.26187,94.62],[26.2,-0.902],[-31.392,1.08]],[[332.04587,129.798],[23.884,-19.734],[-15.86,13.102]],[[288.52387,173.162],[14.406,-14.6],[11.604,10.07]],[[321.01587,205.4],[-12.524,-14.322],[6.93,7.964]],[[362.59387,253.184],[-14.556,-16.73],[38.352,0.014]],[429.37987,253.208],[[501.78387,253.182],[-39.17,0.014],[15.598,-15.188]],[[543.41187,212.646],[-6.948,6.766],[13.65,-13.226]],[[578.41387,183.226],[-12.374,9.064],[-8.226,-7.862]],[[553.57987,159.884],[8.464,7.528],[-19.368,-17.232]]],&quot;closed&quot;:true,&quot;fillColor&quot;:[0,0,0,1]}]}" fill="#55af34" stroke="none" stroke-width="0.5" stroke-linecap="butt"/><path d="M145.30456,85.50497c4.17,6.429 7.48998,11.11849 13.69898,18.30349c3.554,4.091 14.06742,16.19558 21.37542,24.60658l0.32714,0.3774c-1.778,2.627 -3.02622,4.92097 -4.29222,8.70298c-1.652,4.934 -9.74169,29.7395 -9.74169,29.7395c0,0 -8.1656,24.77028 -9.7546,29.72428c-1.218,3.797 -1.56813,6.38101 -1.69013,9.54901c-3.973,-1.839 -7.89709,-3.79056 -11.73209,-5.87956c-13.824,-7.531 -26.78782,-16.79092 -37.92682,-27.94291c-11.818,-11.832 -21.46198,-25.83407 -27.93798,-41.26607c5.043,-1.493 9.95035,-3.51256 14.66835,-5.78856c11.925,-5.753 22.90431,-13.46161 33.09631,-21.86561c6.948,-5.729 13.57234,-11.86451 19.90934,-18.26051z" data-paper-data="{&quot;noHover&quot;:false,&quot;origItem&quot;:[&quot;Path&quot;,{&quot;applyMatrix&quot;:true,&quot;segments&quot;:[[[247.97987,210.45],[13.896,-11.458],[-20.384,16.808]],[[181.86587,254.13],[23.85,-11.506],[-9.436,4.552]],[[152.53787,265.686],[10.086,-2.986],[12.952,30.864]],[[208.38387,348.116],[-23.636,-23.664],[22.278,22.304]],[[284.14587,403.98],[-27.648,-15.062],[7.67,4.178]],[[307.59587,415.744],[-7.946,-3.678],[0.244,-6.336]],[[310.96787,396.65],[-2.436,7.594],[3.178,-9.908]],[330.43787,337.24],[[349.90987,277.828],[-3.304,9.868],[2.532,-7.564]],[[358.49787,260.436],[-3.556,5.254],[0,0]],[[357.84387,259.682],[0,0],[-14.616,-16.822]],[[315.12987,210.518],[7.108,8.182],[-12.418,-14.37]],[[287.76387,173.926],[8.34,12.858],[-12.674,12.792]]],&quot;closed&quot;:true,&quot;fillColor&quot;:[0,0,0,1]}]}" fill="#55af34" stroke="none" stroke-width="0.5" stroke-linecap="butt"/><path d="M26.4086,129.81365c0.002,-0.093 0.00116,-0.14031 -0.00084,-0.17231c0.009,-0.028 0.02216,-0.07234 0.04316,-0.16734c0.049,-0.223 0.10668,-0.44032 0.16568,-0.66032c0.026,-0.097 0.06432,-0.19359 0.10132,-0.28859c0.004,-0.008 0.00803,-0.01705 0.01203,-0.02305c0.044,-0.079 0.24356,-0.37899 0.26456,-0.43399c0.12,-0.135 0.24161,-0.26801 0.37461,-0.39201c0.012,-0.011 0.01003,-0.01005 0.02004,-0.01905c0.094,-0.068 0.18938,-0.13561 0.28938,-0.19361c0.181,-0.105 0.36768,-0.20104 0.55668,-0.29004c0.058,-0.012 0.47762,-0.1709 0.55162,-0.1929c0.27,-0.081 0.5449,-0.14823 0.8209,-0.20423c0.115,-0.024 0.23138,-0.0445 0.34638,-0.0655c0.055,-0.01 0.08814,-0.01618 0.12014,-0.02218c0.005,0 0.00501,-0.00001 0.01101,-0.00101c2.823,-0.357 5.64617,0.03885 8.35716,0.55985c3.224,0.62 6.43287,1.48668 9.56287,2.47168c2.613,0.821 5.23075,1.74776 7.79075,2.72276c0.798,0.305 1.59828,0.623 2.39128,0.94299c1.505,4.09 3.16434,8.16258 4.99934,12.11558c0.965,2.081 1.97854,4.14521 3.03954,6.17621c-9.004,1.337 -18.40945,0.04219 -26.39745,-4.49081c-3.019,-1.713 -5.80285,-3.86167 -8.17485,-6.40067c-0.999,-1.07 -1.83293,-2.10724 -2.62393,-3.30424c-0.402,-0.608 -0.77628,-1.23861 -1.11828,-1.88261c-0.139,-0.262 -0.27161,-0.52876 -0.3986,-0.79676c-0.037,-0.078 -0.2357,-0.53719 -0.2497,-0.56119c-0.227,-0.564 -0.42191,-1.14551 -0.57591,-1.73351c-0.064,-0.244 -0.11848,-0.49041 -0.16948,-0.73741c-0.03,-0.145 -0.05367,-0.29183 -0.07667,-0.43783c0,-0.006 0.00001,-0.00903 -0.00099,-0.01603c-0.046,-0.504 -0.04274,-0.99786 -0.03174,-1.50186z" data-paper-data="{&quot;noHover&quot;:false,&quot;origItem&quot;:[&quot;Path&quot;,{&quot;applyMatrix&quot;:true,&quot;segments&quot;:[[[50.15387,265.488],[-0.092,-1.008],[0.002,0.014]],[[50.15587,265.52],[0,-0.012],[0.046,0.292]],[[50.30987,266.394],[-0.06,-0.29],[0.102,0.494]],[[50.64987,267.866],[-0.128,-0.488],[0.308,1.176]],[[51.80387,271.326],[-0.454,-1.128],[0.028,0.048]],[[52.30387,272.446],[-0.074,-0.156],[0.254,0.536]],[[53.10187,274.036],[-0.278,-0.524],[0.684,1.288]],[[55.33987,277.792],[-0.804,-1.216],[1.582,2.394]],[[60.58787,284.38],[-1.998,-2.14],[4.744,5.078]],[[76.90187,297.114],[-6.038,-3.426],[15.976,9.066]],[[129.54787,306.12],[-18.008,2.674],[-2.122,-4.062]],[[123.45987,293.786],[1.93,4.162],[-3.67,-7.906]],[[113.46587,269.634],[3.01,8.18],[-1.586,-0.64]],[[108.69187,267.762],[1.596,0.61],[-5.12,-1.95]],[[93.17387,262.356],[5.226,1.642],[-6.26,-1.97]],[[74.11987,257.398],[6.448,1.24],[-5.422,-1.042]],[[57.42987,256.256],[5.646,-0.714],[-0.012,0.002]],[[57.40787,256.258],[0.01,0],[-0.064,0.012]],[[57.16787,256.302],[0.11,-0.02],[-0.23,0.042]],[[56.47587,256.432],[0.23,-0.048],[-0.552,0.112]],[[54.83587,256.838],[0.54,-0.162],[-0.148,0.044]],[[53.73387,257.222],[0.116,-0.024],[-0.378,0.178]],[[52.62187,257.8],[0.362,-0.21],[-0.2,0.116]],[[52.04387,258.186],[0.188,-0.136],[-0.02,0.018]],[[52.00387,258.224],[0.024,-0.022],[-0.266,0.248]],[[51.25587,259.006],[0.24,-0.27],[-0.042,0.11]],[[50.72787,259.872],[0.088,-0.158],[-0.008,0.012]],[[50.70387,259.918],[0.008,-0.016],[-0.074,0.19]],[[50.50187,260.494],[0.052,-0.194],[-0.118,0.44]],[[50.17187,261.812],[0.098,-0.446],[-0.042,0.19]],[[50.08587,262.146],[0.018,-0.056],[0.004,0.064]],[[50.08787,262.49],[0.004,-0.186],[-0.022,1.008]]],&quot;closed&quot;:true,&quot;fillColor&quot;:[0,0,0,1]}]}" fill="#67d440" stroke="none" stroke-width="0.5" stroke-linecap="butt"/><path d="M346.48877,212.5484c7.432,-5.664 14.2425,-12.14531 20.0875,-19.44431c5.759,-7.192 10.63622,-15.1392 14.28822,-23.6052c2.511,-5.822 4.55443,-11.87627 5.80443,-18.09827c0.297,-1.476 0.57194,-2.97719 0.77094,-4.48419c3.597,1.839 7.40556,3.29608 11.31756,4.29608c10.826,2.767 22.38038,1.91692 32.69637,-2.35507c0.661,-0.274 1.31927,-0.56564 1.97427,-0.86764c-0.457,1.538 -0.9334,3.07233 -1.4984,4.58832c-0.47,1.263 -0.96669,2.51714 -1.48769,3.75914c-0.025,0.058 -0.06291,0.14917 -0.1169,0.27317c-0.077,0.177 -0.15282,0.35433 -0.22982,0.53133c-0.138,0.316 -0.27666,0.6316 -0.41766,0.9466c-0.336,0.75 -0.68022,1.49751 -1.03422,2.23951c-1.545,3.238 -3.25475,6.40321 -5.13175,9.46121c-4.586,7.472 -9.997,14.15883 -16.546,20.09583c-7.772,7.046 -16.9412,12.63632 -26.7512,16.35432c-10.79,4.089 -22.23465,5.97919 -33.72565,6.30919z" data-paper-data="{&quot;noHover&quot;:false,&quot;origItem&quot;:[&quot;Path&quot;,{&quot;applyMatrix&quot;:true,&quot;segments&quot;:[[[757.64387,415.204],[-21.58,8.178],[19.62,-7.436]],[[811.02587,382.538],[-15.544,14.092],[13.098,-11.874]],[[844.10787,342.426],[-9.172,14.944],[3.754,-6.116]],[[854.37787,323.52],[-3.09,6.476],[0.708,-1.484]],[[856.44787,319.044],[-0.672,1.5],[0.282,-0.63]],[[857.28387,317.152],[-0.276,0.632],[0.154,-0.354]],[[857.74387,316.09],[-0.154,0.354],[0.108,-0.248]],[[857.97787,315.544],[-0.05,0.116],[1.042,-2.484]],[[860.95587,308.03],[-0.94,2.526],[1.13,-3.032]],[[863.95587,298.858],[-0.914,3.076],[-1.31,0.604]],[[860.00787,300.594],[1.322,-0.548],[-20.632,8.544]],[[794.66587,305.34],[21.652,5.534],[-7.824,-2]],[[772.06787,296.752],[7.194,3.678],[-0.398,3.014]],[[770.52987,305.72],[0.594,-2.952],[-2.5,12.444]],[[758.97587,341.892],[5.022,-11.644],[-7.304,16.932]],[[730.41987,388.978],[11.518,-14.384],[-11.69,14.598]],[[690.23787,427.856],[14.864,-11.328],[22.982,-0.66]]],&quot;closed&quot;:true,&quot;fillColor&quot;:[0,0,0,1]}]}" fill="#67d440" stroke="none" stroke-width="0.5" stroke-linecap="butt"/><path d="M423.33525,147.69141c-20.07,5.131 -41.39101,-3.90419 -53.45801,-20.37519c-5.258,-7.176 -8.99746,-15.86926 -9.03645,-24.87626c-0.038,-8.773 3.71604,-17.07703 9.63404,-23.45203c14.077,-15.163 37.5249,-19.53227 57.0329,-14.43227c17.467,4.566 34.62283,18.29915 34.71283,37.73615c-0.009,2.033 -0.17894,4.063 -0.54694,6.063c-3.486,18.932 -20.00736,34.6516 -38.33837,39.3366z" data-paper-data="{&quot;noHover&quot;:false,&quot;origItem&quot;:[&quot;Path&quot;,{&quot;applyMatrix&quot;:true,&quot;segments&quot;:[[[920.42787,219.524],[-6.972,37.864],[0.736,-4]],[[921.52187,207.41],[-0.018,4.066],[-0.18,-38.874]],[[852.15987,132.024],[34.934,9.132],[-39.016,-10.2]],[[738.21387,160.85],[28.154,-30.326],[-11.836,12.75]],[[718.96187,207.706],[-0.076,-17.546],[0.078,18.014]],[[737.02387,257.406],[-10.516,-14.352],[24.134,32.942]],[[843.82387,298.106],[-40.14,10.262],[36.662,-9.37]]],&quot;closed&quot;:true,&quot;fillColor&quot;:[0,0,0,1]}]}" fill="#67d440" stroke="none" stroke-width="0.5" stroke-linecap="butt"/><path d="M444.42639,140.54582c-0.41044,0.283 -0.80978,0.443 -1.17086,0.579c-0.36163,0.136 -0.68166,0.256 -0.95344,0.358c-0.27177,0.106 -0.50695,0.087 -0.67833,0.111c-0.1725,0.008 -0.41598,0.018 -0.72104,0.031c-0.3045,0.011 -0.66724,0.04 -1.09043,-0.046c-0.84195,-0.103 -1.88247,-0.417 -2.98732,-1.052c-1.10652,-0.622 -2.27459,-1.555 -3.40163,-2.739c-1.12593,-1.188 -2.21026,-2.619 -3.20585,-4.147c-1.99672,-3.054 -3.61795,-6.511 -4.72724,-9.167c-1.11095,-2.662 -1.71829,-4.547 -1.71829,-4.547c0,0 0.79924,1.894 2.17476,4.425c1.37108,2.527 3.34062,5.692 5.55698,8.164c1.10596,1.233 2.26628,2.293 3.39443,3.062c1.12926,0.768 2.22302,1.226 3.17257,1.433c0.95177,0.223 1.75379,0.149 2.34449,0.05c0.59181,-0.16 0.97673,-0.264 1.08377,-0.293c0.05269,-0.018 0.16418,-0.023 0.32669,-0.035c0.16195,-0.037 0.37494,-0.086 0.63174,-0.145c0.25847,-0.05 0.5613,-0.109 0.90019,-0.175c0.33722,-0.127 0.71105,-0.268 1.11317,-0.419c1.60958,-0.654 3.66288,-2.051 5.57474,-3.99c1.91852,-1.911 3.69782,-4.266 4.95243,-6.186c1.26237,-1.91 2.02501,-3.349 2.02501,-3.349c0,0 -0.56351,1.512 -1.56743,3.653c-1.00169,2.141 -2.45098,4.917 -4.16872,7.445c-1.7133,2.525 -3.70614,4.781 -5.54035,6.123c-0.45481,0.34 -0.9074,0.59 -1.32006,0.856z" fill="#152345" stroke="none" stroke-width="1" stroke-linecap="butt"/><path d="M415.65368,78.01128c2.911,0.22 5.899,0.672 8.596,1.837c1.533,0.662 3.157,1.699 3.523,3.395c0.063,0.152 0.095,0.33 0.085,0.535c0.01,0.196 -0.02,0.368 -0.078,0.516c-0.723,3.759 -7.066,4.651 -10.007,5.031c-5.544,0.716 -12.003,0.635 -17.203,-1.674c-1.414,-0.628 -3.021,-1.615 -3.402,-3.236c-0.392,-1.666 0.822,-3.013 2.122,-3.846c1.977,-1.267 4.465,-1.817 6.751,-2.177c3.174,-0.501 6.409,-0.623 9.613,-0.381zM402.51268,81.80828c-0.817,0.286 -2.632,0.886 -2.897,1.846c-0.177,0.641 1.217,1.371 1.833,1.664c3.98,1.89 9.012,2.015 13.319,1.782c2.486,-0.134 4.996,-0.472 7.369,-1.252c0.845,-0.278 3.171,-1.048 3.222,-2.071c-0.039,-0.782 -1.659,-1.477 -2.344,-1.756c-1.979,-0.806 -4.169,-1.194 -6.284,-1.413c-4.666,-0.483 -9.749,-0.363 -14.218,1.2z" fill="#152345" stroke="none" stroke-width="1" stroke-linecap="butt"/><path d="M434.12968,71.59228c-0.627,2.591 -4.678,3.24 -6.839,3.525c-3.772,0.499 -8.12,0.429 -11.655,-1.143c-1.05,-0.467 -2.151,-1.219 -2.426,-2.407c-0.293,-1.264 0.563,-2.318 1.564,-2.961c1.324,-0.851 2.98,-1.238 4.513,-1.483c2.122,-0.339 4.282,-0.436 6.426,-0.277c2.04,0.151 4.128,0.468 6.008,1.309c1.075,0.48 2.09,1.222 2.396,2.357c0.067,0.157 0.103,0.339 0.091,0.553c0.011,0.2 -0.018,0.376 -0.078,0.527zM415.64668,71.08428c-0.022,0.057 -0.002,0.184 0,0zM431.46768,70.86428c-0.328,-0.257 -0.733,-0.439 -1.118,-0.591c-1.212,-0.477 -2.544,-0.72 -3.833,-0.856c-2.982,-0.314 -6.196,-0.244 -9.067,0.701c-0.464,0.153 -0.924,0.333 -1.337,0.599c-0.123,0.079 -0.221,0.162 -0.335,0.249c-0.052,0.039 -0.09,0.064 -0.112,0.079c0.011,0.013 0.023,0.028 0.01,0.015c0.282,0.304 0.658,0.5 1.031,0.671c2.559,1.171 5.757,1.236 8.51,1.085c1.585,-0.087 3.179,-0.307 4.691,-0.804c0.484,-0.159 0.994,-0.348 1.414,-0.646c0.104,-0.074 0.309,-0.255 0.347,-0.284c0.004,-0.003 0.005,-0.008 0.009,-0.011c-0.027,-0.035 -0.099,-0.121 -0.21,-0.207z" fill="#152345" stroke="none" stroke-width="1" stroke-linecap="butt"/><path d="M408.79468,74.63528c-0.627,2.591 -4.678,3.239 -6.839,3.525c-3.772,0.499 -8.12,0.429 -11.655,-1.143c-1.05,-0.467 -2.151,-1.219 -2.426,-2.408c-0.293,-1.264 0.563,-2.318 1.564,-2.961c1.324,-0.851 2.98,-1.238 4.513,-1.483c2.122,-0.34 4.282,-0.437 6.426,-0.278c2.04,0.151 4.128,0.468 6.008,1.309c1.075,0.48 2.09,1.222 2.396,2.358c0.067,0.157 0.103,0.339 0.091,0.553c0.011,0.201 -0.018,0.377 -0.078,0.528zM390.31168,74.12628c-0.022,0.058 -0.002,0.184 0,0zM406.13268,73.90628c-0.328,-0.257 -0.733,-0.439 -1.118,-0.59c-1.212,-0.476 -2.544,-0.721 -3.833,-0.856c-2.982,-0.314 -6.196,-0.244 -9.068,0.701c-0.464,0.153 -0.924,0.333 -1.337,0.599c-0.123,0.079 -0.221,0.162 -0.335,0.249c-0.052,0.039 -0.09,0.064 -0.112,0.079c0.011,0.013 0.023,0.028 0.01,0.015c0.282,0.304 0.658,0.5 1.031,0.671c2.559,1.171 5.757,1.236 8.51,1.085c1.585,-0.087 3.179,-0.307 4.691,-0.804c0.484,-0.16 0.994,-0.348 1.413,-0.646c0.104,-0.074 0.309,-0.255 0.347,-0.284c0.004,-0.003 0.005,-0.008 0.009,-0.011c-0.025,-0.035 -0.097,-0.121 -0.208,-0.208z" fill="#152345" stroke="none" stroke-width="1" stroke-linecap="butt"/><path d="M435.34468,121.88328c-2.869,0 -5.196,-4.146 -5.196,-9.262c0,-5.115 2.326,-9.262 5.196,-9.262c2.869,0 5.196,4.147 5.196,9.262c0,5.115 -2.327,9.262 -5.196,9.262z" fill="#152345" stroke="none" stroke-width="1" stroke-linecap="butt"/><path d="M419.5806,36.00629c0,0 59.34415,6.81476 44.69632,57.2045c-1.51987,5.2285 -107.70251,23.49333 -108.29362,-7.27254c-1.14742,-59.72002 63.5973,-49.93196 63.5973,-49.93196z" fill="#ff0000" stroke="#000000" stroke-width="3.5" stroke-linecap="round"/><path d="M398.61767,103.39558l2.02522,45.56752" fill="none" stroke="#152345" stroke-width="3.5" stroke-linecap="round"/></g></g></svg>