<svg version="1.1" xmlns="http://www.w3.org/2000/svg" xmlns:xlink="http://www.w3.org/1999/xlink" width="445.61634" height="274.75643" viewBox="0,0,445.61634,274.75643"><g transform="translate(-22.73592,-33.65974)"><g data-paper-data="{&quot;isPaintingLayer&quot;:true}" fill-rule="nonzero" stroke-linejoin="miter" stroke-miterlimit="10" stroke-dasharray="" stroke-dashoffset="0" style="mix-blend-mode: normal"><g stroke-width="3.5"><g stroke="none" stroke-linecap="butt"><path d="M311.08564,187.45468c-7.32384,1.03053 0.13979,-0.20326 0.18863,-0.14952c10.54103,11.60134 13.87388,28.39522 14.95506,43.5452c0.53153,7.44102 0.53391,14.90778 0.11272,22.35362c-0.17139,3.01943 -0.31587,6.08388 -0.73329,9.08089c-0.63502,4.55756 -2.82169,8.78587 -6.22249,11.89576c-3.78657,3.46156 -8.70353,4.76202 -13.59064,5.86708c-5.2264,1.18234 -10.58901,1.80967 -15.95,1.79052c-8.43988,-0.03033 -16.90866,-1.80704 -24.58749,-5.32738c-3.10142,-1.42228 -6.27157,-3.04893 -9.00282,-5.11268c-3.67337,-2.77599 -6.27727,-6.79665 -7.296,-11.28869c-0.51426,-2.26892 -0.61816,-4.68427 -0.27299,-6.98565c0.40503,-2.69414 1.25823,-5.3185 1.76737,-7.99626c0.90278,-4.74314 1.42603,-9.56324 1.47078,-14.39311c0.03558,-3.821 -0.24731,-7.63244 -0.8953,-11.39853c-0.26451,-1.53348 -0.58678,-3.058 -0.97446,-4.5651c-0.18562,-0.72089 -0.38462,-1.43671 -0.59996,-2.14866c-0.09013,-0.2991 -0.18339,-0.59642 -0.27872,-0.89288c-0.03299,-0.10058 -0.17443,-0.52462 -0.19493,-0.58921c-0.59908,-1.73557 -1.29946,-3.44222 -2.13309,-5.07909c-0.12679,-0.24856 64.37161,-18.36022 64.23763,-18.60628zM266.5325,273.02004c0.03316,-1.54652 0.03738,-3.09507 -0.00292,-4.63775c-0.1022,-3.89992 -0.41982,-7.85818 -1.3866,-11.65281c-0.36575,-1.43437 -1.03754,-3.31844 -1.70506,-4.32703c-0.23366,-0.35336 -0.50506,-0.68332 -0.79611,-0.99062c-0.01775,-0.0183 -0.18194,-0.16323 -0.23641,-0.21522c-0.10059,-0.08029 -0.20111,-0.16159 -0.30853,-0.23033c-0.32418,-0.20739 -0.8331,-0.41078 -1.31834,-0.46714c-0.50418,-0.0577 -0.84631,0.04543 -1.53952,0.47761c0.15211,-0.09551 -0.49117,0.39635 -0.6402,0.53317c-0.27782,0.25704 -0.35592,0.34075 -0.50563,0.51563c-1.14483,1.33258 -1.92937,2.85804 -2.59622,4.39183c-0.7936,1.82357 -1.45681,3.73154 -1.95735,5.66405c2.37959,5.35015 7.67245,8.60155 12.99286,10.93861zM294.22455,277.98147c3.22079,-0.20936 6.42464,-0.67556 9.58733,-1.33915c0.48869,-3.16843 0.62583,-6.4409 0.44543,-9.61754c-0.26865,-4.7217 -1.56325,-10.61469 -5.54074,-13.55553c-4.50821,-3.33225 -11.10281,-2.59252 -15.18064,0.94769c-4.08845,3.54848 -6.28852,8.95879 -7.75873,14.15604c-0.32762,1.15979 -0.61289,2.33058 -0.87253,3.50719c-0.01363,0.0652 -0.04509,0.21235 -0.05873,0.27755c-0.02498,0.12655 -0.05104,0.25404 -0.07611,0.38158c-0.04054,0.20465 -0.08007,0.40937 -0.11769,0.61523c-0.08219,0.4393 -0.15839,0.87902 -0.22968,1.32009c-0.06235,0.38557 -0.12077,0.77241 -0.17621,1.15945c6.46709,1.87177 13.24377,2.58349 19.97829,2.14739zM319.96386,267.54283c1.80565,-3.10739 2.05075,-6.5597 2.32681,-10.05293c-0.61878,-1.48535 -1.55224,-3.42601 -3.15968,-3.77425c-0.40874,-0.08904 -0.75453,-0.01926 -1.15295,0.05782c-0.46048,0.08975 -0.12476,-0.00782 -0.56697,0.22056c-0.11338,0.05814 -0.22498,0.11942 -0.33387,0.18491c-0.02208,0.01448 -0.04415,0.02896 -0.05576,0.03716c-0.21463,0.15725 -0.41634,0.33047 -0.61065,0.51221c-0.63318,0.58981 -1.23628,1.47748 -1.77757,2.44071c-0.54236,0.96416 -1.00679,2.0882 -1.4175,3.204c-0.90812,2.46509 -1.57136,5.03973 -2.09168,7.60642c-0.4746,2.34537 -0.86424,4.72281 -1.14516,7.10793c0.14132,-0.04213 0.28329,-0.07923 0.42363,-0.12142c4.05266,-1.2132 7.42688,-3.74853 9.56136,-7.42313zM308.9934,190.5798c-19.38579,4.28425 -71.80876,22.15129 -58.64639,14.15866c1.22212,2.4092 2.15326,4.9923 2.90606,7.55978c1.98998,6.79126 2.63815,13.97185 2.35191,21.02624c-0.19903,4.88512 -0.8902,9.72643 -1.90682,14.50564c-0.4668,2.19254 -1.16395,4.35375 -1.388,6.58651c0.25268,-0.53953 0.50722,-1.07691 0.78485,-1.60063c1.77193,-3.33934 4.86667,-6.92701 9.07486,-5.85955c3.93142,0.99776 5.65547,5.269 6.58757,8.80254c1.58066,5.98739 1.79491,12.54182 1.4906,18.75985c0.125,0.04693 0.25235,0.08902 0.37842,0.13502c0.48577,-3.34006 1.31789,-6.67266 2.39066,-9.83588c1.98869,-5.86635 5.18461,-11.83481 10.66051,-15.09972c5.73649,-3.41994 13.77628,-2.73619 18.62949,1.91268c3.66733,3.5134 5.06643,8.67993 5.54268,13.66996c0.75297,-3.31916 1.77303,-6.57332 3.31843,-9.55876c1.11248,-2.15089 2.69889,-4.38358 5.03305,-5.31025c2.58169,-1.02447 4.75379,-0.32554 6.45967,1.1685c0.05893,-1.18781 0.11784,-2.37561 0.15481,-3.56496c0.22759,-7.2881 0.05681,-14.59935 -0.75898,-21.84794c-1.54943,-13.77357 -2.27911,-26.02921 -13.06342,-35.60767z" data-paper-data="{&quot;index&quot;:null}" fill="#152345"/><path d="M310.37806,275.00958c-0.14032,0.0422 -0.28338,0.07866 -0.4247,0.12079c0.28093,-2.38513 0.65465,-4.77759 1.12925,-7.12295c0.52032,-2.56669 1.19538,-5.20958 2.1035,-7.67466c0.41072,-1.11581 0.89396,-2.2484 1.43631,-3.21254c0.54129,-0.96322 1.15599,-1.85207 1.78916,-2.44189c0.1943,-0.18174 0.39892,-0.35481 0.61356,-0.51209c0.0116,-0.0082 0.03394,-0.02267 0.05601,-0.03714c0.10889,-0.06548 0.222,-0.12663 0.33538,-0.18477c0.44221,-0.22838 0.10895,-0.13048 0.56942,-0.22023c0.39842,-0.07709 0.74917,-0.14582 1.15791,-0.05677c1.60744,0.34824 2.56062,2.2993 3.1794,3.78463c-0.27606,3.49323 -0.51503,7.01514 -2.32069,10.12252c-2.13448,3.67461 -5.57183,6.22189 -9.62449,7.43509z" data-paper-data="{&quot;noHover&quot;:false,&quot;origItem&quot;:[&quot;Path&quot;,{&quot;applyMatrix&quot;:true,&quot;segments&quot;:[[[704.65248,589.44356],[-3.74,7.632],[3.164,-6.454]],[[707.87648,569.05956],[-0.058,7.008],[-1.444,-2.876]],[[701.04048,561.97556],[3.256,0.468],[-0.828,-0.12]],[[698.74848,562.25356],[0.784,-0.21],[-0.906,0.244]],[[697.64848,562.77356],[0.85,-0.518],[-0.218,0.132]],[[697.00848,563.18956],[0.208,-0.146],[-0.042,0.032]],[[696.90248,563.27156],[0.022,-0.018],[-0.406,0.344]],[[695.75648,564.37956],[0.362,-0.39],[-1.18,1.266]],[[692.55448,569.49956],[0.944,-1.998],[-0.946,2]],[[690.17848,576.09156],[0.662,-2.284],[-1.464,5.046]],[[687.07848,591.56156],[0.676,-5.194],[-0.616,4.746]],[[685.79648,605.90356],[0.224,-4.798],[0.276,-0.104]],[[686.62448,605.60156],[-0.274,0.104],[7.914,-2.992]]],&quot;closed&quot;:true,&quot;fillColor&quot;:[0,0,0,1]}]}" fill="#67d440"/><path d="M274.2055,275.86306c0.05544,-0.38706 0.11259,-0.77579 0.17493,-1.16136c0.07128,-0.44107 0.14603,-0.88319 0.22822,-1.32249c0.03762,-0.20587 0.07648,-0.4118 0.11702,-0.61645c0.02506,-0.12755 0.05071,-0.25582 0.07569,-0.38237c0.01363,-0.0652 0.0448,-0.21294 0.05843,-0.27814c0.25964,-1.17661 0.54156,-2.35625 0.86917,-3.51603c1.47022,-5.19726 3.69209,-10.66327 7.78054,-14.21175c4.07785,-3.54021 10.72969,-4.27683 15.2379,-0.94457c3.97749,2.94085 5.29058,8.88123 5.55923,13.60295c0.1804,3.17663 0.03181,6.47367 -0.45687,9.6421c-3.16268,0.6636 -6.38904,1.14475 -9.60983,1.3541c-6.73452,0.43611 -13.56735,-0.29421 -20.03444,-2.16599z" data-paper-data="{&quot;noHover&quot;:false,&quot;origItem&quot;:[&quot;Path&quot;,{&quot;applyMatrix&quot;:true,&quot;segments&quot;:[[[654.7745,613.89956],[-13.374,1.82],[6.396,-0.872]],[[673.7125,609.87556],[-6.216,1.77],[0.528,-6.39]],[[673.2445,590.62556],[0.808,6.312],[-1.202,-9.382]],[[660.2785,564.36356],[8.35,5.306],[-9.464,-6.012]],[[630.1265,568.39556],[7.636,-7.638],[-7.656,7.656]],[[616.6445,597.73156],[2.2,-10.576],[-0.49,2.36]],[[615.3985,604.85156],[0.352,-2.384],[-0.018,0.132]],[[615.3205,605.41356],[0.018,-0.132],[-0.032,0.256]],[[615.2225,606.18556],[0.032,-0.258],[-0.052,0.414]],[[615.0745,607.42956],[0.046,-0.416],[-0.102,0.888]],[[614.8025,610.09556],[0.08,-0.89],[-0.07,0.778]],[[614.6145,612.43356],[0.056,-0.78],[13.166,2.822]]],&quot;closed&quot;:true,&quot;fillColor&quot;:[0,0,0,1]}]}" fill="#67d440"/><path d="M253.48979,262.08537c0.50054,-1.93251 1.17878,-3.88032 1.97238,-5.70388c0.66684,-1.53379 1.47412,-3.07189 2.61895,-4.40447c0.1497,-0.17488 0.23075,-0.25922 0.50856,-0.51627c0.14902,-0.13682 0.7957,-0.62919 0.64359,-0.53368c0.69321,-0.43218 1.04252,-0.53563 1.54671,-0.47792c0.48524,0.05637 1.00037,0.26034 1.32455,0.46771c0.10742,0.06874 0.20953,0.15031 0.31013,0.23061c0.05447,0.05197 0.21994,0.19717 0.2377,0.21547c0.29105,0.30729 0.56742,0.63859 0.80107,0.99195c0.66753,1.00859 1.35873,2.9044 1.72447,4.33877c0.96678,3.79463 1.28265,7.82614 1.38484,11.72605c0.0403,1.54269 0.02628,3.09801 -0.00687,4.64453c-5.32042,-2.33707 -10.6865,-5.62871 -13.06608,-10.97886z" data-paper-data="{&quot;noHover&quot;:false,&quot;origItem&quot;:[&quot;Path&quot;,{&quot;applyMatrix&quot;:true,&quot;segments&quot;:[[[598.82848,607.90756],[-10.944,-3.912],[-0.152,-3.09]],[[598.16848,598.65556],[0.298,3.072],[-0.754,-7.766]],[[593.75848,575.60356],[2.464,7.434],[-0.932,-2.81]],[[589.74648,567.21156],[1.474,1.918],[-0.516,-0.672]],[[588.01848,565.34756],[0.624,0.572],[-0.038,-0.034]],[[587.51648,564.95156],[0.116,0.096],[-0.212,-0.146]],[[586.86848,564.53556],[0.224,0.122],[-0.676,-0.368]],[[584.17248,563.78956],[0.976,0.044],[-1.014,-0.044]],[[581.16848,564.95956],[1.322,-0.96],[0.29,-0.212]],[[579.96648,566.11356],[0.278,-0.294],[-0.518,0.552]],[[579.03048,567.21356],[0.274,-0.37],[-2.096,2.82]],[[574.47048,576.34156],[1.114,-3.154],[-1.326,3.75]],[[571.36448,587.91756],[0.726,-3.926],[5.502,10.338]]],&quot;closed&quot;:true,&quot;fillColor&quot;:[0,0,0,1]}]}" fill="#67d440"/><path d="M322.10614,226.17928c0.8158,7.24858 0.98336,14.58733 0.75577,21.87543c-0.03697,1.18936 -0.09758,2.38076 -0.15651,3.56856c-1.70588,-1.49404 -3.87928,-2.19061 -6.46096,-1.16614c-2.33417,0.92669 -3.92664,3.16761 -5.03912,5.31851c-1.54541,2.98544 -2.57428,6.24731 -3.32726,9.56647c-0.47625,-4.99001 -1.87051,-10.16032 -5.53786,-13.67373c-4.85321,-4.64886 -12.93052,-5.32027 -18.66701,-1.90034c-5.47591,3.26492 -8.68497,9.23038 -10.67366,15.09673c-1.07277,3.16321 -1.87101,6.40174 -2.3568,9.7418c-0.12606,-0.04601 -0.28642,0.00631 -0.41142,-0.04063c0.30431,-6.21802 0.07803,-12.77866 -1.50261,-18.76605c-0.93211,-3.53353 -2.66961,-7.81887 -6.60104,-8.81663c-4.20819,-1.06745 -7.21861,2.46646 -8.99054,5.80581c-0.27763,0.52373 -0.6158,1.11591 -0.86848,1.65543c0.22403,-2.23276 0.91784,-4.39975 1.38464,-6.5923c1.0166,-4.77921 1.70266,-9.64087 1.90169,-14.52599c0.28625,-7.05437 -0.35435,-14.26324 -2.34432,-21.05448c-0.75279,-2.56748 -1.68078,-5.15506 -2.9029,-7.56427c-13.16237,7.99263 39.32459,-9.88687 58.71039,-14.17112c10.78431,9.57845 11.53855,21.86937 13.08799,35.64294z" data-paper-data="{&quot;noHover&quot;:false,&quot;origItem&quot;:[&quot;Path&quot;,{&quot;applyMatrix&quot;:true,&quot;segments&quot;:[[[671.91,437.44826],[22.866,17.588],[-38.0707,11.28166]],[[556.90648,473.96756],[-25.13176,17.8021],[2.778,4.634]],[[563.77048,488.63956],[-1.864,-5.016],[4.928,13.268]],[[571.42848,530.25556],[-0.424,-14.114],[0.292,9.774]],[[569.67048,559.46356],[1.354,-9.678],[-0.622,4.44]],[[567.83048,572.79956],[0.132,-4.486],[0.428,-1.112]],[[569.17048,569.49556],[-0.48,1.084],[3.064,-6.912]],[[586.44848,556.52556],[-8.546,-1.536],[7.984,1.436]],[[600.83248,573.15756],[-2.358,-6.918],[3.998,11.722]],[[606.45248,610.37356],[-0.27,-12.448],[0.256,0.076]],[[607.22648,610.58956],[-0.258,-0.074],[0.498,-6.732]],[[610.60848,590.62956],[-1.694,6.462],[3.14,-11.984]],[[629.74648,559.00156],[-10.464,7.286],[10.962,-7.632]],[[667.18248,560.18956],[-10.338,-8.59],[7.812,6.492]],[[680.16848,586.67956],[-1.654,-9.888],[1.034,-6.728]],[[685.44048,567.14156],[-2.662,6.174],[1.916,-4.448]],[[694.73248,555.83756],[-4.526,2.178],[5.006,-2.408]],[[707.78448,557.25756],[-3.614,-2.74],[-0.05,-2.378]],[[707.59048,550.12356],[0.094,2.378],[-0.574,-14.572]],[[702.99448,506.64356],[2.65,14.346],[-5.034,-27.26]]],&quot;closed&quot;:true,&quot;fillColor&quot;:[0,0,0,1]}]}" fill="#67d440"/></g><path d="M281.88294,280.98033c-0.51114,7.22925 -6.52665,12.69368 -13.43602,12.20515c-6.90935,-0.48852 -12.09615,-6.745 -11.58501,-13.97426c0.51114,-7.22925 6.52665,-12.69368 13.43601,-12.20515c6.90935,0.48852 12.09616,6.745 11.58502,13.97426z" fill="#000000" stroke="#000000" stroke-linecap="butt"/><path d="M315.22792,283.57079c-0.52019,7.3572 -6.49119,12.92901 -13.33655,12.445c-6.84541,-0.48401 -11.97301,-6.84058 -11.45282,-14.19773c0.52019,-7.3572 6.49118,-12.92905 13.33659,-12.44504c6.84541,0.48401 11.97297,6.84056 11.45279,14.19777z" fill="#000000" stroke="#000000" stroke-linecap="butt"/><path d="M300.25373,283.73844c-4.56246,-1.02839 4.578,-9.01123 4.578,-9.01123l7.86127,0.28909c0,0 8.67451,10.41342 1.48119,9.70638c-5.42105,-0.53282 -10.60319,-0.23653 -13.92046,-0.98424z" fill="#1fba00" stroke="#1fba00" stroke-linecap="round"/><path d="M260.16207,280.93379c-21.04524,-1.42491 -6.43165,-46.82826 -6.43165,-46.82826l71.14925,6.07444c0,0 5.30216,45.60897 -10.80594,44.56563c-42.43227,-2.74848 -0.5959,-0.2019 -53.91165,-3.81181z" fill="#ff0000" stroke="#000000" stroke-linecap="butt"/><path d="M297.01074,281.55941c0,0 5.46512,-4.45184 5.96747,-8.87374c0.50234,-4.42191 -4.26208,-5.22366 -3.87229,-9.56945c0.3898,-4.34583 -7.39032,-7.67101 -5.23802,-12.6327c2.15229,-4.96168 5.61763,-6.72291 5.61763,-6.72291c0,0 8.05095,7.03421 10.14396,13.17739c2.09302,6.14315 -3.03958,4.0413 -3.11496,7.69098c-0.07532,3.6497 4.24334,5.03191 4.34942,8.41653c0.10607,3.38462 -3.80269,9.0268 -3.80269,9.0268z" data-paper-data="{&quot;index&quot;:null}" fill="#eac100" stroke="#000000" stroke-linecap="round"/><path d="M264.81592,279.19583c0,0 5.46512,-4.45184 5.96747,-8.87375c0.50234,-4.42191 -4.26209,-5.22361 -3.87229,-9.56945c0.3898,-4.34583 -7.39032,-7.67101 -5.23802,-12.63274c2.15229,-4.96168 5.61763,-6.72291 5.61763,-6.72291c0,0 8.05095,7.03426 10.14396,13.17739c2.09302,6.14315 -3.03959,4.04129 -3.11491,7.69098c-0.07532,3.6497 4.24334,5.03186 4.34937,8.41648c0.10607,3.38462 -3.80269,9.0268 -3.80269,9.0268z" data-paper-data="{&quot;index&quot;:null}" fill="#eac100" stroke="#eac100" stroke-linecap="round"/></g><g><g data-paper-data="{&quot;index&quot;:null}" stroke="none" stroke-linecap="butt"><path d="M160.93912,183.1179c-0.16398,0.22718 61.53162,26.33713 61.37446,26.5677c-1.03362,1.51852 -1.94387,3.12308 -2.75728,4.76913c-0.02849,0.0615 -0.22234,0.46428 -0.26776,0.55989c-0.132,0.28206 -0.26205,0.56522 -0.38922,0.85054c-0.30349,0.67907 -0.59128,1.36404 -0.86643,2.05572c-0.57485,1.4461 -1.08702,2.91773 -1.54302,4.40553c-1.1183,3.65413 -1.88014,7.39936 -2.32726,11.19427c-0.5654,4.79688 -0.65489,9.64446 -0.35818,14.46363c0.16698,2.72061 0.68203,5.43169 0.74366,8.15542c0.05185,2.32655 -0.35618,4.70946 -1.15277,6.89529c-1.57771,4.32747 -4.66841,7.98721 -8.66286,10.2772c-2.96995,1.70242 -6.32013,2.91579 -9.57628,3.93513c-8.06185,2.52269 -16.68718,3.21596 -25.06335,2.18047c-5.32052,-0.65785 -10.56099,-1.95723 -15.59631,-3.78996c-4.70848,-1.71325 -9.42192,-3.62409 -12.74114,-7.53601c-2.98096,-3.51438 -4.61627,-7.98492 -4.6708,-12.58618c-0.03568,-3.02574 0.20788,-6.0839 0.41908,-9.10082c0.52225,-7.43943 1.46732,-14.84615 2.93406,-22.16051c2.98529,-14.89224 8.41178,-31.13095 20.33317,-41.3086c0.05524,-0.04716 7.30336,2.11909 0.16823,0.17214zM208.60267,264.41291c-0.25255,-1.98025 -0.66957,-3.95669 -1.22657,-5.86586c-0.46785,-1.60571 -1.05352,-3.21802 -2.02094,-4.68448c-0.12643,-0.19238 -0.19334,-0.28527 -0.43648,-0.57533c-0.13055,-0.15455 -0.7066,-0.72369 -0.56776,-0.60973c-0.6331,-0.51625 -0.95947,-0.66175 -1.4669,-0.66816c-0.48846,-0.00535 -1.01899,0.13217 -1.36676,0.29696c-0.11524,0.05464 -0.22521,0.12259 -0.33514,0.18954c-0.06059,0.04468 -0.24176,0.16773 -0.2617,0.18364c-0.32753,0.26809 -0.63841,0.56114 -0.91482,0.88217c-0.78952,0.91625 -1.69382,2.70043 -2.23772,4.07713c-1.43813,3.64221 -2.25296,7.52869 -2.84672,11.3845c-0.23475,1.52525 -0.42606,3.06195 -0.58844,4.60027c5.57291,-1.64663 11.23393,-4.20376 14.26994,-9.21067zM186.32541,275.44121c-0.00613,-0.39096 -0.01525,-0.78207 -0.02841,-1.17242c-0.01503,-0.44654 -0.03511,-0.89236 -0.06117,-1.33852c-0.01132,-0.20895 -0.0247,-0.41704 -0.03907,-0.62517c-0.00876,-0.12969 -0.01851,-0.25945 -0.02732,-0.38813c-0.0053,-0.0664 -0.01791,-0.21634 -0.02321,-0.28273c-0.10901,-1.19999 -0.24418,-2.39743 -0.42275,-3.58929c-0.80228,-5.34129 -2.30165,-10.98606 -5.90938,-15.02233c-3.59825,-4.02673 -10.04667,-5.59314 -14.93952,-2.85673c-4.31696,2.41515 -6.34521,8.09752 -7.20785,12.74752c-0.58003,3.12844 -0.85714,6.39205 -0.7724,9.59682c3.05359,1.05759 6.17295,1.92455 9.34153,2.53888c6.62557,1.28288 13.43788,1.43245 20.08954,0.39214zM150.56808,270.01515c0.13387,0.05958 0.27003,0.11429 0.4049,0.17394c0.02246,-2.40151 -0.06391,-4.80912 -0.23859,-7.19564c-0.19209,-2.61185 -0.52497,-5.24962 -1.1146,-7.80964c-0.26655,-1.15874 -0.58536,-2.33242 -1.00164,-3.35734c-0.41534,-1.02385 -0.90154,-1.98057 -1.45519,-2.64561c-0.1698,-0.20483 -0.34804,-0.40211 -0.54109,-0.5852c-0.01048,-0.0096 -0.03055,-0.02676 -0.05062,-0.0439c-0.09975,-0.07871 -0.20271,-0.15359 -0.30785,-0.22559c-0.40983,-0.28239 -0.08912,-0.14322 -0.53458,-0.29037c-0.38551,-0.12677 -0.71971,-0.23966 -1.13643,-0.20293c-1.63855,0.14251 -2.80954,1.94979 -3.61091,3.34513c-0.16718,3.50013 -0.35992,6.95576 1.03897,10.26625c1.65347,3.91469 4.68058,6.85574 8.54763,8.57089zM145.16556,220.15558c-1.72443,7.08759 -2.81692,14.31877 -3.51131,21.57729c-0.11348,1.18451 -0.20499,2.37024 -0.29651,3.55598c1.88085,-1.2667 4.12383,-1.68581 6.55551,-0.34359c2.1985,1.21397 3.49034,3.62906 4.32234,5.9032c1.15612,3.15667 1.75716,6.51357 2.08503,9.90124c1.10245,-4.88995 3.14264,-9.83851 7.22422,-12.86079c5.40132,-3.99893 13.4631,-3.66214 18.7219,0.45468c5.01988,3.93016 7.43666,10.25435 8.66879,16.32484c0.66482,3.27335 1.06951,6.68435 1.12971,10.05902c0.13087,-0.02972 0.26252,-0.05539 0.39244,-0.08617c0.48318,-6.20668 1.52326,-12.68162 3.8472,-18.42154c1.37078,-3.38758 3.62028,-7.40696 7.64622,-7.90039c4.30929,-0.52761 6.92631,3.42207 8.26245,6.95841c0.20929,0.55458 0.39394,1.1198 0.57648,1.68692c0.05965,-2.24318 -0.35907,-4.47511 -0.54531,-6.70904c-0.40507,-4.86931 -0.47947,-9.75914 -0.06014,-14.63031c0.60669,-7.03407 2.15626,-14.07537 4.98775,-20.56105c1.07093,-2.4519 2.32075,-4.89677 3.83726,-7.13238c12.04793,9.59048 -37.69975,-14.75224 -56.3895,-21.44974c-11.90732,8.14024 -14.1785,20.20568 -17.4545,33.67342z" data-paper-data="{&quot;index&quot;:null}" fill="#152345" stroke-width="1"/><path d="M150.58679,270.06149c-3.86706,-1.71515 -6.9553,-4.67604 -8.60876,-8.59073c-1.39889,-3.3105 -1.19129,-6.83439 -1.0241,-10.33452c0.80136,-1.39533 1.99324,-3.21044 3.63179,-3.35293c0.41671,-0.03672 0.75596,0.07574 1.14147,0.20251c0.44546,0.14717 0.12723,0.00797 0.53706,0.29036c0.10514,0.072 0.20962,0.14693 0.30936,0.22565c0.02007,0.01716 0.0404,0.03432 0.05088,0.04391c0.19306,0.1831 0.37419,0.38062 0.54399,0.58545c0.55365,0.66504 1.05119,1.62438 1.46654,2.64823c0.41628,1.02491 0.75267,2.20945 1.01922,3.36818c0.58964,2.56002 0.92561,5.26697 1.1177,7.87883c0.17469,2.38653 0.24337,4.80702 0.22091,7.20853c-0.13488,-0.05964 -0.27218,-0.11386 -0.40605,-0.17346z" data-paper-data="{&quot;noHover&quot;:false,&quot;origItem&quot;:[&quot;Path&quot;,{&quot;applyMatrix&quot;:true,&quot;segments&quot;:[[[704.65248,589.44356],[-3.74,7.632],[3.164,-6.454]],[[707.87648,569.05956],[-0.058,7.008],[-1.444,-2.876]],[[701.04048,561.97556],[3.256,0.468],[-0.828,-0.12]],[[698.74848,562.25356],[0.784,-0.21],[-0.906,0.244]],[[697.64848,562.77356],[0.85,-0.518],[-0.218,0.132]],[[697.00848,563.18956],[0.208,-0.146],[-0.042,0.032]],[[696.90248,563.27156],[0.022,-0.018],[-0.406,0.344]],[[695.75648,564.37956],[0.362,-0.39],[-1.18,1.266]],[[692.55448,569.49956],[0.944,-1.998],[-0.946,2]],[[690.17848,576.09156],[0.662,-2.284],[-1.464,5.046]],[[687.07848,591.56156],[0.676,-5.194],[-0.616,4.746]],[[685.79648,605.90356],[0.224,-4.798],[0.276,-0.104]],[[686.62448,605.60156],[-0.274,0.104],[7.914,-2.992]]],&quot;closed&quot;:true,&quot;fillColor&quot;:[0,0,0,1]}]}" fill="#67d440" stroke-width="0.5"/><path d="M166.21458,275.09431c-3.16858,-0.61432 -6.30838,-1.49897 -9.36196,-2.55656c-0.08474,-3.20477 0.18412,-6.49418 0.76415,-9.62262c0.86265,-4.65 2.91523,-10.37707 7.23219,-12.79221c4.89284,-2.73641 11.39846,-1.16586 14.9967,2.86087c3.60772,4.03627 5.1217,9.73907 5.92398,15.08036c0.17856,1.19187 0.30931,2.39766 0.41831,3.59764c0.0053,0.0664 0.01756,0.21689 0.02284,0.2833c0.00881,0.12868 0.01805,0.25916 0.02681,0.38886c0.01438,0.20814 0.02694,0.41734 0.03825,0.62629c0.02606,0.44616 0.0444,0.89417 0.05943,1.34071c0.01317,0.39035 0.02078,0.78319 0.02691,1.17415c-6.65166,1.04029 -13.52201,0.90209 -20.14759,-0.38079z" data-paper-data="{&quot;noHover&quot;:false,&quot;origItem&quot;:[&quot;Path&quot;,{&quot;applyMatrix&quot;:true,&quot;segments&quot;:[[[654.7745,613.89956],[-13.374,1.82],[6.396,-0.872]],[[673.7125,609.87556],[-6.216,1.77],[0.528,-6.39]],[[673.2445,590.62556],[0.808,6.312],[-1.202,-9.382]],[[660.2785,564.36356],[8.35,5.306],[-9.464,-6.012]],[[630.1265,568.39556],[7.636,-7.638],[-7.656,7.656]],[[616.6445,597.73156],[2.2,-10.576],[-0.49,2.36]],[[615.3985,604.85156],[0.352,-2.384],[-0.018,0.132]],[[615.3205,605.41356],[0.018,-0.132],[-0.032,0.256]],[[615.2225,606.18556],[0.032,-0.258],[-0.052,0.414]],[[615.0745,607.42956],[0.046,-0.416],[-0.102,0.888]],[[614.8025,610.09556],[0.08,-0.89],[-0.07,0.778]],[[614.6145,612.43356],[0.056,-0.78],[13.166,2.822]]],&quot;closed&quot;:true,&quot;fillColor&quot;:[0,0,0,1]}]}" fill="#67d440" stroke-width="0.5"/><path d="M208.65164,264.42314c-3.03602,5.00691 -8.77475,7.59472 -14.34765,9.24136c0.16236,-1.53832 0.34482,-3.08298 0.57957,-4.60823c0.59377,-3.85581 1.41611,-7.81517 2.85424,-11.45738c0.54392,-1.37672 1.46894,-3.17009 2.25847,-4.08633c0.2764,-0.32103 0.59238,-0.61478 0.9199,-0.88287c0.01992,-0.01591 0.2024,-0.13905 0.263,-0.18374c0.10992,-0.06696 0.22151,-0.13498 0.33675,-0.1896c0.34777,-0.16479 0.88453,-0.30209 1.373,-0.29674c0.50743,0.00641 0.8409,0.15314 1.47399,0.66938c-0.13884,-0.11394 0.44049,0.45611 0.57106,0.61066c0.24315,0.29007 0.31289,0.38396 0.43932,0.57634c0.96743,1.46645 1.57405,3.09417 2.04192,4.69988c0.55702,1.90918 0.9839,3.92702 1.23645,5.90727z" data-paper-data="{&quot;noHover&quot;:false,&quot;origItem&quot;:[&quot;Path&quot;,{&quot;applyMatrix&quot;:true,&quot;segments&quot;:[[[598.82848,607.90756],[-10.944,-3.912],[-0.152,-3.09]],[[598.16848,598.65556],[0.298,3.072],[-0.754,-7.766]],[[593.75848,575.60356],[2.464,7.434],[-0.932,-2.81]],[[589.74648,567.21156],[1.474,1.918],[-0.516,-0.672]],[[588.01848,565.34756],[0.624,0.572],[-0.038,-0.034]],[[587.51648,564.95156],[0.116,0.096],[-0.212,-0.146]],[[586.86848,564.53556],[0.224,0.122],[-0.676,-0.368]],[[584.17248,563.78956],[0.976,0.044],[-1.014,-0.044]],[[581.16848,564.95956],[1.322,-0.96],[0.29,-0.212]],[[579.96648,566.11356],[0.278,-0.294],[-0.518,0.552]],[[579.03048,567.21356],[0.274,-0.37],[-2.096,2.82]],[[574.47048,576.34156],[1.114,-3.154],[-1.326,3.75]],[[571.36448,587.91756],[0.726,-3.926],[5.502,10.338]]],&quot;closed&quot;:true,&quot;fillColor&quot;:[0,0,0,1]}]}" fill="#67d440" stroke-width="0.5"/><path d="M145.11765,220.14123c3.27601,-13.46774 5.57601,-25.56506 17.48334,-33.7053c18.68975,6.69751 68.49933,31.06066 56.4514,21.47018c-1.51652,2.23562 -2.76377,4.68533 -3.83469,7.13723c-2.83148,6.48566 -4.3771,13.55595 -4.98379,20.59002c-0.41932,4.87116 -0.35257,9.78055 0.05251,14.64986c0.18624,2.23394 0.60092,4.47118 0.54125,6.71436c-0.18254,-0.5671 -0.44324,-1.19725 -0.65252,-1.75184c-1.33613,-3.53634 -3.87629,-7.42205 -8.18558,-6.89445c-4.02593,0.49342 -6.29058,4.52508 -7.66135,7.91266c-2.32394,5.73992 -3.37671,12.21949 -3.8599,18.42617c-0.12993,0.03077 -0.28239,-0.04136 -0.41326,-0.01164c-0.0602,-3.37466 -0.44317,-6.68805 -1.10799,-9.9614c-1.23213,-6.07048 -3.66234,-12.39337 -8.68222,-16.32353c-5.25881,-4.11682 -13.35626,-4.47058 -18.75757,-0.47166c-4.08158,3.02227 -6.11747,7.97517 -7.21991,12.86512c-0.32789,-3.38767 -0.9367,-6.75334 -2.09282,-9.91c-0.83201,-2.27413 -2.12881,-4.69819 -4.32731,-5.91216c-2.43167,-1.34222 -4.67565,-0.92562 -6.5565,0.34109c0.09151,-1.18574 0.18181,-2.37527 0.29529,-3.55978c0.69439,-7.25851 1.78717,-14.51737 3.51161,-21.60495z" data-paper-data="{&quot;noHover&quot;:false,&quot;origItem&quot;:[&quot;Path&quot;,{&quot;applyMatrix&quot;:true,&quot;segments&quot;:[[[671.91,437.44826],[22.866,17.588],[-38.0707,11.28166]],[[556.90648,473.96756],[-25.13176,17.8021],[2.778,4.634]],[[563.77048,488.63956],[-1.864,-5.016],[4.928,13.268]],[[571.42848,530.25556],[-0.424,-14.114],[0.292,9.774]],[[569.67048,559.46356],[1.354,-9.678],[-0.622,4.44]],[[567.83048,572.79956],[0.132,-4.486],[0.428,-1.112]],[[569.17048,569.49556],[-0.48,1.084],[3.064,-6.912]],[[586.44848,556.52556],[-8.546,-1.536],[7.984,1.436]],[[600.83248,573.15756],[-2.358,-6.918],[3.998,11.722]],[[606.45248,610.37356],[-0.27,-12.448],[0.256,0.076]],[[607.22648,610.58956],[-0.258,-0.074],[0.498,-6.732]],[[610.60848,590.62956],[-1.694,6.462],[3.14,-11.984]],[[629.74648,559.00156],[-10.464,7.286],[10.962,-7.632]],[[667.18248,560.18956],[-10.338,-8.59],[7.812,6.492]],[[680.16848,586.67956],[-1.654,-9.888],[1.034,-6.728]],[[685.44048,567.14156],[-2.662,6.174],[1.916,-4.448]],[[694.73248,555.83756],[-4.526,2.178],[5.006,-2.408]],[[707.78448,557.25756],[-3.614,-2.74],[-0.05,-2.378]],[[707.59048,550.12356],[0.094,2.378],[-0.574,-14.572]],[[702.99448,506.64356],[2.65,14.346],[-5.034,-27.26]]],&quot;closed&quot;:true,&quot;fillColor&quot;:[0,0,0,1]}]}" fill="#67d440" stroke-width="0.5"/></g><path d="M191.35673,267.18234c6.91573,0.38773 12.19321,6.56791 11.78754,13.80385c-0.40568,7.23594 -6.34087,12.78749 -13.25661,12.39978c-6.91573,-0.38773 -12.19322,-6.56791 -11.78755,-13.80385c0.40568,-7.23594 6.34087,-12.78749 13.25662,-12.39977z" data-paper-data="{&quot;index&quot;:null}" fill="#000000" stroke="#000000" stroke-width="0.5" stroke-linecap="butt"/><path d="M157.84855,265.3037c6.85174,0.38415 12.07148,6.66525 11.65863,14.02926c-0.41285,7.36396 -6.30196,13.02227 -13.15371,12.63815c-6.85169,-0.38413 -12.07144,-6.66521 -11.65859,-14.02922c0.41286,-7.36401 6.30193,-13.02232 13.15367,-12.63818z" data-paper-data="{&quot;index&quot;:null}" fill="#000000" stroke="#000000" stroke-width="0.5" stroke-linecap="butt"/><path d="M145.59477,279.21759c-7.22502,-0.2068 2.6948,-9.4417 2.6948,-9.4417l7.83487,0.70574c0,0 8.05944,9.07299 3.40366,9.51712c-3.38512,0.32292 -8.48838,-0.62529 -13.93333,-0.78115z" data-paper-data="{&quot;index&quot;:null}" fill="#1fba00" stroke="#1fba00" stroke-width="0.5" stroke-linecap="round"/><path d="M145.69153,279.25302c-16.11093,-0.99873 -5.09285,-45.5733 -5.09285,-45.5733l71.34682,2.9571c0,0 8.76428,46.88506 -12.29247,45.64151c-53.34488,-3.15033 -11.52177,-0.3945 -53.96151,-3.02529z" data-paper-data="{&quot;index&quot;:null}" fill="#ff0000" stroke="#000000" stroke-width="3.5" stroke-linecap="butt"/><path d="M152.98538,277.48647c0,0 -3.16514,-6.09052 -2.63258,-9.43467c0.53255,-3.34415 4.99115,-4.17006 5.37724,-7.80004c0.38603,-3.63001 -4.97087,-2.19297 -2.119,-8.02272c2.85188,-5.82978 11.72652,-11.79122 11.72652,-11.79122c0,0 3.21524,2.18465 4.72388,7.37837c1.50864,5.19373 -6.62905,7.51001 -6.79105,11.87029c-0.162,4.36022 -4.98952,4.55404 -5.04949,9.00399c-0.05997,4.44995 4.79937,9.55615 4.79937,9.55615z" data-paper-data="{&quot;index&quot;:null}" fill="#eac100" stroke="#000000" stroke-width="0" stroke-linecap="round"/><path d="M185.22099,279.20645c0,0 -3.16513,-6.09051 -2.63258,-9.43467c0.5325,-3.34415 4.99111,-4.17001 5.37718,-7.8c0.38608,-3.62999 -4.97083,-2.19298 -2.11895,-8.0227c2.85186,-5.82973 11.72651,-11.79122 11.72651,-11.79122c0,0 3.21524,2.18465 4.72388,7.37837c1.50862,5.19376 -6.62904,7.51006 -6.79105,11.87033c-0.16201,4.36026 -4.98952,4.55404 -5.04949,9.00399c-0.05997,4.44995 4.79937,9.55616 4.79937,9.55616z" data-paper-data="{&quot;index&quot;:null}" fill="#eac100" stroke="#eac100" stroke-width="0" stroke-linecap="round"/></g><g><g data-paper-data="{&quot;index&quot;:null}" stroke="none" stroke-linecap="butt"><path d="M133.78442,197.39923c-0.16249,0.22824 61.70297,25.93313 61.54731,26.16472c-1.02364,1.52527 -1.92335,3.13576 -2.72594,4.78712c-0.0281,0.06168 -0.21927,0.46572 -0.26408,0.56163c-0.13015,0.28292 -0.25833,0.56693 -0.38364,0.85308c-0.29902,0.68105 -0.58232,1.36786 -0.85293,2.06136c-0.56536,1.44984 -1.06786,2.92481 -1.51411,4.41555c-1.0943,3.66138 -1.83159,7.41153 -2.25381,11.2093c-0.53394,4.80049 -0.59163,9.64855 -0.26335,14.46565c0.1848,2.71946 0.71762,5.4271 0.79712,8.15036c0.06712,2.32614 -0.3253,4.71168 -1.10756,6.90269c-1.5493,4.33772 -4.61595,8.01765 -8.5953,10.33378c-2.95873,1.72185 -6.30087,2.95716 -9.55027,3.99782c-8.04512,2.57549 -16.66574,3.32528 -25.04852,2.34475c-5.32472,-0.62297 -10.57361,-1.88795 -15.62081,-3.68762c-4.71961,-1.68233 -9.44548,-3.56224 -12.79026,-7.45231c-3.00394,-3.49476 -4.66854,-7.95447 -4.75322,-12.55531c-0.05552,-3.02542 0.16798,-6.08513 0.35941,-9.10337c0.47344,-7.44269 1.36997,-14.85543 2.78872,-22.17926c2.88758,-14.91149 8.20749,-31.18544 20.06188,-41.441c0.05493,-0.04751 7.31712,2.07115 0.16935,0.17103zM181.97995,278.38c-0.26554,-1.97855 -0.69549,-3.95222 -1.265,-5.85769c-0.47835,-1.6026 -1.07459,-3.21103 -2.05163,-4.67111c-0.1277,-0.19156 -0.19519,-0.28401 -0.44025,-0.57246c-0.13158,-0.15369 -0.71133,-0.71904 -0.57174,-0.606c-0.63646,-0.51207 -0.96378,-0.65544 -1.47126,-0.65852c-0.48847,-0.00214 -1.0181,0.13885 -1.36479,0.30594c-0.11489,0.05539 -0.22441,0.12405 -0.33389,0.19173c-0.06029,0.04508 -0.2407,0.16931 -0.26048,0.18536c-0.32576,0.27023 -0.63471,0.56531 -0.90902,0.88816c-0.7835,0.9214 -1.67607,2.71147 -2.21095,4.09171c-1.41422,3.65157 -2.20355,7.54331 -2.77204,11.40291c-0.22475,1.52675 -0.40601,3.06468 -0.55825,4.60402c5.562,-1.68314 11.20613,-4.27735 14.20923,-9.30402zM159.77548,289.55415c-0.00869,-0.39091 -0.02037,-0.78196 -0.03611,-1.17221c-0.01795,-0.44645 -0.04096,-0.89211 -0.06997,-1.33807c-0.01268,-0.20888 -0.02744,-0.41686 -0.04315,-0.62489c-0.00961,-0.12962 -0.02019,-0.25931 -0.02984,-0.38795c-0.00572,-0.06636 -0.01933,-0.21622 -0.02506,-0.28257c-0.11686,-1.19926 -0.2599,-2.39577 -0.44627,-3.58645c-0.83727,-5.33591 -2.37365,-10.97073 -6.00774,-14.98326c-3.62457,-4.00304 -10.08313,-5.52713 -14.95791,-2.75873c-4.30103,2.44342 -6.29197,8.13895 -7.12412,12.79451c-0.55951,3.13217 -0.8152,6.39754 -0.70946,9.60165c3.06044,1.03754 6.18543,1.88404 9.35797,2.47759c6.63384,1.23944 13.44699,1.34432 20.09168,0.26044zM123.98333,284.36262c0.13428,0.05871 0.27076,0.11252 0.40604,0.17125c0.00673,-2.4016 -0.09544,-4.8086 -0.28577,-7.1939c-0.20921,-2.61054 -0.55936,-5.24605 -1.16577,-7.80217c-0.27415,-1.15697 -0.60066,-2.32853 -1.02362,-3.35069c-0.42203,-1.02111 -0.91452,-1.97463 -1.4725,-2.63602c-0.17114,-0.20371 -0.35068,-0.39981 -0.54493,-0.58166c-0.01056,-0.00952 -0.03072,-0.02655 -0.05091,-0.04358c-0.10028,-0.07805 -0.20372,-0.15226 -0.30931,-0.22356c-0.4117,-0.27967 -0.09006,-0.14262 -0.53647,-0.28686c-0.38634,-0.12425 -0.72129,-0.23494 -1.13771,-0.19547c-1.63759,0.15322 -2.7967,1.96818 -3.58888,3.36873c-0.14425,3.50114 -0.31431,6.95796 1.10625,10.2592c1.67907,3.90378 4.72542,6.82492 8.60366,8.51466zM118.254,234.53954c-1.67792,7.09875 -2.72299,14.33695 -3.36978,21.59985c-0.10571,1.18523 -0.18946,2.37152 -0.27319,3.55785c1.8725,-1.279 4.11268,-1.7128 6.5531,-0.38657c2.20641,1.19952 3.51405,3.60612 4.36093,5.87473c1.17679,3.14902 1.79981,6.50192 2.1499,9.88734c1.07037,-4.89708 3.07809,-9.8589 7.13974,-12.90787c5.37497,-4.03424 13.4388,-3.75032 18.72447,0.33193c5.04553,3.89716 7.50374,10.20537 8.77564,16.26767c0.68625,3.26894 1.11332,6.67719 1.19563,10.05138c0.13067,-0.03058 0.26213,-0.05712 0.39184,-0.08875c0.44247,-6.20972 1.44008,-12.69133 3.72633,-18.44636c1.34854,-3.39651 3.57166,-7.43054 7.59426,-7.95036c4.30573,-0.55586 6.9486,3.37659 8.3079,6.90408c0.21291,0.55321 0.40128,1.11721 0.58753,1.6831c0.04495,-2.24352 -0.38841,-4.47267 -0.5893,-6.70535c-0.43697,-4.86656 -0.54344,-9.75578 -0.15605,-14.62959c0.56058,-7.0379 2.06395,-14.08919 4.85285,-20.59332c1.05483,-2.45886 2.28858,-4.91187 3.79042,-7.1574c12.11056,9.51128 -37.79564,-14.50476 -56.52889,-21.07959c-11.8537,8.21814 -14.04573,20.29819 -17.23337,33.78713z" data-paper-data="{&quot;index&quot;:null}" fill="#152345" stroke-width="1"/><path d="M124.00235,284.40884c-3.87822,-1.68975 -6.9858,-4.63033 -8.6649,-8.53411c-1.42057,-3.30124 -1.23609,-6.82643 -1.09185,-10.32758c0.79219,-1.40055 1.97215,-3.22343 3.60973,-3.37666c0.41646,-0.03948 0.75645,0.07078 1.14277,0.19502c0.44641,0.14425 0.12728,0.00715 0.53895,0.28681c0.1056,0.07129 0.21058,0.14556 0.31084,0.22361c0.02019,0.01702 0.04063,0.03404 0.05115,0.04357c0.19426,0.18184 0.37669,0.37817 0.54781,0.58189c0.55798,0.6614 1.06182,1.61745 1.48386,2.63858c0.423,1.02215 0.76711,2.20448 1.04129,3.36143c0.60641,2.55611 0.96012,5.26077 1.16933,7.87131c0.19033,2.38532 0.2749,4.80532 0.26816,7.20692c-0.13526,-0.05874 -0.27293,-0.1121 -0.40719,-0.17078z" data-paper-data="{&quot;noHover&quot;:false,&quot;origItem&quot;:[&quot;Path&quot;,{&quot;applyMatrix&quot;:true,&quot;segments&quot;:[[[704.65248,589.44356],[-3.74,7.632],[3.164,-6.454]],[[707.87648,569.05956],[-0.058,7.008],[-1.444,-2.876]],[[701.04048,561.97556],[3.256,0.468],[-0.828,-0.12]],[[698.74848,562.25356],[0.784,-0.21],[-0.906,0.244]],[[697.64848,562.77356],[0.85,-0.518],[-0.218,0.132]],[[697.00848,563.18956],[0.208,-0.146],[-0.042,0.032]],[[696.90248,563.27156],[0.022,-0.018],[-0.406,0.344]],[[695.75648,564.37956],[0.362,-0.39],[-1.18,1.266]],[[692.55448,569.49956],[0.944,-1.998],[-0.946,2]],[[690.17848,576.09156],[0.662,-2.284],[-1.464,5.046]],[[687.07848,591.56156],[0.676,-5.194],[-0.616,4.746]],[[685.79648,605.90356],[0.224,-4.798],[0.276,-0.104]],[[686.62448,605.60156],[-0.274,0.104],[7.914,-2.992]]],&quot;closed&quot;:true,&quot;fillColor&quot;:[0,0,0,1]}]}" fill="#67d440" stroke-width="0.5"/><path d="M139.66279,289.3391c-3.17254,-0.59352 -6.31807,-1.45758 -9.37851,-2.49511c-0.10574,-3.20416 0.14153,-6.49526 0.70105,-9.62743c0.8321,-4.65557 2.84714,-10.39596 7.14816,-12.83934c4.87482,-2.76842 11.39057,-1.24059 15.01514,2.7625c3.63411,4.01253 5.18545,9.7053 6.02274,15.0412c0.18637,1.19068 0.32502,2.39558 0.44188,3.59483c0.00572,0.06636 0.01898,0.21678 0.02471,0.28315c0.00965,0.12862 0.01975,0.25904 0.02934,0.38867c0.01572,0.20802 0.02966,0.41714 0.04236,0.62602c0.02899,0.44598 0.05025,0.89388 0.06823,1.34031c0.01573,0.39027 0.02592,0.78303 0.0346,1.17396c-6.6447,1.08389 -13.51583,0.99073 -20.14968,-0.24869z" data-paper-data="{&quot;noHover&quot;:false,&quot;origItem&quot;:[&quot;Path&quot;,{&quot;applyMatrix&quot;:true,&quot;segments&quot;:[[[654.7745,613.89956],[-13.374,1.82],[6.396,-0.872]],[[673.7125,609.87556],[-6.216,1.77],[0.528,-6.39]],[[673.2445,590.62556],[0.808,6.312],[-1.202,-9.382]],[[660.2785,564.36356],[8.35,5.306],[-9.464,-6.012]],[[630.1265,568.39556],[7.636,-7.638],[-7.656,7.656]],[[616.6445,597.73156],[2.2,-10.576],[-0.49,2.36]],[[615.3985,604.85156],[0.352,-2.384],[-0.018,0.132]],[[615.3205,605.41356],[0.018,-0.132],[-0.032,0.256]],[[615.2225,606.18556],[0.032,-0.258],[-0.052,0.414]],[[615.0745,607.42956],[0.046,-0.416],[-0.102,0.888]],[[614.8025,610.09556],[0.08,-0.89],[-0.07,0.778]],[[614.6145,612.43356],[0.056,-0.78],[13.166,2.822]]],&quot;closed&quot;:true,&quot;fillColor&quot;:[0,0,0,1]}]}" fill="#67d440" stroke-width="0.5"/><path d="M182.02895,278.38992c-3.00313,5.02669 -8.72479,7.6521 -14.28677,9.33521c0.15227,-1.53934 0.3246,-3.0852 0.54933,-4.61192c0.56847,-3.85964 1.36483,-7.82428 2.77907,-11.47584c0.53489,-1.38026 1.44813,-3.17964 2.23162,-4.10105c0.27431,-0.32285 0.58835,-0.61865 0.91408,-0.88888c0.01982,-0.01605 0.20148,-0.14037 0.26179,-0.18544c0.10948,-0.06767 0.22062,-0.13643 0.3355,-0.19181c0.34667,-0.16706 0.88254,-0.30786 1.37102,-0.30574c0.50748,0.00309 0.84188,0.14759 1.47834,0.65971c-0.13958,-0.11302 0.44348,0.45319 0.57503,0.6069c0.24503,0.28845 0.31536,0.38191 0.4431,0.57344c0.977,1.46007 1.59431,3.08378 2.07267,4.68637c0.56954,1.90547 1.00964,3.92049 1.27515,5.89902z" data-paper-data="{&quot;noHover&quot;:false,&quot;origItem&quot;:[&quot;Path&quot;,{&quot;applyMatrix&quot;:true,&quot;segments&quot;:[[[598.82848,607.90756],[-10.944,-3.912],[-0.152,-3.09]],[[598.16848,598.65556],[0.298,3.072],[-0.754,-7.766]],[[593.75848,575.60356],[2.464,7.434],[-0.932,-2.81]],[[589.74648,567.21156],[1.474,1.918],[-0.516,-0.672]],[[588.01848,565.34756],[0.624,0.572],[-0.038,-0.034]],[[587.51648,564.95156],[0.116,0.096],[-0.212,-0.146]],[[586.86848,564.53556],[0.224,0.122],[-0.676,-0.368]],[[584.17248,563.78956],[0.976,0.044],[-1.014,-0.044]],[[581.16848,564.95956],[1.322,-0.96],[0.29,-0.212]],[[579.96648,566.11356],[0.278,-0.294],[-0.518,0.552]],[[579.03048,567.21356],[0.274,-0.37],[-2.096,2.82]],[[574.47048,576.34156],[1.114,-3.154],[-1.326,3.75]],[[571.36448,587.91756],[0.726,-3.926],[5.502,10.338]]],&quot;closed&quot;:true,&quot;fillColor&quot;:[0,0,0,1]}]}" fill="#67d440" stroke-width="0.5"/><path d="M118.206,234.52551c3.18763,-13.48893 5.4083,-25.60106 17.26197,-33.81919c18.73327,6.57483 68.70151,30.61088 56.59097,21.09961c-1.50182,2.24552 -2.73299,4.70337 -3.78783,7.16222c-2.78889,6.50409 -4.28812,13.58435 -4.84867,20.62224c-0.38739,4.8738 -0.28843,9.78266 0.14857,14.6492c0.20089,2.23265 0.63023,4.46715 0.58525,6.71068c-0.18625,-0.56588 -0.45107,-1.19432 -0.66399,-1.74752c-1.35929,-3.52749 -3.92487,-7.39648 -8.23061,-6.84061c-4.02261,0.5198 -6.26078,4.56622 -7.6093,7.96272c-2.28627,5.75504 -3.29651,12.24136 -3.739,18.45107c-0.1297,0.03161 -0.28265,-0.03949 -0.41333,-0.00894c-0.0823,-3.3742 -0.48701,-6.68499 -1.17329,-9.95392c-1.27191,-6.06227 -3.74353,-12.36912 -8.78908,-16.26625c-5.28568,-4.08226 -13.38526,-4.38294 -18.76026,-0.34866c-4.06167,3.04895 -6.06504,8.01512 -7.1354,12.91222c-0.35009,-3.38544 -0.98096,-6.74705 -2.15775,-9.89609c-0.84691,-2.26861 -2.15956,-4.6841 -4.36596,-5.88365c-2.44044,-1.32625 -4.68161,-0.89494 -6.55413,0.38408c0.08374,-1.18632 0.16625,-2.37642 0.27196,-3.56162c0.64678,-7.26291 1.69195,-14.52876 3.36988,-21.62751z" data-paper-data="{&quot;noHover&quot;:false,&quot;origItem&quot;:[&quot;Path&quot;,{&quot;applyMatrix&quot;:true,&quot;segments&quot;:[[[671.91,437.44826],[22.866,17.588],[-38.0707,11.28166]],[[556.90648,473.96756],[-25.13176,17.8021],[2.778,4.634]],[[563.77048,488.63956],[-1.864,-5.016],[4.928,13.268]],[[571.42848,530.25556],[-0.424,-14.114],[0.292,9.774]],[[569.67048,559.46356],[1.354,-9.678],[-0.622,4.44]],[[567.83048,572.79956],[0.132,-4.486],[0.428,-1.112]],[[569.17048,569.49556],[-0.48,1.084],[3.064,-6.912]],[[586.44848,556.52556],[-8.546,-1.536],[7.984,1.436]],[[600.83248,573.15756],[-2.358,-6.918],[3.998,11.722]],[[606.45248,610.37356],[-0.27,-12.448],[0.256,0.076]],[[607.22648,610.58956],[-0.258,-0.074],[0.498,-6.732]],[[610.60848,590.62956],[-1.694,6.462],[3.14,-11.984]],[[629.74648,559.00156],[-10.464,7.286],[10.962,-7.632]],[[667.18248,560.18956],[-10.338,-8.59],[7.812,6.492]],[[680.16848,586.67956],[-1.654,-9.888],[1.034,-6.728]],[[685.44048,567.14156],[-2.662,6.174],[1.916,-4.448]],[[694.73248,555.83756],[-4.526,2.178],[5.006,-2.408]],[[707.78448,557.25756],[-3.614,-2.74],[-0.05,-2.378]],[[707.59048,550.12356],[0.094,2.378],[-0.574,-14.572]],[[702.99448,506.64356],[2.65,14.346],[-5.034,-27.26]]],&quot;closed&quot;:true,&quot;fillColor&quot;:[0,0,0,1]}]}" fill="#67d440" stroke-width="0.5"/></g><path d="M164.75253,281.26246c6.91813,0.34238 12.23602,6.48782 11.87779,13.72625c-0.35824,7.23846 -6.2569,12.8288 -13.17506,12.4864c-6.91813,-0.34238 -12.23603,-6.48782 -11.8778,-13.72625c0.35824,-7.23846 6.2569,-12.8288 13.17507,-12.4864z" data-paper-data="{&quot;index&quot;:null}" fill="#000000" stroke="#000000" stroke-width="0.5" stroke-linecap="butt"/><path d="M131.23277,279.60354c6.8541,0.33922 12.11491,6.58596 11.75037,13.95252c-0.36456,7.3665 -6.21645,13.06331 -13.07056,12.72412c-6.85405,-0.33922 -12.11487,-6.58592 -11.75034,-13.9525c0.36458,-7.36656 6.21644,-13.06336 13.07053,-12.72417z" data-paper-data="{&quot;index&quot;:null}" fill="#000000" stroke="#000000" stroke-width="0.5" stroke-linecap="butt"/><path d="M119.07047,293.59748c-7.22621,-0.15943 2.63284,-9.45916 2.63284,-9.45916l7.83933,0.65437c0,0 8.11874,9.01997 3.466,9.4946c-3.38293,0.34511 -8.49231,-0.5696 -13.93814,-0.68981z" data-paper-data="{&quot;index&quot;:null}" fill="#1fba00" stroke="#1fba00" stroke-width="0.5" stroke-linecap="round"/><path d="M119.16744,293.6323c-16.11715,-0.89306 -5.39153,-45.53894 -5.39153,-45.53894l71.36468,2.48925c0,0 9.07149,46.82658 -11.99297,45.72113c-53.3644,-2.80052 -11.52409,-0.31896 -53.98018,-2.67145z" data-paper-data="{&quot;index&quot;:null}" fill="#ff0000" stroke="#000000" stroke-width="3.5" stroke-linecap="butt"/><path d="M126.44955,291.81794c0,0 -3.20502,-6.06964 -2.6944,-9.41722c0.51061,-3.34757 4.96368,-4.20269 5.32596,-7.83513c0.3622,-3.63246 -4.98513,-2.16034 -2.17155,-8.00863c2.81358,-5.84837 11.64895,-11.86784 11.64895,-11.86784c0,0 3.22951,2.16352 4.77214,7.34724c1.54265,5.18373 -6.57965,7.5533 -6.71308,11.91456c-0.13343,4.3612 -4.95957,4.58666 -4.99037,9.03691c-0.0308,4.45024 4.86191,9.52448 4.86191,9.52448z" data-paper-data="{&quot;index&quot;:null}" fill="#eac100" stroke="#000000" stroke-width="0" stroke-linecap="round"/><path d="M158.69575,293.32655c0,0 -3.20501,-6.06963 -2.6944,-9.41722c0.51055,-3.34758 4.96366,-4.20262 5.32591,-7.83508c0.36227,-3.63246 -4.98509,-2.16035 -2.1715,-8.00866c2.81359,-5.84832 11.64894,-11.86784 11.64894,-11.86784c0,0 3.22951,2.16352 4.77214,7.34724c1.54266,5.18376 -6.57966,7.55335 -6.71308,11.9146c-0.13342,4.36124 -4.95957,4.58666 -4.99037,9.03691c-0.0308,4.45024 4.86191,9.52449 4.86191,9.52449z" data-paper-data="{&quot;index&quot;:null}" fill="#eac100" stroke="#eac100" stroke-width="0" stroke-linecap="round"/></g><g><g stroke="none" stroke-linecap="butt"><path d="M328.20116,198.5296c-7.1744,1.79684 0.11757,-0.21689 0.17181,-0.16857c11.70527,10.42549 16.78993,26.77444 19.46217,41.72603c1.31298,7.34352 2.10246,14.76841 2.46855,22.21718c0.14787,3.02067 0.32721,6.08328 0.22807,9.1076c-0.15102,4.59913 -1.87978,9.03439 -4.93378,12.48546c-3.40058,3.84145 -8.15302,5.65298 -12.89641,7.26709c-5.07263,1.72671 -10.33922,2.91588 -15.67237,3.46196c-8.39604,0.85956 -17.00494,-0.01449 -25.0121,-2.70574c-3.23407,-1.08741 -6.55804,-2.3708 -9.49165,-4.13515c-3.94554,-2.37327 -6.95879,-6.09702 -8.44538,-10.45667c-0.75056,-2.20208 -1.10853,-4.59301 -1.00787,-6.91795c0.11875,-2.72183 0.69056,-5.42152 0.9146,-8.13803c0.39772,-4.81187 0.40994,-9.66029 -0.05469,-14.46795c-0.36741,-3.80347 -1.05054,-7.56386 -2.09193,-11.24064c-0.4247,-1.49705 -0.90587,-2.97914 -1.45025,-4.43693c-0.26058,-0.69731 -0.53395,-1.38815 -0.82313,-2.07344c-0.12117,-0.28794 -0.24523,-0.57378 -0.37129,-0.85852c-0.04339,-0.09655 -0.22877,-0.50329 -0.25595,-0.56538c-0.77868,-1.66275 -1.65511,-3.28608 -2.65664,-4.82594c-0.15228,-0.23381 62.07742,-25.04387 61.91826,-25.27442zM292.91641,288.31491c-0.13006,-1.54139 -0.28911,-3.08176 -0.49178,-4.61159c-0.51274,-3.86741 -1.24587,-7.77014 -2.6073,-11.4417c-0.51493,-1.38782 -1.38158,-3.19058 -2.15169,-4.12317c-0.26961,-0.32675 -0.57429,-0.62627 -0.89611,-0.90118c-0.01959,-0.01633 -0.19812,-0.14314 -0.25778,-0.18909c-0.10849,-0.06924 -0.217,-0.13948 -0.33109,-0.19653c-0.34423,-0.17206 -0.87177,-0.32067 -1.36024,-0.32556c-0.50747,-0.00421 -0.83681,0.13439 -1.4806,0.63724c0.14119,-0.11103 -0.44666,0.4459 -0.58043,0.59769c-0.24916,0.28491 -0.31803,0.37637 -0.44846,0.56607c-0.99797,1.44584 -1.61733,3.04552 -2.11877,4.64104c-0.59693,1.89707 -1.05534,3.86432 -1.34935,5.83883c2.93033,5.06948 8.53647,7.74478 14.07361,9.50797zM320.9772,290.32945c3.18076,-0.54772 6.31763,-1.34907 9.39273,-2.34236c0.15195,-3.20228 -0.05664,-6.47098 -0.57093,-9.61091c-0.76488,-4.66708 -2.67351,-10.39074 -6.93887,-12.89591c-4.83435,-2.83844 -11.31425,-1.40765 -14.99614,2.54273c-3.69159,3.95971 -5.30906,9.5718 -6.22318,14.89507c-0.20352,1.18785 -0.3638,2.38219 -0.49795,3.57963c-0.00669,0.06625 -0.02247,0.21591 -0.02915,0.28216c-0.01152,0.12848 -0.02398,0.258 -0.03545,0.38748c-0.01874,0.20778 -0.03646,0.41554 -0.05216,0.62422c-0.03539,0.44551 -0.06484,0.89082 -0.08923,1.33693c-0.02136,0.38998 -0.03867,0.78083 -0.053,1.17158c6.62836,1.17958 13.44232,1.17296 20.09335,0.02937zM345.47268,277.23558c1.46801,-3.28042 1.34782,-6.73934 1.2541,-10.24221c-0.77192,-1.41185 -1.90475,-3.24327 -3.53996,-3.4201c-0.41586,-0.04548 -0.75234,0.06035 -1.14042,0.17905c-0.44845,0.13778 -0.12491,0.00537 -0.54056,0.27911c-0.10662,0.06977 -0.21114,0.14247 -0.31252,0.21908c-0.02042,0.01673 -0.04087,0.03344 -0.05154,0.04282c-0.19686,0.179 -0.37921,0.37251 -0.55325,0.57376c-0.56747,0.65326 -1.07362,1.59958 -1.51037,2.61451c-0.43769,1.01594 -0.78103,2.18269 -1.07184,3.33559c-0.64319,2.54708 -1.03134,5.17729 -1.27817,7.78453c-0.22469,2.38232 -0.36157,4.78759 -0.3895,7.18905c0.13612,-0.0568 0.27336,-0.10863 0.40845,-0.16539c3.90218,-1.63366 6.99033,-4.51059 8.72551,-8.38971zM326.45003,201.85787c-18.82611,6.30399 -69.0735,29.5978 -56.82703,20.26214c1.46928,2.26696 2.66753,4.73749 3.68681,7.21134c2.69484,6.54366 4.09634,13.6159 4.55535,20.66115c0.31707,4.87889 0.14007,9.76608 -0.36702,14.62581c-0.23305,2.22951 -0.69851,4.45221 -0.68593,6.69614c0.19439,-0.56317 0.39087,-1.12437 0.61173,-1.67444c1.41004,-3.50752 4.10932,-7.40146 8.4066,-6.78356c4.0147,0.57775 6.17941,4.64344 7.4788,8.05903c2.20303,5.7874 3.10705,12.28273 3.45992,18.49816c0.12924,0.0335 0.26032,0.06191 0.39055,0.09439c0.13098,-3.37267 0.60715,-6.77442 1.34045,-10.03308c1.3592,-6.0433 3.90811,-12.31541 9.00932,-16.13941c5.34401,-4.00559 13.41106,-4.17319 18.72732,-0.06187c4.01727,3.10724 5.95321,8.09749 6.95286,13.0095c0.39889,-3.38006 1.0702,-6.72361 2.29227,-9.85531c0.87954,-2.25619 2.22176,-4.64365 4.44522,-5.81125c2.4593,-1.29092 4.69298,-0.82487 6.54687,0.48102c-0.06662,-1.18741 -0.13327,-2.37477 -0.22186,-3.56141c-0.54199,-7.27148 -1.48254,-14.52398 -3.05793,-21.6462c-2.99277,-13.53348 -5.01036,-25.64391 -16.74431,-34.03213z" data-paper-data="{&quot;index&quot;:null}" fill="#152345" stroke-width="1"/><path d="M336.72741,285.67125c-0.13511,0.05676 -0.27352,0.10811 -0.4096,0.1649c0.02792,-2.40145 0.14737,-4.81999 0.37206,-7.20232c0.24685,-2.60726 0.63952,-5.30657 1.28274,-7.85365c0.2908,-1.15289 0.65196,-2.33011 1.08964,-3.34605c0.43673,-1.01492 0.95432,-1.9636 1.52176,-2.61689c0.17405,-0.2012 0.3593,-0.3949 0.55615,-0.57391c0.01066,-0.00936 0.03136,-0.02613 0.05179,-0.04285c0.10138,-0.0766 0.20742,-0.14933 0.31403,-0.2191c0.41567,-0.27371 0.09459,-0.14125 0.54302,-0.27903c0.3881,-0.11865 0.72962,-0.224 1.14549,-0.17853c1.6352,0.17686 2.78873,2.01654 3.56067,3.42837c0.09371,3.50288 0.22736,7.03034 -1.24066,10.31077c-1.73523,3.87917 -4.88488,6.7746 -8.78706,8.40825z" data-paper-data="{&quot;noHover&quot;:false,&quot;origItem&quot;:[&quot;Path&quot;,{&quot;applyMatrix&quot;:true,&quot;segments&quot;:[[[704.65248,589.44356],[-3.74,7.632],[3.164,-6.454]],[[707.87648,569.05956],[-0.058,7.008],[-1.444,-2.876]],[[701.04048,561.97556],[3.256,0.468],[-0.828,-0.12]],[[698.74848,562.25356],[0.784,-0.21],[-0.906,0.244]],[[697.64848,562.77356],[0.85,-0.518],[-0.218,0.132]],[[697.00848,563.18956],[0.208,-0.146],[-0.042,0.032]],[[696.90248,563.27156],[0.022,-0.018],[-0.406,0.344]],[[695.75648,564.37956],[0.362,-0.39],[-1.18,1.266]],[[692.55448,569.49956],[0.944,-1.998],[-0.946,2]],[[690.17848,576.09156],[0.662,-2.284],[-1.464,5.046]],[[687.07848,591.56156],[0.676,-5.194],[-0.616,4.746]],[[685.79648,605.90356],[0.224,-4.798],[0.276,-0.104]],[[686.62448,605.60156],[-0.274,0.104],[7.914,-2.992]]],&quot;closed&quot;:true,&quot;fillColor&quot;:[0,0,0,1]}]}" fill="#67d440" stroke-width="0.5"/><path d="M300.84637,290.33322c0.01433,-0.39076 0.03018,-0.78335 0.05155,-1.17333c0.02439,-0.44612 0.05213,-0.89365 0.08754,-1.33916c0.0157,-0.20867 0.03266,-0.41757 0.05138,-0.62536c0.01146,-0.12948 0.02346,-0.25973 0.03497,-0.38821c0.00669,-0.06625 0.0221,-0.21649 0.02877,-0.28276c0.13416,-1.19744 0.29015,-2.40021 0.49368,-3.58806c0.91415,-5.3233 2.54741,-10.99308 6.239,-14.95279c3.68193,-3.95036 10.21906,-5.38413 15.05341,-2.54566c4.26532,2.50516 6.19736,8.27403 6.96224,12.94109c0.5143,3.13993 0.71409,6.43424 0.56214,9.63654c-3.07511,0.9933 -6.23275,1.8119 -9.41353,2.3596c-6.65102,1.14362 -13.52277,1.13769 -20.15114,-0.04193z" data-paper-data="{&quot;noHover&quot;:false,&quot;origItem&quot;:[&quot;Path&quot;,{&quot;applyMatrix&quot;:true,&quot;segments&quot;:[[[654.7745,613.89956],[-13.374,1.82],[6.396,-0.872]],[[673.7125,609.87556],[-6.216,1.77],[0.528,-6.39]],[[673.2445,590.62556],[0.808,6.312],[-1.202,-9.382]],[[660.2785,564.36356],[8.35,5.306],[-9.464,-6.012]],[[630.1265,568.39556],[7.636,-7.638],[-7.656,7.656]],[[616.6445,597.73156],[2.2,-10.576],[-0.49,2.36]],[[615.3985,604.85156],[0.352,-2.384],[-0.018,0.132]],[[615.3205,605.41356],[0.018,-0.132],[-0.032,0.256]],[[615.2225,606.18556],[0.032,-0.258],[-0.052,0.414]],[[615.0745,607.42956],[0.046,-0.416],[-0.102,0.888]],[[614.8025,610.09556],[0.08,-0.89],[-0.07,0.778]],[[614.6145,612.43356],[0.056,-0.78],[13.166,2.822]]],&quot;closed&quot;:true,&quot;fillColor&quot;:[0,0,0,1]}]}" fill="#67d440" stroke-width="0.5"/><path d="M278.79369,278.81612c0.29402,-1.97449 0.76317,-3.98295 1.36011,-5.88001c0.50144,-1.59555 1.14206,-3.21017 2.14007,-4.65601c0.13045,-0.18969 0.20211,-0.2821 0.45132,-0.56701c0.13378,-0.15178 0.72494,-0.70956 0.58376,-0.59855c0.64377,-0.50284 0.98024,-0.64253 1.48769,-0.63832c0.48847,0.0049 1.02223,0.15343 1.36645,0.32549c0.11406,0.05704 0.2242,0.1274 0.3327,0.19662c0.05965,0.04594 0.23949,0.1729 0.25909,0.18922c0.32182,0.27491 0.63157,0.5752 0.90118,0.90197c0.77015,0.93263 1.65731,2.74498 2.17224,4.13281c1.36142,3.67157 2.10052,7.6473 2.61326,11.51473c0.20271,1.52984 0.35272,3.07798 0.48277,4.61939c-5.53711,-1.76317 -11.22032,-4.47081 -14.15065,-9.54029z" data-paper-data="{&quot;noHover&quot;:false,&quot;origItem&quot;:[&quot;Path&quot;,{&quot;applyMatrix&quot;:true,&quot;segments&quot;:[[[598.82848,607.90756],[-10.944,-3.912],[-0.152,-3.09]],[[598.16848,598.65556],[0.298,3.072],[-0.754,-7.766]],[[593.75848,575.60356],[2.464,7.434],[-0.932,-2.81]],[[589.74648,567.21156],[1.474,1.918],[-0.516,-0.672]],[[588.01848,565.34756],[0.624,0.572],[-0.038,-0.034]],[[587.51648,564.95156],[0.116,0.096],[-0.212,-0.146]],[[586.86848,564.53556],[0.224,0.122],[-0.676,-0.368]],[[584.17248,563.78956],[0.976,0.044],[-1.014,-0.044]],[[581.16848,564.95956],[1.322,-0.96],[0.29,-0.212]],[[579.96648,566.11356],[0.278,-0.294],[-0.518,0.552]],[[579.03048,567.21356],[0.274,-0.37],[-2.096,2.82]],[[574.47048,576.34156],[1.114,-3.154],[-1.326,3.75]],[[571.36448,587.91756],[0.726,-3.926],[5.502,10.338]]],&quot;closed&quot;:true,&quot;fillColor&quot;:[0,0,0,1]}]}" fill="#67d440" stroke-width="0.5"/><path d="M343.24255,235.8767c1.57541,7.12219 2.51565,14.40239 3.05763,21.67386c0.08861,1.18661 0.15394,2.37778 0.22056,3.56516c-1.85387,-1.30588 -4.0886,-1.76945 -6.5479,-0.47853c-2.22346,1.16757 -3.57085,3.56391 -4.45036,5.82009c-1.22207,3.1317 -1.90135,6.48387 -2.30025,9.86395c-0.99964,-4.91199 -2.93116,-9.90654 -6.94845,-13.01374c-5.31623,-4.11134 -13.41934,-3.9275 -18.76334,0.07811c-5.10121,3.824 -7.66352,10.09452 -9.02272,16.13782c-0.73333,3.25867 -1.18573,6.56331 -1.3167,9.93599c-0.13022,-0.03245 -0.28416,0.03647 -0.41342,0.00299c-0.35288,-6.21547 -1.26948,-12.71566 -3.47252,-18.50307c-1.29941,-3.4156 -3.47898,-7.49386 -7.49367,-8.07162c-4.29729,-0.61788 -6.91839,3.2137 -8.3284,6.72121c-0.22086,0.55005 -0.49473,1.17461 -0.68913,1.73776c-0.0126,-2.24394 0.44892,-4.472 0.68198,-6.70153c0.50713,-4.85975 0.67685,-9.76665 0.3598,-14.64554c-0.45899,-7.04525 -1.85598,-14.14642 -4.55078,-20.69004c-1.01925,-2.47381 -2.21486,-4.94916 -3.68414,-7.21612c-12.24646,9.33566 38.06323,-13.9773 56.88937,-20.28127c11.73396,8.38822 13.7797,20.53115 16.77248,34.06462z" data-paper-data="{&quot;noHover&quot;:false,&quot;origItem&quot;:[&quot;Path&quot;,{&quot;applyMatrix&quot;:true,&quot;segments&quot;:[[[671.91,437.44826],[22.866,17.588],[-38.0707,11.28166]],[[556.90648,473.96756],[-25.13176,17.8021],[2.778,4.634]],[[563.77048,488.63956],[-1.864,-5.016],[4.928,13.268]],[[571.42848,530.25556],[-0.424,-14.114],[0.292,9.774]],[[569.67048,559.46356],[1.354,-9.678],[-0.622,4.44]],[[567.83048,572.79956],[0.132,-4.486],[0.428,-1.112]],[[569.17048,569.49556],[-0.48,1.084],[3.064,-6.912]],[[586.44848,556.52556],[-8.546,-1.536],[7.984,1.436]],[[600.83248,573.15756],[-2.358,-6.918],[3.998,11.722]],[[606.45248,610.37356],[-0.27,-12.448],[0.256,0.076]],[[607.22648,610.58956],[-0.258,-0.074],[0.498,-6.732]],[[610.60848,590.62956],[-1.694,6.462],[3.14,-11.984]],[[629.74648,559.00156],[-10.464,7.286],[10.962,-7.632]],[[667.18248,560.18956],[-10.338,-8.59],[7.812,6.492]],[[680.16848,586.67956],[-1.654,-9.888],[1.034,-6.728]],[[685.44048,567.14156],[-2.662,6.174],[1.916,-4.448]],[[694.73248,555.83756],[-4.526,2.178],[5.006,-2.408]],[[707.78448,557.25756],[-3.614,-2.74],[-0.05,-2.378]],[[707.59048,550.12356],[0.094,2.378],[-0.574,-14.572]],[[702.99448,506.64356],[2.65,14.346],[-5.034,-27.26]]],&quot;closed&quot;:true,&quot;fillColor&quot;:[0,0,0,1]}]}" fill="#67d440" stroke-width="0.5"/></g><path d="M309.0205,294.61261c0.25381,7.24287 -5.15217,13.31098 -12.07452,13.55356c-6.92235,0.24256 -12.73978,-5.43227 -12.99359,-12.67514c-0.25381,-7.24287 5.15217,-13.31098 12.07451,-13.55356c6.92235,-0.24256 12.73979,5.43227 12.99359,12.67512z" fill="#000000" stroke="#000000" stroke-width="0.5" stroke-linecap="butt"/><path d="M342.45275,293.67349c0.25828,7.37104 -5.09205,13.54124 -11.95032,13.78159c-6.85827,0.24035 -12.62743,-5.54028 -12.8857,-12.91127c-0.25828,-7.37104 5.09205,-13.54129 11.95037,-13.78159c6.85827,-0.24035 12.62737,5.54029 12.88568,12.91132z" fill="#000000" stroke="#000000" stroke-width="0.5" stroke-linecap="butt"/><path d="M327.57968,295.41875c-4.64544,-0.54168 3.60254,-9.44364 3.60254,-9.44364l7.84795,-0.54124c0,0 9.72394,9.44095 2.49618,9.49616c-5.44702,0.0416 -10.56904,0.88256 -13.94666,0.48872z" fill="#1fba00" stroke="#1fba00" stroke-width="0.5" stroke-linecap="round"/><path d="M287.41575,296.85612c-21.07819,0.8016 -11.33239,-45.88932 -11.33239,-45.88932l71.39315,-1.45983c0,0 10.08062,44.79589 -6.0477,45.45645c-42.48558,1.73999 -0.61386,-0.13793 -54.01307,1.89269z" fill="#ff0000" stroke="#000000" stroke-width="3.5" stroke-linecap="butt"/><path d="M324.12506,293.59373c0,0 4.96535,-5.00315 4.99877,-9.45339c0.03341,-4.45022 -4.78902,-4.74527 -4.85951,-9.10792c-0.0705,-4.36272 -8.1578,-6.84921 -6.54056,-12.01013c1.61725,-5.16094 4.8776,-7.27765 4.8776,-7.27765c0,0 8.74761,6.14628 11.47656,12.03462c2.72895,5.88826 -2.59663,4.33921 -2.28682,7.9765c0.30982,3.6373 4.75013,4.55654 5.21245,7.91114c0.4623,3.35458 -2.82991,9.37738 -2.82991,9.37738z" data-paper-data="{&quot;index&quot;:null}" fill="#eac100" stroke="#000000" stroke-width="0" stroke-linecap="round"/><path d="M291.86046,294.63724c0,0 4.96535,-5.00315 4.99878,-9.4534c0.03341,-4.45022 -4.78901,-4.74521 -4.85951,-9.10792c-0.0705,-4.36272 -8.1578,-6.84921 -6.54053,-12.01016c1.61725,-5.16094 4.8776,-7.27765 4.8776,-7.27765c0,0 8.74763,6.14633 11.47656,12.03462c2.72895,5.88826 -2.59663,4.3392 -2.28678,7.97651c0.30982,3.6373 4.75016,4.55649 5.21238,7.91109c0.4623,3.35458 -2.82991,9.37738 -2.82991,9.37738z" data-paper-data="{&quot;index&quot;:null}" fill="#eac100" stroke="#eac100" stroke-width="0" stroke-linecap="round"/></g><path d="M26.48967,123.90928c2.682,-1.246 5.838,-1.188 8.716,-0.879c3.508,0.377 6.96,1.154 10.355,2.102c4.923,1.374 9.78,3.073 14.498,5.046c0.01,0 0.014,0.001 0.025,0.001c0.435,0.027 0.867,0.064 1.303,0.076c1.696,0.049 3.397,-0.059 5.083,-0.248c0.272,-0.031 0.544,-0.064 0.816,-0.099c0.007,-0.001 0.008,-0.001 0.015,-0.002c0.017,-0.002 0.028,-0.004 0.055,-0.008c0.171,-0.024 0.342,-0.049 0.513,-0.075c0.681,-0.103 1.36,-0.219 2.037,-0.347c1.506,-0.284 3.002,-0.627 4.484,-1.017c3.84,-1.01 7.603,-2.327 11.261,-3.867c11.009,-4.634 21.211,-11.157 30.702,-18.358c6.736,-5.111 13.135,-10.671 19.278,-16.479c7.479,-7.071 14.203,-14.844 21.539,-22.044c11.792,-11.573 26.18,-21.338 42.656,-24.467c13.16,-2.499 26.603,-0.538 38.936,4.495c12.208,4.982 23.184,12.43 33.379,20.711c9.121,7.409 17.548,15.587 26.102,23.628c5.648,5.31 11.56,10.19 18.125,14.34c6.705,4.238 13.839,7.807 21.226,10.693c8.374,3.273 17.094,5.789 25.965,7.322c-2.787,-4.772 -4.837,-9.965 -5.791,-15.386c-1.654,-9.397 0.301,-18.938 5.559,-26.915c12.051,-18.286 36.109,-25.474 57.022,-22.716c19.706,2.599 40.821,15.096 44.889,35.988c0.442,2.268 0.672,4.577 0.683,6.887c-0.079,18.084 -12.466,34.452 -27.889,43.325c-0.522,2.206 -1.242,4.381 -1.995,6.512c-2.145,6.065 -4.87,11.941 -8.103,17.502c-4.408,7.581 -9.808,14.633 -16.097,20.751c-7.644,7.436 -16.619,13.487 -26.411,17.715c-12.268,5.297 -25.511,7.818 -38.841,8.184c-1.773,0.049 -6.267,0.699 -6.749,1.02c-0.002,0.001 -0.005,0.003 -0.007,0.004c1.55269,1.29673 -12.7423,5.56049 -27.35812,13.5223c-25.42302,13.84893 -66.65672,15.15351 -71.66288,15.2897c-16.472,0.447 -37.75569,-2.81909 -49.136,-4.501c-11.38031,-1.68191 -62.03898,-23.77348 -61.514,-24.205c-13.474,-8.075 -26.083,-17.721 -37.084,-28.941c-9.758,-9.952 -18.227,-21.168 -25.007,-33.341c-9.322,1.603 -18.897,0.675 -27.512,-3.403c-6.427,-3.042 -12.611,-7.995 -15.926,-14.405c-2.18,-4.212 -3.477,-10.932 1.861,-13.411zM62.36667,134.03528c3.914,10.247 8.958,20.036 15.006,29.171c3.504,-1.917 7.008,-3.835 10.512,-5.752c-3.286,-4.637 -6.281,-9.481 -8.927,-14.521c-1.801,-3.431 -3.421,-6.95 -4.909,-10.527c-1.284,0.308 -2.573,0.592 -3.874,0.82c-2.543,0.446 -5.191,0.815 -7.808,0.809zM125.39967,103.81528c-10.192,8.404 -21.132,16.087 -33.057,21.84c-4.718,2.276 -9.621,4.285 -14.664,5.778c6.476,15.432 16.105,29.383 27.923,41.215c11.139,11.152 24.057,20.401 37.881,27.932c3.835,2.089 7.752,4.043 11.725,5.882c0.122,-3.168 0.468,-5.75 1.686,-9.547c1.589,-4.954 9.735,-29.705 9.735,-29.705c0,0 8.084,-24.772 9.736,-29.706c1.266,-3.782 2.516,-6.069 4.294,-8.696l-0.327,-0.377c-7.308,-8.411 -17.803,-20.491 -21.357,-24.582c-6.209,-7.185 -9.513,-11.867 -13.683,-18.296c-6.337,6.396 -12.944,12.533 -19.892,18.262zM173.10667,232.79628c10.231,3.281 20.716,5.727 31.329,7.337l2.305,-14.46c0.01,-0.065 0.021,-0.131 0.031,-0.196c-2.905,-0.365 -5.807,-0.799 -8.705,-1.323c-16.415,-2.964 -32.316,-8.476 -47.345,-15.671c-6.034,-2.888 -11.916,-6.102 -17.615,-9.609c-2.56,3.572 -5.121,7.143 -7.681,10.715l-0.218,0.304c14.848,9.75 30.983,17.477 47.899,22.903zM253.13267,129.10728h-0.032c-19.93,-0.007 -37,-0.014 -37,-0.014c0,0 -14.659,0.005 -34.287,0.012h-0.052c-0.119,3.198 -0.463,5.79 -1.689,9.613c-1.59,4.954 -9.736,29.706 -9.736,29.706c0,0 -8.084,24.771 -9.736,29.705c-1.283,3.835 -2.548,6.132 -4.366,8.804c8.91,4.063 18.126,7.483 27.539,10.106c21.424,5.969 43.604,7.297 65.68,5.078c9.698,-0.975 19.372,-2.473 28.893,-4.619c-1.819,-3.103 -3.081,-5.744 -4.351,-10.095c-1.631,-5.592 -9.611,-33.65 -9.611,-33.65c0,0 -8.043,-28.041 -9.611,-33.65c-1.234,-4.417 -1.552,-7.341 -1.641,-10.996zM246.79267,55.66128c-11.436,-6.162 -24.152,-10.212 -37.252,-9.761c-15.696,0.54 -30.166,7.722 -42.108,17.589c-7.93,6.551 -14.558,14.382 -21.761,21.682c5.802,5.035 9.984,8.958 16.246,16.119c3.465,3.982 13.511,15.527 20.789,23.892c19.176,0.007 33.393,0.012 33.393,0.012c0,0 16.617,-0.006 36.202,-0.013c7.799,-7.594 17.34,-16.885 20.814,-20.268c6.825,-6.613 11.314,-10.178 17.501,-14.71c-4.113,-3.931 -8.185,-7.907 -12.417,-11.671c-9.684,-8.616 -19.963,-16.705 -31.407,-22.871zM346.80867,124.27328c-14.979,-4.564 -29.28,-11.539 -41.652,-21.184c-4.96,-3.867 -9.585,-8.158 -14.152,-12.517c-4.695,6.076 -8.374,10.473 -15.166,17.132c-3.556,3.469 -13.478,13.148 -21.368,20.844l-0.333,0.325c1.839,3.13 3.109,5.777 4.386,10.158c1.631,5.592 9.611,33.65 9.611,33.65c0,0 8.043,28.04 9.611,33.65c1.228,4.393 1.548,7.31 1.64,10.937c6.511,-1.503 12.95,-3.308 19.264,-5.497c11.883,-4.119 23.328,-9.632 33.62,-16.894c7.898,-5.573 15.055,-12.243 21.011,-19.867c4.468,-5.719 8.4,-12.37 11.337,-19.187c0.124,-0.287 0.096,-0.225 0.098,-0.229c0.073,-0.174 0.145,-0.348 0.217,-0.522c0.161,-0.392 0.319,-0.786 0.475,-1.18c0.281,-0.715 0.553,-1.435 0.814,-2.158c0.487,-1.346 0.939,-2.705 1.354,-4.075c0.693,-2.285 1.285,-4.602 1.759,-6.943c0.189,-0.935 0.36,-1.874 0.509,-2.817c0.062,-0.391 0.118,-0.783 0.174,-1.174c0.003,-0.019 0.004,-0.023 0.005,-0.035c0.003,-0.03 0.006,-0.051 0.011,-0.095c0.021,-0.172 0.043,-0.344 0.063,-0.516c0.093,-0.796 0.153,-1.593 0.21,-2.391c-1.424,-1.598 -2.767,-3.285 -4.018,-5.041c-6.593,-0.782 -13.154,-2.447 -19.48,-4.374zM373.10667,176.81428c0.747,-1.332 1.476,-2.675 2.161,-4.041c3.013,-6.004 5.387,-12.292 7.019,-18.885c0.525,-2.118 0.969,-4.258 1.304,-6.414c0.049,-0.312 0.093,-0.625 0.137,-0.937c0.009,-0.079 0.082,-0.637 0.102,-0.811c0.028,-0.244 0.048,-0.488 0.071,-0.732c-3.669,-2.216 -7.09,-4.844 -10.188,-7.794c-0.084,0.597 -0.171,1.195 -0.265,1.785c-0.773,4.833 -2.075,9.583 -3.765,14.174c-2.113,5.744 -4.828,11.258 -8.074,16.443c3.765,2.361 7.529,4.723 11.294,7.085c0.068,0.041 0.136,0.084 0.204,0.127zM461.62367,108.35228c0.368,-2 0.538,-4.024 0.547,-6.057c-0.09,-19.437 -17.214,-33.127 -34.681,-37.693c-19.508,-5.1 -42.896,-0.75 -56.973,14.413c-5.918,6.375 -9.664,14.655 -9.626,23.428c0.039,9.007 3.773,17.674 9.031,24.85c12.067,16.471 33.33,25.481 53.4,20.35c18.331,-4.685 34.816,-20.359 38.302,-39.291zM380.23167,206.19228c9.81,-3.718 18.919,-9.287 26.691,-16.333c6.549,-5.937 11.955,-12.584 16.541,-20.056c1.877,-3.058 3.59,-6.215 5.135,-9.453c0.354,-0.742 0.699,-1.488 1.035,-2.238c0.141,-0.315 0.28,-0.63 0.418,-0.946c0.077,-0.177 0.153,-0.354 0.23,-0.531c0.054,-0.124 0.092,-0.215 0.117,-0.273c0.521,-1.242 1.019,-2.494 1.489,-3.757c0.565,-1.516 1.043,-3.048 1.5,-4.586c-0.655,0.302 -1.313,0.594 -1.974,0.868c-10.316,4.272 -21.845,5.14 -32.671,2.373c-3.912,-1 -7.702,-2.455 -11.299,-4.294c-0.199,1.507 -0.472,3.008 -0.769,4.484c-1.25,6.222 -3.266,12.264 -5.777,18.086c-3.652,8.466 -8.519,16.351 -14.278,23.543c-5.845,7.299 -12.659,13.775 -20.091,19.439c11.491,-0.33 22.913,-2.237 33.703,-6.326zM358.92767,196.27428c4.62,-4.99 8.737,-10.43 12.281,-16.225c-3.775,-2.368 -7.55,-4.736 -11.325,-7.104c-0.109,-0.068 -0.218,-0.137 -0.327,-0.205c-5.331,7.761 -11.815,14.691 -19.122,20.623c-9.539,7.744 -20.265,13.792 -31.585,18.519c-4.097,1.711 -8.269,3.224 -12.488,4.594c1.988,4.623 3.977,9.246 5.965,13.869c0.125,0.29 0.249,0.58 0.374,0.87c9.282,-3.201 18.304,-7.138 26.851,-11.986c10.861,-6.161 20.882,-13.78 29.376,-22.955zM282.94567,236.89528c5.455,-1.282 10.871,-2.775 16.211,-4.499c-1.99,-4.627 -3.98,-9.254 -5.97,-13.881c-0.132,-0.306 -0.263,-0.611 -0.395,-0.917c-9.801,2.954 -19.857,5.087 -29.969,6.6c-17.403,2.604 -34.918,3.503 -52.344,1.706l-2.323,14.57c-0.01,0.061 -0.02,0.123 -0.029,0.184c6.475,0.861 12.992,1.418 19.524,1.653c18.574,0.669 37.204,-1.164 55.295,-5.416zM122.11167,207.80228c2.507,-3.498 5.014,-6.995 7.522,-10.493l0.295,-0.412c-6.536,-4.211 -12.799,-8.844 -18.697,-13.917c-7.805,-6.713 -14.929,-14.245 -21.117,-22.474c-3.542,1.938 -7.083,3.876 -10.625,5.814c2.647,3.786 5.465,7.455 8.458,10.983c9.918,11.685 21.528,21.849 34.164,30.499zM26.48667,131.33428c0.001,0.007 0.001,0.01 0.001,0.016c0.023,0.146 0.047,0.292 0.077,0.437c0.051,0.247 0.106,0.492 0.17,0.736c0.154,0.588 0.35,1.166 0.577,1.73c0.014,0.024 0.213,0.482 0.25,0.56c0.127,0.268 0.26,0.533 0.399,0.795c0.342,0.644 0.717,1.27 1.119,1.878c0.791,1.197 1.625,2.224 2.624,3.294c2.372,2.539 5.138,4.654 8.157,6.367c7.988,4.533 17.319,5.84 26.323,4.503c-1.061,-2.031 -2.079,-4.086 -3.044,-6.167c-1.835,-3.953 -3.492,-7.986 -4.997,-12.076c-0.793,-0.32 -1.589,-0.631 -2.387,-0.936c-2.56,-0.975 -5.146,-1.882 -7.759,-2.703c-3.13,-0.985 -6.303,-1.859 -9.527,-2.479c-2.711,-0.521 -5.522,-0.928 -8.345,-0.571c-0.006,0.001 -0.006,0.001 -0.011,0.001c-0.032,0.006 -0.065,0.012 -0.12,0.022c-0.115,0.021 -0.231,0.041 -0.346,0.065c-0.276,0.056 -0.55,0.122 -0.82,0.203c-0.074,0.022 -0.493,0.18 -0.551,0.192c-0.189,0.089 -0.375,0.184 -0.556,0.289c-0.1,0.058 -0.195,0.125 -0.289,0.193c-0.01,0.009 -0.008,0.008 -0.02,0.019c-0.133,0.124 -0.254,0.256 -0.374,0.391c-0.021,0.055 -0.22,0.354 -0.264,0.433c-0.004,0.006 -0.008,0.015 -0.012,0.023c-0.037,0.095 -0.075,0.191 -0.101,0.288c-0.059,0.22 -0.116,0.436 -0.165,0.659c-0.021,0.095 -0.034,0.139 -0.043,0.167c0.002,0.032 0.003,0.079 0.001,0.172c-0.011,0.504 -0.013,0.995 0.033,1.499z" fill="#152345" stroke="none" stroke-width="1" stroke-linecap="butt"/><path d="M70.15857,133.17893c1.301,-0.228 2.60259,-0.51453 3.88659,-0.82253c1.488,3.577 3.14239,7.10657 4.94339,10.53758c2.646,5.04 5.64997,9.95346 8.93597,14.59046c-3.504,1.917 -7.04066,3.85432 -10.54466,5.77132c-6.048,-9.135 -11.13321,-19.01015 -15.04721,-29.25715c2.617,0.006 5.28291,-0.37367 7.82591,-0.81967z" data-paper-data="{&quot;noHover&quot;:false,&quot;origItem&quot;:[&quot;Path&quot;,{&quot;applyMatrix&quot;:true,&quot;segments&quot;:[[[121.91387,270.89],[5.234,0.012],[7.828,20.494]],[[151.92587,329.232],[-12.096,-18.27],[7.008,-3.834]],[[172.94987,317.728],[-7.008,3.834],[-6.572,-9.274]],[[155.09587,288.686],[5.292,10.08],[-3.602,-6.862]],[[145.27787,267.632],[2.976,7.154],[-2.568,0.616]],[[137.52987,269.272],[2.602,-0.456],[-5.086,0.892]]],&quot;closed&quot;:true,&quot;fillColor&quot;:[0,0,0,1]}]}" fill="#55af34" stroke="none" stroke-width="0.5" stroke-linecap="butt"/><path d="M87.90138,177.28436c-2.993,-3.528 -5.80554,-7.20695 -8.45254,-10.99295c3.542,-1.938 7.09757,-3.88968 10.63957,-5.82768c6.188,8.229 13.38747,15.7947 21.19247,22.5077c5.898,5.073 12.15641,9.7374 18.69241,13.94841l-0.2954,0.41279c-2.508,3.498 -5.02958,7.01193 -7.53659,10.50993c-12.636,-8.65 -24.32192,-18.87319 -34.23992,-30.55819z" data-paper-data="{&quot;noHover&quot;:false,&quot;origItem&quot;:[&quot;Path&quot;,{&quot;applyMatrix&quot;:true,&quot;segments&quot;:[[[241.40387,418.424],[-25.272,-17.3],[5.014,-6.996]],[[256.44787,397.438],[-5.016,6.996],[0,0]],[[257.03787,396.614],[0,0],[-13.072,-8.422]],[[219.64387,368.78],[11.796,10.146],[-15.61,-13.426]],[[177.40987,323.832],[12.376,16.458],[-7.084,3.876]],[[156.15987,335.46],[7.084,-3.876],[5.294,7.572]],[[173.07587,357.426],[-5.986,-7.056],[19.836,23.37]]],&quot;closed&quot;:true,&quot;fillColor&quot;:[0,0,0,1]}]}" fill="#55af34" stroke="none" stroke-width="0.5" stroke-linecap="butt"/><path d="M125.159,209.88181l0.2181,-0.3044c2.56,-3.572 5.12722,-7.1577 7.68722,-10.7297c5.699,3.507 11.58281,6.7183 17.61681,9.6063c15.029,7.195 31.02003,12.74344 47.43503,15.70744c2.898,0.524 5.79999,0.95807 8.70499,1.32307c-0.01,0.065 -0.02104,0.13124 -0.03104,0.19624l-2.31038,14.47616c-10.613,-1.61 -21.11845,-4.03556 -31.34945,-7.31656c-16.916,-5.426 -33.12327,-13.20855 -47.97127,-22.95855z" data-paper-data="{&quot;noHover&quot;:false,&quot;origItem&quot;:[&quot;Path&quot;,{&quot;applyMatrix&quot;:true,&quot;segments&quot;:[[[343.39387,468.412],[-33.832,-10.852],[20.462,6.562]],[[406.05187,483.086],[-21.226,-3.22],[0,0]],[[410.66187,454.166],[0,0],[0.02,-0.13]],[[410.72387,453.774],[-0.02,0.13],[-5.81,-0.73]],[[393.31387,451.128],[5.796,1.048],[-32.83,-5.928]],[[298.62387,419.786],[30.058,14.39],[-12.068,-5.776]],[[263.39387,400.568],[11.398,7.014],[-5.12,7.144]],[[248.03187,421.998],[5.12,-7.144],[0,0]],[[247.59587,422.606],[0,0],[29.696,19.5]]],&quot;closed&quot;:true,&quot;fillColor&quot;:[0,0,0,1]}]}" fill="#55af34" stroke="none" stroke-width="0.5" stroke-linecap="butt"/><path d="M227.60546,242.33266c-6.532,-0.235 -13.05248,-0.802 -19.52748,-1.663c0.009,-0.061 0.01896,-0.12318 0.02896,-0.18418l2.32196,-14.58595c17.426,1.797 35.033,0.87597 52.43599,-1.72803c10.112,-1.513 20.17344,-3.63434 29.97444,-6.58835c0.132,0.306 0.26335,0.61216 0.39535,0.91816c1.99,4.627 3.98192,9.27057 5.97192,13.89757c-5.34,1.724 -10.75725,3.22581 -16.21225,4.50781c-18.091,4.252 -36.81488,6.09496 -55.38888,5.42596z" data-paper-data="{&quot;noHover&quot;:false,&quot;origItem&quot;:[&quot;Path&quot;,{&quot;applyMatrix&quot;:true,&quot;segments&quot;:[[[563.07187,476.61],[-36.182,8.504],[10.91,-2.564]],[[595.49387,467.612],[-10.68,3.448],[-3.98,-9.254]],[[583.55387,439.85],[3.98,9.254],[-0.264,-0.612]],[[582.76387,438.016],[0.264,0.612],[-19.602,5.908]],[[522.82587,451.216],[20.224,-3.026],[-34.806,5.208]],[[418.13787,454.628],[34.852,3.594],[0,0]],[[413.49187,483.768],[0,0],[-0.02,0.122]],[[413.43387,484.136],[0.018,-0.122],[12.95,1.722]],[[452.48187,487.442],[-13.064,-0.47],[37.148,1.338]]],&quot;closed&quot;:true,&quot;fillColor&quot;:[0,0,0,1]}]}" fill="#55af34" stroke="none" stroke-width="0.5" stroke-linecap="butt"/><path d="M329.53975,219.27784c-8.547,4.848 -17.5935,8.7707 -26.8755,11.9717c-0.125,-0.29 -0.24972,-0.58077 -0.37472,-0.87077c-1.988,-4.623 -3.98649,-9.26142 -5.97449,-13.88442c4.219,-1.37 8.39116,-2.8826 12.48816,-4.5936c11.32,-4.727 22.12302,-10.83304 31.66202,-18.57704c7.307,-5.932 13.72739,-12.78491 19.05839,-20.54591c0.109,0.068 0.28449,0.0623 0.39349,0.1303c3.775,2.368 7.55972,4.74791 11.33472,7.1159c-3.544,5.795 -7.65538,11.24922 -12.27538,16.23922c-8.494,9.175 -18.57567,16.85362 -29.43667,23.01462z" data-paper-data="{&quot;noHover&quot;:false,&quot;origItem&quot;:[&quot;Path&quot;,{&quot;applyMatrix&quot;:true,&quot;segments&quot;:[[[715.03587,395.368],[-16.988,18.35],[9.24,-9.98]],[[739.59787,362.918],[-7.088,11.59],[-7.55,-4.736]],[[716.94787,348.71],[7.55,4.736],[-0.218,-0.136]],[[716.29387,348.3],[0.218,0.136],[-10.662,15.522]],[[678.04987,389.546],[14.614,-11.864],[-19.078,15.488]],[[614.87987,426.584],[22.64,-9.454],[-8.194,3.422]],[[589.90387,435.772],[8.438,-2.74],[3.976,9.246]],[[601.83387,463.51],[-3.976,-9.246],[0.25,0.58]],[[602.58187,465.25],[-0.25,-0.58],[18.564,-6.402]],[[656.28387,441.278],[-17.094,9.696],[21.722,-12.322]]],&quot;closed&quot;:true,&quot;fillColor&quot;:[0,0,0,1]}]}" fill="#55af34" stroke="none" stroke-width="0.5" stroke-linecap="butt"/><path d="M372.90304,176.73728c-3.765,-2.362 -7.56251,-4.73656 -11.32751,-7.09755c3.246,-5.185 5.96294,-10.77552 8.07594,-16.51952c1.69,-4.591 3.02511,-9.35189 3.79811,-14.18489c0.094,-0.59 0.18149,-1.18797 0.26549,-1.78498c3.098,2.95 6.55059,5.59128 10.21959,7.80729c-0.023,0.244 -0.04198,0.48898 -0.06998,0.73298c-0.02,0.174 -0.09185,0.73316 -0.10085,0.81216c-0.044,0.312 -0.08664,0.62649 -0.13563,0.93849c-0.335,2.156 -0.76902,4.31348 -1.29402,6.43148c-1.632,6.593 -4.04565,12.94592 -7.05865,18.94992c-0.685,1.366 -1.42098,2.70962 -2.16798,4.04162c-0.068,-0.043 -0.13652,-0.08599 -0.20452,-0.12699z" data-paper-data="{&quot;noHover&quot;:false,&quot;origItem&quot;:[&quot;Path&quot;,{&quot;applyMatrix&quot;:true,&quot;segments&quot;:[[[743.39387,356.448],[-0.136,-0.086],[1.494,-2.664]],[[747.71587,348.366],[-1.37,2.732],[6.026,-12.008]],[[761.75387,310.596],[-3.264,13.186],[1.05,-4.236]],[[764.36187,297.768],[-0.67,4.312],[0.098,-0.624]],[[764.63587,295.894],[-0.088,0.624],[0.018,-0.158]],[[764.83987,294.272],[-0.04,0.348],[0.056,-0.488]],[[764.98187,292.808],[-0.046,0.488],[-7.338,-4.432]],[[744.60587,277.22],[6.196,5.9],[-0.168,1.194]],[[744.07587,280.79],[0.188,-1.18],[-1.546,9.666]],[[736.54587,309.138],[3.38,-9.182],[-4.226,11.488]],[[720.39787,342.024],[6.492,-10.37],[7.53,4.722]],[[742.98587,356.194],[-7.53,-4.724],[0.136,0.082]]],&quot;closed&quot;:true,&quot;fillColor&quot;:[0,0,0,1]}]}" fill="#55af34" stroke="none" stroke-width="0.5" stroke-linecap="butt"/><path d="M254.80972,140.06864c1.568,5.609 9.62488,33.68214 9.62488,33.68214c0,0 7.97384,28.08466 9.60484,33.67666c1.27,4.351 2.52961,6.99589 4.34861,10.09889c-9.521,2.146 -19.20774,3.65693 -28.90574,4.63192c-22.076,2.219 -44.31632,0.8887 -65.74032,-5.0803c-9.413,-2.623 -18.64195,-6.05915 -27.55195,-10.12215c1.818,-2.672 3.08103,-4.97343 4.36402,-8.80843c1.652,-4.934 9.73326,-29.73118 9.73326,-29.73118c0,0 8.16007,-24.77937 9.75007,-29.73337c1.226,-3.823 1.57513,-6.41945 1.69413,-9.61745l0.05203,-0.00002c19.628,-0.007 34.31586,-0.02208 34.31586,-0.02208c0,0 17.10156,0.01721 37.03157,0.02421l0.03202,0.00001c0.089,3.655 0.41274,6.58412 1.64674,11.00112z" data-paper-data="{&quot;noHover&quot;:false,&quot;origItem&quot;:[&quot;Path&quot;,{&quot;applyMatrix&quot;:true,&quot;segments&quot;:[[[503.44587,261.034],[0.178,7.31],[0,0]],[[503.38187,261.034],[0,0],[-39.86,-0.014]],[429.38187,261.006],[[360.80787,261.03],[39.256,-0.014],[0,0]],[[360.70387,261.03],[0,0],[-0.238,6.396]],[[357.32587,280.256],[2.452,-7.646],[-3.18,9.908]],[337.85387,339.668],[[318.38187,399.078],[3.304,-9.868],[-2.566,7.67]],[[309.64987,416.686],[3.636,-5.344],[17.82,8.126]],[[364.72787,436.898],[-18.826,-5.246],[42.848,11.938]],[[496.08787,447.054],[-44.152,4.438],[19.396,-1.95]],[[553.87387,437.816],[-19.042,4.292],[-3.638,-6.206]],[[545.17187,417.626],[2.54,8.702],[-3.262,-11.184]],[525.94987,350.326],[[506.72787,283.026],[3.136,11.218],[-2.468,-8.834]]],&quot;closed&quot;:true,&quot;fillColor&quot;:[0,0,0,1]}]}" fill="#55af34" stroke="none" stroke-width="0.5" stroke-linecap="butt"/><path d="M366.33396,128.6261c1.251,1.756 2.59592,3.44773 4.01992,5.04573c-0.057,0.798 -0.11643,1.59671 -0.20943,2.39271c-0.02,0.172 -0.04188,0.34438 -0.06288,0.51638c-0.005,0.044 -0.00798,0.06507 -0.01098,0.09507c-0.001,0.012 -0.00199,0.01603 -0.00499,0.03503c-0.056,0.391 -0.11176,0.78386 -0.17376,1.17486c-0.149,0.943 -0.31945,1.88413 -0.50845,2.81913c-0.474,2.341 -1.06504,4.66365 -1.75804,6.94864c-0.415,1.37 -0.86672,2.7326 -1.35372,4.0786c-0.261,0.723 -0.53296,1.445 -0.81396,2.16c-0.156,0.394 -0.31401,0.78912 -0.47501,1.18112c-0.072,0.174 -0.14401,0.3485 -0.21701,0.5225c-0.002,0.004 0.02599,-0.05778 -0.09801,0.22922c-2.937,6.817 -6.87449,13.48903 -11.34249,19.20803c-5.956,7.624 -13.13549,14.31606 -21.0335,19.88906c-10.292,7.262 -21.7704,12.77877 -33.6534,16.89777c-6.314,2.189 -12.76459,3.98971 -19.27559,5.49271c-0.092,-3.627 -0.41647,-6.54662 -1.64447,-10.93962c-1.568,-5.61 -9.62953,-33.67219 -9.62953,-33.67219c0,0 -7.98218,-28.09094 -9.61318,-33.68294c-1.277,-4.381 -2.54473,-7.03444 -4.38373,-10.16444l0.33313,-0.32531c7.89,-7.696 17.82685,-17.39418 21.38285,-20.86318c6.792,-6.659 10.48605,-11.06413 15.18105,-17.14012c4.567,4.359 9.201,8.64789 14.161,12.51489c12.372,9.645 26.71785,16.63698 41.69684,21.20098c6.326,1.927 12.89434,3.60336 19.48734,4.38536z" data-paper-data="{&quot;noHover&quot;:false,&quot;origItem&quot;:[&quot;Path&quot;,{&quot;applyMatrix&quot;:true,&quot;segments&quot;:[[[690.79787,251.366],[12.652,3.854],[-29.958,-9.128]],[[607.49387,208.998],[24.744,19.29],[-9.92,-7.734]],[[579.18987,183.964],[9.134,8.718],[-9.39,12.152]],[[548.85787,218.228],[13.584,-13.318],[-7.112,6.938]],[[506.12187,259.916],[15.78,-15.392],[0,0]],[[505.45587,260.566],[0,0],[3.678,6.26]],[[514.22787,280.882],[-2.554,-8.762],[3.262,11.184]],[533.44987,348.182],[[552.67187,415.482],[-3.136,-11.22],[2.456,8.786]],[[555.95187,437.356],[-0.184,-7.254],[13.022,-3.006]],[[594.47987,426.362],[-12.628,4.378],[23.766,-8.238]],[[661.71987,392.574],[-20.584,14.524],[15.796,-11.146]],[[703.74187,352.84],[-11.912,15.248],[8.936,-11.438]],[[726.41587,314.466],[-5.874,13.634],[0.248,-0.574]],[[726.61187,314.008],[-0.004,0.008],[0.146,-0.348]],[[727.04587,312.964],[-0.144,0.348],[0.322,-0.784]],[[727.99587,310.604],[-0.312,0.788],[0.562,-1.43]],[[729.62387,306.288],[-0.522,1.446],[0.974,-2.692]],[[732.33187,298.138],[-0.83,2.74],[1.386,-4.57]],[[735.84987,284.252],[-0.948,4.682],[0.378,-1.87]],[[736.86787,278.618],[-0.298,1.886],[0.124,-0.782]],[[737.21587,276.27],[-0.112,0.782],[0.006,-0.038]],[[737.22587,276.2],[-0.002,0.024],[0.006,-0.06]],[[737.24787,276.01],[-0.01,0.088],[0.042,-0.344]],[[737.37387,274.978],[-0.04,0.344],[0.186,-1.592]],[[737.79387,270.196],[-0.114,1.596],[-2.848,-3.196]],[[729.75787,260.114],[2.502,3.512],[-13.186,-1.564]]],&quot;closed&quot;:true,&quot;fillColor&quot;:[0,0,0,1]}]}" fill="#55af34" stroke="none" stroke-width="0.5" stroke-linecap="butt"/><path d="M278.24932,78.5265c4.232,3.764 8.30423,7.749 12.41723,11.68c-6.187,4.532 -10.67874,8.11041 -17.50374,14.72341c-3.474,3.383 -13.02952,12.69526 -20.82852,20.28925c-19.585,0.007 -36.23721,0.02506 -36.23721,0.02506c0,0 -14.24775,-0.01766 -33.42375,-0.02466c-7.278,-8.365 -17.33882,-19.93378 -20.80382,-23.91578c-6.262,-7.161 -10.44585,-11.09775 -16.24785,-16.13274c7.203,-7.3 13.83514,-15.15068 21.76514,-21.70168c11.942,-9.867 26.44725,-17.07793 42.14325,-17.61793c13.1,-0.451 25.86122,3.61178 37.29722,9.77378c11.444,6.166 21.73806,14.2853 31.42206,22.9013z" data-paper-data="{&quot;noHover&quot;:false,&quot;origItem&quot;:[&quot;Path&quot;,{&quot;applyMatrix&quot;:true,&quot;segments&quot;:[[[490.76587,114.142],[22.888,12.332],[-22.872,-12.324]],[[416.26187,94.62],[26.2,-0.902],[-31.392,1.08]],[[332.04587,129.798],[23.884,-19.734],[-15.86,13.102]],[[288.52387,173.162],[14.406,-14.6],[11.604,10.07]],[[321.01587,205.4],[-12.524,-14.322],[6.93,7.964]],[[362.59387,253.184],[-14.556,-16.73],[38.352,0.014]],[429.37987,253.208],[[501.78387,253.182],[-39.17,0.014],[15.598,-15.188]],[[543.41187,212.646],[-6.948,6.766],[13.65,-13.226]],[[578.41387,183.226],[-12.374,9.064],[-8.226,-7.862]],[[553.57987,159.884],[8.464,7.528],[-19.368,-17.232]]],&quot;closed&quot;:true,&quot;fillColor&quot;:[0,0,0,1]}]}" fill="#55af34" stroke="none" stroke-width="0.5" stroke-linecap="butt"/><path d="M145.30455,85.50497c4.17,6.429 7.48998,11.11849 13.69898,18.30349c3.554,4.091 14.06742,16.19558 21.37542,24.60658l0.32714,0.3774c-1.778,2.627 -3.02622,4.92097 -4.29222,8.70298c-1.652,4.934 -9.74169,29.7395 -9.74169,29.7395c0,0 -8.1656,24.77028 -9.7546,29.72428c-1.218,3.797 -1.56813,6.38101 -1.69013,9.54901c-3.973,-1.839 -7.89709,-3.79056 -11.73209,-5.87956c-13.824,-7.531 -26.78782,-16.79092 -37.92682,-27.94291c-11.818,-11.832 -21.46198,-25.83407 -27.93798,-41.26607c5.043,-1.493 9.95035,-3.51256 14.66835,-5.78856c11.925,-5.753 22.90431,-13.46161 33.09631,-21.86561c6.948,-5.729 13.57234,-11.86451 19.90934,-18.26051z" data-paper-data="{&quot;noHover&quot;:false,&quot;origItem&quot;:[&quot;Path&quot;,{&quot;applyMatrix&quot;:true,&quot;segments&quot;:[[[247.97987,210.45],[13.896,-11.458],[-20.384,16.808]],[[181.86587,254.13],[23.85,-11.506],[-9.436,4.552]],[[152.53787,265.686],[10.086,-2.986],[12.952,30.864]],[[208.38387,348.116],[-23.636,-23.664],[22.278,22.304]],[[284.14587,403.98],[-27.648,-15.062],[7.67,4.178]],[[307.59587,415.744],[-7.946,-3.678],[0.244,-6.336]],[[310.96787,396.65],[-2.436,7.594],[3.178,-9.908]],[330.43787,337.24],[[349.90987,277.828],[-3.304,9.868],[2.532,-7.564]],[[358.49787,260.436],[-3.556,5.254],[0,0]],[[357.84387,259.682],[0,0],[-14.616,-16.822]],[[315.12987,210.518],[7.108,8.182],[-12.418,-14.37]],[[287.76387,173.926],[8.34,12.858],[-12.674,12.792]]],&quot;closed&quot;:true,&quot;fillColor&quot;:[0,0,0,1]}]}" fill="#55af34" stroke="none" stroke-width="0.5" stroke-linecap="butt"/><path d="M26.40859,129.81365c0.002,-0.093 0.00116,-0.14031 -0.00084,-0.17231c0.009,-0.028 0.02216,-0.07234 0.04316,-0.16734c0.049,-0.223 0.10668,-0.44032 0.16568,-0.66032c0.026,-0.097 0.06432,-0.19359 0.10132,-0.28859c0.004,-0.008 0.00803,-0.01705 0.01203,-0.02305c0.044,-0.079 0.24356,-0.37899 0.26456,-0.43399c0.12,-0.135 0.24161,-0.26801 0.37461,-0.39201c0.012,-0.011 0.01003,-0.01005 0.02004,-0.01905c0.094,-0.068 0.18938,-0.13561 0.28938,-0.19361c0.181,-0.105 0.36768,-0.20104 0.55668,-0.29004c0.058,-0.012 0.47762,-0.1709 0.55162,-0.1929c0.27,-0.081 0.5449,-0.14823 0.8209,-0.20423c0.115,-0.024 0.23138,-0.0445 0.34638,-0.0655c0.055,-0.01 0.08814,-0.01618 0.12014,-0.02218c0.005,0 0.00501,-0.00001 0.01101,-0.00101c2.823,-0.357 5.64617,0.03885 8.35716,0.55985c3.224,0.62 6.43287,1.48668 9.56287,2.47168c2.613,0.821 5.23075,1.74776 7.79075,2.72276c0.798,0.305 1.59828,0.623 2.39128,0.94299c1.505,4.09 3.16434,8.16258 4.99934,12.11558c0.965,2.081 1.97854,4.14521 3.03954,6.17621c-9.004,1.337 -18.40945,0.04219 -26.39745,-4.49081c-3.019,-1.713 -5.80285,-3.86167 -8.17485,-6.40067c-0.999,-1.07 -1.83293,-2.10724 -2.62393,-3.30424c-0.402,-0.608 -0.77628,-1.23861 -1.11828,-1.88261c-0.139,-0.262 -0.27161,-0.52876 -0.3986,-0.79676c-0.037,-0.078 -0.2357,-0.53719 -0.2497,-0.56119c-0.227,-0.564 -0.42191,-1.14551 -0.57591,-1.73351c-0.064,-0.244 -0.11848,-0.49041 -0.16948,-0.73741c-0.03,-0.145 -0.05367,-0.29183 -0.07667,-0.43783c0,-0.006 0.00001,-0.00903 -0.00099,-0.01603c-0.046,-0.504 -0.04274,-0.99786 -0.03174,-1.50186z" data-paper-data="{&quot;noHover&quot;:false,&quot;origItem&quot;:[&quot;Path&quot;,{&quot;applyMatrix&quot;:true,&quot;segments&quot;:[[[50.15387,265.488],[-0.092,-1.008],[0.002,0.014]],[[50.15587,265.52],[0,-0.012],[0.046,0.292]],[[50.30987,266.394],[-0.06,-0.29],[0.102,0.494]],[[50.64987,267.866],[-0.128,-0.488],[0.308,1.176]],[[51.80387,271.326],[-0.454,-1.128],[0.028,0.048]],[[52.30387,272.446],[-0.074,-0.156],[0.254,0.536]],[[53.10187,274.036],[-0.278,-0.524],[0.684,1.288]],[[55.33987,277.792],[-0.804,-1.216],[1.582,2.394]],[[60.58787,284.38],[-1.998,-2.14],[4.744,5.078]],[[76.90187,297.114],[-6.038,-3.426],[15.976,9.066]],[[129.54787,306.12],[-18.008,2.674],[-2.122,-4.062]],[[123.45987,293.786],[1.93,4.162],[-3.67,-7.906]],[[113.46587,269.634],[3.01,8.18],[-1.586,-0.64]],[[108.69187,267.762],[1.596,0.61],[-5.12,-1.95]],[[93.17387,262.356],[5.226,1.642],[-6.26,-1.97]],[[74.11987,257.398],[6.448,1.24],[-5.422,-1.042]],[[57.42987,256.256],[5.646,-0.714],[-0.012,0.002]],[[57.40787,256.258],[0.01,0],[-0.064,0.012]],[[57.16787,256.302],[0.11,-0.02],[-0.23,0.042]],[[56.47587,256.432],[0.23,-0.048],[-0.552,0.112]],[[54.83587,256.838],[0.54,-0.162],[-0.148,0.044]],[[53.73387,257.222],[0.116,-0.024],[-0.378,0.178]],[[52.62187,257.8],[0.362,-0.21],[-0.2,0.116]],[[52.04387,258.186],[0.188,-0.136],[-0.02,0.018]],[[52.00387,258.224],[0.024,-0.022],[-0.266,0.248]],[[51.25587,259.006],[0.24,-0.27],[-0.042,0.11]],[[50.72787,259.872],[0.088,-0.158],[-0.008,0.012]],[[50.70387,259.918],[0.008,-0.016],[-0.074,0.19]],[[50.50187,260.494],[0.052,-0.194],[-0.118,0.44]],[[50.17187,261.812],[0.098,-0.446],[-0.042,0.19]],[[50.08587,262.146],[0.018,-0.056],[0.004,0.064]],[[50.08787,262.49],[0.004,-0.186],[-0.022,1.008]]],&quot;closed&quot;:true,&quot;fillColor&quot;:[0,0,0,1]}]}" fill="#67d440" stroke="none" stroke-width="0.5" stroke-linecap="butt"/><path d="M346.48876,212.5484c7.432,-5.664 14.2425,-12.14531 20.0875,-19.44431c5.759,-7.192 10.63622,-15.1392 14.28822,-23.6052c2.511,-5.822 4.55443,-11.87627 5.80443,-18.09827c0.297,-1.476 0.57194,-2.97719 0.77094,-4.48419c3.597,1.839 7.40556,3.29608 11.31756,4.29608c10.826,2.767 22.38038,1.91692 32.69637,-2.35507c0.661,-0.274 1.31927,-0.56564 1.97427,-0.86764c-0.457,1.538 -0.9334,3.07233 -1.4984,4.58832c-0.47,1.263 -0.96669,2.51714 -1.48769,3.75914c-0.025,0.058 -0.06291,0.14917 -0.1169,0.27317c-0.077,0.177 -0.15282,0.35433 -0.22982,0.53133c-0.138,0.316 -0.27666,0.6316 -0.41766,0.9466c-0.336,0.75 -0.68022,1.49751 -1.03422,2.23951c-1.545,3.238 -3.25475,6.40321 -5.13175,9.46121c-4.586,7.472 -9.997,14.15883 -16.546,20.09583c-7.772,7.046 -16.9412,12.63632 -26.7512,16.35432c-10.79,4.089 -22.23465,5.97919 -33.72565,6.30919z" data-paper-data="{&quot;noHover&quot;:false,&quot;origItem&quot;:[&quot;Path&quot;,{&quot;applyMatrix&quot;:true,&quot;segments&quot;:[[[757.64387,415.204],[-21.58,8.178],[19.62,-7.436]],[[811.02587,382.538],[-15.544,14.092],[13.098,-11.874]],[[844.10787,342.426],[-9.172,14.944],[3.754,-6.116]],[[854.37787,323.52],[-3.09,6.476],[0.708,-1.484]],[[856.44787,319.044],[-0.672,1.5],[0.282,-0.63]],[[857.28387,317.152],[-0.276,0.632],[0.154,-0.354]],[[857.74387,316.09],[-0.154,0.354],[0.108,-0.248]],[[857.97787,315.544],[-0.05,0.116],[1.042,-2.484]],[[860.95587,308.03],[-0.94,2.526],[1.13,-3.032]],[[863.95587,298.858],[-0.914,3.076],[-1.31,0.604]],[[860.00787,300.594],[1.322,-0.548],[-20.632,8.544]],[[794.66587,305.34],[21.652,5.534],[-7.824,-2]],[[772.06787,296.752],[7.194,3.678],[-0.398,3.014]],[[770.52987,305.72],[0.594,-2.952],[-2.5,12.444]],[[758.97587,341.892],[5.022,-11.644],[-7.304,16.932]],[[730.41987,388.978],[11.518,-14.384],[-11.69,14.598]],[[690.23787,427.856],[14.864,-11.328],[22.982,-0.66]]],&quot;closed&quot;:true,&quot;fillColor&quot;:[0,0,0,1]}]}" fill="#67d440" stroke="none" stroke-width="0.5" stroke-linecap="butt"/><path d="M423.33524,147.69141c-20.07,5.131 -41.39101,-3.90419 -53.45801,-20.37519c-5.258,-7.176 -8.99746,-15.86926 -9.03645,-24.87626c-0.038,-8.773 3.71604,-17.07703 9.63404,-23.45203c14.077,-15.163 37.5249,-19.53227 57.0329,-14.43227c17.467,4.566 34.62283,18.29915 34.71283,37.73615c-0.009,2.033 -0.17894,4.063 -0.54694,6.063c-3.486,18.932 -20.00736,34.6516 -38.33837,39.3366z" data-paper-data="{&quot;noHover&quot;:false,&quot;origItem&quot;:[&quot;Path&quot;,{&quot;applyMatrix&quot;:true,&quot;segments&quot;:[[[920.42787,219.524],[-6.972,37.864],[0.736,-4]],[[921.52187,207.41],[-0.018,4.066],[-0.18,-38.874]],[[852.15987,132.024],[34.934,9.132],[-39.016,-10.2]],[[738.21387,160.85],[28.154,-30.326],[-11.836,12.75]],[[718.96187,207.706],[-0.076,-17.546],[0.078,18.014]],[[737.02387,257.406],[-10.516,-14.352],[24.134,32.942]],[[843.82387,298.106],[-40.14,10.262],[36.662,-9.37]]],&quot;closed&quot;:true,&quot;fillColor&quot;:[0,0,0,1]}]}" fill="#67d440" stroke="none" stroke-width="0.5" stroke-linecap="butt"/><path d="M444.42638,140.54582c-0.41044,0.283 -0.80978,0.443 -1.17086,0.579c-0.36163,0.136 -0.68166,0.256 -0.95344,0.358c-0.27177,0.106 -0.50695,0.087 -0.67833,0.111c-0.1725,0.008 -0.41598,0.018 -0.72104,0.031c-0.3045,0.011 -0.66724,0.04 -1.09043,-0.046c-0.84195,-0.103 -1.88247,-0.417 -2.98732,-1.052c-1.10652,-0.622 -2.27459,-1.555 -3.40163,-2.739c-1.12593,-1.188 -2.21026,-2.619 -3.20585,-4.147c-1.99672,-3.054 -3.61795,-6.511 -4.72724,-9.167c-1.11095,-2.662 -1.71829,-4.547 -1.71829,-4.547c0,0 0.79924,1.894 2.17476,4.425c1.37108,2.527 3.34062,5.692 5.55698,8.164c1.10596,1.233 2.26628,2.293 3.39443,3.062c1.12926,0.768 2.22302,1.226 3.17257,1.433c0.95177,0.223 1.75379,0.149 2.34449,0.05c0.59181,-0.16 0.97673,-0.264 1.08377,-0.293c0.05269,-0.018 0.16418,-0.023 0.32669,-0.035c0.16195,-0.037 0.37494,-0.086 0.63174,-0.145c0.25847,-0.05 0.5613,-0.109 0.90019,-0.175c0.33722,-0.127 0.71105,-0.268 1.11317,-0.419c1.60958,-0.654 3.66288,-2.051 5.57474,-3.99c1.91852,-1.911 3.69782,-4.266 4.95243,-6.186c1.26237,-1.91 2.02501,-3.349 2.02501,-3.349c0,0 -0.56351,1.512 -1.56743,3.653c-1.00169,2.141 -2.45098,4.917 -4.16872,7.445c-1.7133,2.525 -3.70614,4.781 -5.54035,6.123c-0.45481,0.34 -0.9074,0.59 -1.32006,0.856z" fill="#152345" stroke="none" stroke-width="1" stroke-linecap="butt"/><path d="M415.65367,78.01128c2.911,0.22 5.899,0.672 8.596,1.837c1.533,0.662 3.157,1.699 3.523,3.395c0.063,0.152 0.095,0.33 0.085,0.535c0.01,0.196 -0.02,0.368 -0.078,0.516c-0.723,3.759 -7.066,4.651 -10.007,5.031c-5.544,0.716 -12.003,0.635 -17.203,-1.674c-1.414,-0.628 -3.021,-1.615 -3.402,-3.236c-0.392,-1.666 0.822,-3.013 2.122,-3.846c1.977,-1.267 4.465,-1.817 6.751,-2.177c3.174,-0.501 6.409,-0.623 9.613,-0.381zM402.51267,81.80828c-0.817,0.286 -2.632,0.886 -2.897,1.846c-0.177,0.641 1.217,1.371 1.833,1.664c3.98,1.89 9.012,2.015 13.319,1.782c2.486,-0.134 4.996,-0.472 7.369,-1.252c0.845,-0.278 3.171,-1.048 3.222,-2.071c-0.039,-0.782 -1.659,-1.477 -2.344,-1.756c-1.979,-0.806 -4.169,-1.194 -6.284,-1.413c-4.666,-0.483 -9.749,-0.363 -14.218,1.2z" fill="#152345" stroke="none" stroke-width="1" stroke-linecap="butt"/><path d="M434.12967,71.59228c-0.627,2.591 -4.678,3.24 -6.839,3.525c-3.772,0.499 -8.12,0.429 -11.655,-1.143c-1.05,-0.467 -2.151,-1.219 -2.426,-2.407c-0.293,-1.264 0.563,-2.318 1.564,-2.961c1.324,-0.851 2.98,-1.238 4.513,-1.483c2.122,-0.339 4.282,-0.436 6.426,-0.277c2.04,0.151 4.128,0.468 6.008,1.309c1.075,0.48 2.09,1.222 2.396,2.357c0.067,0.157 0.103,0.339 0.091,0.553c0.011,0.2 -0.018,0.376 -0.078,0.527zM415.64667,71.08428c-0.022,0.057 -0.002,0.184 0,0zM431.46767,70.86428c-0.328,-0.257 -0.733,-0.439 -1.118,-0.591c-1.212,-0.477 -2.544,-0.72 -3.833,-0.856c-2.982,-0.314 -6.196,-0.244 -9.067,0.701c-0.464,0.153 -0.924,0.333 -1.337,0.599c-0.123,0.079 -0.221,0.162 -0.335,0.249c-0.052,0.039 -0.09,0.064 -0.112,0.079c0.011,0.013 0.023,0.028 0.01,0.015c0.282,0.304 0.658,0.5 1.031,0.671c2.559,1.171 5.757,1.236 8.51,1.085c1.585,-0.087 3.179,-0.307 4.691,-0.804c0.484,-0.159 0.994,-0.348 1.414,-0.646c0.104,-0.074 0.309,-0.255 0.347,-0.284c0.004,-0.003 0.005,-0.008 0.009,-0.011c-0.027,-0.035 -0.099,-0.121 -0.21,-0.207z" fill="#152345" stroke="none" stroke-width="1" stroke-linecap="butt"/><path d="M408.79467,74.63528c-0.627,2.591 -4.678,3.239 -6.839,3.525c-3.772,0.499 -8.12,0.429 -11.655,-1.143c-1.05,-0.467 -2.151,-1.219 -2.426,-2.408c-0.293,-1.264 0.563,-2.318 1.564,-2.961c1.324,-0.851 2.98,-1.238 4.513,-1.483c2.122,-0.34 4.282,-0.437 6.426,-0.278c2.04,0.151 4.128,0.468 6.008,1.309c1.075,0.48 2.09,1.222 2.396,2.358c0.067,0.157 0.103,0.339 0.091,0.553c0.011,0.201 -0.018,0.377 -0.078,0.528zM390.31167,74.12628c-0.022,0.058 -0.002,0.184 0,0zM406.13267,73.90628c-0.328,-0.257 -0.733,-0.439 -1.118,-0.59c-1.212,-0.476 -2.544,-0.721 -3.833,-0.856c-2.982,-0.314 -6.196,-0.244 -9.068,0.701c-0.464,0.153 -0.924,0.333 -1.337,0.599c-0.123,0.079 -0.221,0.162 -0.335,0.249c-0.052,0.039 -0.09,0.064 -0.112,0.079c0.011,0.013 0.023,0.028 0.01,0.015c0.282,0.304 0.658,0.5 1.031,0.671c2.559,1.171 5.757,1.236 8.51,1.085c1.585,-0.087 3.179,-0.307 4.691,-0.804c0.484,-0.16 0.994,-0.348 1.413,-0.646c0.104,-0.074 0.309,-0.255 0.347,-0.284c0.004,-0.003 0.005,-0.008 0.009,-0.011c-0.025,-0.035 -0.097,-0.121 -0.208,-0.208z" fill="#152345" stroke="none" stroke-width="1" stroke-linecap="butt"/><path d="M435.34467,121.88328c-2.869,0 -5.196,-4.146 -5.196,-9.262c0,-5.115 2.326,-9.262 5.196,-9.262c2.869,0 5.196,4.147 5.196,9.262c0,5.115 -2.327,9.262 -5.196,9.262z" fill="#152345" stroke="none" stroke-width="1" stroke-linecap="butt"/><path d="M419.58059,36.00629c0,0 59.34415,6.81476 44.69632,57.2045c-1.51987,5.2285 -107.70251,23.49333 -108.29362,-7.27254c-1.14742,-59.72002 63.5973,-49.93196 63.5973,-49.93196z" fill="#ff0000" stroke="#000000" stroke-width="3.5" stroke-linecap="round"/><path d="M400.64288,148.9631l-2.02522,-45.56752" fill="none" stroke="#152345" stroke-width="3.5" stroke-linecap="round"/></g></g></svg>