<svg version="1.1" xmlns="http://www.w3.org/2000/svg" xmlns:xlink="http://www.w3.org/1999/xlink" width="445.61634" height="273.34671" viewBox="0,0,445.61634,273.34671"><g transform="translate(-23.44078,-35.06946)"><g data-paper-data="{&quot;isPaintingLayer&quot;:true}" fill-rule="nonzero" stroke-linejoin="miter" stroke-miterlimit="10" stroke-dasharray="" stroke-dashoffset="0" style="mix-blend-mode: normal"><g stroke-width="3.5"><g stroke="none" stroke-linecap="butt"><path d="M322.63445,194.21137c-7.37421,-0.56713 0.18019,-0.16848 0.21634,-0.1055c7.80221,13.5952 7.44894,30.71297 5.24976,45.74142c-1.07963,7.38146 -2.68161,14.67432 -4.69274,21.85574c-0.81616,2.9121 -1.61567,5.87392 -2.66726,8.71125c-1.59942,4.31467 -4.64351,7.97442 -8.63306,10.28097c-4.44187,2.56714 -9.52344,2.78077 -14.53382,2.81001c-5.35837,0.03179 -10.73055,-0.50772 -15.96222,-1.67827c-8.23626,-1.843 -16.12551,-5.3978 -22.86863,-10.48576c-2.72339,-2.05545 -5.47,-4.32519 -7.69406,-6.92761c-2.99112,-3.50041 -4.67035,-7.98664 -4.70017,-12.59262c-0.01474,-2.32645 0.40275,-4.70768 1.23431,-6.88116c0.97443,-2.54421 2.37156,-4.92395 3.44416,-7.42977c1.90079,-4.4384 3.44745,-9.03351 4.52889,-13.74095c0.85573,-3.72411 1.39835,-7.50734 1.57466,-11.32468c0.07115,-1.55449 0.08395,-3.11263 0.02916,-4.66784c-0.0264,-0.74392 -0.06694,-1.48577 -0.12428,-2.2274c-0.02377,-0.3115 -0.05096,-0.62191 -0.08037,-0.93191c-0.01063,-0.10533 -0.05763,-0.54986 -0.06378,-0.61733c-0.21218,-1.82376 -0.52951,-3.64101 -0.992,-5.41877c-0.07043,-0.26999 66.81307,-4.10068 66.73507,-4.3698zM260.73744,268.20581c0.36466,-1.50329 0.70151,-3.01475 0.9936,-4.53006c0.73811,-3.83081 1.27837,-7.76485 1.14947,-11.67858c-0.04902,-1.47947 -0.30032,-3.46385 -0.73556,-4.59233c-0.15227,-0.39531 -0.34645,-0.77589 -0.56467,-1.13853c-0.0134,-0.02168 -0.14262,-0.1985 -0.18463,-0.26099c-0.08099,-0.10003 -0.16168,-0.20102 -0.25183,-0.29122c-0.27206,-0.27221 -0.72539,-0.58018 -1.18721,-0.73949c-0.48001,-0.16467 -0.83632,-0.13747 -1.60616,0.13569c0.16909,-0.06059 -0.56487,0.28154 -0.73981,0.38315c-0.32657,0.19133 -0.42082,0.25632 -0.60461,0.39496c-1.40443,1.0555 -2.49837,2.37674 -3.47921,3.73144c-1.16687,1.61046 -2.22454,3.33139 -3.12859,5.11123c1.1745,5.73646 5.64515,10.04914 10.33916,13.47475zM286.71675,279.00121c3.19056,0.48755 6.41974,0.72062 9.65114,0.75203c1.15803,-2.98944 1.9951,-6.156 2.50144,-9.29721c0.75211,-4.66913 0.75391,-10.70268 -2.49885,-14.4294c-3.68698,-4.22306 -10.28646,-4.91751 -15.02973,-2.33613c-4.7554,2.58718 -8.06651,7.39843 -10.61906,12.15842c-0.56915,1.0623 -1.09934,2.14445 -1.6057,3.23781c-0.02731,0.06075 -0.08968,0.19772 -0.11699,0.25847c-0.05158,0.11822 -0.10444,0.23714 -0.15632,0.35631c-0.08355,0.19117 -0.16615,0.38261 -0.24713,0.57558c-0.17465,0.41138 -0.34354,0.82446 -0.50795,1.23992c-0.14373,0.36318 -0.28391,0.72842 -0.42122,1.0945c5.91388,3.21758 12.37939,5.36869 19.05031,6.38973zM314.09778,274.33664c2.43113,-2.64688 3.41228,-5.96587 4.43243,-9.3182c-0.28519,-1.58363 -0.77988,-3.6795 -2.27496,-4.36496c-0.38006,-0.17478 -0.73278,-0.18093 -1.13844,-0.19126c-0.46904,-0.01128 -0.12015,-0.03445 -0.60111,0.09358c-0.12322,0.03242 -0.24538,0.06829 -0.36579,0.10885c-0.02468,0.00939 -0.04934,0.01879 -0.06245,0.02429c-0.24339,0.10746 -0.47763,0.23329 -0.70645,0.36904c-0.74511,0.44 -1.52486,1.17734 -2.26045,2.0018c-0.73686,0.82513 -1.43195,1.82311 -2.0728,2.82461c-1.41656,2.21239 -2.61749,4.58441 -3.67714,6.97936c-0.96742,2.18862 -1.8588,4.42682 -2.64561,6.69587c0.14706,-0.01077 0.29368,-0.0165 0.43982,-0.02756c4.21869,-0.31412 8.0588,-2.06529 10.93298,-5.19546zM319.91959,196.81395c-19.85354,0.01901 -74.89108,6.20528 -60.31881,1.22735c0.67594,2.61552 1.03034,5.33837 1.21392,8.00762c0.48435,7.06023 -0.42543,14.21239 -2.22068,21.04051c-1.24397,4.72827 -2.9592,9.308 -4.97893,13.75716c-0.92698,2.04104 -2.0722,4.002 -2.77074,6.13446c0.36272,-0.47265 0.72675,-0.94279 1.11043,-1.39461c2.44804,-2.88064 6.24135,-5.7196 10.12188,-3.77288c3.62523,1.81915 4.39131,6.36108 4.54242,10.01236c0.25732,6.18717 -0.9417,12.63456 -2.57489,18.64199c0.11199,0.07268 0.22734,0.14117 0.34055,0.21317c1.19207,-3.15768 2.72079,-6.23364 4.44815,-9.09252c3.2027,-5.30205 7.60633,-10.44447 13.65583,-12.45656c6.3373,-2.10754 14.04243,0.28766 17.78347,5.8707c2.82679,4.2193 3.08314,9.56575 2.47615,14.5416c1.44851,-3.07988 3.14393,-6.03886 5.29471,-8.62253c1.54862,-1.86163 3.5777,-3.70133 6.05645,-4.10484c2.74152,-0.44583 4.71272,0.70344 6.05774,2.52911c0.31275,-1.14742 0.6255,-2.29478 0.91716,-3.44845c1.78818,-7.06898 3.19226,-14.24618 3.95294,-21.50075c1.44615,-13.78481 3.36669,-25.91099 -5.10773,-37.58285z" data-paper-data="{&quot;index&quot;:null}" fill="#152345"/><path d="M303.13154,279.56944c-0.1461,0.01106 -0.29367,0.01593 -0.44076,0.02672c0.78684,-2.26906 1.66587,-4.52537 2.6333,-6.71396c1.05964,-2.39493 2.28679,-4.83107 3.70333,-7.04348c0.64089,-1.00149 1.35618,-2.0038 2.09298,-2.82891c0.73559,-0.82441 1.52693,-1.56043 2.27204,-2.00045c0.2288,-0.13574 0.46585,-0.26081 0.70925,-0.36829c0.0131,-0.00552 0.03803,-0.01483 0.06268,-0.02423c0.12042,-0.04055 0.24405,-0.07599 0.36723,-0.10841c0.48095,-0.12804 0.13444,-0.10403 0.60344,-0.09273c0.40568,0.01033 0.76299,0.01856 1.14308,0.19333c1.49507,0.68545 2.0068,2.79577 2.292,4.37934c-1.02017,3.35235 -2.01028,6.74064 -4.44141,9.38749c-2.87415,3.13018 -6.77853,4.87943 -10.9972,5.19356z" data-paper-data="{&quot;noHover&quot;:false,&quot;origItem&quot;:[&quot;Path&quot;,{&quot;applyMatrix&quot;:true,&quot;segments&quot;:[[[704.65248,589.44356],[-3.74,7.632],[3.164,-6.454]],[[707.87648,569.05956],[-0.058,7.008],[-1.444,-2.876]],[[701.04048,561.97556],[3.256,0.468],[-0.828,-0.12]],[[698.74848,562.25356],[0.784,-0.21],[-0.906,0.244]],[[697.64848,562.77356],[0.85,-0.518],[-0.218,0.132]],[[697.00848,563.18956],[0.208,-0.146],[-0.042,0.032]],[[696.90248,563.27156],[0.022,-0.018],[-0.406,0.344]],[[695.75648,564.37956],[0.362,-0.39],[-1.18,1.266]],[[692.55448,569.49956],[0.944,-1.998],[-0.946,2]],[[690.17848,576.09156],[0.662,-2.284],[-1.464,5.046]],[[687.07848,591.56156],[0.676,-5.194],[-0.616,4.746]],[[685.79648,605.90356],[0.224,-4.798],[0.276,-0.104]],[[686.62448,605.60156],[-0.274,0.104],[7.914,-2.992]]],&quot;closed&quot;:true,&quot;fillColor&quot;:[0,0,0,1]}]}" fill="#67d440"/><path d="M267.62039,272.63104c0.1373,-0.36613 0.27663,-0.7335 0.42036,-1.09666c0.1644,-0.41548 0.33239,-0.83119 0.50703,-1.24255c0.08096,-0.19297 0.16318,-0.38576 0.24673,-0.57692c0.05187,-0.11919 0.10451,-0.23893 0.15609,-0.35718c0.02731,-0.06075 0.08951,-0.19835 0.11681,-0.25909c0.50638,-1.09333 1.03516,-2.18487 1.60432,-3.24715c2.55256,-4.75999 5.89696,-9.62098 10.65233,-12.20813c4.74325,-2.58136 11.39801,-1.87159 15.08499,2.35147c3.25274,3.72677 3.25881,9.81051 2.50672,14.47968c-0.50633,3.14117 -1.35985,6.32932 -2.51788,9.31874c-3.23138,-0.03143 -6.48579,-0.2547 -9.67633,-0.74227c-6.67093,-1.02104 -13.18727,-3.20239 -19.10118,-6.41995z" data-paper-data="{&quot;noHover&quot;:false,&quot;origItem&quot;:[&quot;Path&quot;,{&quot;applyMatrix&quot;:true,&quot;segments&quot;:[[[654.7745,613.89956],[-13.374,1.82],[6.396,-0.872]],[[673.7125,609.87556],[-6.216,1.77],[0.528,-6.39]],[[673.2445,590.62556],[0.808,6.312],[-1.202,-9.382]],[[660.2785,564.36356],[8.35,5.306],[-9.464,-6.012]],[[630.1265,568.39556],[7.636,-7.638],[-7.656,7.656]],[[616.6445,597.73156],[2.2,-10.576],[-0.49,2.36]],[[615.3985,604.85156],[0.352,-2.384],[-0.018,0.132]],[[615.3205,605.41356],[0.018,-0.132],[-0.032,0.256]],[[615.2225,606.18556],[0.032,-0.258],[-0.052,0.414]],[[615.0745,607.42956],[0.046,-0.416],[-0.102,0.888]],[[614.8025,610.09556],[0.08,-0.89],[-0.07,0.778]],[[614.6145,612.43356],[0.056,-0.78],[13.166,2.822]]],&quot;closed&quot;:true,&quot;fillColor&quot;:[0,0,0,1]}]}" fill="#67d440"/><path d="M250.34873,254.72419c0.90407,-1.77983 1.98495,-3.53644 3.15184,-5.1469c0.98084,-1.35469 2.09972,-2.68342 3.50413,-3.7389c0.18378,-0.1386 0.28105,-0.2036 0.60762,-0.39493c0.17492,-0.10162 0.91229,-0.44354 0.74323,-0.38293c0.76986,-0.27313 1.13325,-0.2991 1.61328,-0.13444c0.46178,0.15931 0.92106,0.4692 1.19311,0.74139c0.09015,0.0902 0.17234,0.19181 0.25334,0.29186c0.04204,0.06247 0.17244,0.23982 0.18585,0.26149c0.21823,0.36265 0.41697,0.74559 0.56924,1.14089c0.43525,1.12845 0.70295,3.1285 0.752,4.60797c0.1289,3.91371 -0.42883,7.91893 -1.16694,11.74973c-0.29211,1.51532 -0.63997,3.03131 -1.00462,4.53457c-4.69403,-3.42563 -9.22755,-7.79334 -10.40204,-13.52979z" data-paper-data="{&quot;noHover&quot;:false,&quot;origItem&quot;:[&quot;Path&quot;,{&quot;applyMatrix&quot;:true,&quot;segments&quot;:[[[598.82848,607.90756],[-10.944,-3.912],[-0.152,-3.09]],[[598.16848,598.65556],[0.298,3.072],[-0.754,-7.766]],[[593.75848,575.60356],[2.464,7.434],[-0.932,-2.81]],[[589.74648,567.21156],[1.474,1.918],[-0.516,-0.672]],[[588.01848,565.34756],[0.624,0.572],[-0.038,-0.034]],[[587.51648,564.95156],[0.116,0.096],[-0.212,-0.146]],[[586.86848,564.53556],[0.224,0.122],[-0.676,-0.368]],[[584.17248,563.78956],[0.976,0.044],[-1.014,-0.044]],[[581.16848,564.95956],[1.322,-0.96],[0.29,-0.212]],[[579.96648,566.11356],[0.278,-0.294],[-0.518,0.552]],[[579.03048,567.21356],[0.274,-0.37],[-2.096,2.82]],[[574.47048,576.34156],[1.114,-3.154],[-1.326,3.75]],[[571.36448,587.91756],[0.726,-3.926],[5.502,10.338]]],&quot;closed&quot;:true,&quot;fillColor&quot;:[0,0,0,1]}]}" fill="#67d440"/><path d="M325.07728,234.3994c-0.76065,7.25457 -2.17381,14.45791 -3.962,21.52694c-0.29163,1.15363 -0.60681,2.3042 -0.91958,3.45158c-1.34501,-1.82567 -3.31804,-2.97293 -6.05951,-2.52708c-2.47876,0.40356 -4.51551,2.24996 -6.06416,4.1116c-2.15074,2.58366 -3.85647,5.54832 -5.30499,8.62816c0.607,-4.9758 0.3562,-10.32492 -2.47061,-14.54422c-3.741,-5.58304 -11.48541,-7.97425 -17.82277,-5.86669c-6.04953,2.01212 -10.46536,7.14874 -13.66804,12.45084c-1.72735,2.85884 -3.2028,5.85026 -4.39484,9.00792c-0.11325,-0.07204 -0.28109,-0.0554 -0.39309,-0.12807c1.6332,-6.00742 2.82181,-12.46344 2.56452,-18.65063c-0.15114,-3.65125 -0.92732,-8.20985 -4.55255,-10.02899c-3.88056,-1.9467 -7.57996,0.85786 -10.02799,3.73853c-0.38367,0.45186 -0.84116,0.95754 -1.20388,1.43016c0.69853,-2.13245 1.84174,-4.09978 2.7687,-6.14083c2.01972,-4.44916 3.73429,-9.04989 4.97829,-13.77814c1.79528,-6.82812 2.7185,-14.00626 2.23415,-21.06644c-0.18356,-2.66925 -0.53392,-5.39579 -1.20987,-8.01132c-14.57225,4.97794 40.53045,-1.20678 60.38401,-1.22577c8.47445,11.67184 6.57027,23.83777 5.12417,37.62258z" data-paper-data="{&quot;noHover&quot;:false,&quot;origItem&quot;:[&quot;Path&quot;,{&quot;applyMatrix&quot;:true,&quot;segments&quot;:[[[671.91,437.44826],[22.866,17.588],[-38.0707,11.28166]],[[556.90648,473.96756],[-25.13176,17.8021],[2.778,4.634]],[[563.77048,488.63956],[-1.864,-5.016],[4.928,13.268]],[[571.42848,530.25556],[-0.424,-14.114],[0.292,9.774]],[[569.67048,559.46356],[1.354,-9.678],[-0.622,4.44]],[[567.83048,572.79956],[0.132,-4.486],[0.428,-1.112]],[[569.17048,569.49556],[-0.48,1.084],[3.064,-6.912]],[[586.44848,556.52556],[-8.546,-1.536],[7.984,1.436]],[[600.83248,573.15756],[-2.358,-6.918],[3.998,11.722]],[[606.45248,610.37356],[-0.27,-12.448],[0.256,0.076]],[[607.22648,610.58956],[-0.258,-0.074],[0.498,-6.732]],[[610.60848,590.62956],[-1.694,6.462],[3.14,-11.984]],[[629.74648,559.00156],[-10.464,7.286],[10.962,-7.632]],[[667.18248,560.18956],[-10.338,-8.59],[7.812,6.492]],[[680.16848,586.67956],[-1.654,-9.888],[1.034,-6.728]],[[685.44048,567.14156],[-2.662,6.174],[1.916,-4.448]],[[694.73248,555.83756],[-4.526,2.178],[5.006,-2.408]],[[707.78448,557.25756],[-3.614,-2.74],[-0.05,-2.378]],[[707.59048,550.12356],[0.094,2.378],[-0.574,-14.572]],[[702.99448,506.64356],[2.65,14.346],[-5.034,-27.26]]],&quot;closed&quot;:true,&quot;fillColor&quot;:[0,0,0,1]}]}" fill="#67d440"/></g><path d="M274.01904,279.27835c-2.05248,6.9506 -9.10157,10.99491 -15.7446,9.03328c-6.64302,-1.96164 -10.36445,-9.18644 -8.31196,-16.13702c2.05247,-6.9506 9.10157,-10.99491 15.74459,-9.03327c6.64302,1.96164 10.36446,9.18643 8.31197,16.13703z" fill="#000000" stroke="#000000" stroke-linecap="butt"/><path d="M306.0287,288.97272c-2.08877,7.0736 -9.11748,11.23236 -15.699,9.28889c-6.58155,-1.94349 -10.22365,-9.25332 -8.13485,-16.32687c2.08877,-7.0736 9.1175,-11.23242 15.69904,-9.28893c6.58155,1.94349 10.22359,9.25329 8.13483,16.32691z" fill="#000000" stroke="#000000" stroke-linecap="butt"/><path d="M291.36819,285.91915c-4.23496,-1.98465 6.40722,-7.81715 6.40722,-7.81715l7.61557,1.97138c0,0 6.23451,12.034 -0.63888,9.79796c-5.17996,-1.68514 -10.30474,-2.50918 -13.38389,-3.95217z" fill="#1fba00" stroke="#1fba00" stroke-linecap="round"/><path d="M252.81548,274.56599c-20.24761,-5.91337 3.77999,-47.1165 3.77999,-47.1165l68.18244,21.21955c0,0 -4.62112,45.683 -20.12882,41.20306c-40.85073,-11.8012 -0.53858,-0.3252 -51.83358,-15.30613z" fill="#ff0000" stroke="#000000" stroke-linecap="butt"/><path d="M288.66913,283.09423c0,0 6.29402,-3.17365 7.73472,-7.38434c1.44068,-4.21069 -3.0402,-6.01741 -1.7258,-10.17793c1.31442,-4.16056 -5.56955,-9.07972 -2.40146,-13.46309c3.16807,-4.38338 6.93092,-5.3589 6.93092,-5.3589c0,0 6.35157,8.59974 7.07577,15.04917c0.72425,6.44938 -3.8369,3.29385 -4.69468,6.84208c-0.85772,3.54829 3.06311,5.82612 2.43948,9.15446c-0.62363,3.32836 -5.65335,7.99893 -5.65335,7.99893z" data-paper-data="{&quot;index&quot;:null}" fill="#eac100" stroke="#000000" stroke-linecap="round"/><path d="M257.73406,273.86851c0,0 6.29401,-3.17365 7.73471,-7.38434c1.44068,-4.21069 -3.04021,-6.01738 -1.7258,-10.17793c1.31442,-4.16056 -5.56955,-9.07972 -2.40144,-13.46313c3.16807,-4.38338 6.93092,-5.3589 6.93092,-5.3589c0,0 6.35156,8.59977 7.07577,15.04917c0.72425,6.44938 -3.83691,3.29384 -4.69464,6.84209c-0.85772,3.54829 3.06311,5.82606 2.43946,9.1544c-0.62363,3.32836 -5.65335,7.99893 -5.65335,7.99893z" data-paper-data="{&quot;index&quot;:null}" fill="#eac100" stroke="#eac100" stroke-linecap="round"/></g><g><g data-paper-data="{&quot;index&quot;:null}" stroke="none" stroke-linecap="butt"><path d="M173.63749,180.18784c-0.2121,0.18309 53.76993,39.85701 53.56368,40.04497c-1.35685,1.23821 -2.6136,2.5887 -3.78573,4.00194c-0.04193,0.05325 -0.32372,0.40025 -0.39003,0.48277c-0.19366,0.24386 -0.3857,0.48927 -0.57541,0.73744c-0.45236,0.59045 -0.8908,1.19025 -1.3185,1.79952c-0.89377,1.27389 -1.7325,2.58712 -2.5203,3.92907c-1.93327,3.29632 -3.54084,6.76371 -4.85373,10.35224c-1.65976,4.53595 -2.8682,9.23134 -3.69439,13.98845c-0.46691,2.68545 -0.59302,5.44212 -1.16313,8.10625c-0.48777,2.27544 -1.43597,4.49931 -2.7166,6.44158c-2.536,3.84512 -6.3895,6.69061 -10.80535,7.99442c-3.28322,0.96919 -6.8232,1.37464 -10.22684,1.61309c-8.42676,0.58929 -16.97849,-0.73156 -24.88792,-3.67663c-5.024,-1.87081 -9.82176,-4.34724 -14.29651,-7.2951c-4.18445,-2.75601 -8.32797,-5.70539 -10.65219,-10.27904c-2.08712,-4.10864 -2.64388,-8.83622 -1.63249,-13.32529c0.66523,-2.95192 1.60963,-5.87079 2.51301,-8.75704c2.22907,-7.11682 4.86192,-14.10401 7.98092,-20.88066c6.34938,-13.79769 15.38523,-28.34056 29.33765,-35.48438c0.06466,-0.0331 6.61503,3.75111 0.12382,0.20638zM201.20195,270.30385c0.21238,-1.98496 0.26388,-4.00426 0.16366,-5.99048c-0.08372,-1.67039 -0.28051,-3.37446 -0.88246,-5.02493c-0.07849,-0.21639 -0.12207,-0.32227 -0.29155,-0.66069c-0.09127,-0.18057 -0.52002,-0.86753 -0.41132,-0.72453c-0.49651,-0.6487 -0.78035,-0.86573 -1.27253,-0.98936c-0.47395,-0.11821 -1.02192,-0.10714 -1.39838,-0.02726c-0.12474,0.0265 -0.24747,0.06716 -0.3699,0.10688c-0.06928,0.02944 -0.274,0.10726 -0.29707,0.11813c-0.38067,0.18505 -0.75089,0.39822 -1.09409,0.64662c-0.98005,0.70873 -2.27258,2.23534 -3.12021,3.44888c-2.24168,3.21073 -3.93347,6.80328 -5.40311,10.41717c-0.58123,1.42956 -1.12283,2.88034 -1.63668,4.33938c5.80267,-0.31276 11.90169,-1.49096 16.01359,-5.65972zM176.97776,275.87953c0.08447,-0.38175 0.16608,-0.76439 0.24357,-1.1472c0.08866,-0.4379 0.17229,-0.87626 0.25014,-1.31637c0.03732,-0.20592 0.07243,-0.41142 0.10661,-0.61725c0.02147,-0.12821 0.04201,-0.25671 0.0632,-0.38394c0.0102,-0.06583 0.03262,-0.21461 0.04282,-0.28043c0.17152,-1.19265 0.31704,-2.38887 0.41903,-3.58974c0.45508,-5.38198 0.30221,-11.22051 -2.27392,-15.9819c-2.56913,-4.74989 -8.48026,-7.76555 -13.87342,-6.23525c-4.75857,1.35099 -8.0463,6.41002 -9.96125,10.73433c-1.288,2.9094 -2.3126,6.02037 -2.97153,9.15783c2.7261,1.73529 5.56031,3.30034 8.50081,4.63102c6.14907,2.78078 12.74202,4.50222 19.45391,5.02888zM143.44559,262.3288c0.11648,0.08893 0.23627,0.17366 0.35369,0.26289c0.5774,-2.33117 1.05032,-4.69346 1.43248,-7.05566c0.41733,-2.58544 0.70369,-5.22868 0.72227,-7.85566c0.00874,-1.18895 -0.02991,-2.40457 -0.19782,-3.49798c-0.16722,-1.09216 -0.41891,-2.13541 -0.8037,-2.91045c-0.11781,-0.23854 -0.24558,-0.47173 -0.39105,-0.69449c-0.00797,-0.01174 -0.02352,-0.03309 -0.03908,-0.05441c-0.07885,-0.09966 -0.16166,-0.19632 -0.24731,-0.29067c-0.33339,-0.36955 -0.05357,-0.15994 -0.4529,-0.40617c-0.34573,-0.21251 -0.64474,-0.39964 -1.05866,-0.46031c-1.62706,-0.24039 -3.18438,1.24697 -4.28679,2.41907c-0.97233,3.36651 -1.95924,6.68383 -1.36414,10.22814c0.70301,4.19102 2.96766,7.75256 6.33308,10.31577zM149.72375,212.57191c-3.31725,6.49642 -6.0529,13.27872 -8.40761,20.17971c-0.38441,1.12614 -0.74775,2.25853 -1.11108,3.39094c2.12288,-0.79724 4.40194,-0.68612 6.45717,1.18224c1.85804,1.68962 2.55615,4.33804 2.8395,6.74295c0.39452,3.33849 0.20269,6.74337 -0.262,10.115c2.20377,-4.50228 5.33335,-8.84465 10.00338,-10.84075c6.17989,-2.64095 13.94508,-0.44835 18.10889,4.77331c3.97453,4.98481 4.86278,11.69656 4.65718,17.88738c-0.11043,3.33837 -0.50581,6.75045 -1.22792,10.0475c0.13421,0.00135 0.26821,0.00686 0.40174,0.00696c1.90589,-5.92654 4.4156,-11.98526 8.00435,-17.03185c2.11722,-2.97859 5.23556,-6.36856 9.26642,-5.91728c4.31446,0.48359 5.94677,4.93151 6.42862,8.68103c0.07531,0.58797 0.12419,1.18057 0.17061,1.77453c0.57695,-2.16852 0.68593,-4.43677 1.0215,-6.65321c0.73234,-4.83094 1.79113,-9.60535 3.32595,-14.24736c2.21743,-6.70291 5.35387,-13.19474 9.60889,-18.84949c1.60909,-2.13763 3.3906,-4.22706 5.38316,-6.05124c9.50252,12.11742 -33.26446,-23.07327 -49.89789,-33.91264c-13.46742,5.1649 -18.46813,16.37765 -24.77081,28.7222z" data-paper-data="{&quot;index&quot;:null}" fill="#152345" stroke-width="1"/><path d="M143.45308,262.37823c-3.3654,-2.56321 -5.68491,-6.15817 -6.38793,-10.3492c-0.59509,-3.54434 0.42206,-6.92458 1.39438,-10.2911c1.10241,-1.17209 2.68184,-2.66226 4.3089,-2.42181c0.41389,0.06069 0.71792,0.24855 1.06365,0.46109c0.39933,0.24623 0.12195,0.03717 0.45529,0.40672c0.08563,0.09437 0.16994,0.19145 0.24878,0.29111c0.01556,0.02134 0.03137,0.04273 0.03935,0.0545c0.14547,0.22279 0.27598,0.45686 0.39381,0.6954c0.38479,0.77508 0.64688,1.82351 0.81414,2.91564c0.16789,1.09342 0.22116,2.32363 0.21242,3.51259c-0.01857,2.62698 -0.3179,5.33823 -0.73524,7.92366c-0.38213,2.3622 -0.87524,4.73293 -1.45264,7.06409c-0.11741,-0.08922 -0.23845,-0.17375 -0.35489,-0.26267z" data-paper-data="{&quot;noHover&quot;:false,&quot;origItem&quot;:[&quot;Path&quot;,{&quot;applyMatrix&quot;:true,&quot;segments&quot;:[[[704.65248,589.44356],[-3.74,7.632],[3.164,-6.454]],[[707.87648,569.05956],[-0.058,7.008],[-1.444,-2.876]],[[701.04048,561.97556],[3.256,0.468],[-0.828,-0.12]],[[698.74848,562.25356],[0.784,-0.21],[-0.906,0.244]],[[697.64848,562.77356],[0.85,-0.518],[-0.218,0.132]],[[697.00848,563.18956],[0.208,-0.146],[-0.042,0.032]],[[696.90248,563.27156],[0.022,-0.018],[-0.406,0.344]],[[695.75648,564.37956],[0.362,-0.39],[-1.18,1.266]],[[692.55448,569.49956],[0.944,-1.998],[-0.946,2]],[[690.17848,576.09156],[0.662,-2.284],[-1.464,5.046]],[[687.07848,591.56156],[0.676,-5.194],[-0.616,4.746]],[[685.79648,605.90356],[0.224,-4.798],[0.276,-0.104]],[[686.62448,605.60156],[-0.274,0.104],[7.914,-2.992]]],&quot;closed&quot;:true,&quot;fillColor&quot;:[0,0,0,1]}]}" fill="#67d440" stroke-width="0.5"/><path d="M157.49266,270.88975c-2.94051,-1.33065 -5.7905,-2.91764 -8.51659,-4.65294c0.65894,-3.13744 1.68145,-6.27541 2.96946,-9.18482c1.91495,-4.32431 5.23668,-9.42122 9.99526,-10.77217c5.39314,-1.53032 11.35896,1.50259 13.92808,6.25249c2.57614,4.76138 2.72982,10.65971 2.27471,16.04171c-0.102,1.20085 -0.25375,2.40419 -0.42529,3.59683c-0.0102,0.06583 -0.0331,0.21505 -0.04331,0.28089c-0.0212,0.12723 -0.04239,0.2563 -0.06387,0.38452c-0.03418,0.20583 -0.07033,0.41223 -0.10769,0.61815c-0.07787,0.44009 -0.16365,0.88018 -0.25234,1.31809c-0.07748,0.38279 -0.16096,0.76674 -0.24542,1.14853c-6.7119,-0.52668 -13.3639,-2.25045 -19.51299,-5.03125z" data-paper-data="{&quot;noHover&quot;:false,&quot;origItem&quot;:[&quot;Path&quot;,{&quot;applyMatrix&quot;:true,&quot;segments&quot;:[[[654.7745,613.89956],[-13.374,1.82],[6.396,-0.872]],[[673.7125,609.87556],[-6.216,1.77],[0.528,-6.39]],[[673.2445,590.62556],[0.808,6.312],[-1.202,-9.382]],[[660.2785,564.36356],[8.35,5.306],[-9.464,-6.012]],[[630.1265,568.39556],[7.636,-7.638],[-7.656,7.656]],[[616.6445,597.73156],[2.2,-10.576],[-0.49,2.36]],[[615.3985,604.85156],[0.352,-2.384],[-0.018,0.132]],[[615.3205,605.41356],[0.018,-0.132],[-0.032,0.256]],[[615.2225,606.18556],[0.032,-0.258],[-0.052,0.414]],[[615.0745,607.42956],[0.046,-0.416],[-0.102,0.888]],[[614.8025,610.09556],[0.08,-0.89],[-0.07,0.778]],[[614.6145,612.43356],[0.056,-0.78],[13.166,2.822]]],&quot;closed&quot;:true,&quot;fillColor&quot;:[0,0,0,1]}]}" fill="#67d440" stroke-width="0.5"/><path d="M201.24722,270.32509c-4.11195,4.16877 -10.29363,5.35885 -16.0963,5.67159c0.51384,-1.45904 1.04867,-2.91959 1.62987,-4.34916c1.46963,-3.61386 3.1856,-7.27559 5.42728,-10.48632c0.84767,-1.21355 2.16243,-2.7443 3.14249,-3.45304c0.34316,-0.24837 0.71853,-0.46107 1.09919,-0.64612c0.02306,-0.01087 0.22906,-0.08845 0.29837,-0.11791c0.12243,-0.03972 0.24674,-0.08008 0.37145,-0.10656c0.37645,-0.07988 0.93042,-0.08927 1.40439,0.02893c0.49217,0.12361 0.78267,0.3435 1.27914,0.99219c-0.1087,-0.14297 0.32304,0.54565 0.41431,0.7262c0.16944,0.33846 0.21559,0.44593 0.29407,0.66234c0.60196,1.65046 0.81559,3.37437 0.89929,5.04474c0.10026,1.98626 0.04877,4.04809 -0.16364,6.03305z" data-paper-data="{&quot;noHover&quot;:false,&quot;origItem&quot;:[&quot;Path&quot;,{&quot;applyMatrix&quot;:true,&quot;segments&quot;:[[[598.82848,607.90756],[-10.944,-3.912],[-0.152,-3.09]],[[598.16848,598.65556],[0.298,3.072],[-0.754,-7.766]],[[593.75848,575.60356],[2.464,7.434],[-0.932,-2.81]],[[589.74648,567.21156],[1.474,1.918],[-0.516,-0.672]],[[588.01848,565.34756],[0.624,0.572],[-0.038,-0.034]],[[587.51648,564.95156],[0.116,0.096],[-0.212,-0.146]],[[586.86848,564.53556],[0.224,0.122],[-0.676,-0.368]],[[584.17248,563.78956],[0.976,0.044],[-1.014,-0.044]],[[581.16848,564.95956],[1.322,-0.96],[0.29,-0.212]],[[579.96648,566.11356],[0.278,-0.294],[-0.518,0.552]],[[579.03048,567.21356],[0.274,-0.37],[-2.096,2.82]],[[574.47048,576.34156],[1.114,-3.154],[-1.326,3.75]],[[571.36448,587.91756],[0.726,-3.926],[5.502,10.338]]],&quot;closed&quot;:true,&quot;fillColor&quot;:[0,0,0,1]}]}" fill="#67d440" stroke-width="0.5"/><path d="M149.68046,212.5469c6.30268,-12.34457 11.33879,-23.58169 24.80623,-28.74658c16.63342,10.83937 59.4559,46.06429 49.95339,33.94688c-1.99257,1.82415 -3.77269,3.91891 -5.38176,6.05652c-4.25504,5.6547 -7.39431,12.17567 -9.61177,18.87861c-1.5348,4.64204 -2.60557,9.43367 -3.3379,14.26461c-0.3356,2.21643 -0.44969,4.48888 -1.02669,6.65744c-0.0464,-0.59395 -0.15425,-1.26732 -0.22956,-1.85526c-0.48182,-3.74951 -2.05417,-8.11743 -6.36863,-8.60102c-4.03087,-0.45129 -7.16675,2.94714 -9.28401,5.92571c-3.58873,5.0466 -6.11187,11.1069 -8.01779,17.03343c-0.13352,-0.00013 -0.26515,-0.10557 -0.39935,-0.1069c0.72209,-3.29705 1.11601,-6.60915 1.22646,-9.94751c0.20559,-6.19085 -0.69602,-12.9044 -4.67055,-17.88923c-4.1638,-5.22169 -11.95978,-7.43904 -18.13967,-4.79809c-4.66999,1.99608 -7.79644,6.34367 -10.00019,10.84597c0.46468,-3.37163 0.65096,-6.78685 0.25645,-10.12533c-0.28337,-2.4049 -0.98421,-5.0632 -2.84227,-6.75285c-2.05522,-1.86832 -4.33469,-1.98214 -6.45755,-1.1849c0.36332,-1.13242 0.72636,-2.26879 1.11078,-3.39491c2.35467,-6.90099 5.09705,-13.71017 8.41429,-20.20656z" data-paper-data="{&quot;noHover&quot;:false,&quot;origItem&quot;:[&quot;Path&quot;,{&quot;applyMatrix&quot;:true,&quot;segments&quot;:[[[671.91,437.44826],[22.866,17.588],[-38.0707,11.28166]],[[556.90648,473.96756],[-25.13176,17.8021],[2.778,4.634]],[[563.77048,488.63956],[-1.864,-5.016],[4.928,13.268]],[[571.42848,530.25556],[-0.424,-14.114],[0.292,9.774]],[[569.67048,559.46356],[1.354,-9.678],[-0.622,4.44]],[[567.83048,572.79956],[0.132,-4.486],[0.428,-1.112]],[[569.17048,569.49556],[-0.48,1.084],[3.064,-6.912]],[[586.44848,556.52556],[-8.546,-1.536],[7.984,1.436]],[[600.83248,573.15756],[-2.358,-6.918],[3.998,11.722]],[[606.45248,610.37356],[-0.27,-12.448],[0.256,0.076]],[[607.22648,610.58956],[-0.258,-0.074],[0.498,-6.732]],[[610.60848,590.62956],[-1.694,6.462],[3.14,-11.984]],[[629.74648,559.00156],[-10.464,7.286],[10.962,-7.632]],[[667.18248,560.18956],[-10.338,-8.59],[7.812,6.492]],[[680.16848,586.67956],[-1.654,-9.888],[1.034,-6.728]],[[685.44048,567.14156],[-2.662,6.174],[1.916,-4.448]],[[694.73248,555.83756],[-4.526,2.178],[5.006,-2.408]],[[707.78448,557.25756],[-3.614,-2.74],[-0.05,-2.378]],[[707.59048,550.12356],[0.094,2.378],[-0.574,-14.572]],[[702.99448,506.64356],[2.65,14.346],[-5.034,-27.26]]],&quot;closed&quot;:true,&quot;fillColor&quot;:[0,0,0,1]}]}" fill="#67d440" stroke-width="0.5"/></g><path d="M183.78313,269.00859c6.63845,1.97704 10.3431,9.21046 8.2745,16.15624c-2.06859,6.94581 -9.12705,10.97379 -15.7655,8.99675c-6.63845,-1.97704 -10.34311,-9.21047 -8.27451,-16.15625c2.06859,-6.94581 9.12704,-10.97379 15.76552,-8.99673z" data-paper-data="{&quot;index&quot;:null}" fill="#000000" stroke="#000000" stroke-width="0.5" stroke-linecap="butt"/><path d="M151.61847,259.42937c6.57702,1.95878 10.20215,9.27697 8.09696,16.34573c-2.1052,7.0687 -9.1435,11.21119 -15.72052,9.25245c-6.57697,-1.95873 -10.20212,-9.27693 -8.09694,-16.34568c2.10519,-7.06876 9.14346,-11.21125 15.72049,-9.25248z" data-paper-data="{&quot;index&quot;:null}" fill="#000000" stroke="#000000" stroke-width="0.5" stroke-linecap="butt"/><path d="M136.47833,270.13114c-6.9812,-1.87257 4.80588,-8.5622 4.80588,-8.5622l7.45909,2.49905c0,0 5.74194,10.69129 1.10972,10.04634c-3.36801,-0.46892 -8.11346,-2.57196 -13.37465,-3.98319z" data-paper-data="{&quot;index&quot;:null}" fill="#1fba00" stroke="#1fba00" stroke-width="0.5" stroke-linecap="round"/><path d="M136.56427,270.188c-15.44289,-4.69863 5.58788,-45.51525 5.58788,-45.51525l68.72746,19.38175c0,0 -2.31949,47.64076 -22.51741,41.5598c-51.16913,-15.4053 -11.11796,-3.04917 -51.79795,-15.42629z" data-paper-data="{&quot;index&quot;:null}" fill="#ff0000" stroke="#000000" stroke-width="3.5" stroke-linecap="butt"/><path d="M144.06894,270.15668c0,0 -1.67035,-6.65751 -0.37862,-9.78776c1.29172,-3.13024 5.82045,-2.90235 7.03581,-6.34452c1.21528,-3.44225 -4.32874,-3.2834 -0.2056,-8.29531c4.12312,-5.01191 14.13613,-8.75866 14.13613,-8.75866c0,0 2.62262,2.86918 2.8889,8.27104c0.26623,5.40184 -8.18655,5.77278 -9.35282,9.97731c-1.16627,4.20448 -5.90768,3.27626 -6.99545,7.59164c-1.08775,4.31537 2.45853,10.40717 2.45853,10.40717z" data-paper-data="{&quot;index&quot;:null}" fill="#eac100" stroke="#000000" stroke-width="0" stroke-linecap="round"/><path d="M175.03225,279.28717c0,0 -1.67034,-6.65751 -0.37862,-9.78776c1.29166,-3.13027 5.82038,-2.9023 7.03573,-6.34451c1.21533,-3.44221 -4.32869,-3.28341 -0.20556,-8.29524c4.1231,-5.01189 14.13613,-8.75865 14.13613,-8.75865c0,0 2.62262,2.86918 2.8889,8.27104c0.2662,5.40186 -8.18654,5.77283 -9.35284,9.97735c-1.16629,4.2045 -5.90768,3.27626 -6.99545,7.59164c-1.08775,4.31537 2.45853,10.40718 2.45853,10.40718z" data-paper-data="{&quot;index&quot;:null}" fill="#eac100" stroke="#eac100" stroke-width="0" stroke-linecap="round"/></g><g><g data-paper-data="{&quot;index&quot;:null}" stroke="none" stroke-linecap="butt"><path d="M133.78442,197.39923c-0.16249,0.22824 61.70297,25.93313 61.54731,26.16472c-1.02364,1.52527 -1.92335,3.13576 -2.72594,4.78712c-0.0281,0.06168 -0.21927,0.46572 -0.26408,0.56163c-0.13015,0.28292 -0.25833,0.56693 -0.38364,0.85308c-0.29902,0.68105 -0.58232,1.36786 -0.85293,2.06136c-0.56536,1.44984 -1.06786,2.92481 -1.51411,4.41555c-1.0943,3.66138 -1.83159,7.41153 -2.25381,11.2093c-0.53394,4.80049 -0.59163,9.64855 -0.26335,14.46565c0.1848,2.71946 0.71762,5.4271 0.79712,8.15036c0.06712,2.32614 -0.3253,4.71168 -1.10756,6.90269c-1.5493,4.33772 -4.61595,8.01765 -8.5953,10.33378c-2.95873,1.72185 -6.30087,2.95716 -9.55027,3.99782c-8.04512,2.57549 -16.66574,3.32528 -25.04852,2.34475c-5.32472,-0.62297 -10.57361,-1.88795 -15.62081,-3.68762c-4.71961,-1.68233 -9.44548,-3.56224 -12.79026,-7.45231c-3.00394,-3.49476 -4.66854,-7.95447 -4.75322,-12.55531c-0.05552,-3.02542 0.16798,-6.08513 0.35941,-9.10337c0.47344,-7.44269 1.36997,-14.85543 2.78872,-22.17926c2.88758,-14.91149 8.20749,-31.18544 20.06188,-41.441c0.05493,-0.04751 7.31712,2.07115 0.16935,0.17103zM181.97995,278.38c-0.26554,-1.97855 -0.69549,-3.95222 -1.265,-5.85769c-0.47835,-1.6026 -1.07459,-3.21103 -2.05163,-4.67111c-0.1277,-0.19156 -0.19519,-0.28401 -0.44025,-0.57246c-0.13158,-0.15369 -0.71133,-0.71904 -0.57174,-0.606c-0.63646,-0.51207 -0.96378,-0.65544 -1.47126,-0.65852c-0.48847,-0.00214 -1.0181,0.13885 -1.36479,0.30594c-0.11489,0.05539 -0.22441,0.12405 -0.33389,0.19173c-0.06029,0.04508 -0.2407,0.16931 -0.26048,0.18536c-0.32576,0.27023 -0.63471,0.56531 -0.90902,0.88816c-0.7835,0.9214 -1.67607,2.71147 -2.21095,4.09171c-1.41422,3.65157 -2.20355,7.54331 -2.77204,11.40291c-0.22475,1.52675 -0.40601,3.06468 -0.55825,4.60402c5.562,-1.68314 11.20613,-4.27735 14.20923,-9.30402zM159.77548,289.55415c-0.00869,-0.39091 -0.02037,-0.78196 -0.03611,-1.17221c-0.01795,-0.44645 -0.04096,-0.89211 -0.06997,-1.33807c-0.01268,-0.20888 -0.02744,-0.41686 -0.04315,-0.62489c-0.00961,-0.12962 -0.02019,-0.25931 -0.02984,-0.38795c-0.00572,-0.06636 -0.01933,-0.21622 -0.02506,-0.28257c-0.11686,-1.19926 -0.2599,-2.39577 -0.44627,-3.58645c-0.83727,-5.33591 -2.37365,-10.97073 -6.00774,-14.98326c-3.62457,-4.00304 -10.08313,-5.52713 -14.95791,-2.75873c-4.30103,2.44342 -6.29197,8.13895 -7.12412,12.79451c-0.55951,3.13217 -0.8152,6.39754 -0.70946,9.60165c3.06044,1.03754 6.18543,1.88404 9.35797,2.47759c6.63384,1.23944 13.44699,1.34432 20.09168,0.26044zM123.98333,284.36262c0.13428,0.05871 0.27076,0.11252 0.40604,0.17125c0.00673,-2.4016 -0.09544,-4.8086 -0.28577,-7.1939c-0.20921,-2.61054 -0.55936,-5.24605 -1.16577,-7.80217c-0.27415,-1.15697 -0.60066,-2.32853 -1.02362,-3.35069c-0.42203,-1.02111 -0.91452,-1.97463 -1.4725,-2.63602c-0.17114,-0.20371 -0.35068,-0.39981 -0.54493,-0.58166c-0.01056,-0.00952 -0.03072,-0.02655 -0.05091,-0.04358c-0.10028,-0.07805 -0.20372,-0.15226 -0.30931,-0.22356c-0.4117,-0.27967 -0.09006,-0.14262 -0.53647,-0.28686c-0.38634,-0.12425 -0.72129,-0.23494 -1.13771,-0.19547c-1.63759,0.15322 -2.7967,1.96818 -3.58888,3.36873c-0.14425,3.50114 -0.31431,6.95796 1.10625,10.2592c1.67907,3.90378 4.72542,6.82492 8.60366,8.51466zM118.254,234.53954c-1.67792,7.09875 -2.72299,14.33695 -3.36978,21.59985c-0.10571,1.18523 -0.18946,2.37152 -0.27319,3.55785c1.8725,-1.279 4.11268,-1.7128 6.5531,-0.38657c2.20641,1.19952 3.51405,3.60612 4.36093,5.87473c1.17679,3.14902 1.79981,6.50192 2.1499,9.88734c1.07037,-4.89708 3.07809,-9.8589 7.13974,-12.90787c5.37497,-4.03424 13.4388,-3.75032 18.72447,0.33193c5.04553,3.89716 7.50374,10.20537 8.77564,16.26767c0.68625,3.26894 1.11332,6.67719 1.19563,10.05138c0.13067,-0.03058 0.26213,-0.05712 0.39184,-0.08875c0.44247,-6.20972 1.44008,-12.69133 3.72633,-18.44636c1.34854,-3.39651 3.57166,-7.43054 7.59426,-7.95036c4.30573,-0.55586 6.9486,3.37659 8.3079,6.90408c0.21291,0.55321 0.40128,1.11721 0.58753,1.6831c0.04495,-2.24352 -0.38841,-4.47267 -0.5893,-6.70535c-0.43697,-4.86656 -0.54344,-9.75578 -0.15605,-14.62959c0.56058,-7.0379 2.06395,-14.08919 4.85285,-20.59332c1.05483,-2.45886 2.28858,-4.91187 3.79042,-7.1574c12.11056,9.51128 -37.79564,-14.50476 -56.52889,-21.07959c-11.8537,8.21814 -14.04573,20.29819 -17.23337,33.78713z" data-paper-data="{&quot;index&quot;:null}" fill="#152345" stroke-width="1"/><path d="M124.00235,284.40884c-3.87822,-1.68975 -6.9858,-4.63033 -8.6649,-8.53411c-1.42057,-3.30124 -1.23609,-6.82643 -1.09185,-10.32758c0.79219,-1.40055 1.97215,-3.22343 3.60973,-3.37666c0.41646,-0.03948 0.75645,0.07078 1.14277,0.19502c0.44641,0.14425 0.12728,0.00715 0.53895,0.28681c0.1056,0.07129 0.21058,0.14556 0.31084,0.22361c0.02019,0.01702 0.04063,0.03404 0.05115,0.04357c0.19426,0.18184 0.37669,0.37817 0.54781,0.58189c0.55798,0.6614 1.06182,1.61745 1.48386,2.63858c0.423,1.02215 0.76711,2.20448 1.04129,3.36143c0.60641,2.55611 0.96012,5.26077 1.16933,7.87131c0.19033,2.38532 0.2749,4.80532 0.26816,7.20692c-0.13526,-0.05874 -0.27293,-0.1121 -0.40719,-0.17078z" data-paper-data="{&quot;noHover&quot;:false,&quot;origItem&quot;:[&quot;Path&quot;,{&quot;applyMatrix&quot;:true,&quot;segments&quot;:[[[704.65248,589.44356],[-3.74,7.632],[3.164,-6.454]],[[707.87648,569.05956],[-0.058,7.008],[-1.444,-2.876]],[[701.04048,561.97556],[3.256,0.468],[-0.828,-0.12]],[[698.74848,562.25356],[0.784,-0.21],[-0.906,0.244]],[[697.64848,562.77356],[0.85,-0.518],[-0.218,0.132]],[[697.00848,563.18956],[0.208,-0.146],[-0.042,0.032]],[[696.90248,563.27156],[0.022,-0.018],[-0.406,0.344]],[[695.75648,564.37956],[0.362,-0.39],[-1.18,1.266]],[[692.55448,569.49956],[0.944,-1.998],[-0.946,2]],[[690.17848,576.09156],[0.662,-2.284],[-1.464,5.046]],[[687.07848,591.56156],[0.676,-5.194],[-0.616,4.746]],[[685.79648,605.90356],[0.224,-4.798],[0.276,-0.104]],[[686.62448,605.60156],[-0.274,0.104],[7.914,-2.992]]],&quot;closed&quot;:true,&quot;fillColor&quot;:[0,0,0,1]}]}" fill="#67d440" stroke-width="0.5"/><path d="M139.66279,289.3391c-3.17254,-0.59352 -6.31807,-1.45758 -9.37851,-2.49511c-0.10574,-3.20416 0.14153,-6.49526 0.70105,-9.62743c0.8321,-4.65557 2.84714,-10.39596 7.14816,-12.83934c4.87482,-2.76842 11.39057,-1.24059 15.01514,2.7625c3.63411,4.01253 5.18545,9.7053 6.02274,15.0412c0.18637,1.19068 0.32502,2.39558 0.44188,3.59483c0.00572,0.06636 0.01898,0.21678 0.02471,0.28315c0.00965,0.12862 0.01975,0.25904 0.02934,0.38867c0.01572,0.20802 0.02966,0.41714 0.04236,0.62602c0.02899,0.44598 0.05025,0.89388 0.06823,1.34031c0.01573,0.39027 0.02592,0.78303 0.0346,1.17396c-6.6447,1.08389 -13.51583,0.99073 -20.14968,-0.24869z" data-paper-data="{&quot;noHover&quot;:false,&quot;origItem&quot;:[&quot;Path&quot;,{&quot;applyMatrix&quot;:true,&quot;segments&quot;:[[[654.7745,613.89956],[-13.374,1.82],[6.396,-0.872]],[[673.7125,609.87556],[-6.216,1.77],[0.528,-6.39]],[[673.2445,590.62556],[0.808,6.312],[-1.202,-9.382]],[[660.2785,564.36356],[8.35,5.306],[-9.464,-6.012]],[[630.1265,568.39556],[7.636,-7.638],[-7.656,7.656]],[[616.6445,597.73156],[2.2,-10.576],[-0.49,2.36]],[[615.3985,604.85156],[0.352,-2.384],[-0.018,0.132]],[[615.3205,605.41356],[0.018,-0.132],[-0.032,0.256]],[[615.2225,606.18556],[0.032,-0.258],[-0.052,0.414]],[[615.0745,607.42956],[0.046,-0.416],[-0.102,0.888]],[[614.8025,610.09556],[0.08,-0.89],[-0.07,0.778]],[[614.6145,612.43356],[0.056,-0.78],[13.166,2.822]]],&quot;closed&quot;:true,&quot;fillColor&quot;:[0,0,0,1]}]}" fill="#67d440" stroke-width="0.5"/><path d="M182.02895,278.38992c-3.00313,5.02669 -8.72479,7.6521 -14.28677,9.33521c0.15227,-1.53934 0.3246,-3.0852 0.54933,-4.61192c0.56847,-3.85964 1.36483,-7.82428 2.77907,-11.47584c0.53489,-1.38026 1.44813,-3.17964 2.23162,-4.10105c0.27431,-0.32285 0.58835,-0.61865 0.91408,-0.88888c0.01982,-0.01605 0.20148,-0.14037 0.26179,-0.18544c0.10948,-0.06767 0.22062,-0.13643 0.3355,-0.19181c0.34667,-0.16706 0.88254,-0.30786 1.37102,-0.30574c0.50748,0.00309 0.84188,0.14759 1.47834,0.65971c-0.13958,-0.11302 0.44348,0.45319 0.57503,0.6069c0.24503,0.28845 0.31536,0.38191 0.4431,0.57344c0.977,1.46007 1.59431,3.08378 2.07267,4.68637c0.56954,1.90547 1.00964,3.92049 1.27515,5.89902z" data-paper-data="{&quot;noHover&quot;:false,&quot;origItem&quot;:[&quot;Path&quot;,{&quot;applyMatrix&quot;:true,&quot;segments&quot;:[[[598.82848,607.90756],[-10.944,-3.912],[-0.152,-3.09]],[[598.16848,598.65556],[0.298,3.072],[-0.754,-7.766]],[[593.75848,575.60356],[2.464,7.434],[-0.932,-2.81]],[[589.74648,567.21156],[1.474,1.918],[-0.516,-0.672]],[[588.01848,565.34756],[0.624,0.572],[-0.038,-0.034]],[[587.51648,564.95156],[0.116,0.096],[-0.212,-0.146]],[[586.86848,564.53556],[0.224,0.122],[-0.676,-0.368]],[[584.17248,563.78956],[0.976,0.044],[-1.014,-0.044]],[[581.16848,564.95956],[1.322,-0.96],[0.29,-0.212]],[[579.96648,566.11356],[0.278,-0.294],[-0.518,0.552]],[[579.03048,567.21356],[0.274,-0.37],[-2.096,2.82]],[[574.47048,576.34156],[1.114,-3.154],[-1.326,3.75]],[[571.36448,587.91756],[0.726,-3.926],[5.502,10.338]]],&quot;closed&quot;:true,&quot;fillColor&quot;:[0,0,0,1]}]}" fill="#67d440" stroke-width="0.5"/><path d="M118.206,234.52551c3.18763,-13.48893 5.4083,-25.60106 17.26197,-33.81919c18.73327,6.57483 68.70151,30.61088 56.59097,21.09961c-1.50182,2.24552 -2.73299,4.70337 -3.78783,7.16222c-2.78889,6.50409 -4.28812,13.58435 -4.84867,20.62224c-0.38739,4.8738 -0.28843,9.78266 0.14857,14.6492c0.20089,2.23265 0.63023,4.46715 0.58525,6.71068c-0.18625,-0.56588 -0.45107,-1.19432 -0.66399,-1.74752c-1.35929,-3.52749 -3.92487,-7.39648 -8.23061,-6.84061c-4.02261,0.5198 -6.26078,4.56622 -7.6093,7.96272c-2.28627,5.75504 -3.29651,12.24136 -3.739,18.45107c-0.1297,0.03161 -0.28265,-0.03949 -0.41333,-0.00894c-0.0823,-3.3742 -0.48701,-6.68499 -1.17329,-9.95392c-1.27191,-6.06227 -3.74353,-12.36912 -8.78908,-16.26625c-5.28568,-4.08226 -13.38526,-4.38294 -18.76026,-0.34866c-4.06167,3.04895 -6.06504,8.01512 -7.1354,12.91222c-0.35009,-3.38544 -0.98096,-6.74705 -2.15775,-9.89609c-0.84691,-2.26861 -2.15956,-4.6841 -4.36596,-5.88365c-2.44044,-1.32625 -4.68161,-0.89494 -6.55413,0.38408c0.08374,-1.18632 0.16625,-2.37642 0.27196,-3.56162c0.64678,-7.26291 1.69195,-14.52876 3.36988,-21.62751z" data-paper-data="{&quot;noHover&quot;:false,&quot;origItem&quot;:[&quot;Path&quot;,{&quot;applyMatrix&quot;:true,&quot;segments&quot;:[[[671.91,437.44826],[22.866,17.588],[-38.0707,11.28166]],[[556.90648,473.96756],[-25.13176,17.8021],[2.778,4.634]],[[563.77048,488.63956],[-1.864,-5.016],[4.928,13.268]],[[571.42848,530.25556],[-0.424,-14.114],[0.292,9.774]],[[569.67048,559.46356],[1.354,-9.678],[-0.622,4.44]],[[567.83048,572.79956],[0.132,-4.486],[0.428,-1.112]],[[569.17048,569.49556],[-0.48,1.084],[3.064,-6.912]],[[586.44848,556.52556],[-8.546,-1.536],[7.984,1.436]],[[600.83248,573.15756],[-2.358,-6.918],[3.998,11.722]],[[606.45248,610.37356],[-0.27,-12.448],[0.256,0.076]],[[607.22648,610.58956],[-0.258,-0.074],[0.498,-6.732]],[[610.60848,590.62956],[-1.694,6.462],[3.14,-11.984]],[[629.74648,559.00156],[-10.464,7.286],[10.962,-7.632]],[[667.18248,560.18956],[-10.338,-8.59],[7.812,6.492]],[[680.16848,586.67956],[-1.654,-9.888],[1.034,-6.728]],[[685.44048,567.14156],[-2.662,6.174],[1.916,-4.448]],[[694.73248,555.83756],[-4.526,2.178],[5.006,-2.408]],[[707.78448,557.25756],[-3.614,-2.74],[-0.05,-2.378]],[[707.59048,550.12356],[0.094,2.378],[-0.574,-14.572]],[[702.99448,506.64356],[2.65,14.346],[-5.034,-27.26]]],&quot;closed&quot;:true,&quot;fillColor&quot;:[0,0,0,1]}]}" fill="#67d440" stroke-width="0.5"/></g><path d="M164.75253,281.26246c6.91813,0.34238 12.23602,6.48782 11.87779,13.72625c-0.35824,7.23846 -6.2569,12.8288 -13.17506,12.4864c-6.91813,-0.34238 -12.23603,-6.48782 -11.8778,-13.72625c0.35824,-7.23846 6.2569,-12.8288 13.17507,-12.4864z" data-paper-data="{&quot;index&quot;:null}" fill="#000000" stroke="#000000" stroke-width="0.5" stroke-linecap="butt"/><path d="M131.23277,279.60354c6.8541,0.33922 12.11491,6.58596 11.75037,13.95252c-0.36456,7.3665 -6.21645,13.06331 -13.07056,12.72412c-6.85405,-0.33922 -12.11487,-6.58592 -11.75034,-13.9525c0.36458,-7.36656 6.21644,-13.06336 13.07053,-12.72417z" data-paper-data="{&quot;index&quot;:null}" fill="#000000" stroke="#000000" stroke-width="0.5" stroke-linecap="butt"/><path d="M119.07047,293.59748c-7.22621,-0.15943 2.63284,-9.45916 2.63284,-9.45916l7.83933,0.65437c0,0 8.11874,9.01997 3.466,9.4946c-3.38293,0.34511 -8.49231,-0.5696 -13.93814,-0.68981z" data-paper-data="{&quot;index&quot;:null}" fill="#1fba00" stroke="#1fba00" stroke-width="0.5" stroke-linecap="round"/><path d="M119.16744,293.6323c-16.11715,-0.89306 -5.39153,-45.53894 -5.39153,-45.53894l71.36468,2.48925c0,0 9.07149,46.82658 -11.99297,45.72113c-53.3644,-2.80052 -11.52409,-0.31896 -53.98018,-2.67145z" data-paper-data="{&quot;index&quot;:null}" fill="#ff0000" stroke="#000000" stroke-width="3.5" stroke-linecap="butt"/><path d="M126.44955,291.81794c0,0 -3.20502,-6.06964 -2.6944,-9.41722c0.51061,-3.34757 4.96368,-4.20269 5.32596,-7.83513c0.3622,-3.63246 -4.98513,-2.16034 -2.17155,-8.00863c2.81358,-5.84837 11.64895,-11.86784 11.64895,-11.86784c0,0 3.22951,2.16352 4.77214,7.34724c1.54265,5.18373 -6.57965,7.5533 -6.71308,11.91456c-0.13343,4.3612 -4.95957,4.58666 -4.99037,9.03691c-0.0308,4.45024 4.86191,9.52448 4.86191,9.52448z" data-paper-data="{&quot;index&quot;:null}" fill="#eac100" stroke="#000000" stroke-width="0" stroke-linecap="round"/><path d="M158.69575,293.32655c0,0 -3.20501,-6.06963 -2.6944,-9.41722c0.51055,-3.34758 4.96366,-4.20262 5.32591,-7.83508c0.36227,-3.63246 -4.98509,-2.16035 -2.1715,-8.00866c2.81359,-5.84832 11.64894,-11.86784 11.64894,-11.86784c0,0 3.22951,2.16352 4.77214,7.34724c1.54266,5.18376 -6.57966,7.55335 -6.71308,11.9146c-0.13342,4.36124 -4.95957,4.58666 -4.99037,9.03691c-0.0308,4.45024 4.86191,9.52449 4.86191,9.52449z" data-paper-data="{&quot;index&quot;:null}" fill="#eac100" stroke="#eac100" stroke-width="0" stroke-linecap="round"/></g><g><g stroke="none" stroke-linecap="butt"><path d="M328.20116,198.5296c-7.1744,1.79684 0.11757,-0.21689 0.17181,-0.16857c11.70527,10.42549 16.78993,26.77444 19.46217,41.72603c1.31298,7.34352 2.10246,14.76841 2.46855,22.21718c0.14787,3.02067 0.32721,6.08328 0.22807,9.1076c-0.15102,4.59913 -1.87978,9.03439 -4.93378,12.48546c-3.40058,3.84145 -8.15302,5.65298 -12.89641,7.26709c-5.07263,1.72671 -10.33922,2.91588 -15.67237,3.46196c-8.39604,0.85956 -17.00494,-0.01449 -25.0121,-2.70574c-3.23407,-1.08741 -6.55804,-2.3708 -9.49165,-4.13515c-3.94554,-2.37327 -6.95879,-6.09702 -8.44538,-10.45667c-0.75056,-2.20208 -1.10853,-4.59301 -1.00787,-6.91795c0.11875,-2.72183 0.69056,-5.42152 0.9146,-8.13803c0.39772,-4.81187 0.40994,-9.66029 -0.05469,-14.46795c-0.36741,-3.80347 -1.05054,-7.56386 -2.09193,-11.24064c-0.4247,-1.49705 -0.90587,-2.97914 -1.45025,-4.43693c-0.26058,-0.69731 -0.53395,-1.38815 -0.82313,-2.07344c-0.12117,-0.28794 -0.24523,-0.57378 -0.37129,-0.85852c-0.04339,-0.09655 -0.22877,-0.50329 -0.25595,-0.56538c-0.77868,-1.66275 -1.65511,-3.28608 -2.65664,-4.82594c-0.15228,-0.23381 62.07742,-25.04387 61.91826,-25.27442zM292.91641,288.31491c-0.13006,-1.54139 -0.28911,-3.08176 -0.49178,-4.61159c-0.51274,-3.86741 -1.24587,-7.77014 -2.6073,-11.4417c-0.51493,-1.38782 -1.38158,-3.19058 -2.15169,-4.12317c-0.26961,-0.32675 -0.57429,-0.62627 -0.89611,-0.90118c-0.01959,-0.01633 -0.19812,-0.14314 -0.25778,-0.18909c-0.10849,-0.06924 -0.217,-0.13948 -0.33109,-0.19653c-0.34423,-0.17206 -0.87177,-0.32067 -1.36024,-0.32556c-0.50747,-0.00421 -0.83681,0.13439 -1.4806,0.63724c0.14119,-0.11103 -0.44666,0.4459 -0.58043,0.59769c-0.24916,0.28491 -0.31803,0.37637 -0.44846,0.56607c-0.99797,1.44584 -1.61733,3.04552 -2.11877,4.64104c-0.59693,1.89707 -1.05534,3.86432 -1.34935,5.83883c2.93033,5.06948 8.53647,7.74478 14.07361,9.50797zM320.9772,290.32945c3.18076,-0.54772 6.31763,-1.34907 9.39273,-2.34236c0.15195,-3.20228 -0.05664,-6.47098 -0.57093,-9.61091c-0.76488,-4.66708 -2.67351,-10.39074 -6.93887,-12.89591c-4.83435,-2.83844 -11.31425,-1.40765 -14.99614,2.54273c-3.69159,3.95971 -5.30906,9.5718 -6.22318,14.89507c-0.20352,1.18785 -0.3638,2.38219 -0.49795,3.57963c-0.00669,0.06625 -0.02247,0.21591 -0.02915,0.28216c-0.01152,0.12848 -0.02398,0.258 -0.03545,0.38748c-0.01874,0.20778 -0.03646,0.41554 -0.05216,0.62422c-0.03539,0.44551 -0.06484,0.89082 -0.08923,1.33693c-0.02136,0.38998 -0.03867,0.78083 -0.053,1.17158c6.62836,1.17958 13.44232,1.17296 20.09335,0.02937zM345.47268,277.23558c1.46801,-3.28042 1.34782,-6.73934 1.2541,-10.24221c-0.77192,-1.41185 -1.90475,-3.24327 -3.53996,-3.4201c-0.41586,-0.04548 -0.75234,0.06035 -1.14042,0.17905c-0.44845,0.13778 -0.12491,0.00537 -0.54056,0.27911c-0.10662,0.06977 -0.21114,0.14247 -0.31252,0.21908c-0.02042,0.01673 -0.04087,0.03344 -0.05154,0.04282c-0.19686,0.179 -0.37921,0.37251 -0.55325,0.57376c-0.56747,0.65326 -1.07362,1.59958 -1.51037,2.61451c-0.43769,1.01594 -0.78103,2.18269 -1.07184,3.33559c-0.64319,2.54708 -1.03134,5.17729 -1.27817,7.78453c-0.22469,2.38232 -0.36157,4.78759 -0.3895,7.18905c0.13612,-0.0568 0.27336,-0.10863 0.40845,-0.16539c3.90218,-1.63366 6.99033,-4.51059 8.72551,-8.38971zM326.45003,201.85787c-18.82611,6.30399 -69.0735,29.5978 -56.82703,20.26214c1.46928,2.26696 2.66753,4.73749 3.68681,7.21134c2.69484,6.54366 4.09634,13.6159 4.55535,20.66115c0.31707,4.87889 0.14007,9.76608 -0.36702,14.62581c-0.23305,2.22951 -0.69851,4.45221 -0.68593,6.69614c0.19439,-0.56317 0.39087,-1.12437 0.61173,-1.67444c1.41004,-3.50752 4.10932,-7.40146 8.4066,-6.78356c4.0147,0.57775 6.17941,4.64344 7.4788,8.05903c2.20303,5.7874 3.10705,12.28273 3.45992,18.49816c0.12924,0.0335 0.26032,0.06191 0.39055,0.09439c0.13098,-3.37267 0.60715,-6.77442 1.34045,-10.03308c1.3592,-6.0433 3.90811,-12.31541 9.00932,-16.13941c5.34401,-4.00559 13.41106,-4.17319 18.72732,-0.06187c4.01727,3.10724 5.95321,8.09749 6.95286,13.0095c0.39889,-3.38006 1.0702,-6.72361 2.29227,-9.85531c0.87954,-2.25619 2.22176,-4.64365 4.44522,-5.81125c2.4593,-1.29092 4.69298,-0.82487 6.54687,0.48102c-0.06662,-1.18741 -0.13327,-2.37477 -0.22186,-3.56141c-0.54199,-7.27148 -1.48254,-14.52398 -3.05793,-21.6462c-2.99277,-13.53348 -5.01036,-25.64391 -16.74431,-34.03213z" data-paper-data="{&quot;index&quot;:null}" fill="#152345" stroke-width="1"/><path d="M336.72741,285.67125c-0.13511,0.05676 -0.27352,0.10811 -0.4096,0.1649c0.02792,-2.40145 0.14737,-4.81999 0.37206,-7.20232c0.24685,-2.60726 0.63952,-5.30657 1.28274,-7.85365c0.2908,-1.15289 0.65196,-2.33011 1.08964,-3.34605c0.43673,-1.01492 0.95432,-1.9636 1.52176,-2.61689c0.17405,-0.2012 0.3593,-0.3949 0.55615,-0.57391c0.01066,-0.00936 0.03136,-0.02613 0.05179,-0.04285c0.10138,-0.0766 0.20742,-0.14933 0.31403,-0.2191c0.41567,-0.27371 0.09459,-0.14125 0.54302,-0.27903c0.3881,-0.11865 0.72962,-0.224 1.14549,-0.17853c1.6352,0.17686 2.78873,2.01654 3.56067,3.42837c0.09371,3.50288 0.22736,7.03034 -1.24066,10.31077c-1.73523,3.87917 -4.88488,6.7746 -8.78706,8.40825z" data-paper-data="{&quot;noHover&quot;:false,&quot;origItem&quot;:[&quot;Path&quot;,{&quot;applyMatrix&quot;:true,&quot;segments&quot;:[[[704.65248,589.44356],[-3.74,7.632],[3.164,-6.454]],[[707.87648,569.05956],[-0.058,7.008],[-1.444,-2.876]],[[701.04048,561.97556],[3.256,0.468],[-0.828,-0.12]],[[698.74848,562.25356],[0.784,-0.21],[-0.906,0.244]],[[697.64848,562.77356],[0.85,-0.518],[-0.218,0.132]],[[697.00848,563.18956],[0.208,-0.146],[-0.042,0.032]],[[696.90248,563.27156],[0.022,-0.018],[-0.406,0.344]],[[695.75648,564.37956],[0.362,-0.39],[-1.18,1.266]],[[692.55448,569.49956],[0.944,-1.998],[-0.946,2]],[[690.17848,576.09156],[0.662,-2.284],[-1.464,5.046]],[[687.07848,591.56156],[0.676,-5.194],[-0.616,4.746]],[[685.79648,605.90356],[0.224,-4.798],[0.276,-0.104]],[[686.62448,605.60156],[-0.274,0.104],[7.914,-2.992]]],&quot;closed&quot;:true,&quot;fillColor&quot;:[0,0,0,1]}]}" fill="#67d440" stroke-width="0.5"/><path d="M300.84637,290.33322c0.01433,-0.39076 0.03018,-0.78335 0.05155,-1.17333c0.02439,-0.44612 0.05213,-0.89365 0.08754,-1.33916c0.0157,-0.20867 0.03266,-0.41757 0.05138,-0.62536c0.01146,-0.12948 0.02346,-0.25973 0.03497,-0.38821c0.00669,-0.06625 0.0221,-0.21649 0.02877,-0.28276c0.13416,-1.19744 0.29015,-2.40021 0.49368,-3.58806c0.91415,-5.3233 2.54741,-10.99308 6.239,-14.95279c3.68193,-3.95036 10.21906,-5.38413 15.05341,-2.54566c4.26532,2.50516 6.19736,8.27403 6.96224,12.94109c0.5143,3.13993 0.71409,6.43424 0.56214,9.63654c-3.07511,0.9933 -6.23275,1.8119 -9.41353,2.3596c-6.65102,1.14362 -13.52277,1.13769 -20.15114,-0.04193z" data-paper-data="{&quot;noHover&quot;:false,&quot;origItem&quot;:[&quot;Path&quot;,{&quot;applyMatrix&quot;:true,&quot;segments&quot;:[[[654.7745,613.89956],[-13.374,1.82],[6.396,-0.872]],[[673.7125,609.87556],[-6.216,1.77],[0.528,-6.39]],[[673.2445,590.62556],[0.808,6.312],[-1.202,-9.382]],[[660.2785,564.36356],[8.35,5.306],[-9.464,-6.012]],[[630.1265,568.39556],[7.636,-7.638],[-7.656,7.656]],[[616.6445,597.73156],[2.2,-10.576],[-0.49,2.36]],[[615.3985,604.85156],[0.352,-2.384],[-0.018,0.132]],[[615.3205,605.41356],[0.018,-0.132],[-0.032,0.256]],[[615.2225,606.18556],[0.032,-0.258],[-0.052,0.414]],[[615.0745,607.42956],[0.046,-0.416],[-0.102,0.888]],[[614.8025,610.09556],[0.08,-0.89],[-0.07,0.778]],[[614.6145,612.43356],[0.056,-0.78],[13.166,2.822]]],&quot;closed&quot;:true,&quot;fillColor&quot;:[0,0,0,1]}]}" fill="#67d440" stroke-width="0.5"/><path d="M278.79369,278.81612c0.29402,-1.97449 0.76317,-3.98295 1.36011,-5.88001c0.50144,-1.59555 1.14206,-3.21017 2.14007,-4.65601c0.13045,-0.18969 0.20211,-0.2821 0.45132,-0.56701c0.13378,-0.15178 0.72494,-0.70956 0.58376,-0.59855c0.64377,-0.50284 0.98024,-0.64253 1.48769,-0.63832c0.48847,0.0049 1.02223,0.15343 1.36645,0.32549c0.11406,0.05704 0.2242,0.1274 0.3327,0.19662c0.05965,0.04594 0.23949,0.1729 0.25909,0.18922c0.32182,0.27491 0.63157,0.5752 0.90118,0.90197c0.77015,0.93263 1.65731,2.74498 2.17224,4.13281c1.36142,3.67157 2.10052,7.6473 2.61326,11.51473c0.20271,1.52984 0.35272,3.07798 0.48277,4.61939c-5.53711,-1.76317 -11.22032,-4.47081 -14.15065,-9.54029z" data-paper-data="{&quot;noHover&quot;:false,&quot;origItem&quot;:[&quot;Path&quot;,{&quot;applyMatrix&quot;:true,&quot;segments&quot;:[[[598.82848,607.90756],[-10.944,-3.912],[-0.152,-3.09]],[[598.16848,598.65556],[0.298,3.072],[-0.754,-7.766]],[[593.75848,575.60356],[2.464,7.434],[-0.932,-2.81]],[[589.74648,567.21156],[1.474,1.918],[-0.516,-0.672]],[[588.01848,565.34756],[0.624,0.572],[-0.038,-0.034]],[[587.51648,564.95156],[0.116,0.096],[-0.212,-0.146]],[[586.86848,564.53556],[0.224,0.122],[-0.676,-0.368]],[[584.17248,563.78956],[0.976,0.044],[-1.014,-0.044]],[[581.16848,564.95956],[1.322,-0.96],[0.29,-0.212]],[[579.96648,566.11356],[0.278,-0.294],[-0.518,0.552]],[[579.03048,567.21356],[0.274,-0.37],[-2.096,2.82]],[[574.47048,576.34156],[1.114,-3.154],[-1.326,3.75]],[[571.36448,587.91756],[0.726,-3.926],[5.502,10.338]]],&quot;closed&quot;:true,&quot;fillColor&quot;:[0,0,0,1]}]}" fill="#67d440" stroke-width="0.5"/><path d="M343.24255,235.8767c1.57541,7.12219 2.51565,14.40239 3.05763,21.67386c0.08861,1.18661 0.15394,2.37778 0.22056,3.56516c-1.85387,-1.30588 -4.0886,-1.76945 -6.5479,-0.47853c-2.22346,1.16757 -3.57085,3.56391 -4.45036,5.82009c-1.22207,3.1317 -1.90135,6.48387 -2.30025,9.86395c-0.99964,-4.91199 -2.93116,-9.90654 -6.94845,-13.01374c-5.31623,-4.11134 -13.41934,-3.9275 -18.76334,0.07811c-5.10121,3.824 -7.66352,10.09452 -9.02272,16.13782c-0.73333,3.25867 -1.18573,6.56331 -1.3167,9.93599c-0.13022,-0.03245 -0.28416,0.03647 -0.41342,0.00299c-0.35288,-6.21547 -1.26948,-12.71566 -3.47252,-18.50307c-1.29941,-3.4156 -3.47898,-7.49386 -7.49367,-8.07162c-4.29729,-0.61788 -6.91839,3.2137 -8.3284,6.72121c-0.22086,0.55005 -0.49473,1.17461 -0.68913,1.73776c-0.0126,-2.24394 0.44892,-4.472 0.68198,-6.70153c0.50713,-4.85975 0.67685,-9.76665 0.3598,-14.64554c-0.45899,-7.04525 -1.85598,-14.14642 -4.55078,-20.69004c-1.01925,-2.47381 -2.21486,-4.94916 -3.68414,-7.21612c-12.24646,9.33566 38.06323,-13.9773 56.88937,-20.28127c11.73396,8.38822 13.7797,20.53115 16.77248,34.06462z" data-paper-data="{&quot;noHover&quot;:false,&quot;origItem&quot;:[&quot;Path&quot;,{&quot;applyMatrix&quot;:true,&quot;segments&quot;:[[[671.91,437.44826],[22.866,17.588],[-38.0707,11.28166]],[[556.90648,473.96756],[-25.13176,17.8021],[2.778,4.634]],[[563.77048,488.63956],[-1.864,-5.016],[4.928,13.268]],[[571.42848,530.25556],[-0.424,-14.114],[0.292,9.774]],[[569.67048,559.46356],[1.354,-9.678],[-0.622,4.44]],[[567.83048,572.79956],[0.132,-4.486],[0.428,-1.112]],[[569.17048,569.49556],[-0.48,1.084],[3.064,-6.912]],[[586.44848,556.52556],[-8.546,-1.536],[7.984,1.436]],[[600.83248,573.15756],[-2.358,-6.918],[3.998,11.722]],[[606.45248,610.37356],[-0.27,-12.448],[0.256,0.076]],[[607.22648,610.58956],[-0.258,-0.074],[0.498,-6.732]],[[610.60848,590.62956],[-1.694,6.462],[3.14,-11.984]],[[629.74648,559.00156],[-10.464,7.286],[10.962,-7.632]],[[667.18248,560.18956],[-10.338,-8.59],[7.812,6.492]],[[680.16848,586.67956],[-1.654,-9.888],[1.034,-6.728]],[[685.44048,567.14156],[-2.662,6.174],[1.916,-4.448]],[[694.73248,555.83756],[-4.526,2.178],[5.006,-2.408]],[[707.78448,557.25756],[-3.614,-2.74],[-0.05,-2.378]],[[707.59048,550.12356],[0.094,2.378],[-0.574,-14.572]],[[702.99448,506.64356],[2.65,14.346],[-5.034,-27.26]]],&quot;closed&quot;:true,&quot;fillColor&quot;:[0,0,0,1]}]}" fill="#67d440" stroke-width="0.5"/></g><path d="M309.0205,294.61261c0.25381,7.24287 -5.15217,13.31098 -12.07452,13.55356c-6.92235,0.24256 -12.73978,-5.43227 -12.99359,-12.67514c-0.25381,-7.24287 5.15217,-13.31098 12.07451,-13.55356c6.92235,-0.24256 12.73979,5.43227 12.99359,12.67512z" fill="#000000" stroke="#000000" stroke-width="0.5" stroke-linecap="butt"/><path d="M342.45275,293.67349c0.25828,7.37104 -5.09205,13.54124 -11.95032,13.78159c-6.85827,0.24035 -12.62743,-5.54028 -12.8857,-12.91127c-0.25828,-7.37104 5.09205,-13.54129 11.95037,-13.78159c6.85827,-0.24035 12.62737,5.54029 12.88568,12.91132z" fill="#000000" stroke="#000000" stroke-width="0.5" stroke-linecap="butt"/><path d="M327.57968,295.41875c-4.64544,-0.54168 3.60254,-9.44364 3.60254,-9.44364l7.84795,-0.54124c0,0 9.72394,9.44095 2.49618,9.49616c-5.44702,0.0416 -10.56904,0.88256 -13.94666,0.48872z" fill="#1fba00" stroke="#1fba00" stroke-width="0.5" stroke-linecap="round"/><path d="M287.41575,296.85612c-21.07819,0.8016 -11.33239,-45.88932 -11.33239,-45.88932l71.39315,-1.45983c0,0 10.08062,44.79589 -6.0477,45.45645c-42.48558,1.73999 -0.61386,-0.13793 -54.01307,1.89269z" fill="#ff0000" stroke="#000000" stroke-width="3.5" stroke-linecap="butt"/><path d="M324.12506,293.59373c0,0 4.96535,-5.00315 4.99877,-9.45339c0.03341,-4.45022 -4.78902,-4.74527 -4.85951,-9.10792c-0.0705,-4.36272 -8.1578,-6.84921 -6.54056,-12.01013c1.61725,-5.16094 4.8776,-7.27765 4.8776,-7.27765c0,0 8.74761,6.14628 11.47656,12.03462c2.72895,5.88826 -2.59663,4.33921 -2.28682,7.9765c0.30982,3.6373 4.75013,4.55654 5.21245,7.91114c0.4623,3.35458 -2.82991,9.37738 -2.82991,9.37738z" data-paper-data="{&quot;index&quot;:null}" fill="#eac100" stroke="#000000" stroke-width="0" stroke-linecap="round"/><path d="M291.86046,294.63724c0,0 4.96535,-5.00315 4.99878,-9.4534c0.03341,-4.45022 -4.78901,-4.74521 -4.85951,-9.10792c-0.0705,-4.36272 -8.1578,-6.84921 -6.54053,-12.01016c1.61725,-5.16094 4.8776,-7.27765 4.8776,-7.27765c0,0 8.74763,6.14633 11.47656,12.03462c2.72895,5.88826 -2.59663,4.3392 -2.28678,7.97651c0.30982,3.6373 4.75016,4.55649 5.21238,7.91109c0.4623,3.35458 -2.82991,9.37738 -2.82991,9.37738z" data-paper-data="{&quot;index&quot;:null}" fill="#eac100" stroke="#eac100" stroke-width="0" stroke-linecap="round"/></g><path d="M27.19454,125.319c2.682,-1.246 5.838,-1.188 8.716,-0.879c3.508,0.377 6.96,1.154 10.355,2.102c4.923,1.374 9.78,3.073 14.498,5.046c0.01,0 0.014,0.001 0.025,0.001c0.435,0.027 0.867,0.064 1.303,0.076c1.696,0.049 3.397,-0.059 5.083,-0.248c0.272,-0.031 0.544,-0.064 0.816,-0.099c0.007,-0.001 0.008,-0.001 0.015,-0.002c0.017,-0.002 0.028,-0.004 0.055,-0.008c0.171,-0.024 0.342,-0.049 0.513,-0.075c0.681,-0.103 1.36,-0.219 2.037,-0.347c1.506,-0.284 3.002,-0.627 4.484,-1.017c3.84,-1.01 7.603,-2.327 11.261,-3.867c11.009,-4.634 21.211,-11.157 30.702,-18.358c6.736,-5.111 13.135,-10.671 19.278,-16.479c7.479,-7.071 14.203,-14.844 21.539,-22.044c11.792,-11.573 26.18,-21.338 42.656,-24.467c13.16,-2.499 26.603,-0.538 38.936,4.495c12.208,4.982 23.184,12.43 33.379,20.711c9.121,7.409 17.548,15.587 26.102,23.628c5.648,5.31 11.56,10.19 18.125,14.34c6.705,4.238 13.839,7.807 21.226,10.693c8.374,3.273 17.094,5.789 25.965,7.322c-2.787,-4.772 -4.837,-9.965 -5.791,-15.386c-1.654,-9.397 0.301,-18.938 5.559,-26.915c12.051,-18.286 36.109,-25.474 57.022,-22.716c19.706,2.599 40.821,15.096 44.889,35.988c0.442,2.268 0.672,4.577 0.683,6.887c-0.079,18.084 -12.466,34.452 -27.889,43.325c-0.522,2.206 -1.242,4.381 -1.995,6.512c-2.145,6.065 -4.87,11.941 -8.103,17.502c-4.408,7.581 -9.808,14.633 -16.097,20.751c-7.644,7.436 -16.619,13.487 -26.411,17.715c-12.268,5.297 -25.511,7.818 -38.841,8.184c-1.773,0.049 -6.267,0.699 -6.749,1.02c-0.002,0.001 -0.005,0.003 -0.007,0.004c1.55269,1.29673 -12.7423,5.56049 -27.35812,13.5223c-25.42302,13.84893 -66.65672,15.15351 -71.66288,15.2897c-16.472,0.447 -37.75569,-2.81909 -49.136,-4.501c-11.38031,-1.68191 -62.03898,-23.77348 -61.514,-24.205c-13.474,-8.075 -26.083,-17.721 -37.084,-28.941c-9.758,-9.952 -18.227,-21.168 -25.007,-33.341c-9.322,1.603 -18.897,0.675 -27.512,-3.403c-6.427,-3.042 -12.611,-7.995 -15.926,-14.405c-2.18,-4.212 -3.477,-10.932 1.861,-13.411zM63.07154,135.445c3.914,10.247 8.958,20.036 15.006,29.171c3.504,-1.917 7.008,-3.835 10.512,-5.752c-3.286,-4.637 -6.281,-9.481 -8.927,-14.521c-1.801,-3.431 -3.421,-6.95 -4.909,-10.527c-1.284,0.308 -2.573,0.592 -3.874,0.82c-2.543,0.446 -5.191,0.815 -7.808,0.809zM126.10454,105.225c-10.192,8.404 -21.132,16.087 -33.057,21.84c-4.718,2.276 -9.621,4.285 -14.664,5.778c6.476,15.432 16.105,29.383 27.923,41.215c11.139,11.152 24.057,20.401 37.881,27.932c3.835,2.089 7.752,4.043 11.725,5.882c0.122,-3.168 0.468,-5.75 1.686,-9.547c1.589,-4.954 9.735,-29.705 9.735,-29.705c0,0 8.084,-24.772 9.736,-29.706c1.266,-3.782 2.516,-6.069 4.294,-8.696l-0.327,-0.377c-7.308,-8.411 -17.803,-20.491 -21.357,-24.582c-6.209,-7.185 -9.513,-11.867 -13.683,-18.296c-6.337,6.396 -12.944,12.533 -19.892,18.262zM173.81154,234.206c10.231,3.281 20.716,5.727 31.329,7.337l2.305,-14.46c0.01,-0.065 0.021,-0.131 0.031,-0.196c-2.905,-0.365 -5.807,-0.799 -8.705,-1.323c-16.415,-2.964 -32.316,-8.476 -47.345,-15.671c-6.034,-2.888 -11.916,-6.102 -17.615,-9.609c-2.56,3.572 -5.121,7.143 -7.681,10.715l-0.218,0.304c14.848,9.75 30.983,17.477 47.899,22.903zM253.83754,130.517h-0.032c-19.93,-0.007 -37,-0.014 -37,-0.014c0,0 -14.659,0.005 -34.287,0.012h-0.052c-0.119,3.198 -0.463,5.79 -1.689,9.613c-1.59,4.954 -9.736,29.706 -9.736,29.706c0,0 -8.084,24.771 -9.736,29.705c-1.283,3.835 -2.548,6.132 -4.366,8.804c8.91,4.063 18.126,7.483 27.539,10.106c21.424,5.969 43.604,7.297 65.68,5.078c9.698,-0.975 19.372,-2.473 28.893,-4.619c-1.819,-3.103 -3.081,-5.744 -4.351,-10.095c-1.631,-5.592 -9.611,-33.65 -9.611,-33.65c0,0 -8.043,-28.041 -9.611,-33.65c-1.234,-4.417 -1.552,-7.341 -1.641,-10.996zM247.49754,57.071c-11.436,-6.162 -24.152,-10.212 -37.252,-9.761c-15.696,0.54 -30.166,7.722 -42.108,17.589c-7.93,6.551 -14.558,14.382 -21.761,21.682c5.802,5.035 9.984,8.958 16.246,16.119c3.465,3.982 13.511,15.527 20.789,23.892c19.176,0.007 33.393,0.012 33.393,0.012c0,0 16.617,-0.006 36.202,-0.013c7.799,-7.594 17.34,-16.885 20.814,-20.268c6.825,-6.613 11.314,-10.178 17.501,-14.71c-4.113,-3.931 -8.185,-7.907 -12.417,-11.671c-9.684,-8.616 -19.963,-16.705 -31.407,-22.871zM347.51354,125.683c-14.979,-4.564 -29.28,-11.539 -41.652,-21.184c-4.96,-3.867 -9.585,-8.158 -14.152,-12.517c-4.695,6.076 -8.374,10.473 -15.166,17.132c-3.556,3.469 -13.478,13.148 -21.368,20.844l-0.333,0.325c1.839,3.13 3.109,5.777 4.386,10.158c1.631,5.592 9.611,33.65 9.611,33.65c0,0 8.043,28.04 9.611,33.65c1.228,4.393 1.548,7.31 1.64,10.937c6.511,-1.503 12.95,-3.308 19.264,-5.497c11.883,-4.119 23.328,-9.632 33.62,-16.894c7.898,-5.573 15.055,-12.243 21.011,-19.867c4.468,-5.719 8.4,-12.37 11.337,-19.187c0.124,-0.287 0.096,-0.225 0.098,-0.229c0.073,-0.174 0.145,-0.348 0.217,-0.522c0.161,-0.392 0.319,-0.786 0.475,-1.18c0.281,-0.715 0.553,-1.435 0.814,-2.158c0.487,-1.346 0.939,-2.705 1.354,-4.075c0.693,-2.285 1.285,-4.602 1.759,-6.943c0.189,-0.935 0.36,-1.874 0.509,-2.817c0.062,-0.391 0.118,-0.783 0.174,-1.174c0.003,-0.019 0.004,-0.023 0.005,-0.035c0.003,-0.03 0.006,-0.051 0.011,-0.095c0.021,-0.172 0.043,-0.344 0.063,-0.516c0.093,-0.796 0.153,-1.593 0.21,-2.391c-1.424,-1.598 -2.767,-3.285 -4.018,-5.041c-6.593,-0.782 -13.154,-2.447 -19.48,-4.374zM373.81154,178.224c0.747,-1.332 1.476,-2.675 2.161,-4.041c3.013,-6.004 5.387,-12.292 7.019,-18.885c0.525,-2.118 0.969,-4.258 1.304,-6.414c0.049,-0.312 0.093,-0.625 0.137,-0.937c0.009,-0.079 0.082,-0.637 0.102,-0.811c0.028,-0.244 0.048,-0.488 0.071,-0.732c-3.669,-2.216 -7.09,-4.844 -10.188,-7.794c-0.084,0.597 -0.171,1.195 -0.265,1.785c-0.773,4.833 -2.075,9.583 -3.765,14.174c-2.113,5.744 -4.828,11.258 -8.074,16.443c3.765,2.361 7.529,4.723 11.294,7.085c0.068,0.041 0.136,0.084 0.204,0.127zM462.32854,109.762c0.368,-2 0.538,-4.024 0.547,-6.057c-0.09,-19.437 -17.214,-33.127 -34.681,-37.693c-19.508,-5.1 -42.896,-0.75 -56.973,14.413c-5.918,6.375 -9.664,14.655 -9.626,23.428c0.039,9.007 3.773,17.674 9.031,24.85c12.067,16.471 33.33,25.481 53.4,20.35c18.331,-4.685 34.816,-20.359 38.302,-39.291zM380.93654,207.602c9.81,-3.718 18.919,-9.287 26.691,-16.333c6.549,-5.937 11.955,-12.584 16.541,-20.056c1.877,-3.058 3.59,-6.215 5.135,-9.453c0.354,-0.742 0.699,-1.488 1.035,-2.238c0.141,-0.315 0.28,-0.63 0.418,-0.946c0.077,-0.177 0.153,-0.354 0.23,-0.531c0.054,-0.124 0.092,-0.215 0.117,-0.273c0.521,-1.242 1.019,-2.494 1.489,-3.757c0.565,-1.516 1.043,-3.048 1.5,-4.586c-0.655,0.302 -1.313,0.594 -1.974,0.868c-10.316,4.272 -21.845,5.14 -32.671,2.373c-3.912,-1 -7.702,-2.455 -11.299,-4.294c-0.199,1.507 -0.472,3.008 -0.769,4.484c-1.25,6.222 -3.266,12.264 -5.777,18.086c-3.652,8.466 -8.519,16.351 -14.278,23.543c-5.845,7.299 -12.659,13.775 -20.091,19.439c11.491,-0.33 22.913,-2.237 33.703,-6.326zM359.63254,197.684c4.62,-4.99 8.737,-10.43 12.281,-16.225c-3.775,-2.368 -7.55,-4.736 -11.325,-7.104c-0.109,-0.068 -0.218,-0.137 -0.327,-0.205c-5.331,7.761 -11.815,14.691 -19.122,20.623c-9.539,7.744 -20.265,13.792 -31.585,18.519c-4.097,1.711 -8.269,3.224 -12.488,4.594c1.988,4.623 3.977,9.246 5.965,13.869c0.125,0.29 0.249,0.58 0.374,0.87c9.282,-3.201 18.304,-7.138 26.851,-11.986c10.861,-6.161 20.882,-13.78 29.376,-22.955zM283.65054,238.305c5.455,-1.282 10.871,-2.775 16.211,-4.499c-1.99,-4.627 -3.98,-9.254 -5.97,-13.881c-0.132,-0.306 -0.263,-0.611 -0.395,-0.917c-9.801,2.954 -19.857,5.087 -29.969,6.6c-17.403,2.604 -34.918,3.503 -52.344,1.706l-2.323,14.57c-0.01,0.061 -0.02,0.123 -0.029,0.184c6.475,0.861 12.992,1.418 19.524,1.653c18.574,0.669 37.204,-1.164 55.295,-5.416zM122.81654,209.212c2.507,-3.498 5.014,-6.995 7.522,-10.493l0.295,-0.412c-6.536,-4.211 -12.799,-8.844 -18.697,-13.917c-7.805,-6.713 -14.929,-14.245 -21.117,-22.474c-3.542,1.938 -7.083,3.876 -10.625,5.814c2.647,3.786 5.465,7.455 8.458,10.983c9.918,11.685 21.528,21.849 34.164,30.499zM27.19154,132.744c0.001,0.007 0.001,0.01 0.001,0.016c0.023,0.146 0.047,0.292 0.077,0.437c0.051,0.247 0.106,0.492 0.17,0.736c0.154,0.588 0.35,1.166 0.577,1.73c0.014,0.024 0.213,0.482 0.25,0.56c0.127,0.268 0.26,0.533 0.399,0.795c0.342,0.644 0.717,1.27 1.119,1.878c0.791,1.197 1.625,2.224 2.624,3.294c2.372,2.539 5.138,4.654 8.157,6.367c7.988,4.533 17.319,5.84 26.323,4.503c-1.061,-2.031 -2.079,-4.086 -3.044,-6.167c-1.835,-3.953 -3.492,-7.986 -4.997,-12.076c-0.793,-0.32 -1.589,-0.631 -2.387,-0.936c-2.56,-0.975 -5.146,-1.882 -7.759,-2.703c-3.13,-0.985 -6.303,-1.859 -9.527,-2.479c-2.711,-0.521 -5.522,-0.928 -8.345,-0.571c-0.006,0.001 -0.006,0.001 -0.011,0.001c-0.032,0.006 -0.065,0.012 -0.12,0.022c-0.115,0.021 -0.231,0.041 -0.346,0.065c-0.276,0.056 -0.55,0.122 -0.82,0.203c-0.074,0.022 -0.493,0.18 -0.551,0.192c-0.189,0.089 -0.375,0.184 -0.556,0.289c-0.1,0.058 -0.195,0.125 -0.289,0.193c-0.01,0.009 -0.008,0.008 -0.02,0.019c-0.133,0.124 -0.254,0.256 -0.374,0.391c-0.021,0.055 -0.22,0.354 -0.264,0.433c-0.004,0.006 -0.008,0.015 -0.012,0.023c-0.037,0.095 -0.075,0.191 -0.101,0.288c-0.059,0.22 -0.116,0.436 -0.165,0.659c-0.021,0.095 -0.034,0.139 -0.043,0.167c0.002,0.032 0.003,0.079 0.001,0.172c-0.011,0.504 -0.013,0.995 0.033,1.499z" fill="#152345" stroke="none" stroke-width="1" stroke-linecap="butt"/><path d="M70.86344,134.58865c1.301,-0.228 2.60259,-0.51453 3.88659,-0.82253c1.488,3.577 3.14239,7.10657 4.94339,10.53758c2.646,5.04 5.64997,9.95346 8.93597,14.59046c-3.504,1.917 -7.04066,3.85432 -10.54466,5.77132c-6.048,-9.135 -11.13321,-19.01015 -15.04721,-29.25715c2.617,0.006 5.28291,-0.37367 7.82591,-0.81967z" data-paper-data="{&quot;noHover&quot;:false,&quot;origItem&quot;:[&quot;Path&quot;,{&quot;applyMatrix&quot;:true,&quot;segments&quot;:[[[121.91387,270.89],[5.234,0.012],[7.828,20.494]],[[151.92587,329.232],[-12.096,-18.27],[7.008,-3.834]],[[172.94987,317.728],[-7.008,3.834],[-6.572,-9.274]],[[155.09587,288.686],[5.292,10.08],[-3.602,-6.862]],[[145.27787,267.632],[2.976,7.154],[-2.568,0.616]],[[137.52987,269.272],[2.602,-0.456],[-5.086,0.892]]],&quot;closed&quot;:true,&quot;fillColor&quot;:[0,0,0,1]}]}" fill="#55af34" stroke="none" stroke-width="0.5" stroke-linecap="butt"/><path d="M88.60625,178.69408c-2.993,-3.528 -5.80554,-7.20695 -8.45254,-10.99295c3.542,-1.938 7.09757,-3.88968 10.63957,-5.82768c6.188,8.229 13.38747,15.7947 21.19247,22.5077c5.898,5.073 12.15641,9.7374 18.69241,13.94841l-0.2954,0.41279c-2.508,3.498 -5.02958,7.01193 -7.53659,10.50993c-12.636,-8.65 -24.32192,-18.87319 -34.23992,-30.55819z" data-paper-data="{&quot;noHover&quot;:false,&quot;origItem&quot;:[&quot;Path&quot;,{&quot;applyMatrix&quot;:true,&quot;segments&quot;:[[[241.40387,418.424],[-25.272,-17.3],[5.014,-6.996]],[[256.44787,397.438],[-5.016,6.996],[0,0]],[[257.03787,396.614],[0,0],[-13.072,-8.422]],[[219.64387,368.78],[11.796,10.146],[-15.61,-13.426]],[[177.40987,323.832],[12.376,16.458],[-7.084,3.876]],[[156.15987,335.46],[7.084,-3.876],[5.294,7.572]],[[173.07587,357.426],[-5.986,-7.056],[19.836,23.37]]],&quot;closed&quot;:true,&quot;fillColor&quot;:[0,0,0,1]}]}" fill="#55af34" stroke="none" stroke-width="0.5" stroke-linecap="butt"/><path d="M125.86387,211.29153l0.2181,-0.3044c2.56,-3.572 5.12722,-7.1577 7.68722,-10.7297c5.699,3.507 11.58281,6.7183 17.61681,9.6063c15.029,7.195 31.02003,12.74344 47.43503,15.70744c2.898,0.524 5.79999,0.95807 8.70499,1.32307c-0.01,0.065 -0.02104,0.13124 -0.03104,0.19624l-2.31038,14.47616c-10.613,-1.61 -21.11845,-4.03556 -31.34945,-7.31656c-16.916,-5.426 -33.12327,-13.20855 -47.97127,-22.95855z" data-paper-data="{&quot;noHover&quot;:false,&quot;origItem&quot;:[&quot;Path&quot;,{&quot;applyMatrix&quot;:true,&quot;segments&quot;:[[[343.39387,468.412],[-33.832,-10.852],[20.462,6.562]],[[406.05187,483.086],[-21.226,-3.22],[0,0]],[[410.66187,454.166],[0,0],[0.02,-0.13]],[[410.72387,453.774],[-0.02,0.13],[-5.81,-0.73]],[[393.31387,451.128],[5.796,1.048],[-32.83,-5.928]],[[298.62387,419.786],[30.058,14.39],[-12.068,-5.776]],[[263.39387,400.568],[11.398,7.014],[-5.12,7.144]],[[248.03187,421.998],[5.12,-7.144],[0,0]],[[247.59587,422.606],[0,0],[29.696,19.5]]],&quot;closed&quot;:true,&quot;fillColor&quot;:[0,0,0,1]}]}" fill="#55af34" stroke="none" stroke-width="0.5" stroke-linecap="butt"/><path d="M228.31033,243.74238c-6.532,-0.235 -13.05248,-0.802 -19.52748,-1.663c0.009,-0.061 0.01896,-0.12318 0.02896,-0.18418l2.32196,-14.58595c17.426,1.797 35.033,0.87597 52.43599,-1.72803c10.112,-1.513 20.17344,-3.63434 29.97444,-6.58835c0.132,0.306 0.26335,0.61216 0.39535,0.91816c1.99,4.627 3.98192,9.27057 5.97192,13.89757c-5.34,1.724 -10.75725,3.22581 -16.21225,4.50781c-18.091,4.252 -36.81488,6.09496 -55.38888,5.42596z" data-paper-data="{&quot;noHover&quot;:false,&quot;origItem&quot;:[&quot;Path&quot;,{&quot;applyMatrix&quot;:true,&quot;segments&quot;:[[[563.07187,476.61],[-36.182,8.504],[10.91,-2.564]],[[595.49387,467.612],[-10.68,3.448],[-3.98,-9.254]],[[583.55387,439.85],[3.98,9.254],[-0.264,-0.612]],[[582.76387,438.016],[0.264,0.612],[-19.602,5.908]],[[522.82587,451.216],[20.224,-3.026],[-34.806,5.208]],[[418.13787,454.628],[34.852,3.594],[0,0]],[[413.49187,483.768],[0,0],[-0.02,0.122]],[[413.43387,484.136],[0.018,-0.122],[12.95,1.722]],[[452.48187,487.442],[-13.064,-0.47],[37.148,1.338]]],&quot;closed&quot;:true,&quot;fillColor&quot;:[0,0,0,1]}]}" fill="#55af34" stroke="none" stroke-width="0.5" stroke-linecap="butt"/><path d="M330.24462,220.68756c-8.547,4.848 -17.5935,8.7707 -26.8755,11.9717c-0.125,-0.29 -0.24972,-0.58077 -0.37472,-0.87077c-1.988,-4.623 -3.98649,-9.26142 -5.97449,-13.88442c4.219,-1.37 8.39116,-2.8826 12.48816,-4.5936c11.32,-4.727 22.12302,-10.83304 31.66202,-18.57704c7.307,-5.932 13.72739,-12.78491 19.05839,-20.54591c0.109,0.068 0.28449,0.0623 0.39349,0.1303c3.775,2.368 7.55972,4.74791 11.33472,7.1159c-3.544,5.795 -7.65538,11.24922 -12.27538,16.23922c-8.494,9.175 -18.57567,16.85362 -29.43667,23.01462z" data-paper-data="{&quot;noHover&quot;:false,&quot;origItem&quot;:[&quot;Path&quot;,{&quot;applyMatrix&quot;:true,&quot;segments&quot;:[[[715.03587,395.368],[-16.988,18.35],[9.24,-9.98]],[[739.59787,362.918],[-7.088,11.59],[-7.55,-4.736]],[[716.94787,348.71],[7.55,4.736],[-0.218,-0.136]],[[716.29387,348.3],[0.218,0.136],[-10.662,15.522]],[[678.04987,389.546],[14.614,-11.864],[-19.078,15.488]],[[614.87987,426.584],[22.64,-9.454],[-8.194,3.422]],[[589.90387,435.772],[8.438,-2.74],[3.976,9.246]],[[601.83387,463.51],[-3.976,-9.246],[0.25,0.58]],[[602.58187,465.25],[-0.25,-0.58],[18.564,-6.402]],[[656.28387,441.278],[-17.094,9.696],[21.722,-12.322]]],&quot;closed&quot;:true,&quot;fillColor&quot;:[0,0,0,1]}]}" fill="#55af34" stroke="none" stroke-width="0.5" stroke-linecap="butt"/><path d="M373.60791,178.147c-3.765,-2.362 -7.56251,-4.73656 -11.32751,-7.09755c3.246,-5.185 5.96294,-10.77552 8.07594,-16.51952c1.69,-4.591 3.02511,-9.35189 3.79811,-14.18489c0.094,-0.59 0.18149,-1.18797 0.26549,-1.78498c3.098,2.95 6.55059,5.59128 10.21959,7.80729c-0.023,0.244 -0.04198,0.48898 -0.06998,0.73298c-0.02,0.174 -0.09185,0.73316 -0.10085,0.81216c-0.044,0.312 -0.08664,0.62649 -0.13563,0.93849c-0.335,2.156 -0.76902,4.31348 -1.29402,6.43148c-1.632,6.593 -4.04565,12.94592 -7.05865,18.94992c-0.685,1.366 -1.42098,2.70962 -2.16798,4.04162c-0.068,-0.043 -0.13652,-0.08599 -0.20452,-0.12699z" data-paper-data="{&quot;noHover&quot;:false,&quot;origItem&quot;:[&quot;Path&quot;,{&quot;applyMatrix&quot;:true,&quot;segments&quot;:[[[743.39387,356.448],[-0.136,-0.086],[1.494,-2.664]],[[747.71587,348.366],[-1.37,2.732],[6.026,-12.008]],[[761.75387,310.596],[-3.264,13.186],[1.05,-4.236]],[[764.36187,297.768],[-0.67,4.312],[0.098,-0.624]],[[764.63587,295.894],[-0.088,0.624],[0.018,-0.158]],[[764.83987,294.272],[-0.04,0.348],[0.056,-0.488]],[[764.98187,292.808],[-0.046,0.488],[-7.338,-4.432]],[[744.60587,277.22],[6.196,5.9],[-0.168,1.194]],[[744.07587,280.79],[0.188,-1.18],[-1.546,9.666]],[[736.54587,309.138],[3.38,-9.182],[-4.226,11.488]],[[720.39787,342.024],[6.492,-10.37],[7.53,4.722]],[[742.98587,356.194],[-7.53,-4.724],[0.136,0.082]]],&quot;closed&quot;:true,&quot;fillColor&quot;:[0,0,0,1]}]}" fill="#55af34" stroke="none" stroke-width="0.5" stroke-linecap="butt"/><path d="M255.51459,141.47836c1.568,5.609 9.62488,33.68214 9.62488,33.68214c0,0 7.97384,28.08466 9.60484,33.67666c1.27,4.351 2.52961,6.99589 4.34861,10.09889c-9.521,2.146 -19.20774,3.65693 -28.90574,4.63192c-22.076,2.219 -44.31632,0.8887 -65.74032,-5.0803c-9.413,-2.623 -18.64195,-6.05915 -27.55195,-10.12215c1.818,-2.672 3.08103,-4.97343 4.36402,-8.80843c1.652,-4.934 9.73326,-29.73118 9.73326,-29.73118c0,0 8.16007,-24.77937 9.75007,-29.73337c1.226,-3.823 1.57513,-6.41945 1.69413,-9.61745l0.05203,-0.00002c19.628,-0.007 34.31586,-0.02208 34.31586,-0.02208c0,0 17.10156,0.01721 37.03157,0.02421l0.03202,0.00001c0.089,3.655 0.41274,6.58412 1.64674,11.00112z" data-paper-data="{&quot;noHover&quot;:false,&quot;origItem&quot;:[&quot;Path&quot;,{&quot;applyMatrix&quot;:true,&quot;segments&quot;:[[[503.44587,261.034],[0.178,7.31],[0,0]],[[503.38187,261.034],[0,0],[-39.86,-0.014]],[429.38187,261.006],[[360.80787,261.03],[39.256,-0.014],[0,0]],[[360.70387,261.03],[0,0],[-0.238,6.396]],[[357.32587,280.256],[2.452,-7.646],[-3.18,9.908]],[337.85387,339.668],[[318.38187,399.078],[3.304,-9.868],[-2.566,7.67]],[[309.64987,416.686],[3.636,-5.344],[17.82,8.126]],[[364.72787,436.898],[-18.826,-5.246],[42.848,11.938]],[[496.08787,447.054],[-44.152,4.438],[19.396,-1.95]],[[553.87387,437.816],[-19.042,4.292],[-3.638,-6.206]],[[545.17187,417.626],[2.54,8.702],[-3.262,-11.184]],[525.94987,350.326],[[506.72787,283.026],[3.136,11.218],[-2.468,-8.834]]],&quot;closed&quot;:true,&quot;fillColor&quot;:[0,0,0,1]}]}" fill="#55af34" stroke="none" stroke-width="0.5" stroke-linecap="butt"/><path d="M367.03883,130.03582c1.251,1.756 2.59592,3.44773 4.01992,5.04573c-0.057,0.798 -0.11643,1.59671 -0.20943,2.39271c-0.02,0.172 -0.04188,0.34438 -0.06288,0.51638c-0.005,0.044 -0.00798,0.06507 -0.01098,0.09507c-0.001,0.012 -0.00199,0.01603 -0.00499,0.03503c-0.056,0.391 -0.11176,0.78386 -0.17376,1.17486c-0.149,0.943 -0.31945,1.88413 -0.50845,2.81913c-0.474,2.341 -1.06504,4.66365 -1.75804,6.94864c-0.415,1.37 -0.86672,2.7326 -1.35372,4.0786c-0.261,0.723 -0.53296,1.445 -0.81396,2.16c-0.156,0.394 -0.31401,0.78912 -0.47501,1.18112c-0.072,0.174 -0.14401,0.3485 -0.21701,0.5225c-0.002,0.004 0.02599,-0.05778 -0.09801,0.22922c-2.937,6.817 -6.87449,13.48903 -11.34249,19.20803c-5.956,7.624 -13.13549,14.31606 -21.0335,19.88906c-10.292,7.262 -21.7704,12.77877 -33.6534,16.89777c-6.314,2.189 -12.76459,3.98971 -19.27559,5.49271c-0.092,-3.627 -0.41647,-6.54662 -1.64447,-10.93962c-1.568,-5.61 -9.62953,-33.67219 -9.62953,-33.67219c0,0 -7.98218,-28.09094 -9.61318,-33.68294c-1.277,-4.381 -2.54473,-7.03444 -4.38373,-10.16444l0.33313,-0.32531c7.89,-7.696 17.82685,-17.39418 21.38285,-20.86318c6.792,-6.659 10.48605,-11.06413 15.18105,-17.14012c4.567,4.359 9.201,8.64789 14.161,12.51489c12.372,9.645 26.71785,16.63698 41.69684,21.20098c6.326,1.927 12.89434,3.60336 19.48734,4.38536z" data-paper-data="{&quot;noHover&quot;:false,&quot;origItem&quot;:[&quot;Path&quot;,{&quot;applyMatrix&quot;:true,&quot;segments&quot;:[[[690.79787,251.366],[12.652,3.854],[-29.958,-9.128]],[[607.49387,208.998],[24.744,19.29],[-9.92,-7.734]],[[579.18987,183.964],[9.134,8.718],[-9.39,12.152]],[[548.85787,218.228],[13.584,-13.318],[-7.112,6.938]],[[506.12187,259.916],[15.78,-15.392],[0,0]],[[505.45587,260.566],[0,0],[3.678,6.26]],[[514.22787,280.882],[-2.554,-8.762],[3.262,11.184]],[533.44987,348.182],[[552.67187,415.482],[-3.136,-11.22],[2.456,8.786]],[[555.95187,437.356],[-0.184,-7.254],[13.022,-3.006]],[[594.47987,426.362],[-12.628,4.378],[23.766,-8.238]],[[661.71987,392.574],[-20.584,14.524],[15.796,-11.146]],[[703.74187,352.84],[-11.912,15.248],[8.936,-11.438]],[[726.41587,314.466],[-5.874,13.634],[0.248,-0.574]],[[726.61187,314.008],[-0.004,0.008],[0.146,-0.348]],[[727.04587,312.964],[-0.144,0.348],[0.322,-0.784]],[[727.99587,310.604],[-0.312,0.788],[0.562,-1.43]],[[729.62387,306.288],[-0.522,1.446],[0.974,-2.692]],[[732.33187,298.138],[-0.83,2.74],[1.386,-4.57]],[[735.84987,284.252],[-0.948,4.682],[0.378,-1.87]],[[736.86787,278.618],[-0.298,1.886],[0.124,-0.782]],[[737.21587,276.27],[-0.112,0.782],[0.006,-0.038]],[[737.22587,276.2],[-0.002,0.024],[0.006,-0.06]],[[737.24787,276.01],[-0.01,0.088],[0.042,-0.344]],[[737.37387,274.978],[-0.04,0.344],[0.186,-1.592]],[[737.79387,270.196],[-0.114,1.596],[-2.848,-3.196]],[[729.75787,260.114],[2.502,3.512],[-13.186,-1.564]]],&quot;closed&quot;:true,&quot;fillColor&quot;:[0,0,0,1]}]}" fill="#55af34" stroke="none" stroke-width="0.5" stroke-linecap="butt"/><path d="M278.95419,79.93622c4.232,3.764 8.30423,7.749 12.41723,11.68c-6.187,4.532 -10.67874,8.11041 -17.50374,14.72341c-3.474,3.383 -13.02952,12.69526 -20.82852,20.28925c-19.585,0.007 -36.23721,0.02506 -36.23721,0.02506c0,0 -14.24775,-0.01766 -33.42375,-0.02466c-7.278,-8.365 -17.33882,-19.93378 -20.80382,-23.91578c-6.262,-7.161 -10.44585,-11.09775 -16.24785,-16.13274c7.203,-7.3 13.83514,-15.15068 21.76514,-21.70168c11.942,-9.867 26.44725,-17.07793 42.14325,-17.61793c13.1,-0.451 25.86122,3.61178 37.29722,9.77378c11.444,6.166 21.73806,14.2853 31.42206,22.9013z" data-paper-data="{&quot;noHover&quot;:false,&quot;origItem&quot;:[&quot;Path&quot;,{&quot;applyMatrix&quot;:true,&quot;segments&quot;:[[[490.76587,114.142],[22.888,12.332],[-22.872,-12.324]],[[416.26187,94.62],[26.2,-0.902],[-31.392,1.08]],[[332.04587,129.798],[23.884,-19.734],[-15.86,13.102]],[[288.52387,173.162],[14.406,-14.6],[11.604,10.07]],[[321.01587,205.4],[-12.524,-14.322],[6.93,7.964]],[[362.59387,253.184],[-14.556,-16.73],[38.352,0.014]],[429.37987,253.208],[[501.78387,253.182],[-39.17,0.014],[15.598,-15.188]],[[543.41187,212.646],[-6.948,6.766],[13.65,-13.226]],[[578.41387,183.226],[-12.374,9.064],[-8.226,-7.862]],[[553.57987,159.884],[8.464,7.528],[-19.368,-17.232]]],&quot;closed&quot;:true,&quot;fillColor&quot;:[0,0,0,1]}]}" fill="#55af34" stroke="none" stroke-width="0.5" stroke-linecap="butt"/><path d="M146.00942,86.91469c4.17,6.429 7.48998,11.11849 13.69898,18.30349c3.554,4.091 14.06742,16.19558 21.37542,24.60658l0.32714,0.3774c-1.778,2.627 -3.02622,4.92097 -4.29222,8.70298c-1.652,4.934 -9.74169,29.7395 -9.74169,29.7395c0,0 -8.1656,24.77028 -9.7546,29.72428c-1.218,3.797 -1.56813,6.38101 -1.69013,9.54901c-3.973,-1.839 -7.89709,-3.79056 -11.73209,-5.87956c-13.824,-7.531 -26.78782,-16.79092 -37.92682,-27.94291c-11.818,-11.832 -21.46198,-25.83407 -27.93798,-41.26607c5.043,-1.493 9.95035,-3.51256 14.66835,-5.78856c11.925,-5.753 22.90431,-13.46161 33.09631,-21.86561c6.948,-5.729 13.57234,-11.86451 19.90934,-18.26051z" data-paper-data="{&quot;noHover&quot;:false,&quot;origItem&quot;:[&quot;Path&quot;,{&quot;applyMatrix&quot;:true,&quot;segments&quot;:[[[247.97987,210.45],[13.896,-11.458],[-20.384,16.808]],[[181.86587,254.13],[23.85,-11.506],[-9.436,4.552]],[[152.53787,265.686],[10.086,-2.986],[12.952,30.864]],[[208.38387,348.116],[-23.636,-23.664],[22.278,22.304]],[[284.14587,403.98],[-27.648,-15.062],[7.67,4.178]],[[307.59587,415.744],[-7.946,-3.678],[0.244,-6.336]],[[310.96787,396.65],[-2.436,7.594],[3.178,-9.908]],[330.43787,337.24],[[349.90987,277.828],[-3.304,9.868],[2.532,-7.564]],[[358.49787,260.436],[-3.556,5.254],[0,0]],[[357.84387,259.682],[0,0],[-14.616,-16.822]],[[315.12987,210.518],[7.108,8.182],[-12.418,-14.37]],[[287.76387,173.926],[8.34,12.858],[-12.674,12.792]]],&quot;closed&quot;:true,&quot;fillColor&quot;:[0,0,0,1]}]}" fill="#55af34" stroke="none" stroke-width="0.5" stroke-linecap="butt"/><path d="M27.11346,131.22337c0.002,-0.093 0.00116,-0.14031 -0.00084,-0.17231c0.009,-0.028 0.02216,-0.07234 0.04316,-0.16734c0.049,-0.223 0.10668,-0.44032 0.16568,-0.66032c0.026,-0.097 0.06432,-0.19359 0.10132,-0.28859c0.004,-0.008 0.00803,-0.01705 0.01203,-0.02305c0.044,-0.079 0.24356,-0.37899 0.26456,-0.43399c0.12,-0.135 0.24161,-0.26801 0.37461,-0.39201c0.012,-0.011 0.01003,-0.01005 0.02004,-0.01905c0.094,-0.068 0.18938,-0.13561 0.28938,-0.19361c0.181,-0.105 0.36768,-0.20104 0.55668,-0.29004c0.058,-0.012 0.47762,-0.1709 0.55162,-0.1929c0.27,-0.081 0.5449,-0.14823 0.8209,-0.20423c0.115,-0.024 0.23138,-0.0445 0.34638,-0.0655c0.055,-0.01 0.08814,-0.01618 0.12014,-0.02218c0.005,0 0.00501,-0.00001 0.01101,-0.00101c2.823,-0.357 5.64617,0.03885 8.35716,0.55985c3.224,0.62 6.43287,1.48668 9.56287,2.47168c2.613,0.821 5.23075,1.74776 7.79075,2.72276c0.798,0.305 1.59828,0.623 2.39128,0.94299c1.505,4.09 3.16434,8.16258 4.99934,12.11558c0.965,2.081 1.97854,4.14521 3.03954,6.17621c-9.004,1.337 -18.40945,0.04219 -26.39745,-4.49081c-3.019,-1.713 -5.80285,-3.86167 -8.17485,-6.40067c-0.999,-1.07 -1.83293,-2.10724 -2.62393,-3.30424c-0.402,-0.608 -0.77628,-1.23861 -1.11828,-1.88261c-0.139,-0.262 -0.27161,-0.52876 -0.3986,-0.79676c-0.037,-0.078 -0.2357,-0.53719 -0.2497,-0.56119c-0.227,-0.564 -0.42191,-1.14551 -0.57591,-1.73351c-0.064,-0.244 -0.11848,-0.49041 -0.16948,-0.73741c-0.03,-0.145 -0.05367,-0.29183 -0.07667,-0.43783c0,-0.006 0.00001,-0.00903 -0.00099,-0.01603c-0.046,-0.504 -0.04274,-0.99786 -0.03174,-1.50186z" data-paper-data="{&quot;noHover&quot;:false,&quot;origItem&quot;:[&quot;Path&quot;,{&quot;applyMatrix&quot;:true,&quot;segments&quot;:[[[50.15387,265.488],[-0.092,-1.008],[0.002,0.014]],[[50.15587,265.52],[0,-0.012],[0.046,0.292]],[[50.30987,266.394],[-0.06,-0.29],[0.102,0.494]],[[50.64987,267.866],[-0.128,-0.488],[0.308,1.176]],[[51.80387,271.326],[-0.454,-1.128],[0.028,0.048]],[[52.30387,272.446],[-0.074,-0.156],[0.254,0.536]],[[53.10187,274.036],[-0.278,-0.524],[0.684,1.288]],[[55.33987,277.792],[-0.804,-1.216],[1.582,2.394]],[[60.58787,284.38],[-1.998,-2.14],[4.744,5.078]],[[76.90187,297.114],[-6.038,-3.426],[15.976,9.066]],[[129.54787,306.12],[-18.008,2.674],[-2.122,-4.062]],[[123.45987,293.786],[1.93,4.162],[-3.67,-7.906]],[[113.46587,269.634],[3.01,8.18],[-1.586,-0.64]],[[108.69187,267.762],[1.596,0.61],[-5.12,-1.95]],[[93.17387,262.356],[5.226,1.642],[-6.26,-1.97]],[[74.11987,257.398],[6.448,1.24],[-5.422,-1.042]],[[57.42987,256.256],[5.646,-0.714],[-0.012,0.002]],[[57.40787,256.258],[0.01,0],[-0.064,0.012]],[[57.16787,256.302],[0.11,-0.02],[-0.23,0.042]],[[56.47587,256.432],[0.23,-0.048],[-0.552,0.112]],[[54.83587,256.838],[0.54,-0.162],[-0.148,0.044]],[[53.73387,257.222],[0.116,-0.024],[-0.378,0.178]],[[52.62187,257.8],[0.362,-0.21],[-0.2,0.116]],[[52.04387,258.186],[0.188,-0.136],[-0.02,0.018]],[[52.00387,258.224],[0.024,-0.022],[-0.266,0.248]],[[51.25587,259.006],[0.24,-0.27],[-0.042,0.11]],[[50.72787,259.872],[0.088,-0.158],[-0.008,0.012]],[[50.70387,259.918],[0.008,-0.016],[-0.074,0.19]],[[50.50187,260.494],[0.052,-0.194],[-0.118,0.44]],[[50.17187,261.812],[0.098,-0.446],[-0.042,0.19]],[[50.08587,262.146],[0.018,-0.056],[0.004,0.064]],[[50.08787,262.49],[0.004,-0.186],[-0.022,1.008]]],&quot;closed&quot;:true,&quot;fillColor&quot;:[0,0,0,1]}]}" fill="#67d440" stroke="none" stroke-width="0.5" stroke-linecap="butt"/><path d="M347.19363,213.95812c7.432,-5.664 14.2425,-12.14531 20.0875,-19.44431c5.759,-7.192 10.63622,-15.1392 14.28822,-23.6052c2.511,-5.822 4.55443,-11.87627 5.80443,-18.09827c0.297,-1.476 0.57194,-2.97719 0.77094,-4.48419c3.597,1.839 7.40556,3.29608 11.31756,4.29608c10.826,2.767 22.38038,1.91692 32.69637,-2.35507c0.661,-0.274 1.31927,-0.56564 1.97427,-0.86764c-0.457,1.538 -0.9334,3.07233 -1.4984,4.58832c-0.47,1.263 -0.96669,2.51714 -1.48769,3.75914c-0.025,0.058 -0.06291,0.14917 -0.1169,0.27317c-0.077,0.177 -0.15282,0.35433 -0.22982,0.53133c-0.138,0.316 -0.27666,0.6316 -0.41766,0.9466c-0.336,0.75 -0.68022,1.49751 -1.03422,2.23951c-1.545,3.238 -3.25475,6.40321 -5.13175,9.46121c-4.586,7.472 -9.997,14.15883 -16.546,20.09583c-7.772,7.046 -16.9412,12.63632 -26.7512,16.35432c-10.79,4.089 -22.23465,5.97919 -33.72565,6.30919z" data-paper-data="{&quot;noHover&quot;:false,&quot;origItem&quot;:[&quot;Path&quot;,{&quot;applyMatrix&quot;:true,&quot;segments&quot;:[[[757.64387,415.204],[-21.58,8.178],[19.62,-7.436]],[[811.02587,382.538],[-15.544,14.092],[13.098,-11.874]],[[844.10787,342.426],[-9.172,14.944],[3.754,-6.116]],[[854.37787,323.52],[-3.09,6.476],[0.708,-1.484]],[[856.44787,319.044],[-0.672,1.5],[0.282,-0.63]],[[857.28387,317.152],[-0.276,0.632],[0.154,-0.354]],[[857.74387,316.09],[-0.154,0.354],[0.108,-0.248]],[[857.97787,315.544],[-0.05,0.116],[1.042,-2.484]],[[860.95587,308.03],[-0.94,2.526],[1.13,-3.032]],[[863.95587,298.858],[-0.914,3.076],[-1.31,0.604]],[[860.00787,300.594],[1.322,-0.548],[-20.632,8.544]],[[794.66587,305.34],[21.652,5.534],[-7.824,-2]],[[772.06787,296.752],[7.194,3.678],[-0.398,3.014]],[[770.52987,305.72],[0.594,-2.952],[-2.5,12.444]],[[758.97587,341.892],[5.022,-11.644],[-7.304,16.932]],[[730.41987,388.978],[11.518,-14.384],[-11.69,14.598]],[[690.23787,427.856],[14.864,-11.328],[22.982,-0.66]]],&quot;closed&quot;:true,&quot;fillColor&quot;:[0,0,0,1]}]}" fill="#67d440" stroke="none" stroke-width="0.5" stroke-linecap="butt"/><path d="M424.04011,149.10113c-20.07,5.131 -41.39101,-3.90419 -53.45801,-20.37519c-5.258,-7.176 -8.99746,-15.86926 -9.03645,-24.87626c-0.038,-8.773 3.71604,-17.07703 9.63404,-23.45203c14.077,-15.163 37.5249,-19.53227 57.0329,-14.43227c17.467,4.566 34.62283,18.29915 34.71283,37.73615c-0.009,2.033 -0.17894,4.063 -0.54694,6.063c-3.486,18.932 -20.00736,34.6516 -38.33837,39.3366z" data-paper-data="{&quot;noHover&quot;:false,&quot;origItem&quot;:[&quot;Path&quot;,{&quot;applyMatrix&quot;:true,&quot;segments&quot;:[[[920.42787,219.524],[-6.972,37.864],[0.736,-4]],[[921.52187,207.41],[-0.018,4.066],[-0.18,-38.874]],[[852.15987,132.024],[34.934,9.132],[-39.016,-10.2]],[[738.21387,160.85],[28.154,-30.326],[-11.836,12.75]],[[718.96187,207.706],[-0.076,-17.546],[0.078,18.014]],[[737.02387,257.406],[-10.516,-14.352],[24.134,32.942]],[[843.82387,298.106],[-40.14,10.262],[36.662,-9.37]]],&quot;closed&quot;:true,&quot;fillColor&quot;:[0,0,0,1]}]}" fill="#67d440" stroke="none" stroke-width="0.5" stroke-linecap="butt"/><path d="M445.13125,141.95554c-0.41044,0.283 -0.80978,0.443 -1.17086,0.579c-0.36163,0.136 -0.68166,0.256 -0.95344,0.358c-0.27177,0.106 -0.50695,0.087 -0.67833,0.111c-0.1725,0.008 -0.41598,0.018 -0.72104,0.031c-0.3045,0.011 -0.66724,0.04 -1.09043,-0.046c-0.84195,-0.103 -1.88247,-0.417 -2.98732,-1.052c-1.10652,-0.622 -2.27459,-1.555 -3.40163,-2.739c-1.12593,-1.188 -2.21026,-2.619 -3.20585,-4.147c-1.99672,-3.054 -3.61795,-6.511 -4.72724,-9.167c-1.11095,-2.662 -1.71829,-4.547 -1.71829,-4.547c0,0 0.79924,1.894 2.17476,4.425c1.37108,2.527 3.34062,5.692 5.55698,8.164c1.10596,1.233 2.26628,2.293 3.39443,3.062c1.12926,0.768 2.22302,1.226 3.17257,1.433c0.95177,0.223 1.75379,0.149 2.34449,0.05c0.59181,-0.16 0.97673,-0.264 1.08377,-0.293c0.05269,-0.018 0.16418,-0.023 0.32669,-0.035c0.16195,-0.037 0.37494,-0.086 0.63174,-0.145c0.25847,-0.05 0.5613,-0.109 0.90019,-0.175c0.33722,-0.127 0.71105,-0.268 1.11317,-0.419c1.60958,-0.654 3.66288,-2.051 5.57474,-3.99c1.91852,-1.911 3.69782,-4.266 4.95243,-6.186c1.26237,-1.91 2.02501,-3.349 2.02501,-3.349c0,0 -0.56351,1.512 -1.56743,3.653c-1.00169,2.141 -2.45098,4.917 -4.16872,7.445c-1.7133,2.525 -3.70614,4.781 -5.54035,6.123c-0.45481,0.34 -0.9074,0.59 -1.32006,0.856z" fill="#152345" stroke="none" stroke-width="1" stroke-linecap="butt"/><path d="M416.35854,79.421c2.911,0.22 5.899,0.672 8.596,1.837c1.533,0.662 3.157,1.699 3.523,3.395c0.063,0.152 0.095,0.33 0.085,0.535c0.01,0.196 -0.02,0.368 -0.078,0.516c-0.723,3.759 -7.066,4.651 -10.007,5.031c-5.544,0.716 -12.003,0.635 -17.203,-1.674c-1.414,-0.628 -3.021,-1.615 -3.402,-3.236c-0.392,-1.666 0.822,-3.013 2.122,-3.846c1.977,-1.267 4.465,-1.817 6.751,-2.177c3.174,-0.501 6.409,-0.623 9.613,-0.381zM403.21754,83.218c-0.817,0.286 -2.632,0.886 -2.897,1.846c-0.177,0.641 1.217,1.371 1.833,1.664c3.98,1.89 9.012,2.015 13.319,1.782c2.486,-0.134 4.996,-0.472 7.369,-1.252c0.845,-0.278 3.171,-1.048 3.222,-2.071c-0.039,-0.782 -1.659,-1.477 -2.344,-1.756c-1.979,-0.806 -4.169,-1.194 -6.284,-1.413c-4.666,-0.483 -9.749,-0.363 -14.218,1.2z" fill="#152345" stroke="none" stroke-width="1" stroke-linecap="butt"/><path d="M434.83454,73.002c-0.627,2.591 -4.678,3.24 -6.839,3.525c-3.772,0.499 -8.12,0.429 -11.655,-1.143c-1.05,-0.467 -2.151,-1.219 -2.426,-2.407c-0.293,-1.264 0.563,-2.318 1.564,-2.961c1.324,-0.851 2.98,-1.238 4.513,-1.483c2.122,-0.339 4.282,-0.436 6.426,-0.277c2.04,0.151 4.128,0.468 6.008,1.309c1.075,0.48 2.09,1.222 2.396,2.357c0.067,0.157 0.103,0.339 0.091,0.553c0.011,0.2 -0.018,0.376 -0.078,0.527zM416.35154,72.494c-0.022,0.057 -0.002,0.184 0,0zM432.17254,72.274c-0.328,-0.257 -0.733,-0.439 -1.118,-0.591c-1.212,-0.477 -2.544,-0.72 -3.833,-0.856c-2.982,-0.314 -6.196,-0.244 -9.067,0.701c-0.464,0.153 -0.924,0.333 -1.337,0.599c-0.123,0.079 -0.221,0.162 -0.335,0.249c-0.052,0.039 -0.09,0.064 -0.112,0.079c0.011,0.013 0.023,0.028 0.01,0.015c0.282,0.304 0.658,0.5 1.031,0.671c2.559,1.171 5.757,1.236 8.51,1.085c1.585,-0.087 3.179,-0.307 4.691,-0.804c0.484,-0.159 0.994,-0.348 1.414,-0.646c0.104,-0.074 0.309,-0.255 0.347,-0.284c0.004,-0.003 0.005,-0.008 0.009,-0.011c-0.027,-0.035 -0.099,-0.121 -0.21,-0.207z" fill="#152345" stroke="none" stroke-width="1" stroke-linecap="butt"/><path d="M409.49954,76.045c-0.627,2.591 -4.678,3.239 -6.839,3.525c-3.772,0.499 -8.12,0.429 -11.655,-1.143c-1.05,-0.467 -2.151,-1.219 -2.426,-2.408c-0.293,-1.264 0.563,-2.318 1.564,-2.961c1.324,-0.851 2.98,-1.238 4.513,-1.483c2.122,-0.34 4.282,-0.437 6.426,-0.278c2.04,0.151 4.128,0.468 6.008,1.309c1.075,0.48 2.09,1.222 2.396,2.358c0.067,0.157 0.103,0.339 0.091,0.553c0.011,0.201 -0.018,0.377 -0.078,0.528zM391.01654,75.536c-0.022,0.058 -0.002,0.184 0,0zM406.83754,75.316c-0.328,-0.257 -0.733,-0.439 -1.118,-0.59c-1.212,-0.476 -2.544,-0.721 -3.833,-0.856c-2.982,-0.314 -6.196,-0.244 -9.068,0.701c-0.464,0.153 -0.924,0.333 -1.337,0.599c-0.123,0.079 -0.221,0.162 -0.335,0.249c-0.052,0.039 -0.09,0.064 -0.112,0.079c0.011,0.013 0.023,0.028 0.01,0.015c0.282,0.304 0.658,0.5 1.031,0.671c2.559,1.171 5.757,1.236 8.51,1.085c1.585,-0.087 3.179,-0.307 4.691,-0.804c0.484,-0.16 0.994,-0.348 1.413,-0.646c0.104,-0.074 0.309,-0.255 0.347,-0.284c0.004,-0.003 0.005,-0.008 0.009,-0.011c-0.025,-0.035 -0.097,-0.121 -0.208,-0.208z" fill="#152345" stroke="none" stroke-width="1" stroke-linecap="butt"/><path d="M436.04954,123.293c-2.869,0 -5.196,-4.146 -5.196,-9.262c0,-5.115 2.326,-9.262 5.196,-9.262c2.869,0 5.196,4.147 5.196,9.262c0,5.115 -2.327,9.262 -5.196,9.262z" fill="#152345" stroke="none" stroke-width="1" stroke-linecap="butt"/><path d="M420.28546,37.41601c0,0 59.34415,6.81476 44.69632,57.2045c-1.51987,5.2285 -107.70251,23.49333 -108.29362,-7.27254c-1.14742,-59.72002 63.5973,-49.93196 63.5973,-49.93196z" fill="#ff0000" stroke="#000000" stroke-width="3.5" stroke-linecap="round"/><path d="M401.34775,150.37282l-2.02522,-45.56752" fill="none" stroke="#152345" stroke-width="3.5" stroke-linecap="round"/></g></g></svg>