<svg version="1.1" xmlns="http://www.w3.org/2000/svg" xmlns:xlink="http://www.w3.org/1999/xlink" width="445.61634" height="276.79532" viewBox="0,0,445.61634,276.79532"><g transform="translate(-21.3262,-35.06946)"><g data-paper-data="{&quot;isPaintingLayer&quot;:true}" fill-rule="nonzero" stroke-linejoin="miter" stroke-miterlimit="10" stroke-dasharray="" stroke-dashoffset="0" style="mix-blend-mode: normal"><g stroke-width="3.5"><g stroke="none" stroke-linecap="butt"><path d="M304.54313,184.78377c-7.1458,1.90738 0.11422,-0.21866 0.16919,-0.1712c11.86482,10.24355 17.20124,26.51208 20.10396,41.42063c1.42618,7.32238 2.3302,14.73422 2.81122,22.17643c0.19448,3.01803 0.4211,6.0775 0.36865,9.10299c-0.08002,4.60089 -1.74009,9.06231 -4.74047,12.56011c-3.34086,3.89348 -8.0648,5.77817 -12.7827,7.4653c-5.04538,1.8048 -10.29299,3.07512 -15.61707,3.70348c-8.38178,0.98906 -17.00314,0.248 -25.05088,-2.31932c-3.25047,-1.03736 -6.59386,-2.26928 -9.55433,-3.98813c-3.9817,-2.3121 -7.05207,-5.9889 -8.60578,-10.32505c-0.78448,-2.19022 -1.17929,-4.57534 -1.11455,-6.90157c0.07673,-2.72334 0.60679,-5.43152 0.78884,-8.15117c0.32341,-4.81745 0.26078,-9.66546 -0.27803,-14.46539c-0.42609,-3.79734 -1.16716,-7.54673 -2.26519,-11.207c-0.44775,-1.49031 -0.95176,-2.96476 -1.51859,-4.41402c-0.27131,-0.6932 -0.5553,-1.37975 -0.85503,-2.06049c-0.12559,-0.28603 -0.25407,-0.56991 -0.3845,-0.85269c-0.04489,-0.09586 -0.23651,-0.49971 -0.26465,-0.56136c-0.80428,-1.65053 -1.70562,-3.26011 -2.73081,-4.78434c-0.15587,-0.23143 61.68345,-25.99911 61.52074,-26.22719zM270.64853,275.10303c-0.15384,-1.5392 -0.33664,-3.07694 -0.56293,-4.60346c-0.57239,-3.85904 -1.36567,-7.74998 -2.78359,-11.4001c-0.53628,-1.37971 -1.43067,-3.16887 -2.2151,-4.08947c-0.27462,-0.32256 -0.58388,-0.61733 -0.90991,-0.88723c-0.01983,-0.01602 -0.20032,-0.14007 -0.26067,-0.18509c-0.10955,-0.06756 -0.21915,-0.13612 -0.33408,-0.19139c-0.34685,-0.16672 -0.87661,-0.30717 -1.3651,-0.30453c-0.50746,0.0036 -0.83463,0.14729 -1.47058,0.66002c0.13947,-0.11318 -0.43972,0.45276 -0.57113,0.60658c-0.24475,0.28871 -0.31217,0.38123 -0.43966,0.57291c-0.97554,1.46107 -1.57013,3.07011 -2.04688,4.6732c-0.56758,1.90606 -0.99554,3.88016 -1.25906,5.85897c3.00824,5.02365 8.65499,7.61211 14.21869,9.2896zM298.73706,276.68418c3.17194,-0.59676 6.29605,-1.44643 9.35546,-2.48708c0.1025,-3.20425 -0.15653,-6.46934 -0.71921,-9.60094c-0.83686,-4.65471 -2.8336,-10.34824 -7.13711,-12.78726c-4.87761,-2.76348 -11.33462,-1.23282 -14.95512,2.77391c-3.63003,4.01622 -5.16067,9.65261 -5.99253,14.98936c-0.18517,1.19086 -0.32698,2.38753 -0.44263,3.58689c-0.00566,0.06637 -0.01912,0.21624 -0.02478,0.28261c-0.00952,0.12864 -0.01999,0.25834 -0.02947,0.38798c-0.01553,0.20805 -0.03005,0.41605 -0.04253,0.62494c-0.02854,0.44601 -0.05108,0.89171 -0.06859,1.33816c-0.01533,0.39027 -0.02662,0.78134 -0.03491,1.17225c6.64579,1.07714 13.45883,0.96533 20.09141,-0.28082zM323.02748,263.21376c1.41721,-3.30269 1.24362,-6.75934 1.09584,-10.26034c-0.79362,-1.39975 -1.95459,-3.2135 -3.59232,-3.36508c-0.4165,-0.03904 -0.75133,0.07199 -1.13753,0.19663c-0.44627,0.1447 -0.12479,0.0073 -0.53618,0.28741c-0.10553,0.07141 -0.20892,0.14572 -0.3091,0.22388c-0.02017,0.01704 -0.04033,0.03408 -0.05086,0.04362c-0.19407,0.18202 -0.37339,0.37832 -0.54433,0.5822c-0.55732,0.66196 -1.04882,1.61596 -1.46983,2.6375c-0.42196,1.02259 -0.74726,2.19449 -1.02023,3.35173c-0.6038,2.55671 -0.95128,5.1926 -1.15785,7.80334c-0.18791,2.38552 -0.28761,4.79261 -0.27846,7.1942c0.1352,-0.05889 0.27165,-0.11285 0.40586,-0.17169c3.8765,-1.6937 6.91987,-4.61794 8.595,-8.5234zM302.84357,188.13867c-18.72658,6.59384 -68.60838,30.66052 -56.50749,21.13694c1.50411,2.24399 2.74035,4.69575 3.79768,7.15354c2.7955,6.50126 4.30603,13.55104 4.87374,20.58837c0.39233,4.87341 0.29083,9.76276 -0.14122,14.62975c-0.19862,2.23286 -0.6297,4.46244 -0.58248,6.70592c0.18568,-0.56609 0.37346,-1.13028 0.58582,-1.68369c1.35572,-3.52888 3.99458,-7.464 8.30088,-6.91252c4.02314,0.51572 6.25034,4.54751 7.60233,7.94263c2.2921,5.7527 3.29628,12.2333 3.74506,18.44257c0.12975,0.03149 0.26125,0.0579 0.39196,0.08834c0.07889,-3.37428 0.50249,-6.78298 1.18543,-10.05259c1.26575,-6.06357 3.71754,-12.37428 8.75912,-16.27655c5.28153,-4.08762 13.34506,-4.37974 18.72413,-0.35094c4.06476,3.04484 6.07751,8.00462 7.15285,12.90061c0.34665,-3.3858 0.96628,-6.73932 2.13987,-9.88953c0.8446,-2.26949 2.1498,-4.6774 4.35498,-5.87916c2.43908,-1.32873 4.6797,-0.8972 6.55351,0.37991c-0.08494,-1.18623 -0.16989,-2.37245 -0.27681,-3.55757c-0.65416,-7.26225 -1.70656,-14.49937 -3.3917,-21.59641c-3.20133,-13.48568 -5.40561,-25.56352 -17.26765,-33.76961z" data-paper-data="{&quot;index&quot;:null}" fill="#152345"/><path d="M314.41349,271.78341c-0.1342,0.05884 -0.27181,0.1123 -0.40701,0.1712c-0.00915,-2.4016 0.07294,-4.82168 0.26085,-7.20719c0.20657,-2.61074 0.55754,-5.3158 1.16135,-7.87251c0.27297,-1.15724 0.61591,-2.3399 1.03787,-3.36248c0.42101,-1.02154 0.92388,-1.97811 1.48119,-2.64007c0.17093,-0.20388 0.35316,-0.40039 0.54723,-0.58243c0.01053,-0.00954 0.03096,-0.0266 0.05112,-0.04363c0.10019,-0.07815 0.20508,-0.15251 0.31061,-0.22392c0.41139,-0.28011 0.09239,-0.14268 0.53866,-0.28738c0.3862,-0.12464 0.72608,-0.23522 1.14258,-0.19618c1.63773,0.15158 2.81954,1.97326 3.61315,3.37301c0.14779,3.501 0.33586,7.02599 -1.08135,10.32868c-1.67513,3.90547 -4.77973,6.8492 -8.65623,8.5429z" data-paper-data="{&quot;noHover&quot;:false,&quot;origItem&quot;:[&quot;Path&quot;,{&quot;applyMatrix&quot;:true,&quot;segments&quot;:[[[704.65248,589.44356],[-3.74,7.632],[3.164,-6.454]],[[707.87648,569.05956],[-0.058,7.008],[-1.444,-2.876]],[[701.04048,561.97556],[3.256,0.468],[-0.828,-0.12]],[[698.74848,562.25356],[0.784,-0.21],[-0.906,0.244]],[[697.64848,562.77356],[0.85,-0.518],[-0.218,0.132]],[[697.00848,563.18956],[0.208,-0.146],[-0.042,0.032]],[[696.90248,563.27156],[0.022,-0.018],[-0.406,0.344]],[[695.75648,564.37956],[0.362,-0.39],[-1.18,1.266]],[[692.55448,569.49956],[0.944,-1.998],[-0.946,2]],[[690.17848,576.09156],[0.662,-2.284],[-1.464,5.046]],[[687.07848,591.56156],[0.676,-5.194],[-0.616,4.746]],[[685.79648,605.90356],[0.224,-4.798],[0.276,-0.104]],[[686.62448,605.60156],[-0.274,0.104],[7.914,-2.992]]],&quot;closed&quot;:true,&quot;fillColor&quot;:[0,0,0,1]}]}" fill="#67d440"/><path d="M278.6087,276.99869c0.00829,-0.39092 0.01808,-0.78371 0.03341,-1.17398c0.0175,-0.44645 0.03831,-0.89436 0.06685,-1.34037c0.01248,-0.2089 0.0262,-0.41802 0.04172,-0.62607c0.00947,-0.12964 0.01944,-0.26007 0.02896,-0.38871c0.00566,-0.06637 0.01876,-0.21679 0.02442,-0.28316c0.11565,-1.19936 0.25307,-2.40441 0.43823,-3.59526c0.83186,-5.33676 2.37742,-11.03108 6.00745,-15.0473c3.6205,-4.00673 10.13472,-5.54121 15.01233,-2.77773c4.30351,2.43902 6.32433,8.17737 7.16119,12.83209c0.56268,3.1316 0.81331,6.42246 0.71081,9.62671c-3.0594,1.04065 -6.20405,1.90789 -9.37599,2.50464c-6.63258,1.24615 -13.5036,1.34628 -20.14939,0.26914z" data-paper-data="{&quot;noHover&quot;:false,&quot;origItem&quot;:[&quot;Path&quot;,{&quot;applyMatrix&quot;:true,&quot;segments&quot;:[[[654.7745,613.89956],[-13.374,1.82],[6.396,-0.872]],[[673.7125,609.87556],[-6.216,1.77],[0.528,-6.39]],[[673.2445,590.62556],[0.808,6.312],[-1.202,-9.382]],[[660.2785,564.36356],[8.35,5.306],[-9.464,-6.012]],[[630.1265,568.39556],[7.636,-7.638],[-7.656,7.656]],[[616.6445,597.73156],[2.2,-10.576],[-0.49,2.36]],[[615.3985,604.85156],[0.352,-2.384],[-0.018,0.132]],[[615.3205,605.41356],[0.018,-0.132],[-0.032,0.256]],[[615.2225,606.18556],[0.032,-0.258],[-0.052,0.414]],[[615.0745,607.42956],[0.046,-0.416],[-0.102,0.888]],[[614.8025,610.09556],[0.08,-0.89],[-0.07,0.778]],[[614.6145,612.43356],[0.056,-0.78],[13.166,2.822]]],&quot;closed&quot;:true,&quot;fillColor&quot;:[0,0,0,1]}]}" fill="#67d440"/><path d="M256.38084,265.82337c0.26352,-1.97881 0.70158,-3.99426 1.26917,-5.90032c0.47674,-1.60309 1.09238,-3.22742 2.06792,-4.68849c0.12749,-0.19168 0.19776,-0.28519 0.4425,-0.5739c0.13141,-0.15382 0.7139,-0.72067 0.57443,-0.60749c0.63595,-0.51273 0.97021,-0.6576 1.47768,-0.6612c0.48849,-0.00264 1.02448,0.13763 1.37133,0.30434c0.11493,0.05527 0.22615,0.12391 0.3357,0.19147c0.06035,0.04501 0.24214,0.16917 0.26198,0.18519c0.32603,0.2699 0.64038,0.5654 0.915,0.88796c0.78444,0.9206 1.69951,2.71907 2.23579,4.09878c1.41793,3.65012 2.21831,7.61398 2.7907,11.47302c0.22629,1.52653 0.40019,3.07217 0.55403,4.61137c-5.5637,-1.67749 -11.288,-4.29706 -14.29623,-9.32072z" data-paper-data="{&quot;noHover&quot;:false,&quot;origItem&quot;:[&quot;Path&quot;,{&quot;applyMatrix&quot;:true,&quot;segments&quot;:[[[598.82848,607.90756],[-10.944,-3.912],[-0.152,-3.09]],[[598.16848,598.65556],[0.298,3.072],[-0.754,-7.766]],[[593.75848,575.60356],[2.464,7.434],[-0.932,-2.81]],[[589.74648,567.21156],[1.474,1.918],[-0.516,-0.672]],[[588.01848,565.34756],[0.624,0.572],[-0.038,-0.034]],[[587.51648,564.95156],[0.116,0.096],[-0.212,-0.146]],[[586.86848,564.53556],[0.224,0.122],[-0.676,-0.368]],[[584.17248,563.78956],[0.976,0.044],[-1.014,-0.044]],[[581.16848,564.95956],[1.322,-0.96],[0.29,-0.212]],[[579.96648,566.11356],[0.278,-0.294],[-0.518,0.552]],[[579.03048,567.21356],[0.274,-0.37],[-2.096,2.82]],[[574.47048,576.34156],[1.114,-3.154],[-1.326,3.75]],[[571.36448,587.91756],[0.726,-3.926],[5.502,10.338]]],&quot;closed&quot;:true,&quot;fillColor&quot;:[0,0,0,1]}]}" fill="#67d440"/><path d="M320.1592,221.89421c1.68514,7.09703 2.73767,14.36183 3.39183,21.62408c0.10692,1.18512 0.19063,2.37512 0.27556,3.56135c-1.87381,-1.27711 -4.11542,-1.70614 -6.5545,-0.37741c-2.20519,1.20177 -3.5154,3.6186 -4.36,5.88809c-1.17359,3.15021 -1.80105,6.51246 -2.1477,9.89826c-1.07534,-4.89599 -3.08374,-9.8601 -7.14851,-12.90494c-5.37907,-4.02879 -13.47836,-3.7199 -18.75989,0.36772c-5.04158,3.90228 -7.50679,10.2116 -8.77254,16.27517c-0.68294,3.26961 -1.08428,6.58083 -1.16317,9.95511c-0.1307,-0.03045 -0.28357,0.04085 -0.41332,0.00935c-0.44878,-6.20927 -1.46563,-12.69457 -3.75773,-18.44727c-1.35198,-3.39512 -3.59425,-7.43928 -7.61739,-7.955c-4.3063,-0.55148 -6.86795,3.3201 -8.22366,6.84898c-0.21235,0.55342 -0.47654,1.18211 -0.66222,1.74819c-0.04723,-2.24347 0.37983,-4.47839 0.57845,-6.71126c0.43205,-4.86699 0.52601,-9.77593 0.13368,-14.64934c-0.5677,-7.03732 -2.07412,-14.11607 -4.86962,-20.61732c-1.05732,-2.45779 -2.29098,-4.91438 -3.79509,-7.15837c-12.10089,9.52357 37.84293,-14.5632 56.56951,-21.15704c11.86204,8.20609 14.09497,20.31598 17.2963,33.80166z" data-paper-data="{&quot;noHover&quot;:false,&quot;origItem&quot;:[&quot;Path&quot;,{&quot;applyMatrix&quot;:true,&quot;segments&quot;:[[[671.91,437.44826],[22.866,17.588],[-38.0707,11.28166]],[[556.90648,473.96756],[-25.13176,17.8021],[2.778,4.634]],[[563.77048,488.63956],[-1.864,-5.016],[4.928,13.268]],[[571.42848,530.25556],[-0.424,-14.114],[0.292,9.774]],[[569.67048,559.46356],[1.354,-9.678],[-0.622,4.44]],[[567.83048,572.79956],[0.132,-4.486],[0.428,-1.112]],[[569.17048,569.49556],[-0.48,1.084],[3.064,-6.912]],[[586.44848,556.52556],[-8.546,-1.536],[7.984,1.436]],[[600.83248,573.15756],[-2.358,-6.918],[3.998,11.722]],[[606.45248,610.37356],[-0.27,-12.448],[0.256,0.076]],[[607.22648,610.58956],[-0.258,-0.074],[0.498,-6.732]],[[610.60848,590.62956],[-1.694,6.462],[3.14,-11.984]],[[629.74648,559.00156],[-10.464,7.286],[10.962,-7.632]],[[667.18248,560.18956],[-10.338,-8.59],[7.812,6.492]],[[680.16848,586.67956],[-1.654,-9.888],[1.034,-6.728]],[[685.44048,567.14156],[-2.662,6.174],[1.916,-4.448]],[[694.73248,555.83756],[-4.526,2.178],[5.006,-2.408]],[[707.78448,557.25756],[-3.614,-2.74],[-0.05,-2.378]],[[707.59048,550.12356],[0.094,2.378],[-0.574,-14.572]],[[702.99448,506.64356],[2.65,14.346],[-5.034,-27.26]]],&quot;closed&quot;:true,&quot;fillColor&quot;:[0,0,0,1]}]}" fill="#67d440"/></g><path d="M286.84789,281.15141c0.36557,7.23807 -4.94606,13.38892 -11.86386,13.73831c-6.91778,0.3494 -12.82213,-5.23496 -13.1877,-12.47304c-0.36557,-7.23807 4.94606,-13.38892 11.86385,-13.73831c6.91778,-0.3494 12.82214,5.23496 13.18771,12.47304z" fill="#000000" stroke="#000000" stroke-linecap="butt"/><path d="M320.26167,279.69632c0.37204,7.36618 -4.88243,13.61824 -11.73615,13.9644c-6.85376,0.34616 -12.71143,-5.34471 -13.08347,-12.71084c-0.37204,-7.36618 4.88242,-13.61828 11.73619,-13.96444c6.85376,-0.34616 12.71139,5.3447 13.08344,12.71088z" fill="#000000" stroke="#000000" stroke-linecap="butt"/><path d="M305.41731,281.67096c-4.65325,-0.46992 3.45634,-9.49811 3.45634,-9.49811l7.83865,-0.66232c0,0 9.86851,9.28972 2.64245,9.45649c-5.44572,0.1257 -10.55416,1.0456 -13.93744,0.70394z" fill="#1fba00" stroke="#1fba00" stroke-linecap="round"/><path d="M265.28035,283.72815c-21.06331,1.12685 -12.03937,-45.70892 -12.03937,-45.70892l71.36212,-2.5617c0,0 10.77091,44.63495 -5.34531,45.54439c-42.45366,2.39558 -0.61591,-0.12846 -53.97744,2.72623z" fill="#ff0000" stroke="#000000" stroke-linecap="butt"/><path d="M301.93492,279.89949c0,0 4.88755,-5.0792 4.85225,-9.52941c-0.03531,-4.45021 -4.86168,-4.67077 -4.99952,-9.03183c-0.13784,-4.3611 -8.26256,-6.72245 -6.72517,-11.90773c1.53739,-5.18528 4.76469,-7.35208 4.76469,-7.35208c0,0 8.84146,6.01053 11.66098,11.85602c2.81952,5.84545 -2.52933,4.37877 -2.16343,8.01085c0.36596,3.63208 4.81992,4.48268 5.33393,7.82972c0.51401,3.34705 -2.68482,9.41994 -2.68482,9.41994z" data-paper-data="{&quot;index&quot;:null}" fill="#eac100" stroke="#000000" stroke-linecap="round"/><path d="M269.69028,281.44092c0,0 4.88755,-5.0792 4.85225,-9.52942c-0.03531,-4.45021 -4.86168,-4.67072 -4.99952,-9.03183c-0.13784,-4.3611 -8.26256,-6.72245 -6.72517,-11.90777c1.53739,-5.18528 4.76469,-7.35208 4.76469,-7.35208c0,0 8.84146,6.01058 11.66098,11.85602c2.81952,5.84545 -2.52934,4.37877 -2.16338,8.01084c0.36596,3.63208 4.81992,4.48263 5.33388,7.82968c0.51401,3.34705 -2.68482,9.41994 -2.68482,9.41994z" data-paper-data="{&quot;index&quot;:null}" fill="#eac100" stroke="#eac100" stroke-linecap="round"/></g><g><g data-paper-data="{&quot;index&quot;:null}" stroke="none" stroke-linecap="butt"><path d="M153.81964,185.87716c-0.13329,0.24644 64.41561,18.17727 64.28952,18.42619c-0.82904,1.6392 -1.52463,3.3478 -2.11885,5.08505c-0.02031,0.06466 -0.16057,0.48909 -0.19328,0.58976c-0.0945,0.29673 -0.18693,0.59431 -0.27622,0.89366c-0.21333,0.71256 -0.41033,1.42893 -0.59393,2.15034c-0.38345,1.50818 -0.70145,3.0336 -0.96166,4.56781c-0.63744,3.76788 -0.90965,7.5801 -0.86336,11.40099c0.05829,4.82973 0.59505,9.64834 1.51112,14.38893c0.51663,2.67632 1.3772,5.29828 1.78977,7.99128c0.35162,2.30041 0.25448,4.71604 -0.25341,6.98639c-1.00613,4.49487 -3.59876,8.52282 -7.26433,11.30909c-2.72545,2.07142 -5.89105,3.70693 -8.98846,5.1379c-7.66894,3.54185 -16.13271,5.34229 -24.57247,5.39627c-5.36092,0.03418 -10.72526,-0.57814 -15.95496,-1.74582c-4.89019,-1.09137 -9.81078,-2.37804 -13.60703,-5.82897c-3.40951,-3.10035 -5.60801,-7.32251 -6.2558,-11.87827c-0.42581,-2.99584 -0.57889,-6.05987 -0.75874,-9.07881c-0.44206,-7.44463 -0.4606,-14.91137 0.05007,-22.35384c1.03872,-15.15295 4.3245,-31.95611 14.83297,-43.58694c0.04869,-0.05389 7.51574,1.15899 0.18904,0.14899zM211.57458,260.34233c-0.50596,-1.9311 -1.17452,-3.83721 -1.97322,-5.65855c-0.67113,-1.53191 -1.45995,-3.05518 -2.60851,-4.38454c-0.1502,-0.17446 -0.22853,-0.25794 -0.50707,-0.5142c-0.1494,-0.13641 -0.79407,-0.62646 -0.64169,-0.53138c-0.69442,-0.43024 -1.03683,-0.53241 -1.54085,-0.47329c-0.48507,0.05772 -0.99342,0.26255 -1.31702,0.47084c-0.10723,0.06905 -0.20751,0.15062 -0.30788,0.2312c-0.05432,0.05212 -0.2181,0.19752 -0.23581,0.21587c-0.29019,0.30811 -0.56067,0.63883 -0.79334,0.99284c-0.6647,1.01046 -1.33121,2.89641 -1.69293,4.33179c-0.95614,3.79733 -1.26267,7.75646 -1.35393,11.65665c-0.03597,1.54279 -0.02741,3.09133 0.01008,4.63774c5.31385,-2.35196 10.59758,-5.61818 12.96216,-10.97498zM190.90658,274.15296c-0.05652,-0.3869 -0.11603,-0.77357 -0.17946,-1.15896c-0.07252,-0.44087 -0.14996,-0.88037 -0.23337,-1.31944c-0.03819,-0.20575 -0.0783,-0.41036 -0.11941,-0.6149c-0.02542,-0.12748 -0.05183,-0.25489 -0.07717,-0.38137c-0.01382,-0.06516 -0.04568,-0.21222 -0.0595,-0.27738c-0.26293,-1.17589 -0.55149,-2.34588 -0.88236,-3.50474c-1.48478,-5.19311 -3.69999,-10.59723 -7.79837,-14.13424c-4.08775,-3.52877 -10.68439,-4.25002 -15.18324,-0.90514c-3.96923,2.95199 -5.24731,8.84857 -5.50273,13.57101c-0.1715,3.17713 -0.02519,6.44921 0.47237,9.61625c3.16453,0.65473 6.36968,1.11194 9.59104,1.31228c6.73572,0.41723 13.51038,-0.31348 19.9722,-2.20337zM154.74802,273.38618c0.14044,0.04181 0.28252,0.0785 0.42396,0.12024c-0.2876,-2.38433 -0.68391,-4.76067 -1.16508,-7.1047c-0.52751,-2.56523 -1.19796,-5.13799 -2.11299,-7.60053c-0.41384,-1.11466 -0.88143,-2.23739 -1.42648,-3.20002c-0.54398,-0.9617 -1.14957,-1.84768 -1.7844,-2.43572c-0.19481,-0.1812 -0.39701,-0.35384 -0.61208,-0.51049c-0.01163,-0.00817 -0.03375,-0.02259 -0.05586,-0.037c-0.10907,-0.06518 -0.22084,-0.12615 -0.33439,-0.18398c-0.44285,-0.22714 -0.10686,-0.13052 -0.56758,-0.21897c-0.39864,-0.07597 -0.74462,-0.14479 -1.15311,-0.0546c-1.60646,0.35274 -2.53447,2.29602 -3.14909,3.78309c0.28585,3.49244 0.54062,6.94405 2.35498,10.04637c2.14477,3.66861 5.52608,6.19448 9.58212,7.39631zM142.95708,224.64053c-0.79548,7.25085 -0.94576,14.56255 -0.69775,21.84998c0.04031,1.18925 0.10256,2.37688 0.16481,3.56451c1.70168,-1.49881 3.87183,-2.20383 6.45637,-1.1866c2.33676,0.92014 3.92943,3.14835 5.04792,5.29612c1.55377,2.9811 2.58294,6.23239 3.3452,9.54942c0.46226,-4.99133 1.84687,-10.16177 5.50435,-13.68544c4.84016,-4.66245 12.87801,-5.36872 18.62406,-1.96488c5.48504,3.24956 8.69765,9.20904 10.70278,15.0698c1.08163,3.1602 1.92308,6.49046 2.41822,9.82915c0.12594,-0.04636 0.25317,-0.0888 0.37804,-0.13609c-0.32173,-6.21714 -0.12584,-12.77215 1.43803,-18.76395c0.9222,-3.53614 2.63427,-7.81218 6.56288,-8.82096c4.20519,-1.07925 7.30997,2.49973 9.09125,5.8341c0.2791,0.52294 0.53514,1.05961 0.78933,1.59843c-0.23029,-2.23212 -0.93351,-4.39137 -1.40645,-6.58259c-1.02999,-4.77633 -1.73473,-9.61569 -1.94745,-14.50024c-0.30602,-7.05355 0.32203,-14.23593 2.29297,-21.03275c0.7456,-2.56959 1.66949,-5.15529 2.88486,-7.5679c13.18471,7.95571 -39.28813,-9.76435 -58.68584,-13.99425c-10.75741,9.60864 -11.45275,21.86627 -12.96357,35.64414z" data-paper-data="{&quot;index&quot;:null}" fill="#152345" stroke-width="1"/><path d="M154.77256,273.42972c-4.05604,-1.20183 -7.50052,-3.73948 -9.64529,-7.40809c-1.81436,-3.10232 -2.0632,-6.62354 -2.34905,-10.11598c0.61462,-1.48707 1.56232,-3.44079 3.16878,-3.79353c0.40849,-0.09019 0.75942,-0.02244 1.15806,0.05353c0.46073,0.08846 0.12719,-0.00851 0.57004,0.21863c0.11355,0.05783 0.22682,0.11866 0.33589,0.18384c0.02212,0.01442 0.04449,0.02882 0.05612,0.03698c0.21507,0.15666 0.42018,0.32916 0.61499,0.51036c0.63483,0.58804 1.25201,1.47516 1.79599,2.43686c0.54505,0.96263 1.03147,2.09386 1.44531,3.20851c0.91504,2.46253 1.59749,5.10351 2.125,7.66874c0.48117,2.34403 0.86161,4.73543 1.14921,7.11976c-0.14144,-0.04174 -0.2846,-0.07779 -0.42504,-0.11961z" data-paper-data="{&quot;noHover&quot;:false,&quot;origItem&quot;:[&quot;Path&quot;,{&quot;applyMatrix&quot;:true,&quot;segments&quot;:[[[704.65248,589.44356],[-3.74,7.632],[3.164,-6.454]],[[707.87648,569.05956],[-0.058,7.008],[-1.444,-2.876]],[[701.04048,561.97556],[3.256,0.468],[-0.828,-0.12]],[[698.74848,562.25356],[0.784,-0.21],[-0.906,0.244]],[[697.64848,562.77356],[0.85,-0.518],[-0.218,0.132]],[[697.00848,563.18956],[0.208,-0.146],[-0.042,0.032]],[[696.90248,563.27156],[0.022,-0.018],[-0.406,0.344]],[[695.75648,564.37956],[0.362,-0.39],[-1.18,1.266]],[[692.55448,569.49956],[0.944,-1.998],[-0.946,2]],[[690.17848,576.09156],[0.662,-2.284],[-1.464,5.046]],[[687.07848,591.56156],[0.676,-5.194],[-0.616,4.746]],[[685.79648,605.90356],[0.224,-4.798],[0.276,-0.104]],[[686.62448,605.60156],[-0.274,0.104],[7.914,-2.992]]],&quot;closed&quot;:true,&quot;fillColor&quot;:[0,0,0,1]}]}" fill="#67d440" stroke-width="0.5"/><path d="M170.91911,276.40395c-3.22136,-0.20033 -6.44906,-0.67244 -9.61358,-1.32717c-0.49756,-3.16704 -0.65539,-6.46365 -0.48389,-9.64078c0.25542,-4.72244 1.55186,-10.66648 5.52109,-13.61847c4.49885,-3.34488 11.15274,-2.6269 15.24048,0.90187c4.09838,3.53701 6.33556,8.99678 7.82034,14.18989c0.33086,1.15886 0.6161,2.3377 0.87903,3.51358c0.01382,0.06516 0.0454,0.21281 0.05921,0.27798c0.02534,0.12647 0.05134,0.25467 0.07676,0.38215c0.04111,0.20454 0.08056,0.41037 0.11875,0.61612c0.08342,0.43907 0.15941,0.88097 0.23193,1.32184c0.06343,0.38539 0.12167,0.77396 0.17819,1.16086c-6.46182,1.88989 -13.29257,2.63936 -20.0283,2.22212z" data-paper-data="{&quot;noHover&quot;:false,&quot;origItem&quot;:[&quot;Path&quot;,{&quot;applyMatrix&quot;:true,&quot;segments&quot;:[[[654.7745,613.89956],[-13.374,1.82],[6.396,-0.872]],[[673.7125,609.87556],[-6.216,1.77],[0.528,-6.39]],[[673.2445,590.62556],[0.808,6.312],[-1.202,-9.382]],[[660.2785,564.36356],[8.35,5.306],[-9.464,-6.012]],[[630.1265,568.39556],[7.636,-7.638],[-7.656,7.656]],[[616.6445,597.73156],[2.2,-10.576],[-0.49,2.36]],[[615.3985,604.85156],[0.352,-2.384],[-0.018,0.132]],[[615.3205,605.41356],[0.018,-0.132],[-0.032,0.256]],[[615.2225,606.18556],[0.032,-0.258],[-0.052,0.414]],[[615.0745,607.42956],[0.046,-0.416],[-0.102,0.888]],[[614.8025,610.09556],[0.08,-0.89],[-0.07,0.778]],[[614.6145,612.43356],[0.056,-0.78],[13.166,2.822]]],&quot;closed&quot;:true,&quot;fillColor&quot;:[0,0,0,1]}]}" fill="#67d440" stroke-width="0.5"/><path d="M211.62445,260.34616c-2.36458,5.3568 -7.72142,8.66347 -13.03526,11.01544c-0.03749,-1.54641 -0.05587,-3.1017 -0.0199,-4.64449c0.09127,-3.90019 0.39584,-7.93256 1.35198,-11.72989c0.36173,-1.43539 1.04761,-3.33313 1.71231,-4.34359c0.23267,-0.35401 0.5081,-0.68608 0.79829,-0.99419c0.0177,-0.01835 0.18277,-0.16401 0.23709,-0.21614c0.10036,-0.08058 0.20224,-0.16243 0.30947,-0.23147c0.3236,-0.20829 0.83815,-0.4137 1.32323,-0.47142c0.50402,-0.05912 0.85363,0.04335 1.54804,0.47359c-0.15238,-0.09508 0.49567,0.39546 0.64508,0.53187c0.27854,0.25627 0.35982,0.34038 0.51001,0.51484c1.14857,1.32936 1.96015,2.8652 2.63129,4.39711c0.79871,1.82134 1.4824,3.76724 1.98836,5.69834z" data-paper-data="{&quot;noHover&quot;:false,&quot;origItem&quot;:[&quot;Path&quot;,{&quot;applyMatrix&quot;:true,&quot;segments&quot;:[[[598.82848,607.90756],[-10.944,-3.912],[-0.152,-3.09]],[[598.16848,598.65556],[0.298,3.072],[-0.754,-7.766]],[[593.75848,575.60356],[2.464,7.434],[-0.932,-2.81]],[[589.74648,567.21156],[1.474,1.918],[-0.516,-0.672]],[[588.01848,565.34756],[0.624,0.572],[-0.038,-0.034]],[[587.51648,564.95156],[0.116,0.096],[-0.212,-0.146]],[[586.86848,564.53556],[0.224,0.122],[-0.676,-0.368]],[[584.17248,563.78956],[0.976,0.044],[-1.014,-0.044]],[[581.16848,564.95956],[1.322,-0.96],[0.29,-0.212]],[[579.96648,566.11356],[0.278,-0.294],[-0.518,0.552]],[[579.03048,567.21356],[0.274,-0.37],[-2.096,2.82]],[[574.47048,576.34156],[1.114,-3.154],[-1.326,3.75]],[[571.36448,587.91756],[0.726,-3.926],[5.502,10.338]]],&quot;closed&quot;:true,&quot;fillColor&quot;:[0,0,0,1]}]}" fill="#67d440" stroke-width="0.5"/><path d="M142.90772,224.63249c1.51082,-13.77787 2.23063,-26.07084 12.98805,-35.67948c19.39772,4.2299 71.93458,21.96224 58.74987,14.00653c-1.21537,2.41261 -2.1361,5.00278 -2.88169,7.57237c-1.97094,6.7968 -2.59133,14.00742 -2.28531,21.06097c0.21273,4.88455 0.9124,9.74428 1.9424,14.52061c0.47294,2.19123 1.17283,4.35627 1.40311,6.58839c-0.25419,-0.5388 -0.59402,-1.13005 -0.87311,-1.65299c-1.78127,-3.33437 -4.80158,-6.85983 -9.00677,-5.78059c-3.92861,1.00878 -5.6541,5.29895 -6.5763,8.83509c-1.56387,5.9918 -1.77175,12.55304 -1.45002,18.77019c-0.12487,0.04728 -0.28537,-0.00458 -0.41131,0.04178c-0.49514,-3.33868 -1.30246,-6.57496 -2.38409,-9.73515c-2.00513,-5.86075 -5.23089,-11.8172 -10.71593,-15.06676c-5.74605,-3.40384 -13.82146,-2.7098 -18.66162,1.95265c-3.65748,3.52367 -5.03725,8.69786 -5.49951,13.68919c-0.76227,-3.31704 -1.80028,-6.57602 -3.35405,-9.55711c-1.11849,-2.14776 -2.71724,-4.38422 -5.054,-5.30436c-2.58454,-1.01723 -4.75599,-0.31456 -6.45767,1.18425c-0.06226,-1.18764 -0.1262,-2.37887 -0.16651,-3.56812c-0.24801,-7.28743 -0.10101,-14.62661 0.69447,-21.87745z" data-paper-data="{&quot;noHover&quot;:false,&quot;origItem&quot;:[&quot;Path&quot;,{&quot;applyMatrix&quot;:true,&quot;segments&quot;:[[[671.91,437.44826],[22.866,17.588],[-38.0707,11.28166]],[[556.90648,473.96756],[-25.13176,17.8021],[2.778,4.634]],[[563.77048,488.63956],[-1.864,-5.016],[4.928,13.268]],[[571.42848,530.25556],[-0.424,-14.114],[0.292,9.774]],[[569.67048,559.46356],[1.354,-9.678],[-0.622,4.44]],[[567.83048,572.79956],[0.132,-4.486],[0.428,-1.112]],[[569.17048,569.49556],[-0.48,1.084],[3.064,-6.912]],[[586.44848,556.52556],[-8.546,-1.536],[7.984,1.436]],[[600.83248,573.15756],[-2.358,-6.918],[3.998,11.722]],[[606.45248,610.37356],[-0.27,-12.448],[0.256,0.076]],[[607.22648,610.58956],[-0.258,-0.074],[0.498,-6.732]],[[610.60848,590.62956],[-1.694,6.462],[3.14,-11.984]],[[629.74648,559.00156],[-10.464,7.286],[10.962,-7.632]],[[667.18248,560.18956],[-10.338,-8.59],[7.812,6.492]],[[680.16848,586.67956],[-1.654,-9.888],[1.034,-6.728]],[[685.44048,567.14156],[-2.662,6.174],[1.916,-4.448]],[[694.73248,555.83756],[-4.526,2.178],[5.006,-2.408]],[[707.78448,557.25756],[-3.614,-2.74],[-0.05,-2.378]],[[707.59048,550.12356],[0.094,2.378],[-0.574,-14.572]],[[702.99448,506.64356],[2.65,14.346],[-5.034,-27.26]]],&quot;closed&quot;:true,&quot;fillColor&quot;:[0,0,0,1]}]}" fill="#67d440" stroke-width="0.5"/></g><path d="M194.83015,265.31393c6.90795,-0.50788 12.93876,4.93966 13.47016,12.16745c0.5314,7.22779 -4.63784,13.49878 -11.5458,14.00667c-6.90795,0.50788 -12.93877,-4.93966 -13.47017,-12.16745c-0.5314,-7.22779 4.63784,-13.49878 11.54581,-14.00667z" data-paper-data="{&quot;index&quot;:null}" fill="#000000" stroke="#000000" stroke-width="0.5" stroke-linecap="butt"/><path d="M161.35969,267.77469c6.84403,-0.50318 12.83061,5.0519 13.37142,12.40762c0.5408,7.35567 -4.56896,13.72658 -11.41299,14.22977c-6.84398,0.50318 -12.83057,-5.05186 -13.37137,-12.40758c-0.5408,-7.35572 4.56892,-13.72662 11.41295,-14.2298z" data-paper-data="{&quot;index&quot;:null}" fill="#000000" stroke="#000000" stroke-width="0.5" stroke-linecap="butt"/><path d="M151.00372,283.15342c-7.19131,0.7272 1.45397,-9.71049 1.45397,-9.71049l7.86044,-0.31112c0,0 9.16279,7.9572 4.60324,8.99837c-3.31516,0.75701 -8.49811,0.47523 -13.91764,1.02325z" data-paper-data="{&quot;index&quot;:null}" fill="#1fba00" stroke="#1fba00" stroke-width="0.5" stroke-linecap="round"/><path d="M151.10424,283.17607c-16.10511,1.08848 -10.93079,-44.53517 -10.93079,-44.53517l71.13194,-6.2738c0,0 14.74079,45.36222 -6.30039,46.8461c-53.30543,3.75932 -11.47636,1.0955 -53.90076,3.96288z" data-paper-data="{&quot;index&quot;:null}" fill="#ff0000" stroke="#000000" stroke-width="3.5" stroke-linecap="butt"/><path d="M158.10917,280.48313c0,0 -3.92456,-5.6312 -3.82797,-9.01611c0.09659,-3.38491 4.41134,-4.77922 4.32581,-8.42868c-0.08559,-3.64947 -5.21228,-1.53323 -3.13649,-7.68222c2.07579,-6.14904 10.10701,-13.20577 10.10701,-13.20577c0,0 3.47026,1.75151 5.63645,6.70715c2.16619,4.95564 -5.60458,8.3026 -5.2026,12.64733c0.40197,4.34468 -4.36019,5.15979 -3.84546,9.58027c0.51473,4.42049 5.99232,8.85698 5.99232,8.85698z" data-paper-data="{&quot;index&quot;:null}" fill="#eac100" stroke="#000000" stroke-width="0" stroke-linecap="round"/><path d="M190.29723,278.02924c0,0 -3.92455,-5.63119 -3.82797,-9.01611c0.09654,-3.38491 4.41131,-4.77917 4.32576,-8.42864c-0.08554,-3.64947 -5.21224,-1.53324 -3.13644,-7.68222c2.07579,-6.14899 10.107,-13.20577 10.107,-13.20577c0,0 3.47026,1.75151 5.63645,6.70715c2.16619,4.95568 -5.60457,8.30265 -5.2026,12.64737c0.40197,4.34472 -4.36019,5.15979 -3.84546,9.58027c0.51473,4.42049 5.99232,8.85699 5.99232,8.85699z" data-paper-data="{&quot;index&quot;:null}" fill="#eac100" stroke="#eac100" stroke-width="0" stroke-linecap="round"/></g><g><g data-paper-data="{&quot;index&quot;:null}" stroke="none" stroke-linecap="butt"><path d="M142.24675,195.13902c-0.1951,0.20108 57.07833,34.95494 56.88948,35.16036c-1.24227,1.35317 -2.3749,2.8093 -3.41769,4.32049c-0.03708,0.05673 -0.28709,0.42726 -0.34588,0.51531c-0.17138,0.26001 -0.34099,0.52141 -0.50808,0.78535c-0.39846,0.62807 -0.78223,1.26423 -1.15448,1.90889c-0.77785,1.34781 -1.49736,2.72997 -2.16364,4.13621c-1.63475,3.4541 -2.92998,7.04987 -3.92095,10.74031c-1.25286,4.66478 -2.04211,9.44851 -2.44515,14.25994c-0.22805,2.71617 -0.1103,5.47324 -0.44301,8.17725c-0.28498,2.30959 -1.03319,4.6085 -2.1374,6.65622c-2.18667,4.05395 -5.77394,7.2285 -10.05746,8.91705c-3.18485,1.25523 -6.67522,1.97158 -10.04453,2.50953c-8.34182,1.33085 -16.97678,0.77003 -25.11532,-1.46535c-5.16954,-1.42004 -10.16716,-3.46328 -14.88466,-6.00461c-4.41138,-2.37586 -8.7991,-4.94797 -11.51798,-9.2986c-2.44165,-3.90837 -3.41358,-8.56833 -2.8024,-13.12918c0.40207,-2.9991 1.08512,-5.98996 1.73021,-8.94466c1.59212,-7.28581 3.59794,-14.4781 6.10657,-21.50364c5.10661,-14.30431 12.82343,-29.58808 26.09078,-37.93557c0.06147,-0.03867 6.92036,3.15253 0.14158,0.19464zM177.65848,282.47002c0.03634,-1.99595 -0.09059,-4.01192 -0.36578,-5.98155c-0.23082,-1.65647 -0.57728,-3.33649 -1.32259,-4.92739c-0.0973,-0.20864 -0.15006,-0.31023 -0.34874,-0.63239c-0.10685,-0.17179 -0.59457,-0.81823 -0.47366,-0.6854c-0.55182,-0.60232 -0.85373,-0.79349 -1.35492,-0.87318c-0.48255,-0.07589 -1.02739,-0.01651 -1.39533,0.09629c-0.12193,0.0374 -0.24057,0.08874 -0.35902,0.13911c-0.0664,0.03545 -0.2635,0.13101 -0.28549,0.14388c-0.36284,0.21793 -0.71281,0.46296 -1.03273,0.74068c-0.91368,0.79249 -2.06637,2.42722 -2.80358,3.71084c-1.94951,3.39608 -3.31758,7.12396 -4.46249,10.85343c-0.45276,1.47529 -0.86422,2.9682 -1.24721,4.46689c5.75241,-0.82378 11.72361,-2.53576 15.45146,-7.05119zM154.02104,290.16232c0.05046,-0.38774 0.09797,-0.77607 0.14135,-1.16422c0.04968,-0.44403 0.09425,-0.88807 0.13294,-1.3333c0.01901,-0.20839 0.03584,-0.41622 0.05172,-0.62424c0.01008,-0.12959 0.0192,-0.25939 0.02909,-0.38801c0.00437,-0.06647 0.01354,-0.21666 0.0179,-0.28311c0.06561,-1.20315 0.10493,-2.40755 0.10053,-3.61271c-0.02175,-5.40116 -0.68946,-11.20338 -3.67583,-15.71875c-2.97839,-4.50456 -9.13267,-6.98664 -14.36965,-4.98625c-4.62073,1.76578 -7.44906,7.09528 -8.97481,11.57175c-1.02616,3.01173 -1.7721,6.20102 -2.1515,9.38436c2.86863,1.48787 5.82992,2.79664 8.87642,3.86255c6.37054,2.22716 13.08969,3.35986 19.82186,3.29199zM119.42358,279.62449c0.12387,0.07832 0.25065,0.15213 0.37552,0.23062c0.36938,-2.37304 0.63193,-4.76785 0.80404,-7.15454c0.18747,-2.6122 0.23939,-5.27036 0.026,-7.88874c-0.09626,-1.1851 -0.24207,-2.39254 -0.50581,-3.46686c-0.26297,-1.07313 -0.60579,-2.0901 -1.05748,-2.82818c-0.13841,-0.22722 -0.28627,-0.44818 -0.45082,-0.65728c-0.009,-0.01101 -0.02635,-0.03088 -0.04374,-0.05077c-0.08734,-0.0923 -0.17839,-0.18129 -0.272,-0.26772c-0.36474,-0.33864 -0.06748,-0.15459 -0.48699,-0.3646c-0.36314,-0.18117 -0.67753,-0.34119 -1.09514,-0.36507c-1.64195,-0.09586 -3.06188,1.5232 -4.05651,2.78804c-0.67139,3.4392 -1.36161,6.83067 -0.45593,10.3086c1.07021,4.11259 3.64042,7.46033 7.21894,9.71644zM121.28501,229.50763c-2.73084,6.76389 -4.85713,13.76121 -6.59345,20.84311c-0.28351,1.15567 -0.54547,2.3157 -0.80741,3.47578c2.0442,-0.98151 4.3242,-1.07199 6.53632,0.60761c1.99993,1.519 2.92909,4.0955 3.42361,6.466c0.68768,3.29063 0.79715,6.69917 0.63191,10.09863c1.79772,-4.67924 4.53181,-9.2809 9.00737,-11.68144c5.92262,-3.17616 13.85106,-1.67757 18.45955,3.15617c4.39905,4.61451 5.87629,11.22162 6.21798,17.40648c0.18466,3.33508 0.09206,6.76874 -0.3362,10.11666c0.13379,-0.0105 0.26775,-0.01687 0.40075,-0.02855c1.37529,-6.07166 3.3404,-12.32823 6.46963,-17.67194c1.84606,-3.15387 4.65296,-6.80585 8.70792,-6.71216c4.34029,0.10083 6.3589,4.38734 7.16984,8.07966c0.12691,0.57901 0.22793,1.165 0.32658,1.75253c0.38328,-2.21099 0.29157,-4.48003 0.43021,-6.71743c0.30306,-4.87673 0.93626,-9.72595 2.05532,-14.48534c1.61712,-6.8725 4.16823,-13.61584 7.90748,-19.62413c1.4141,-2.27134 3.0042,-4.50986 4.82795,-6.50281c10.53509,11.23129 -35.17134,-20.04682 -52.69666,-29.37561c-12.95894,6.33354 -16.95034,17.94394 -22.13871,30.7967z" data-paper-data="{&quot;index&quot;:null}" fill="#152345" stroke-width="1"/><path d="M119.43541,279.67306c-3.57852,-2.25612 -6.20632,-5.63231 -7.27655,-9.74491c-0.90566,-3.47793 -0.19087,-6.93482 0.4805,-10.37402c0.99463,-1.26483 2.43638,-2.8886 4.07832,-2.79273c0.41765,0.02387 0.73708,0.18422 1.10021,0.36538c0.4195,0.21002 0.12474,0.02628 0.48945,0.36493c0.09362,0.08643 0.18618,0.17569 0.2735,0.26799c0.01738,0.01988 0.03502,0.03978 0.04398,0.0508c0.16456,0.20909 0.31525,0.43072 0.45364,0.65795c0.45169,0.73809 0.80534,1.75927 1.06832,2.83242c0.26377,1.07431 0.42537,2.29505 0.52165,3.48015c0.21339,2.61838 0.15454,5.34544 -0.03292,7.95762c-0.17212,2.3867 -0.45402,4.79171 -0.82341,7.16475c-0.12484,-0.0785 -0.25287,-0.15204 -0.37673,-0.23032z" data-paper-data="{&quot;noHover&quot;:false,&quot;origItem&quot;:[&quot;Path&quot;,{&quot;applyMatrix&quot;:true,&quot;segments&quot;:[[[704.65248,589.44356],[-3.74,7.632],[3.164,-6.454]],[[707.87648,569.05956],[-0.058,7.008],[-1.444,-2.876]],[[701.04048,561.97556],[3.256,0.468],[-0.828,-0.12]],[[698.74848,562.25356],[0.784,-0.21],[-0.906,0.244]],[[697.64848,562.77356],[0.85,-0.518],[-0.218,0.132]],[[697.00848,563.18956],[0.208,-0.146],[-0.042,0.032]],[[696.90248,563.27156],[0.022,-0.018],[-0.406,0.344]],[[695.75648,564.37956],[0.362,-0.39],[-1.18,1.266]],[[692.55448,569.49956],[0.944,-1.998],[-0.946,2]],[[690.17848,576.09156],[0.662,-2.284],[-1.464,5.046]],[[687.07848,591.56156],[0.676,-5.194],[-0.616,4.746]],[[685.79648,605.90356],[0.224,-4.798],[0.276,-0.104]],[[686.62448,605.60156],[-0.274,0.104],[7.914,-2.992]]],&quot;closed&quot;:true,&quot;fillColor&quot;:[0,0,0,1]}]}" fill="#67d440" stroke-width="0.5"/><path d="M134.17155,286.91203c-3.04651,-1.06588 -6.02545,-2.39511 -8.89408,-3.88297c0.37942,-3.18337 1.12092,-6.39937 2.14709,-9.41111c1.52571,-4.47648 4.38463,-9.84669 9.00535,-11.61243c5.23702,-2.0004 11.44728,0.49402 14.42566,4.99862c2.98639,4.51538 3.66013,10.37715 3.6819,15.7783c0.0044,1.20516 -0.04053,2.41719 -0.10613,3.62033c-0.00437,0.06647 -0.01398,0.21716 -0.01833,0.28364c-0.00989,0.12861 -0.0196,0.25905 -0.0297,0.38865c-0.01587,0.20801 -0.03368,0.41684 -0.05267,0.62523c-0.0387,0.44525 -0.08533,0.89122 -0.13499,1.33523c-0.04339,0.38817 -0.09264,0.77796 -0.1431,1.16572c-6.73218,0.06787 -13.51042,-1.062 -19.88096,-3.28914z" data-paper-data="{&quot;noHover&quot;:false,&quot;origItem&quot;:[&quot;Path&quot;,{&quot;applyMatrix&quot;:true,&quot;segments&quot;:[[[654.7745,613.89956],[-13.374,1.82],[6.396,-0.872]],[[673.7125,609.87556],[-6.216,1.77],[0.528,-6.39]],[[673.2445,590.62556],[0.808,6.312],[-1.202,-9.382]],[[660.2785,564.36356],[8.35,5.306],[-9.464,-6.012]],[[630.1265,568.39556],[7.636,-7.638],[-7.656,7.656]],[[616.6445,597.73156],[2.2,-10.576],[-0.49,2.36]],[[615.3985,604.85156],[0.352,-2.384],[-0.018,0.132]],[[615.3205,605.41356],[0.018,-0.132],[-0.032,0.256]],[[615.2225,606.18556],[0.032,-0.258],[-0.052,0.414]],[[615.0745,607.42956],[0.046,-0.416],[-0.102,0.888]],[[614.8025,610.09556],[0.08,-0.89],[-0.07,0.778]],[[614.6145,612.43356],[0.056,-0.78],[13.166,2.822]]],&quot;closed&quot;:true,&quot;fillColor&quot;:[0,0,0,1]}]}" fill="#67d440" stroke-width="0.5"/><path d="M177.70542,282.48723c-3.72788,4.51545 -9.78043,6.24657 -15.53281,7.07032c0.38302,-1.49868 0.78685,-3.00078 1.2396,-4.47605c1.14488,-3.7295 2.53091,-7.52839 4.48044,-10.92446c0.73722,-1.28364 1.91175,-2.92445 2.82542,-3.71694c0.31992,-0.27772 0.67503,-0.52269 1.03785,-0.74062c0.02201,-0.01287 0.22037,-0.10833 0.2868,-0.14377c0.11844,-0.05036 0.2387,-0.10154 0.36062,-0.13893c0.36792,-0.11279 0.91891,-0.17104 1.40147,-0.09516c0.50119,0.0797 0.80993,0.27305 1.36175,0.87542c-0.12091,-0.13281 0.36994,0.51498 0.47677,0.68679c0.19865,0.32215 0.25407,0.42517 0.3514,0.63379c0.74527,1.59088 1.11026,3.2892 1.34109,4.94566c0.27521,1.96964 0.40592,4.02801 0.36957,6.02394z" data-paper-data="{&quot;noHover&quot;:false,&quot;origItem&quot;:[&quot;Path&quot;,{&quot;applyMatrix&quot;:true,&quot;segments&quot;:[[[598.82848,607.90756],[-10.944,-3.912],[-0.152,-3.09]],[[598.16848,598.65556],[0.298,3.072],[-0.754,-7.766]],[[593.75848,575.60356],[2.464,7.434],[-0.932,-2.81]],[[589.74648,567.21156],[1.474,1.918],[-0.516,-0.672]],[[588.01848,565.34756],[0.624,0.572],[-0.038,-0.034]],[[587.51648,564.95156],[0.116,0.096],[-0.212,-0.146]],[[586.86848,564.53556],[0.224,0.122],[-0.676,-0.368]],[[584.17248,563.78956],[0.976,0.044],[-1.014,-0.044]],[[581.16848,564.95956],[1.322,-0.96],[0.29,-0.212]],[[579.96648,566.11356],[0.278,-0.294],[-0.518,0.552]],[[579.03048,567.21356],[0.274,-0.37],[-2.096,2.82]],[[574.47048,576.34156],[1.114,-3.154],[-1.326,3.75]],[[571.36448,587.91756],[0.726,-3.926],[5.502,10.338]]],&quot;closed&quot;:true,&quot;fillColor&quot;:[0,0,0,1]}]}" fill="#67d440" stroke-width="0.5"/><path d="M121.23969,229.48651c5.18836,-12.85275 9.21291,-24.49054 22.17183,-30.82407c17.52534,9.32878 63.29008,40.63606 52.75499,29.40477c-1.82374,1.99293 -3.41201,4.23664 -4.82612,6.50796c-3.73924,6.00825 -6.29064,12.78085 -7.90773,19.65335c-1.11906,4.75939 -1.76265,9.62688 -2.06568,14.50359c-0.13862,2.23738 -0.0517,4.51109 -0.43501,6.72209c-0.09865,-0.58752 -0.26552,-1.24875 -0.39244,-1.82776c-0.81093,-3.69233 -2.76271,-7.90442 -7.10302,-8.00524c-4.05497,-0.09371 -6.87862,3.56824 -8.72466,6.7221c-3.12925,5.34371 -5.10757,11.60304 -6.48286,17.67469c-0.13299,0.01166 -0.27345,-0.08173 -0.40723,-0.07126c0.42826,-3.34792 0.52824,-6.68186 0.34357,-10.01694c-0.3417,-6.18483 -1.83242,-12.79263 -6.23148,-17.40711c-4.60848,-4.83375 -12.56974,-6.3543 -18.4924,-3.17812c-4.47558,2.40052 -7.20603,7.00714 -9.00374,11.68639c0.16524,-3.39948 0.04933,-6.81781 -0.63834,-10.10846c-0.49456,-2.37049 -1.42733,-4.95654 -3.42724,-6.47557c-2.21213,-1.67962 -4.49274,-1.59176 -6.53695,-0.61023c0.26196,-1.16007 0.52326,-2.32404 0.80677,-3.47969c1.73632,-7.08191 3.8669,-14.10655 6.59773,-20.87044z" data-paper-data="{&quot;noHover&quot;:false,&quot;origItem&quot;:[&quot;Path&quot;,{&quot;applyMatrix&quot;:true,&quot;segments&quot;:[[[671.91,437.44826],[22.866,17.588],[-38.0707,11.28166]],[[556.90648,473.96756],[-25.13176,17.8021],[2.778,4.634]],[[563.77048,488.63956],[-1.864,-5.016],[4.928,13.268]],[[571.42848,530.25556],[-0.424,-14.114],[0.292,9.774]],[[569.67048,559.46356],[1.354,-9.678],[-0.622,4.44]],[[567.83048,572.79956],[0.132,-4.486],[0.428,-1.112]],[[569.17048,569.49556],[-0.48,1.084],[3.064,-6.912]],[[586.44848,556.52556],[-8.546,-1.536],[7.984,1.436]],[[600.83248,573.15756],[-2.358,-6.918],[3.998,11.722]],[[606.45248,610.37356],[-0.27,-12.448],[0.256,0.076]],[[607.22648,610.58956],[-0.258,-0.074],[0.498,-6.732]],[[610.60848,590.62956],[-1.694,6.462],[3.14,-11.984]],[[629.74648,559.00156],[-10.464,7.286],[10.962,-7.632]],[[667.18248,560.18956],[-10.338,-8.59],[7.812,6.492]],[[680.16848,586.67956],[-1.654,-9.888],[1.034,-6.728]],[[685.44048,567.14156],[-2.662,6.174],[1.916,-4.448]],[[694.73248,555.83756],[-4.526,2.178],[5.006,-2.408]],[[707.78448,557.25756],[-3.614,-2.74],[-0.05,-2.378]],[[707.59048,550.12356],[0.094,2.378],[-0.574,-14.572]],[[702.99448,506.64356],[2.65,14.346],[-5.034,-27.26]]],&quot;closed&quot;:true,&quot;fillColor&quot;:[0,0,0,1]}]}" fill="#67d440" stroke-width="0.5"/></g><path d="M160.19333,282.71747c6.78706,1.38333 11.11577,8.26146 9.66839,15.36275c-1.44739,7.10132 -8.12273,11.73662 -14.9098,10.35326c-6.78706,-1.38333 -11.11578,-8.26147 -9.6684,-15.36275c1.44739,-7.10132 8.12273,-11.73662 14.90981,-10.35326z" data-paper-data="{&quot;index&quot;:null}" fill="#000000" stroke="#000000" stroke-width="0.5" stroke-linecap="butt"/><path d="M127.30864,276.01492c6.72424,1.37054 10.98123,8.34018 9.50825,15.56718c-1.47298,7.22693 -8.11815,11.97455 -14.84241,10.60404c-6.72419,-1.37053 -10.98119,-8.34014 -9.50823,-15.56715c1.473,-7.22698 8.11815,-11.9746 14.84238,-10.60409z" data-paper-data="{&quot;index&quot;:null}" fill="#000000" stroke="#000000" stroke-width="0.5" stroke-linecap="butt"/><path d="M113.1723,288.0114c-7.11924,-1.24901 4.0313,-8.953 4.0313,-8.953l7.65057,1.83088c0,0 6.66328,10.14271 1.99222,9.90917c-3.39625,-0.16979 -8.30886,-1.84571 -13.67406,-2.78705z" data-paper-data="{&quot;index&quot;:null}" fill="#1fba00" stroke="#1fba00" stroke-width="0.5" stroke-linecap="round"/><path d="M113.26289,288.06046c-15.79737,-3.31707 1.54829,-45.83085 1.54829,-45.83085l70.17005,13.23926c0,0 1.89497,47.65952 -18.76087,43.38528c-52.32925,-10.82828 -11.34372,-2.05584 -52.95746,-10.79369z" data-paper-data="{&quot;index&quot;:null}" fill="#ff0000" stroke="#000000" stroke-width="3.5" stroke-linecap="butt"/><path d="M120.7355,287.36677c0,0 -2.25152,-6.48408 -1.24116,-9.71614c1.01035,-3.23205 5.54149,-3.40478 6.44824,-6.94083c0.90668,-3.53609 -4.60166,-2.88848 -0.93706,-8.24474c3.66461,-5.35632 13.30777,-9.97229 13.30777,-9.97229c0,0 2.86569,2.62647 3.60771,7.98371c0.74204,5.35726 -7.64498,6.4729 -8.43558,10.76397c-0.79059,4.29101 -5.59542,3.78497 -6.29801,8.17952c-0.70258,4.39454 3.3676,10.14954 3.3676,10.14954z" data-paper-data="{&quot;index&quot;:null}" fill="#eac100" stroke="#000000" stroke-width="0" stroke-linecap="round"/><path d="M152.38394,293.72838c0,0 -2.25151,-6.48407 -1.24116,-9.71614c1.0103,-3.23207 5.54146,-3.40473 6.44819,-6.94081c0.90675,-3.53607 -4.60162,-2.88849 -0.93701,-8.24476c3.66461,-5.35627 13.30776,-9.9723 13.30776,-9.9723c0,0 2.86569,2.62647 3.60771,7.98371c0.74203,5.35729 -7.645,6.47295 -8.4356,10.76401c-0.79059,4.29105 -5.59542,3.78497 -6.29801,8.17952c-0.70258,4.39454 3.3676,10.14955 3.3676,10.14955z" data-paper-data="{&quot;index&quot;:null}" fill="#eac100" stroke="#eac100" stroke-width="0" stroke-linecap="round"/></g><g><g stroke="none" stroke-linecap="butt"><path d="M344.37624,206.36856c-7.3864,-0.37653 0.17579,-0.1731 0.21355,-0.11105c8.15064,13.38923 8.23947,30.51038 6.4291,45.59061c-0.8887,7.40685 -2.30183,14.73866 -4.12687,21.96966c-0.74068,2.93219 -1.46347,5.91368 -2.44145,8.77722c-1.48747,4.35456 -4.43605,8.09168 -8.36472,10.50049c-4.37413,2.68098 -9.44844,3.02575 -14.45642,3.18435c-5.35576,0.17014 -10.74005,-0.23045 -16.00021,-1.26556c-8.28108,-1.62971 -16.25951,-4.97961 -23.13176,-9.8918c-2.77556,-1.98442 -5.57988,-4.18253 -7.87039,-6.72665c-3.08053,-3.422 -4.87503,-7.86336 -5.02373,-12.46709c-0.0748,-2.32527 0.28104,-4.71652 1.05622,-6.91074c0.9084,-2.56851 2.24365,-4.98356 3.25119,-7.51623c1.78554,-4.486 3.21306,-9.11951 4.1726,-13.85331c0.75928,-3.74497 1.20404,-7.54095 1.28173,-11.36158c0.03097,-1.55582 0.00358,-3.11381 -0.09138,-4.66704c-0.0456,-0.74301 -0.10531,-1.48356 -0.18177,-2.22343c-0.03179,-0.31078 -0.06699,-0.62038 -0.10439,-0.92953c-0.01331,-0.10502 -0.07183,-0.54816 -0.07969,-0.61548c-0.25919,-1.81767 -0.62337,-3.62616 -1.13158,-5.39138c-0.07736,-0.26808 66.68491,-5.82452 66.60001,-6.0915zM284.41049,281.93656c0.32572,-1.51218 0.62342,-3.03186 0.87632,-4.55419c0.63896,-3.84857 1.07746,-7.79528 0.84754,-11.70437c-0.08721,-1.47769 -0.38965,-3.45496 -0.85386,-4.57178c-0.16244,-0.39124 -0.36638,-0.76667 -0.5939,-1.12357c-0.01396,-0.02134 -0.14768,-0.19475 -0.19133,-0.25613c-0.08353,-0.09791 -0.16681,-0.19678 -0.25927,-0.28465c-0.27899,-0.26508 -0.74013,-0.56127 -1.20588,-0.70859c-0.48411,-0.15222 -0.83958,-0.11583 -1.60215,0.1771c0.16745,-0.06496 -0.55741,0.29604 -0.72967,0.40213c-0.3215,0.19972 -0.41407,0.2671 -0.59422,0.41044c-1.37668,1.0914 -2.43619,2.44048 -3.38169,3.82004c-1.12489,1.64007 -2.13778,3.3877 -2.99558,5.19029c1.32222,5.70423 5.90278,9.90002 10.68367,13.20329zM310.6599,292.05757c3.20206,0.40499 6.43621,0.5546 9.66734,0.50259c1.08046,-3.01833 1.83547,-6.20547 2.26052,-9.35872c0.63132,-4.68701 0.4773,-10.71856 -2.87058,-14.36009c-3.79476,-4.12644 -10.41003,-4.65026 -15.08503,-1.94725c-4.68699,2.70911 -7.87279,7.60424 -10.30157,12.42856c-0.54152,1.07664 -1.04359,2.17212 -1.52156,3.2782c-0.02575,0.06141 -0.08454,0.19994 -0.11028,0.26136c-0.04854,0.11952 -0.09828,0.23975 -0.14706,0.36024c-0.0786,0.19325 -0.15622,0.38678 -0.23217,0.58177c-0.16396,0.41576 -0.32215,0.83305 -0.47575,1.2526c-0.13431,0.36675 -0.26501,0.73551 -0.39281,1.10503c5.99498,3.06378 12.51388,5.04724 19.20896,5.89572zM337.91133,286.68755c2.36197,-2.70874 3.25708,-6.052 4.19035,-9.42956c-0.32599,-1.57571 -0.87463,-3.65812 -2.38693,-4.30477c-0.38445,-0.16493 -0.73716,-0.16197 -1.143,-0.16178c-0.46913,0.00082 -0.12103,-0.03134 -0.5985,0.10909c-0.12235,0.03559 -0.24354,0.07461 -0.36288,0.11826c-0.02442,0.01004 -0.04885,0.02005 -0.06179,0.02591c-0.24055,0.11372 -0.47145,0.24553 -0.69668,0.38718c-0.7335,0.45908 -1.49393,1.21634 -2.20802,2.05949c-0.71529,0.84385 -1.38437,1.85947 -1.99917,2.8772c-1.35896,2.24823 -2.49825,4.65045 -3.49568,7.07198c-0.91058,2.21287 -1.74387,4.47332 -2.47186,6.76195c0.14677,-0.01458 0.29317,-0.02407 0.43895,-0.03891c4.20915,-0.42294 8.00281,-2.27267 10.79514,-5.47601zM341.72953,209.04039c-19.84642,0.53164 -74.70587,8.13697 -60.26701,2.78443c0.74325,2.5972 1.16782,5.30996 1.42027,7.97363c0.66651,7.04537 -0.0583,14.21863 -1.67665,21.09083c-1.12149,4.75883 -2.71791,9.38131 -4.62202,13.88114c-0.87395,2.06428 -1.96819,4.05416 -2.61142,6.20397c0.35038,-0.48185 0.70218,-0.96122 1.07404,-1.42282c2.37285,-2.94288 6.09157,-5.87885 10.02111,-4.033c3.671,1.72494 4.55409,6.24555 4.79944,9.89171c0.41697,6.17846 -0.61516,12.65467 -2.09269,18.70225c0.11383,0.06978 0.2309,0.13524 0.34597,0.20432c1.11015,-3.18742 2.55894,-6.30184 4.21188,-9.20433c3.06471,-5.38298 7.3341,-10.63737 13.32963,-12.80504c6.28079,-2.27045 14.04516,-0.07502 17.92911,5.40955c2.9348,4.14492 3.32912,9.48298 2.8508,14.47281c1.36853,-3.11625 2.98696,-6.11802 5.07029,-8.75636c1.50004,-1.901 3.48095,-3.79245 5.94845,-4.25987c2.72908,-0.51648 4.72931,0.58153 6.12103,2.37186c0.28303,-1.1551 0.56602,-2.31018 0.82781,-3.47096c1.60504,-7.11281 2.82335,-14.32385 3.39645,-21.59567c1.0897,-13.81754 2.69653,-25.98928 -6.07647,-37.43841z" data-paper-data="{&quot;index&quot;:null}" fill="#152345" stroke-width="1"/><path d="M327.08387,292.20176c-0.14579,0.01484 -0.29317,0.02352 -0.4399,0.0381c0.72797,-2.28862 1.54848,-4.56687 2.45906,-6.77974c0.99746,-2.42153 2.16127,-4.88852 3.52025,-7.13674c0.61479,-1.01772 1.30398,-2.03816 2.01926,-2.88201c0.71407,-0.84315 1.48613,-1.59932 2.21961,-2.05845c0.22523,-0.14161 0.45896,-0.27276 0.6995,-0.38649c0.01293,-0.00584 0.03762,-0.01582 0.06204,-0.02585c0.11933,-0.04365 0.24199,-0.08225 0.36432,-0.11785c0.47748,-0.1404 0.13171,-0.10747 0.60083,-0.10829c0.40583,-0.00016 0.76323,-0.00116 1.14769,0.16376c1.51227,0.64665 2.07831,2.74301 2.40432,4.31872c-0.93328,3.37757 -1.83554,6.7903 -4.19751,9.49905c-2.79238,3.20336 -6.65027,5.05284 -10.85942,5.47578z" data-paper-data="{&quot;noHover&quot;:false,&quot;origItem&quot;:[&quot;Path&quot;,{&quot;applyMatrix&quot;:true,&quot;segments&quot;:[[[704.65248,589.44356],[-3.74,7.632],[3.164,-6.454]],[[707.87648,569.05956],[-0.058,7.008],[-1.444,-2.876]],[[701.04048,561.97556],[3.256,0.468],[-0.828,-0.12]],[[698.74848,562.25356],[0.784,-0.21],[-0.906,0.244]],[[697.64848,562.77356],[0.85,-0.518],[-0.218,0.132]],[[697.00848,563.18956],[0.208,-0.146],[-0.042,0.032]],[[696.90248,563.27156],[0.022,-0.018],[-0.406,0.344]],[[695.75648,564.37956],[0.362,-0.39],[-1.18,1.266]],[[692.55448,569.49956],[0.944,-1.998],[-0.946,2]],[[690.17848,576.09156],[0.662,-2.284],[-1.464,5.046]],[[687.07848,591.56156],[0.676,-5.194],[-0.616,4.746]],[[685.79648,605.90356],[0.224,-4.798],[0.276,-0.104]],[[686.62448,605.60156],[-0.274,0.104],[7.914,-2.992]]],&quot;closed&quot;:true,&quot;fillColor&quot;:[0,0,0,1]}]}" fill="#67d440" stroke-width="0.5"/><path d="M291.40541,286.18258c0.1278,-0.36955 0.25763,-0.7404 0.39193,-1.10714c0.15361,-0.41955 0.31083,-0.83948 0.47478,-1.25523c0.07596,-0.19499 0.15317,-0.38984 0.23176,-0.5831c0.04878,-0.12048 0.09828,-0.24157 0.14681,-0.36107c0.02575,-0.06141 0.08435,-0.20059 0.11009,-0.26203c0.47798,-1.10607 0.97841,-2.21086 1.51994,-3.2875c2.42881,-4.82432 5.64656,-9.77003 10.33355,-12.47913c4.67502,-2.70298 11.34591,-2.16529 15.14065,1.96117c3.34786,3.64152 3.51106,9.72313 2.87974,14.41014c-0.42504,3.15325 -1.19596,6.36232 -2.2764,9.38066c-3.23114,0.05202 -6.49019,-0.08717 -9.69227,-0.49217c-6.69508,-0.84844 -13.26558,-2.8608 -19.26057,-5.9246z" data-paper-data="{&quot;noHover&quot;:false,&quot;origItem&quot;:[&quot;Path&quot;,{&quot;applyMatrix&quot;:true,&quot;segments&quot;:[[[654.7745,613.89956],[-13.374,1.82],[6.396,-0.872]],[[673.7125,609.87556],[-6.216,1.77],[0.528,-6.39]],[[673.2445,590.62556],[0.808,6.312],[-1.202,-9.382]],[[660.2785,564.36356],[8.35,5.306],[-9.464,-6.012]],[[630.1265,568.39556],[7.636,-7.638],[-7.656,7.656]],[[616.6445,597.73156],[2.2,-10.576],[-0.49,2.36]],[[615.3985,604.85156],[0.352,-2.384],[-0.018,0.132]],[[615.3205,605.41356],[0.018,-0.132],[-0.032,0.256]],[[615.2225,606.18556],[0.032,-0.258],[-0.052,0.414]],[[615.0745,607.42956],[0.046,-0.416],[-0.102,0.888]],[[614.8025,610.09556],[0.08,-0.89],[-0.07,0.778]],[[614.6145,612.43356],[0.056,-0.78],[13.166,2.822]]],&quot;closed&quot;:true,&quot;fillColor&quot;:[0,0,0,1]}]}" fill="#67d440" stroke-width="0.5"/><path d="M273.67716,268.7277c0.85779,-1.80257 1.893,-3.58649 3.0179,-5.22655c0.94551,-1.37957 2.02972,-2.73674 3.40642,-3.82813c0.18015,-0.14333 0.27569,-0.21078 0.59722,-0.41051c0.17227,-0.1061 0.90054,-0.46694 0.7331,-0.402c0.76255,-0.29293 1.12516,-0.32828 1.60925,-0.17606c0.46575,0.14733 0.93287,0.44525 1.21184,0.71033c0.09244,0.08787 0.17722,0.18732 0.26078,0.28521c0.04364,0.06136 0.17857,0.2353 0.19254,0.25663c0.22751,0.3569 0.43607,0.73457 0.59851,1.12581c0.46424,1.11687 0.78349,3.1093 0.87071,4.587c0.22991,3.9091 -0.22419,7.92736 -0.86315,11.77596c-0.25286,1.52235 -0.56149,3.04682 -0.88723,4.55902c-4.78089,-3.30325 -9.4257,-7.55248 -10.74792,-13.25671z" data-paper-data="{&quot;noHover&quot;:false,&quot;origItem&quot;:[&quot;Path&quot;,{&quot;applyMatrix&quot;:true,&quot;segments&quot;:[[[598.82848,607.90756],[-10.944,-3.912],[-0.152,-3.09]],[[598.16848,598.65556],[0.298,3.072],[-0.754,-7.766]],[[593.75848,575.60356],[2.464,7.434],[-0.932,-2.81]],[[589.74648,567.21156],[1.474,1.918],[-0.516,-0.672]],[[588.01848,565.34756],[0.624,0.572],[-0.038,-0.034]],[[587.51648,564.95156],[0.116,0.096],[-0.212,-0.146]],[[586.86848,564.53556],[0.224,0.122],[-0.676,-0.368]],[[584.17248,563.78956],[0.976,0.044],[-1.014,-0.044]],[[581.16848,564.95956],[1.322,-0.96],[0.29,-0.212]],[[579.96648,566.11356],[0.278,-0.294],[-0.518,0.552]],[[579.03048,567.21356],[0.274,-0.37],[-2.096,2.82]],[[574.47048,576.34156],[1.114,-3.154],[-1.326,3.75]],[[571.36448,587.91756],[0.726,-3.926],[5.502,10.338]]],&quot;closed&quot;:true,&quot;fillColor&quot;:[0,0,0,1]}]}" fill="#67d440" stroke-width="0.5"/><path d="M347.85598,246.48015c-0.57307,7.2718 -1.79976,14.50924 -3.40481,21.62204c-0.26176,1.16077 -0.54712,2.3191 -0.83015,3.47418c-1.39173,-1.79032 -3.39367,-2.88627 -6.12276,-2.36978c-2.4675,0.46738 -4.45593,2.36582 -5.95595,4.26682c-2.08332,2.63834 -3.71189,5.64603 -5.08043,8.76229c0.47833,-4.98981 0.08949,-10.33069 -2.84533,-14.47558c-3.88393,-5.48458 -11.68752,-7.67501 -17.96829,-5.40455c-5.99554,2.16767 -10.27727,7.41663 -13.34198,12.79961c-1.65296,2.90249 -3.05065,5.93098 -4.1608,9.11841c-0.11507,-0.06907 -0.28242,-0.0481 -0.39627,-0.11787c1.47753,-6.0476 2.49905,-12.53213 2.08207,-18.71061c-0.24536,-3.64618 -1.139,-8.18315 -4.80999,-9.9081c-3.92955,-1.84584 -7.5553,1.05333 -9.9281,3.99621c-0.37186,0.46159 -0.81618,0.97895 -1.16654,1.46077c0.64322,-2.14981 1.73525,-4.14599 2.60923,-6.21029c1.90416,-4.49983 3.49939,-9.1433 4.62088,-13.90212c1.61836,-6.8722 2.35593,-14.07179 1.68944,-21.11713c-0.25243,-2.66363 -0.67307,-5.38022 -1.41631,-7.97742c-14.43886,5.35254 40.48579,-2.25291 60.33222,-2.78453c8.77299,11.44914 7.18361,23.66018 6.09391,37.47771z" data-paper-data="{&quot;noHover&quot;:false,&quot;origItem&quot;:[&quot;Path&quot;,{&quot;applyMatrix&quot;:true,&quot;segments&quot;:[[[671.91,437.44826],[22.866,17.588],[-38.0707,11.28166]],[[556.90648,473.96756],[-25.13176,17.8021],[2.778,4.634]],[[563.77048,488.63956],[-1.864,-5.016],[4.928,13.268]],[[571.42848,530.25556],[-0.424,-14.114],[0.292,9.774]],[[569.67048,559.46356],[1.354,-9.678],[-0.622,4.44]],[[567.83048,572.79956],[0.132,-4.486],[0.428,-1.112]],[[569.17048,569.49556],[-0.48,1.084],[3.064,-6.912]],[[586.44848,556.52556],[-8.546,-1.536],[7.984,1.436]],[[600.83248,573.15756],[-2.358,-6.918],[3.998,11.722]],[[606.45248,610.37356],[-0.27,-12.448],[0.256,0.076]],[[607.22648,610.58956],[-0.258,-0.074],[0.498,-6.732]],[[610.60848,590.62956],[-1.694,6.462],[3.14,-11.984]],[[629.74648,559.00156],[-10.464,7.286],[10.962,-7.632]],[[667.18248,560.18956],[-10.338,-8.59],[7.812,6.492]],[[680.16848,586.67956],[-1.654,-9.888],[1.034,-6.728]],[[685.44048,567.14156],[-2.662,6.174],[1.916,-4.448]],[[694.73248,555.83756],[-4.526,2.178],[5.006,-2.408]],[[707.78448,557.25756],[-3.614,-2.74],[-0.05,-2.378]],[[707.59048,550.12356],[0.094,2.378],[-0.574,-14.572]],[[702.99448,506.64356],[2.65,14.346],[-5.034,-27.26]]],&quot;closed&quot;:true,&quot;fillColor&quot;:[0,0,0,1]}]}" fill="#67d440" stroke-width="0.5"/></g><path d="M297.9736,292.66246c-1.87231,7.00128 -8.81465,11.22627 -15.50611,9.43681c-6.69146,-1.78947 -10.59817,-8.91575 -8.72585,-15.91703c1.87231,-7.00128 8.81465,-11.22627 15.5061,-9.43681c6.69146,1.78947 10.59818,8.91575 8.72586,15.91701z" fill="#000000" stroke="#000000" stroke-width="0.5" stroke-linecap="butt"/><path d="M330.22287,301.52711c-1.90546,7.12518 -8.8244,11.46405 -15.45391,9.69117c-6.62952,-1.77288 -10.45916,-8.98625 -8.55372,-16.11136c1.90546,-7.12518 8.82441,-11.46409 15.45396,-9.69117c6.62952,1.77288 10.4591,8.98622 8.55368,16.1114z" fill="#000000" stroke="#000000" stroke-width="0.5" stroke-linecap="butt"/><path d="M315.48843,298.85308c-4.28477,-1.87463 6.20324,-7.98001 6.20324,-7.98001l7.66393,1.7741c0,0 6.54317,11.86901 -0.38568,9.81118c-5.22174,-1.55084 -10.36609,-2.24227 -13.48147,-3.60526z" fill="#1fba00" stroke="#1fba00" stroke-width="0.5" stroke-linecap="round"/><path d="M276.65539,288.49919c-20.39353,-5.38857 2.56209,-47.1984 2.56209,-47.1984l68.70761,19.45192c0,0 -3.43999,45.78709 -19.05823,41.70908c-41.14185,-10.74243 -0.54682,-0.31118 -52.21148,-13.96262z" fill="#ff0000" stroke="#000000" stroke-width="3.5" stroke-linecap="butt"/><path d="M312.71732,296.09879c0,0 6.20994,-3.3351 7.54145,-7.5816c1.3315,-4.24649 -3.19457,-5.93691 -1.98801,-10.13001c1.20658,-4.19314 -5.80213,-8.9329 -2.74829,-13.3966c3.05384,-4.46372 6.79022,-5.53609 6.79022,-5.53609c0,0 6.5715,8.43284 7.462,14.86144c0.89052,6.42851 -3.75057,3.39182 -4.51643,6.96103c-0.76584,3.56923 3.2125,5.74506 2.67505,9.08844c-0.53746,3.34336 -5.44493,8.14226 -5.44493,8.14226z" data-paper-data="{&quot;index&quot;:null}" fill="#eac100" stroke="#000000" stroke-width="0" stroke-linecap="round"/><path d="M281.55432,287.67496c0,0 6.20994,-3.3351 7.54146,-7.58161c1.3315,-4.24649 -3.19458,-5.93685 -1.98801,-10.13001c1.20658,-4.19314 -5.80213,-8.9329 -2.74826,-13.39663c3.05384,-4.46372 6.79022,-5.53609 6.79022,-5.53609c0,0 6.5715,8.4329 7.462,14.86144c0.89052,6.42851 -3.75057,3.39181 -4.51639,6.96105c-0.76584,3.56923 3.21253,5.74502 2.67501,9.08838c-0.53746,3.34336 -5.44493,8.14226 -5.44493,8.14226z" data-paper-data="{&quot;index&quot;:null}" fill="#eac100" stroke="#eac100" stroke-width="0" stroke-linecap="round"/></g><path d="M25.07996,125.319c2.682,-1.246 5.838,-1.188 8.716,-0.879c3.508,0.377 6.96,1.154 10.355,2.102c4.923,1.374 9.78,3.073 14.498,5.046c0.01,0 0.014,0.001 0.025,0.001c0.435,0.027 0.867,0.064 1.303,0.076c1.696,0.049 3.397,-0.059 5.083,-0.248c0.272,-0.031 0.544,-0.064 0.816,-0.099c0.007,-0.001 0.008,-0.001 0.015,-0.002c0.017,-0.002 0.028,-0.004 0.055,-0.008c0.171,-0.024 0.342,-0.049 0.513,-0.075c0.681,-0.103 1.36,-0.219 2.037,-0.347c1.506,-0.284 3.002,-0.627 4.484,-1.017c3.84,-1.01 7.603,-2.327 11.261,-3.867c11.009,-4.634 21.211,-11.157 30.702,-18.358c6.736,-5.111 13.135,-10.671 19.278,-16.479c7.479,-7.071 14.203,-14.844 21.539,-22.044c11.792,-11.573 26.18,-21.338 42.656,-24.467c13.16,-2.499 26.603,-0.538 38.936,4.495c12.208,4.982 23.184,12.43 33.379,20.711c9.121,7.409 17.548,15.587 26.102,23.628c5.648,5.31 11.56,10.19 18.125,14.34c6.705,4.238 13.839,7.807 21.226,10.693c8.374,3.273 17.094,5.789 25.965,7.322c-2.787,-4.772 -4.837,-9.965 -5.791,-15.386c-1.654,-9.397 0.301,-18.938 5.559,-26.915c12.051,-18.286 36.109,-25.474 57.022,-22.716c19.706,2.599 40.821,15.096 44.889,35.988c0.442,2.268 0.672,4.577 0.683,6.887c-0.079,18.084 -12.466,34.452 -27.889,43.325c-0.522,2.206 -1.242,4.381 -1.995,6.512c-2.145,6.065 -4.87,11.941 -8.103,17.502c-4.408,7.581 -9.808,14.633 -16.097,20.751c-7.644,7.436 -16.619,13.487 -26.411,17.715c-12.268,5.297 -25.511,7.818 -38.841,8.184c-1.773,0.049 -6.267,0.699 -6.749,1.02c-0.002,0.001 -0.005,0.003 -0.007,0.004c1.55269,1.29673 -12.7423,5.56049 -27.35812,13.5223c-25.42302,13.84893 -66.65672,15.15351 -71.66288,15.2897c-16.472,0.447 -37.75569,-2.81909 -49.136,-4.501c-11.38031,-1.68191 -62.03898,-23.77348 -61.514,-24.205c-13.474,-8.075 -26.083,-17.721 -37.084,-28.941c-9.758,-9.952 -18.227,-21.168 -25.007,-33.341c-9.322,1.603 -18.897,0.675 -27.512,-3.403c-6.427,-3.042 -12.611,-7.995 -15.926,-14.405c-2.18,-4.212 -3.477,-10.932 1.861,-13.411zM60.95696,135.445c3.914,10.247 8.958,20.036 15.006,29.171c3.504,-1.917 7.008,-3.835 10.512,-5.752c-3.286,-4.637 -6.281,-9.481 -8.927,-14.521c-1.801,-3.431 -3.421,-6.95 -4.909,-10.527c-1.284,0.308 -2.573,0.592 -3.874,0.82c-2.543,0.446 -5.191,0.815 -7.808,0.809zM123.98996,105.225c-10.192,8.404 -21.132,16.087 -33.057,21.84c-4.718,2.276 -9.621,4.285 -14.664,5.778c6.476,15.432 16.105,29.383 27.923,41.215c11.139,11.152 24.057,20.401 37.881,27.932c3.835,2.089 7.752,4.043 11.725,5.882c0.122,-3.168 0.468,-5.75 1.686,-9.547c1.589,-4.954 9.735,-29.705 9.735,-29.705c0,0 8.084,-24.772 9.736,-29.706c1.266,-3.782 2.516,-6.069 4.294,-8.696l-0.327,-0.377c-7.308,-8.411 -17.803,-20.491 -21.357,-24.582c-6.209,-7.185 -9.513,-11.867 -13.683,-18.296c-6.337,6.396 -12.944,12.533 -19.892,18.262zM171.69696,234.206c10.231,3.281 20.716,5.727 31.329,7.337l2.305,-14.46c0.01,-0.065 0.021,-0.131 0.031,-0.196c-2.905,-0.365 -5.807,-0.799 -8.705,-1.323c-16.415,-2.964 -32.316,-8.476 -47.345,-15.671c-6.034,-2.888 -11.916,-6.102 -17.615,-9.609c-2.56,3.572 -5.121,7.143 -7.681,10.715l-0.218,0.304c14.848,9.75 30.983,17.477 47.899,22.903zM251.72296,130.517h-0.032c-19.93,-0.007 -37,-0.014 -37,-0.014c0,0 -14.659,0.005 -34.287,0.012h-0.052c-0.119,3.198 -0.463,5.79 -1.689,9.613c-1.59,4.954 -9.736,29.706 -9.736,29.706c0,0 -8.084,24.771 -9.736,29.705c-1.283,3.835 -2.548,6.132 -4.366,8.804c8.91,4.063 18.126,7.483 27.539,10.106c21.424,5.969 43.604,7.297 65.68,5.078c9.698,-0.975 19.372,-2.473 28.893,-4.619c-1.819,-3.103 -3.081,-5.744 -4.351,-10.095c-1.631,-5.592 -9.611,-33.65 -9.611,-33.65c0,0 -8.043,-28.041 -9.611,-33.65c-1.234,-4.417 -1.552,-7.341 -1.641,-10.996zM245.38296,57.071c-11.436,-6.162 -24.152,-10.212 -37.252,-9.761c-15.696,0.54 -30.166,7.722 -42.108,17.589c-7.93,6.551 -14.558,14.382 -21.761,21.682c5.802,5.035 9.984,8.958 16.246,16.119c3.465,3.982 13.511,15.527 20.789,23.892c19.176,0.007 33.393,0.012 33.393,0.012c0,0 16.617,-0.006 36.202,-0.013c7.799,-7.594 17.34,-16.885 20.814,-20.268c6.825,-6.613 11.314,-10.178 17.501,-14.71c-4.113,-3.931 -8.185,-7.907 -12.417,-11.671c-9.684,-8.616 -19.963,-16.705 -31.407,-22.871zM345.39896,125.683c-14.979,-4.564 -29.28,-11.539 -41.652,-21.184c-4.96,-3.867 -9.585,-8.158 -14.152,-12.517c-4.695,6.076 -8.374,10.473 -15.166,17.132c-3.556,3.469 -13.478,13.148 -21.368,20.844l-0.333,0.325c1.839,3.13 3.109,5.777 4.386,10.158c1.631,5.592 9.611,33.65 9.611,33.65c0,0 8.043,28.04 9.611,33.65c1.228,4.393 1.548,7.31 1.64,10.937c6.511,-1.503 12.95,-3.308 19.264,-5.497c11.883,-4.119 23.328,-9.632 33.62,-16.894c7.898,-5.573 15.055,-12.243 21.011,-19.867c4.468,-5.719 8.4,-12.37 11.337,-19.187c0.124,-0.287 0.096,-0.225 0.098,-0.229c0.073,-0.174 0.145,-0.348 0.217,-0.522c0.161,-0.392 0.319,-0.786 0.475,-1.18c0.281,-0.715 0.553,-1.435 0.814,-2.158c0.487,-1.346 0.939,-2.705 1.354,-4.075c0.693,-2.285 1.285,-4.602 1.759,-6.943c0.189,-0.935 0.36,-1.874 0.509,-2.817c0.062,-0.391 0.118,-0.783 0.174,-1.174c0.003,-0.019 0.004,-0.023 0.005,-0.035c0.003,-0.03 0.006,-0.051 0.011,-0.095c0.021,-0.172 0.043,-0.344 0.063,-0.516c0.093,-0.796 0.153,-1.593 0.21,-2.391c-1.424,-1.598 -2.767,-3.285 -4.018,-5.041c-6.593,-0.782 -13.154,-2.447 -19.48,-4.374zM371.69696,178.224c0.747,-1.332 1.476,-2.675 2.161,-4.041c3.013,-6.004 5.387,-12.292 7.019,-18.885c0.525,-2.118 0.969,-4.258 1.304,-6.414c0.049,-0.312 0.093,-0.625 0.137,-0.937c0.009,-0.079 0.082,-0.637 0.102,-0.811c0.028,-0.244 0.048,-0.488 0.071,-0.732c-3.669,-2.216 -7.09,-4.844 -10.188,-7.794c-0.084,0.597 -0.171,1.195 -0.265,1.785c-0.773,4.833 -2.075,9.583 -3.765,14.174c-2.113,5.744 -4.828,11.258 -8.074,16.443c3.765,2.361 7.529,4.723 11.294,7.085c0.068,0.041 0.136,0.084 0.204,0.127zM460.21396,109.762c0.368,-2 0.538,-4.024 0.547,-6.057c-0.09,-19.437 -17.214,-33.127 -34.681,-37.693c-19.508,-5.1 -42.896,-0.75 -56.973,14.413c-5.918,6.375 -9.664,14.655 -9.626,23.428c0.039,9.007 3.773,17.674 9.031,24.85c12.067,16.471 33.33,25.481 53.4,20.35c18.331,-4.685 34.816,-20.359 38.302,-39.291zM378.82196,207.602c9.81,-3.718 18.919,-9.287 26.691,-16.333c6.549,-5.937 11.955,-12.584 16.541,-20.056c1.877,-3.058 3.59,-6.215 5.135,-9.453c0.354,-0.742 0.699,-1.488 1.035,-2.238c0.141,-0.315 0.28,-0.63 0.418,-0.946c0.077,-0.177 0.153,-0.354 0.23,-0.531c0.054,-0.124 0.092,-0.215 0.117,-0.273c0.521,-1.242 1.019,-2.494 1.489,-3.757c0.565,-1.516 1.043,-3.048 1.5,-4.586c-0.655,0.302 -1.313,0.594 -1.974,0.868c-10.316,4.272 -21.845,5.14 -32.671,2.373c-3.912,-1 -7.702,-2.455 -11.299,-4.294c-0.199,1.507 -0.472,3.008 -0.769,4.484c-1.25,6.222 -3.266,12.264 -5.777,18.086c-3.652,8.466 -8.519,16.351 -14.278,23.543c-5.845,7.299 -12.659,13.775 -20.091,19.439c11.491,-0.33 22.913,-2.237 33.703,-6.326zM357.51796,197.684c4.62,-4.99 8.737,-10.43 12.281,-16.225c-3.775,-2.368 -7.55,-4.736 -11.325,-7.104c-0.109,-0.068 -0.218,-0.137 -0.327,-0.205c-5.331,7.761 -11.815,14.691 -19.122,20.623c-9.539,7.744 -20.265,13.792 -31.585,18.519c-4.097,1.711 -8.269,3.224 -12.488,4.594c1.988,4.623 3.977,9.246 5.965,13.869c0.125,0.29 0.249,0.58 0.374,0.87c9.282,-3.201 18.304,-7.138 26.851,-11.986c10.861,-6.161 20.882,-13.78 29.376,-22.955zM281.53596,238.305c5.455,-1.282 10.871,-2.775 16.211,-4.499c-1.99,-4.627 -3.98,-9.254 -5.97,-13.881c-0.132,-0.306 -0.263,-0.611 -0.395,-0.917c-9.801,2.954 -19.857,5.087 -29.969,6.6c-17.403,2.604 -34.918,3.503 -52.344,1.706l-2.323,14.57c-0.01,0.061 -0.02,0.123 -0.029,0.184c6.475,0.861 12.992,1.418 19.524,1.653c18.574,0.669 37.204,-1.164 55.295,-5.416zM120.70196,209.212c2.507,-3.498 5.014,-6.995 7.522,-10.493l0.295,-0.412c-6.536,-4.211 -12.799,-8.844 -18.697,-13.917c-7.805,-6.713 -14.929,-14.245 -21.117,-22.474c-3.542,1.938 -7.083,3.876 -10.625,5.814c2.647,3.786 5.465,7.455 8.458,10.983c9.918,11.685 21.528,21.849 34.164,30.499zM25.07696,132.744c0.001,0.007 0.001,0.01 0.001,0.016c0.023,0.146 0.047,0.292 0.077,0.437c0.051,0.247 0.106,0.492 0.17,0.736c0.154,0.588 0.35,1.166 0.577,1.73c0.014,0.024 0.213,0.482 0.25,0.56c0.127,0.268 0.26,0.533 0.399,0.795c0.342,0.644 0.717,1.27 1.119,1.878c0.791,1.197 1.625,2.224 2.624,3.294c2.372,2.539 5.138,4.654 8.157,6.367c7.988,4.533 17.319,5.84 26.323,4.503c-1.061,-2.031 -2.079,-4.086 -3.044,-6.167c-1.835,-3.953 -3.492,-7.986 -4.997,-12.076c-0.793,-0.32 -1.589,-0.631 -2.387,-0.936c-2.56,-0.975 -5.146,-1.882 -7.759,-2.703c-3.13,-0.985 -6.303,-1.859 -9.527,-2.479c-2.711,-0.521 -5.522,-0.928 -8.345,-0.571c-0.006,0.001 -0.006,0.001 -0.011,0.001c-0.032,0.006 -0.065,0.012 -0.12,0.022c-0.115,0.021 -0.231,0.041 -0.346,0.065c-0.276,0.056 -0.55,0.122 -0.82,0.203c-0.074,0.022 -0.493,0.18 -0.551,0.192c-0.189,0.089 -0.375,0.184 -0.556,0.289c-0.1,0.058 -0.195,0.125 -0.289,0.193c-0.01,0.009 -0.008,0.008 -0.02,0.019c-0.133,0.124 -0.254,0.256 -0.374,0.391c-0.021,0.055 -0.22,0.354 -0.264,0.433c-0.004,0.006 -0.008,0.015 -0.012,0.023c-0.037,0.095 -0.075,0.191 -0.101,0.288c-0.059,0.22 -0.116,0.436 -0.165,0.659c-0.021,0.095 -0.034,0.139 -0.043,0.167c0.002,0.032 0.003,0.079 0.001,0.172c-0.011,0.504 -0.013,0.995 0.033,1.499z" fill="#152345" stroke="none" stroke-width="1" stroke-linecap="butt"/><path d="M68.74886,134.58865c1.301,-0.228 2.60259,-0.51453 3.88659,-0.82253c1.488,3.577 3.14239,7.10657 4.94339,10.53758c2.646,5.04 5.64997,9.95346 8.93597,14.59046c-3.504,1.917 -7.04066,3.85432 -10.54466,5.77132c-6.048,-9.135 -11.13321,-19.01015 -15.04721,-29.25715c2.617,0.006 5.28291,-0.37367 7.82591,-0.81967z" data-paper-data="{&quot;noHover&quot;:false,&quot;origItem&quot;:[&quot;Path&quot;,{&quot;applyMatrix&quot;:true,&quot;segments&quot;:[[[121.91387,270.89],[5.234,0.012],[7.828,20.494]],[[151.92587,329.232],[-12.096,-18.27],[7.008,-3.834]],[[172.94987,317.728],[-7.008,3.834],[-6.572,-9.274]],[[155.09587,288.686],[5.292,10.08],[-3.602,-6.862]],[[145.27787,267.632],[2.976,7.154],[-2.568,0.616]],[[137.52987,269.272],[2.602,-0.456],[-5.086,0.892]]],&quot;closed&quot;:true,&quot;fillColor&quot;:[0,0,0,1]}]}" fill="#55af34" stroke="none" stroke-width="0.5" stroke-linecap="butt"/><path d="M86.49167,178.69408c-2.993,-3.528 -5.80554,-7.20695 -8.45254,-10.99295c3.542,-1.938 7.09757,-3.88968 10.63957,-5.82768c6.188,8.229 13.38747,15.7947 21.19247,22.5077c5.898,5.073 12.15641,9.7374 18.69241,13.94841l-0.2954,0.41279c-2.508,3.498 -5.02958,7.01193 -7.53659,10.50993c-12.636,-8.65 -24.32192,-18.87319 -34.23992,-30.55819z" data-paper-data="{&quot;noHover&quot;:false,&quot;origItem&quot;:[&quot;Path&quot;,{&quot;applyMatrix&quot;:true,&quot;segments&quot;:[[[241.40387,418.424],[-25.272,-17.3],[5.014,-6.996]],[[256.44787,397.438],[-5.016,6.996],[0,0]],[[257.03787,396.614],[0,0],[-13.072,-8.422]],[[219.64387,368.78],[11.796,10.146],[-15.61,-13.426]],[[177.40987,323.832],[12.376,16.458],[-7.084,3.876]],[[156.15987,335.46],[7.084,-3.876],[5.294,7.572]],[[173.07587,357.426],[-5.986,-7.056],[19.836,23.37]]],&quot;closed&quot;:true,&quot;fillColor&quot;:[0,0,0,1]}]}" fill="#55af34" stroke="none" stroke-width="0.5" stroke-linecap="butt"/><path d="M123.74929,211.29153l0.2181,-0.3044c2.56,-3.572 5.12722,-7.1577 7.68722,-10.7297c5.699,3.507 11.58281,6.7183 17.61681,9.6063c15.029,7.195 31.02003,12.74344 47.43503,15.70744c2.898,0.524 5.79999,0.95807 8.70499,1.32307c-0.01,0.065 -0.02104,0.13124 -0.03104,0.19624l-2.31038,14.47616c-10.613,-1.61 -21.11845,-4.03556 -31.34945,-7.31656c-16.916,-5.426 -33.12327,-13.20855 -47.97127,-22.95855z" data-paper-data="{&quot;noHover&quot;:false,&quot;origItem&quot;:[&quot;Path&quot;,{&quot;applyMatrix&quot;:true,&quot;segments&quot;:[[[343.39387,468.412],[-33.832,-10.852],[20.462,6.562]],[[406.05187,483.086],[-21.226,-3.22],[0,0]],[[410.66187,454.166],[0,0],[0.02,-0.13]],[[410.72387,453.774],[-0.02,0.13],[-5.81,-0.73]],[[393.31387,451.128],[5.796,1.048],[-32.83,-5.928]],[[298.62387,419.786],[30.058,14.39],[-12.068,-5.776]],[[263.39387,400.568],[11.398,7.014],[-5.12,7.144]],[[248.03187,421.998],[5.12,-7.144],[0,0]],[[247.59587,422.606],[0,0],[29.696,19.5]]],&quot;closed&quot;:true,&quot;fillColor&quot;:[0,0,0,1]}]}" fill="#55af34" stroke="none" stroke-width="0.5" stroke-linecap="butt"/><path d="M226.19575,243.74238c-6.532,-0.235 -13.05248,-0.802 -19.52748,-1.663c0.009,-0.061 0.01896,-0.12318 0.02896,-0.18418l2.32196,-14.58595c17.426,1.797 35.033,0.87597 52.43599,-1.72803c10.112,-1.513 20.17344,-3.63434 29.97444,-6.58835c0.132,0.306 0.26335,0.61216 0.39535,0.91816c1.99,4.627 3.98192,9.27057 5.97192,13.89757c-5.34,1.724 -10.75725,3.22581 -16.21225,4.50781c-18.091,4.252 -36.81488,6.09496 -55.38888,5.42596z" data-paper-data="{&quot;noHover&quot;:false,&quot;origItem&quot;:[&quot;Path&quot;,{&quot;applyMatrix&quot;:true,&quot;segments&quot;:[[[563.07187,476.61],[-36.182,8.504],[10.91,-2.564]],[[595.49387,467.612],[-10.68,3.448],[-3.98,-9.254]],[[583.55387,439.85],[3.98,9.254],[-0.264,-0.612]],[[582.76387,438.016],[0.264,0.612],[-19.602,5.908]],[[522.82587,451.216],[20.224,-3.026],[-34.806,5.208]],[[418.13787,454.628],[34.852,3.594],[0,0]],[[413.49187,483.768],[0,0],[-0.02,0.122]],[[413.43387,484.136],[0.018,-0.122],[12.95,1.722]],[[452.48187,487.442],[-13.064,-0.47],[37.148,1.338]]],&quot;closed&quot;:true,&quot;fillColor&quot;:[0,0,0,1]}]}" fill="#55af34" stroke="none" stroke-width="0.5" stroke-linecap="butt"/><path d="M328.13004,220.68756c-8.547,4.848 -17.5935,8.7707 -26.8755,11.9717c-0.125,-0.29 -0.24972,-0.58077 -0.37472,-0.87077c-1.988,-4.623 -3.98649,-9.26142 -5.97449,-13.88442c4.219,-1.37 8.39116,-2.8826 12.48816,-4.5936c11.32,-4.727 22.12302,-10.83304 31.66202,-18.57704c7.307,-5.932 13.72739,-12.78491 19.05839,-20.54591c0.109,0.068 0.28449,0.0623 0.39349,0.1303c3.775,2.368 7.55972,4.74791 11.33472,7.1159c-3.544,5.795 -7.65538,11.24922 -12.27538,16.23922c-8.494,9.175 -18.57567,16.85362 -29.43667,23.01462z" data-paper-data="{&quot;noHover&quot;:false,&quot;origItem&quot;:[&quot;Path&quot;,{&quot;applyMatrix&quot;:true,&quot;segments&quot;:[[[715.03587,395.368],[-16.988,18.35],[9.24,-9.98]],[[739.59787,362.918],[-7.088,11.59],[-7.55,-4.736]],[[716.94787,348.71],[7.55,4.736],[-0.218,-0.136]],[[716.29387,348.3],[0.218,0.136],[-10.662,15.522]],[[678.04987,389.546],[14.614,-11.864],[-19.078,15.488]],[[614.87987,426.584],[22.64,-9.454],[-8.194,3.422]],[[589.90387,435.772],[8.438,-2.74],[3.976,9.246]],[[601.83387,463.51],[-3.976,-9.246],[0.25,0.58]],[[602.58187,465.25],[-0.25,-0.58],[18.564,-6.402]],[[656.28387,441.278],[-17.094,9.696],[21.722,-12.322]]],&quot;closed&quot;:true,&quot;fillColor&quot;:[0,0,0,1]}]}" fill="#55af34" stroke="none" stroke-width="0.5" stroke-linecap="butt"/><path d="M371.49333,178.147c-3.765,-2.362 -7.56251,-4.73656 -11.32751,-7.09755c3.246,-5.185 5.96294,-10.77552 8.07594,-16.51952c1.69,-4.591 3.02511,-9.35189 3.79811,-14.18489c0.094,-0.59 0.18149,-1.18797 0.26549,-1.78498c3.098,2.95 6.55059,5.59128 10.21959,7.80729c-0.023,0.244 -0.04198,0.48898 -0.06998,0.73298c-0.02,0.174 -0.09185,0.73316 -0.10085,0.81216c-0.044,0.312 -0.08664,0.62649 -0.13563,0.93849c-0.335,2.156 -0.76902,4.31348 -1.29402,6.43148c-1.632,6.593 -4.04565,12.94592 -7.05865,18.94992c-0.685,1.366 -1.42098,2.70962 -2.16798,4.04162c-0.068,-0.043 -0.13652,-0.08599 -0.20452,-0.12699z" data-paper-data="{&quot;noHover&quot;:false,&quot;origItem&quot;:[&quot;Path&quot;,{&quot;applyMatrix&quot;:true,&quot;segments&quot;:[[[743.39387,356.448],[-0.136,-0.086],[1.494,-2.664]],[[747.71587,348.366],[-1.37,2.732],[6.026,-12.008]],[[761.75387,310.596],[-3.264,13.186],[1.05,-4.236]],[[764.36187,297.768],[-0.67,4.312],[0.098,-0.624]],[[764.63587,295.894],[-0.088,0.624],[0.018,-0.158]],[[764.83987,294.272],[-0.04,0.348],[0.056,-0.488]],[[764.98187,292.808],[-0.046,0.488],[-7.338,-4.432]],[[744.60587,277.22],[6.196,5.9],[-0.168,1.194]],[[744.07587,280.79],[0.188,-1.18],[-1.546,9.666]],[[736.54587,309.138],[3.38,-9.182],[-4.226,11.488]],[[720.39787,342.024],[6.492,-10.37],[7.53,4.722]],[[742.98587,356.194],[-7.53,-4.724],[0.136,0.082]]],&quot;closed&quot;:true,&quot;fillColor&quot;:[0,0,0,1]}]}" fill="#55af34" stroke="none" stroke-width="0.5" stroke-linecap="butt"/><path d="M253.40001,141.47836c1.568,5.609 9.62488,33.68214 9.62488,33.68214c0,0 7.97384,28.08466 9.60484,33.67666c1.27,4.351 2.52961,6.99589 4.34861,10.09889c-9.521,2.146 -19.20774,3.65693 -28.90574,4.63192c-22.076,2.219 -44.31632,0.8887 -65.74032,-5.0803c-9.413,-2.623 -18.64195,-6.05915 -27.55195,-10.12215c1.818,-2.672 3.08103,-4.97343 4.36402,-8.80843c1.652,-4.934 9.73326,-29.73118 9.73326,-29.73118c0,0 8.16007,-24.77937 9.75007,-29.73337c1.226,-3.823 1.57513,-6.41945 1.69413,-9.61745l0.05203,-0.00002c19.628,-0.007 34.31586,-0.02208 34.31586,-0.02208c0,0 17.10156,0.01721 37.03157,0.02421l0.03202,0.00001c0.089,3.655 0.41274,6.58412 1.64674,11.00112z" data-paper-data="{&quot;noHover&quot;:false,&quot;origItem&quot;:[&quot;Path&quot;,{&quot;applyMatrix&quot;:true,&quot;segments&quot;:[[[503.44587,261.034],[0.178,7.31],[0,0]],[[503.38187,261.034],[0,0],[-39.86,-0.014]],[429.38187,261.006],[[360.80787,261.03],[39.256,-0.014],[0,0]],[[360.70387,261.03],[0,0],[-0.238,6.396]],[[357.32587,280.256],[2.452,-7.646],[-3.18,9.908]],[337.85387,339.668],[[318.38187,399.078],[3.304,-9.868],[-2.566,7.67]],[[309.64987,416.686],[3.636,-5.344],[17.82,8.126]],[[364.72787,436.898],[-18.826,-5.246],[42.848,11.938]],[[496.08787,447.054],[-44.152,4.438],[19.396,-1.95]],[[553.87387,437.816],[-19.042,4.292],[-3.638,-6.206]],[[545.17187,417.626],[2.54,8.702],[-3.262,-11.184]],[525.94987,350.326],[[506.72787,283.026],[3.136,11.218],[-2.468,-8.834]]],&quot;closed&quot;:true,&quot;fillColor&quot;:[0,0,0,1]}]}" fill="#55af34" stroke="none" stroke-width="0.5" stroke-linecap="butt"/><path d="M364.92425,130.03582c1.251,1.756 2.59592,3.44773 4.01992,5.04573c-0.057,0.798 -0.11643,1.59671 -0.20943,2.39271c-0.02,0.172 -0.04188,0.34438 -0.06288,0.51638c-0.005,0.044 -0.00798,0.06507 -0.01098,0.09507c-0.001,0.012 -0.00199,0.01603 -0.00499,0.03503c-0.056,0.391 -0.11176,0.78386 -0.17376,1.17486c-0.149,0.943 -0.31945,1.88413 -0.50845,2.81913c-0.474,2.341 -1.06504,4.66365 -1.75804,6.94864c-0.415,1.37 -0.86672,2.7326 -1.35372,4.0786c-0.261,0.723 -0.53296,1.445 -0.81396,2.16c-0.156,0.394 -0.31401,0.78912 -0.47501,1.18112c-0.072,0.174 -0.14401,0.3485 -0.21701,0.5225c-0.002,0.004 0.02599,-0.05778 -0.09801,0.22922c-2.937,6.817 -6.87449,13.48903 -11.34249,19.20803c-5.956,7.624 -13.13549,14.31606 -21.0335,19.88906c-10.292,7.262 -21.7704,12.77877 -33.6534,16.89777c-6.314,2.189 -12.76459,3.98971 -19.27559,5.49271c-0.092,-3.627 -0.41647,-6.54662 -1.64447,-10.93962c-1.568,-5.61 -9.62953,-33.67219 -9.62953,-33.67219c0,0 -7.98218,-28.09094 -9.61318,-33.68294c-1.277,-4.381 -2.54473,-7.03444 -4.38373,-10.16444l0.33313,-0.32531c7.89,-7.696 17.82685,-17.39418 21.38285,-20.86318c6.792,-6.659 10.48605,-11.06413 15.18105,-17.14012c4.567,4.359 9.201,8.64789 14.161,12.51489c12.372,9.645 26.71785,16.63698 41.69684,21.20098c6.326,1.927 12.89434,3.60336 19.48734,4.38536z" data-paper-data="{&quot;noHover&quot;:false,&quot;origItem&quot;:[&quot;Path&quot;,{&quot;applyMatrix&quot;:true,&quot;segments&quot;:[[[690.79787,251.366],[12.652,3.854],[-29.958,-9.128]],[[607.49387,208.998],[24.744,19.29],[-9.92,-7.734]],[[579.18987,183.964],[9.134,8.718],[-9.39,12.152]],[[548.85787,218.228],[13.584,-13.318],[-7.112,6.938]],[[506.12187,259.916],[15.78,-15.392],[0,0]],[[505.45587,260.566],[0,0],[3.678,6.26]],[[514.22787,280.882],[-2.554,-8.762],[3.262,11.184]],[533.44987,348.182],[[552.67187,415.482],[-3.136,-11.22],[2.456,8.786]],[[555.95187,437.356],[-0.184,-7.254],[13.022,-3.006]],[[594.47987,426.362],[-12.628,4.378],[23.766,-8.238]],[[661.71987,392.574],[-20.584,14.524],[15.796,-11.146]],[[703.74187,352.84],[-11.912,15.248],[8.936,-11.438]],[[726.41587,314.466],[-5.874,13.634],[0.248,-0.574]],[[726.61187,314.008],[-0.004,0.008],[0.146,-0.348]],[[727.04587,312.964],[-0.144,0.348],[0.322,-0.784]],[[727.99587,310.604],[-0.312,0.788],[0.562,-1.43]],[[729.62387,306.288],[-0.522,1.446],[0.974,-2.692]],[[732.33187,298.138],[-0.83,2.74],[1.386,-4.57]],[[735.84987,284.252],[-0.948,4.682],[0.378,-1.87]],[[736.86787,278.618],[-0.298,1.886],[0.124,-0.782]],[[737.21587,276.27],[-0.112,0.782],[0.006,-0.038]],[[737.22587,276.2],[-0.002,0.024],[0.006,-0.06]],[[737.24787,276.01],[-0.01,0.088],[0.042,-0.344]],[[737.37387,274.978],[-0.04,0.344],[0.186,-1.592]],[[737.79387,270.196],[-0.114,1.596],[-2.848,-3.196]],[[729.75787,260.114],[2.502,3.512],[-13.186,-1.564]]],&quot;closed&quot;:true,&quot;fillColor&quot;:[0,0,0,1]}]}" fill="#55af34" stroke="none" stroke-width="0.5" stroke-linecap="butt"/><path d="M276.83961,79.93622c4.232,3.764 8.30423,7.749 12.41723,11.68c-6.187,4.532 -10.67874,8.11041 -17.50374,14.72341c-3.474,3.383 -13.02952,12.69526 -20.82852,20.28925c-19.585,0.007 -36.23721,0.02506 -36.23721,0.02506c0,0 -14.24775,-0.01766 -33.42375,-0.02466c-7.278,-8.365 -17.33882,-19.93378 -20.80382,-23.91578c-6.262,-7.161 -10.44585,-11.09775 -16.24785,-16.13274c7.203,-7.3 13.83514,-15.15068 21.76514,-21.70168c11.942,-9.867 26.44725,-17.07793 42.14325,-17.61793c13.1,-0.451 25.86122,3.61178 37.29722,9.77378c11.444,6.166 21.73806,14.2853 31.42206,22.9013z" data-paper-data="{&quot;noHover&quot;:false,&quot;origItem&quot;:[&quot;Path&quot;,{&quot;applyMatrix&quot;:true,&quot;segments&quot;:[[[490.76587,114.142],[22.888,12.332],[-22.872,-12.324]],[[416.26187,94.62],[26.2,-0.902],[-31.392,1.08]],[[332.04587,129.798],[23.884,-19.734],[-15.86,13.102]],[[288.52387,173.162],[14.406,-14.6],[11.604,10.07]],[[321.01587,205.4],[-12.524,-14.322],[6.93,7.964]],[[362.59387,253.184],[-14.556,-16.73],[38.352,0.014]],[429.37987,253.208],[[501.78387,253.182],[-39.17,0.014],[15.598,-15.188]],[[543.41187,212.646],[-6.948,6.766],[13.65,-13.226]],[[578.41387,183.226],[-12.374,9.064],[-8.226,-7.862]],[[553.57987,159.884],[8.464,7.528],[-19.368,-17.232]]],&quot;closed&quot;:true,&quot;fillColor&quot;:[0,0,0,1]}]}" fill="#55af34" stroke="none" stroke-width="0.5" stroke-linecap="butt"/><path d="M143.89484,86.91469c4.17,6.429 7.48998,11.11849 13.69898,18.30349c3.554,4.091 14.06742,16.19558 21.37542,24.60658l0.32714,0.3774c-1.778,2.627 -3.02622,4.92097 -4.29222,8.70298c-1.652,4.934 -9.74169,29.7395 -9.74169,29.7395c0,0 -8.1656,24.77028 -9.7546,29.72428c-1.218,3.797 -1.56813,6.38101 -1.69013,9.54901c-3.973,-1.839 -7.89709,-3.79056 -11.73209,-5.87956c-13.824,-7.531 -26.78782,-16.79092 -37.92682,-27.94291c-11.818,-11.832 -21.46198,-25.83407 -27.93798,-41.26607c5.043,-1.493 9.95035,-3.51256 14.66835,-5.78856c11.925,-5.753 22.90431,-13.46161 33.09631,-21.86561c6.948,-5.729 13.57234,-11.86451 19.90934,-18.26051z" data-paper-data="{&quot;noHover&quot;:false,&quot;origItem&quot;:[&quot;Path&quot;,{&quot;applyMatrix&quot;:true,&quot;segments&quot;:[[[247.97987,210.45],[13.896,-11.458],[-20.384,16.808]],[[181.86587,254.13],[23.85,-11.506],[-9.436,4.552]],[[152.53787,265.686],[10.086,-2.986],[12.952,30.864]],[[208.38387,348.116],[-23.636,-23.664],[22.278,22.304]],[[284.14587,403.98],[-27.648,-15.062],[7.67,4.178]],[[307.59587,415.744],[-7.946,-3.678],[0.244,-6.336]],[[310.96787,396.65],[-2.436,7.594],[3.178,-9.908]],[330.43787,337.24],[[349.90987,277.828],[-3.304,9.868],[2.532,-7.564]],[[358.49787,260.436],[-3.556,5.254],[0,0]],[[357.84387,259.682],[0,0],[-14.616,-16.822]],[[315.12987,210.518],[7.108,8.182],[-12.418,-14.37]],[[287.76387,173.926],[8.34,12.858],[-12.674,12.792]]],&quot;closed&quot;:true,&quot;fillColor&quot;:[0,0,0,1]}]}" fill="#55af34" stroke="none" stroke-width="0.5" stroke-linecap="butt"/><path d="M24.99888,131.22337c0.002,-0.093 0.00116,-0.14031 -0.00084,-0.17231c0.009,-0.028 0.02216,-0.07234 0.04316,-0.16734c0.049,-0.223 0.10668,-0.44032 0.16568,-0.66032c0.026,-0.097 0.06432,-0.19359 0.10132,-0.28859c0.004,-0.008 0.00803,-0.01705 0.01203,-0.02305c0.044,-0.079 0.24356,-0.37899 0.26456,-0.43399c0.12,-0.135 0.24161,-0.26801 0.37461,-0.39201c0.012,-0.011 0.01003,-0.01005 0.02004,-0.01905c0.094,-0.068 0.18938,-0.13561 0.28938,-0.19361c0.181,-0.105 0.36768,-0.20104 0.55668,-0.29004c0.058,-0.012 0.47762,-0.1709 0.55162,-0.1929c0.27,-0.081 0.5449,-0.14823 0.8209,-0.20423c0.115,-0.024 0.23138,-0.0445 0.34638,-0.0655c0.055,-0.01 0.08814,-0.01618 0.12014,-0.02218c0.005,0 0.00501,-0.00001 0.01101,-0.00101c2.823,-0.357 5.64617,0.03885 8.35716,0.55985c3.224,0.62 6.43287,1.48668 9.56287,2.47168c2.613,0.821 5.23075,1.74776 7.79075,2.72276c0.798,0.305 1.59828,0.623 2.39128,0.94299c1.505,4.09 3.16434,8.16258 4.99934,12.11558c0.965,2.081 1.97854,4.14521 3.03954,6.17621c-9.004,1.337 -18.40945,0.04219 -26.39745,-4.49081c-3.019,-1.713 -5.80285,-3.86167 -8.17485,-6.40067c-0.999,-1.07 -1.83293,-2.10724 -2.62393,-3.30424c-0.402,-0.608 -0.77628,-1.23861 -1.11828,-1.88261c-0.139,-0.262 -0.27161,-0.52876 -0.3986,-0.79676c-0.037,-0.078 -0.2357,-0.53719 -0.2497,-0.56119c-0.227,-0.564 -0.42191,-1.14551 -0.57591,-1.73351c-0.064,-0.244 -0.11848,-0.49041 -0.16948,-0.73741c-0.03,-0.145 -0.05367,-0.29183 -0.07667,-0.43783c0,-0.006 0.00001,-0.00903 -0.00099,-0.01603c-0.046,-0.504 -0.04274,-0.99786 -0.03174,-1.50186z" data-paper-data="{&quot;noHover&quot;:false,&quot;origItem&quot;:[&quot;Path&quot;,{&quot;applyMatrix&quot;:true,&quot;segments&quot;:[[[50.15387,265.488],[-0.092,-1.008],[0.002,0.014]],[[50.15587,265.52],[0,-0.012],[0.046,0.292]],[[50.30987,266.394],[-0.06,-0.29],[0.102,0.494]],[[50.64987,267.866],[-0.128,-0.488],[0.308,1.176]],[[51.80387,271.326],[-0.454,-1.128],[0.028,0.048]],[[52.30387,272.446],[-0.074,-0.156],[0.254,0.536]],[[53.10187,274.036],[-0.278,-0.524],[0.684,1.288]],[[55.33987,277.792],[-0.804,-1.216],[1.582,2.394]],[[60.58787,284.38],[-1.998,-2.14],[4.744,5.078]],[[76.90187,297.114],[-6.038,-3.426],[15.976,9.066]],[[129.54787,306.12],[-18.008,2.674],[-2.122,-4.062]],[[123.45987,293.786],[1.93,4.162],[-3.67,-7.906]],[[113.46587,269.634],[3.01,8.18],[-1.586,-0.64]],[[108.69187,267.762],[1.596,0.61],[-5.12,-1.95]],[[93.17387,262.356],[5.226,1.642],[-6.26,-1.97]],[[74.11987,257.398],[6.448,1.24],[-5.422,-1.042]],[[57.42987,256.256],[5.646,-0.714],[-0.012,0.002]],[[57.40787,256.258],[0.01,0],[-0.064,0.012]],[[57.16787,256.302],[0.11,-0.02],[-0.23,0.042]],[[56.47587,256.432],[0.23,-0.048],[-0.552,0.112]],[[54.83587,256.838],[0.54,-0.162],[-0.148,0.044]],[[53.73387,257.222],[0.116,-0.024],[-0.378,0.178]],[[52.62187,257.8],[0.362,-0.21],[-0.2,0.116]],[[52.04387,258.186],[0.188,-0.136],[-0.02,0.018]],[[52.00387,258.224],[0.024,-0.022],[-0.266,0.248]],[[51.25587,259.006],[0.24,-0.27],[-0.042,0.11]],[[50.72787,259.872],[0.088,-0.158],[-0.008,0.012]],[[50.70387,259.918],[0.008,-0.016],[-0.074,0.19]],[[50.50187,260.494],[0.052,-0.194],[-0.118,0.44]],[[50.17187,261.812],[0.098,-0.446],[-0.042,0.19]],[[50.08587,262.146],[0.018,-0.056],[0.004,0.064]],[[50.08787,262.49],[0.004,-0.186],[-0.022,1.008]]],&quot;closed&quot;:true,&quot;fillColor&quot;:[0,0,0,1]}]}" fill="#67d440" stroke="none" stroke-width="0.5" stroke-linecap="butt"/><path d="M345.07905,213.95812c7.432,-5.664 14.2425,-12.14531 20.0875,-19.44431c5.759,-7.192 10.63622,-15.1392 14.28822,-23.6052c2.511,-5.822 4.55443,-11.87627 5.80443,-18.09827c0.297,-1.476 0.57194,-2.97719 0.77094,-4.48419c3.597,1.839 7.40556,3.29608 11.31756,4.29608c10.826,2.767 22.38038,1.91692 32.69637,-2.35507c0.661,-0.274 1.31927,-0.56564 1.97427,-0.86764c-0.457,1.538 -0.9334,3.07233 -1.4984,4.58832c-0.47,1.263 -0.96669,2.51714 -1.48769,3.75914c-0.025,0.058 -0.06291,0.14917 -0.1169,0.27317c-0.077,0.177 -0.15282,0.35433 -0.22982,0.53133c-0.138,0.316 -0.27666,0.6316 -0.41766,0.9466c-0.336,0.75 -0.68022,1.49751 -1.03422,2.23951c-1.545,3.238 -3.25475,6.40321 -5.13175,9.46121c-4.586,7.472 -9.997,14.15883 -16.546,20.09583c-7.772,7.046 -16.9412,12.63632 -26.7512,16.35432c-10.79,4.089 -22.23465,5.97919 -33.72565,6.30919z" data-paper-data="{&quot;noHover&quot;:false,&quot;origItem&quot;:[&quot;Path&quot;,{&quot;applyMatrix&quot;:true,&quot;segments&quot;:[[[757.64387,415.204],[-21.58,8.178],[19.62,-7.436]],[[811.02587,382.538],[-15.544,14.092],[13.098,-11.874]],[[844.10787,342.426],[-9.172,14.944],[3.754,-6.116]],[[854.37787,323.52],[-3.09,6.476],[0.708,-1.484]],[[856.44787,319.044],[-0.672,1.5],[0.282,-0.63]],[[857.28387,317.152],[-0.276,0.632],[0.154,-0.354]],[[857.74387,316.09],[-0.154,0.354],[0.108,-0.248]],[[857.97787,315.544],[-0.05,0.116],[1.042,-2.484]],[[860.95587,308.03],[-0.94,2.526],[1.13,-3.032]],[[863.95587,298.858],[-0.914,3.076],[-1.31,0.604]],[[860.00787,300.594],[1.322,-0.548],[-20.632,8.544]],[[794.66587,305.34],[21.652,5.534],[-7.824,-2]],[[772.06787,296.752],[7.194,3.678],[-0.398,3.014]],[[770.52987,305.72],[0.594,-2.952],[-2.5,12.444]],[[758.97587,341.892],[5.022,-11.644],[-7.304,16.932]],[[730.41987,388.978],[11.518,-14.384],[-11.69,14.598]],[[690.23787,427.856],[14.864,-11.328],[22.982,-0.66]]],&quot;closed&quot;:true,&quot;fillColor&quot;:[0,0,0,1]}]}" fill="#67d440" stroke="none" stroke-width="0.5" stroke-linecap="butt"/><path d="M421.92553,149.10113c-20.07,5.131 -41.39101,-3.90419 -53.45801,-20.37519c-5.258,-7.176 -8.99746,-15.86926 -9.03645,-24.87626c-0.038,-8.773 3.71604,-17.07703 9.63404,-23.45203c14.077,-15.163 37.5249,-19.53227 57.0329,-14.43227c17.467,4.566 34.62283,18.29915 34.71283,37.73615c-0.009,2.033 -0.17894,4.063 -0.54694,6.063c-3.486,18.932 -20.00736,34.6516 -38.33837,39.3366z" data-paper-data="{&quot;noHover&quot;:false,&quot;origItem&quot;:[&quot;Path&quot;,{&quot;applyMatrix&quot;:true,&quot;segments&quot;:[[[920.42787,219.524],[-6.972,37.864],[0.736,-4]],[[921.52187,207.41],[-0.018,4.066],[-0.18,-38.874]],[[852.15987,132.024],[34.934,9.132],[-39.016,-10.2]],[[738.21387,160.85],[28.154,-30.326],[-11.836,12.75]],[[718.96187,207.706],[-0.076,-17.546],[0.078,18.014]],[[737.02387,257.406],[-10.516,-14.352],[24.134,32.942]],[[843.82387,298.106],[-40.14,10.262],[36.662,-9.37]]],&quot;closed&quot;:true,&quot;fillColor&quot;:[0,0,0,1]}]}" fill="#67d440" stroke="none" stroke-width="0.5" stroke-linecap="butt"/><path d="M443.01667,141.95554c-0.41044,0.283 -0.80978,0.443 -1.17086,0.579c-0.36163,0.136 -0.68166,0.256 -0.95344,0.358c-0.27177,0.106 -0.50695,0.087 -0.67833,0.111c-0.1725,0.008 -0.41598,0.018 -0.72104,0.031c-0.3045,0.011 -0.66724,0.04 -1.09043,-0.046c-0.84195,-0.103 -1.88247,-0.417 -2.98732,-1.052c-1.10652,-0.622 -2.27459,-1.555 -3.40163,-2.739c-1.12593,-1.188 -2.21026,-2.619 -3.20585,-4.147c-1.99672,-3.054 -3.61795,-6.511 -4.72724,-9.167c-1.11095,-2.662 -1.71829,-4.547 -1.71829,-4.547c0,0 0.79924,1.894 2.17476,4.425c1.37108,2.527 3.34062,5.692 5.55698,8.164c1.10596,1.233 2.26628,2.293 3.39443,3.062c1.12926,0.768 2.22302,1.226 3.17257,1.433c0.95177,0.223 1.75379,0.149 2.34449,0.05c0.59181,-0.16 0.97673,-0.264 1.08377,-0.293c0.05269,-0.018 0.16418,-0.023 0.32669,-0.035c0.16195,-0.037 0.37494,-0.086 0.63174,-0.145c0.25847,-0.05 0.5613,-0.109 0.90019,-0.175c0.33722,-0.127 0.71105,-0.268 1.11317,-0.419c1.60958,-0.654 3.66288,-2.051 5.57474,-3.99c1.91852,-1.911 3.69782,-4.266 4.95243,-6.186c1.26237,-1.91 2.02501,-3.349 2.02501,-3.349c0,0 -0.56351,1.512 -1.56743,3.653c-1.00169,2.141 -2.45098,4.917 -4.16872,7.445c-1.7133,2.525 -3.70614,4.781 -5.54035,6.123c-0.45481,0.34 -0.9074,0.59 -1.32006,0.856z" fill="#152345" stroke="none" stroke-width="1" stroke-linecap="butt"/><path d="M414.24396,79.421c2.911,0.22 5.899,0.672 8.596,1.837c1.533,0.662 3.157,1.699 3.523,3.395c0.063,0.152 0.095,0.33 0.085,0.535c0.01,0.196 -0.02,0.368 -0.078,0.516c-0.723,3.759 -7.066,4.651 -10.007,5.031c-5.544,0.716 -12.003,0.635 -17.203,-1.674c-1.414,-0.628 -3.021,-1.615 -3.402,-3.236c-0.392,-1.666 0.822,-3.013 2.122,-3.846c1.977,-1.267 4.465,-1.817 6.751,-2.177c3.174,-0.501 6.409,-0.623 9.613,-0.381zM401.10296,83.218c-0.817,0.286 -2.632,0.886 -2.897,1.846c-0.177,0.641 1.217,1.371 1.833,1.664c3.98,1.89 9.012,2.015 13.319,1.782c2.486,-0.134 4.996,-0.472 7.369,-1.252c0.845,-0.278 3.171,-1.048 3.222,-2.071c-0.039,-0.782 -1.659,-1.477 -2.344,-1.756c-1.979,-0.806 -4.169,-1.194 -6.284,-1.413c-4.666,-0.483 -9.749,-0.363 -14.218,1.2z" fill="#152345" stroke="none" stroke-width="1" stroke-linecap="butt"/><path d="M432.71996,73.002c-0.627,2.591 -4.678,3.24 -6.839,3.525c-3.772,0.499 -8.12,0.429 -11.655,-1.143c-1.05,-0.467 -2.151,-1.219 -2.426,-2.407c-0.293,-1.264 0.563,-2.318 1.564,-2.961c1.324,-0.851 2.98,-1.238 4.513,-1.483c2.122,-0.339 4.282,-0.436 6.426,-0.277c2.04,0.151 4.128,0.468 6.008,1.309c1.075,0.48 2.09,1.222 2.396,2.357c0.067,0.157 0.103,0.339 0.091,0.553c0.011,0.2 -0.018,0.376 -0.078,0.527zM414.23696,72.494c-0.022,0.057 -0.002,0.184 0,0zM430.05796,72.274c-0.328,-0.257 -0.733,-0.439 -1.118,-0.591c-1.212,-0.477 -2.544,-0.72 -3.833,-0.856c-2.982,-0.314 -6.196,-0.244 -9.067,0.701c-0.464,0.153 -0.924,0.333 -1.337,0.599c-0.123,0.079 -0.221,0.162 -0.335,0.249c-0.052,0.039 -0.09,0.064 -0.112,0.079c0.011,0.013 0.023,0.028 0.01,0.015c0.282,0.304 0.658,0.5 1.031,0.671c2.559,1.171 5.757,1.236 8.51,1.085c1.585,-0.087 3.179,-0.307 4.691,-0.804c0.484,-0.159 0.994,-0.348 1.414,-0.646c0.104,-0.074 0.309,-0.255 0.347,-0.284c0.004,-0.003 0.005,-0.008 0.009,-0.011c-0.027,-0.035 -0.099,-0.121 -0.21,-0.207z" fill="#152345" stroke="none" stroke-width="1" stroke-linecap="butt"/><path d="M407.38496,76.045c-0.627,2.591 -4.678,3.239 -6.839,3.525c-3.772,0.499 -8.12,0.429 -11.655,-1.143c-1.05,-0.467 -2.151,-1.219 -2.426,-2.408c-0.293,-1.264 0.563,-2.318 1.564,-2.961c1.324,-0.851 2.98,-1.238 4.513,-1.483c2.122,-0.34 4.282,-0.437 6.426,-0.278c2.04,0.151 4.128,0.468 6.008,1.309c1.075,0.48 2.09,1.222 2.396,2.358c0.067,0.157 0.103,0.339 0.091,0.553c0.011,0.201 -0.018,0.377 -0.078,0.528zM388.90196,75.536c-0.022,0.058 -0.002,0.184 0,0zM404.72296,75.316c-0.328,-0.257 -0.733,-0.439 -1.118,-0.59c-1.212,-0.476 -2.544,-0.721 -3.833,-0.856c-2.982,-0.314 -6.196,-0.244 -9.068,0.701c-0.464,0.153 -0.924,0.333 -1.337,0.599c-0.123,0.079 -0.221,0.162 -0.335,0.249c-0.052,0.039 -0.09,0.064 -0.112,0.079c0.011,0.013 0.023,0.028 0.01,0.015c0.282,0.304 0.658,0.5 1.031,0.671c2.559,1.171 5.757,1.236 8.51,1.085c1.585,-0.087 3.179,-0.307 4.691,-0.804c0.484,-0.16 0.994,-0.348 1.413,-0.646c0.104,-0.074 0.309,-0.255 0.347,-0.284c0.004,-0.003 0.005,-0.008 0.009,-0.011c-0.025,-0.035 -0.097,-0.121 -0.208,-0.208z" fill="#152345" stroke="none" stroke-width="1" stroke-linecap="butt"/><path d="M433.93496,123.293c-2.869,0 -5.196,-4.146 -5.196,-9.262c0,-5.115 2.326,-9.262 5.196,-9.262c2.869,0 5.196,4.147 5.196,9.262c0,5.115 -2.327,9.262 -5.196,9.262z" fill="#152345" stroke="none" stroke-width="1" stroke-linecap="butt"/><path d="M418.17088,37.41601c0,0 59.34415,6.81476 44.69632,57.2045c-1.51987,5.2285 -107.70251,23.49333 -108.29362,-7.27254c-1.14742,-59.72002 63.5973,-49.93196 63.5973,-49.93196z" fill="#ff0000" stroke="#000000" stroke-width="3.5" stroke-linecap="round"/><path d="M399.23317,150.37282l-2.02522,-45.56752" fill="none" stroke="#152345" stroke-width="3.5" stroke-linecap="round"/></g></g></svg>