<svg version="1.1" xmlns="http://www.w3.org/2000/svg" xmlns:xlink="http://www.w3.org/1999/xlink" width="445.61634" height="280.70811" viewBox="0,0,445.61634,280.70811"><g transform="translate(-23.44078,-31.54518)"><g data-paper-data="{&quot;isPaintingLayer&quot;:true}" fill-rule="nonzero" stroke-linejoin="miter" stroke-miterlimit="10" stroke-dasharray="" stroke-dashoffset="0" style="mix-blend-mode: normal"><g stroke-width="3.5"><g stroke="none" stroke-linecap="butt"><path d="M304.54313,184.78377c-7.1458,1.90738 0.11422,-0.21866 0.16919,-0.1712c11.86482,10.24355 17.20124,26.51208 20.10396,41.42063c1.42618,7.32238 2.3302,14.73422 2.81122,22.17643c0.19448,3.01803 0.4211,6.0775 0.36865,9.10299c-0.08002,4.60089 -1.74009,9.06231 -4.74047,12.56011c-3.34086,3.89348 -8.0648,5.77817 -12.7827,7.4653c-5.04538,1.8048 -10.29299,3.07512 -15.61707,3.70348c-8.38178,0.98906 -17.00314,0.248 -25.05088,-2.31932c-3.25047,-1.03736 -6.59386,-2.26928 -9.55433,-3.98813c-3.9817,-2.3121 -7.05207,-5.9889 -8.60578,-10.32505c-0.78448,-2.19022 -1.17929,-4.57534 -1.11455,-6.90157c0.07673,-2.72334 0.60679,-5.43152 0.78884,-8.15117c0.32341,-4.81745 0.26078,-9.66546 -0.27803,-14.46539c-0.42609,-3.79734 -1.16716,-7.54673 -2.26519,-11.207c-0.44775,-1.49031 -0.95176,-2.96476 -1.51859,-4.41402c-0.27131,-0.6932 -0.5553,-1.37975 -0.85503,-2.06049c-0.12559,-0.28603 -0.25407,-0.56991 -0.3845,-0.85269c-0.04489,-0.09586 -0.23651,-0.49971 -0.26465,-0.56136c-0.80428,-1.65053 -1.70562,-3.26011 -2.73081,-4.78434c-0.15587,-0.23143 61.68345,-25.99911 61.52074,-26.22719zM270.64853,275.10303c-0.15384,-1.5392 -0.33664,-3.07694 -0.56293,-4.60346c-0.57239,-3.85904 -1.36567,-7.74998 -2.78359,-11.4001c-0.53628,-1.37971 -1.43067,-3.16887 -2.2151,-4.08947c-0.27462,-0.32256 -0.58388,-0.61733 -0.90991,-0.88723c-0.01983,-0.01602 -0.20032,-0.14007 -0.26067,-0.18509c-0.10955,-0.06756 -0.21915,-0.13612 -0.33408,-0.19139c-0.34685,-0.16672 -0.87661,-0.30717 -1.3651,-0.30453c-0.50746,0.0036 -0.83463,0.14729 -1.47058,0.66002c0.13947,-0.11318 -0.43972,0.45276 -0.57113,0.60658c-0.24475,0.28871 -0.31217,0.38123 -0.43966,0.57291c-0.97554,1.46107 -1.57013,3.07011 -2.04688,4.6732c-0.56758,1.90606 -0.99554,3.88016 -1.25906,5.85897c3.00824,5.02365 8.65499,7.61211 14.21869,9.2896zM298.73706,276.68418c3.17194,-0.59676 6.29605,-1.44643 9.35546,-2.48708c0.1025,-3.20425 -0.15653,-6.46934 -0.71921,-9.60094c-0.83686,-4.65471 -2.8336,-10.34824 -7.13711,-12.78726c-4.87761,-2.76348 -11.33462,-1.23282 -14.95512,2.77391c-3.63003,4.01622 -5.16067,9.65261 -5.99253,14.98936c-0.18517,1.19086 -0.32698,2.38753 -0.44263,3.58689c-0.00566,0.06637 -0.01912,0.21624 -0.02478,0.28261c-0.00952,0.12864 -0.01999,0.25834 -0.02947,0.38798c-0.01553,0.20805 -0.03005,0.41605 -0.04253,0.62494c-0.02854,0.44601 -0.05108,0.89171 -0.06859,1.33816c-0.01533,0.39027 -0.02662,0.78134 -0.03491,1.17225c6.64579,1.07714 13.45883,0.96533 20.09141,-0.28082zM323.02748,263.21376c1.41721,-3.30269 1.24362,-6.75934 1.09584,-10.26034c-0.79362,-1.39975 -1.95459,-3.2135 -3.59232,-3.36508c-0.4165,-0.03904 -0.75133,0.07199 -1.13753,0.19663c-0.44627,0.1447 -0.12479,0.0073 -0.53618,0.28741c-0.10553,0.07141 -0.20892,0.14572 -0.3091,0.22388c-0.02017,0.01704 -0.04033,0.03408 -0.05086,0.04362c-0.19407,0.18202 -0.37339,0.37832 -0.54433,0.5822c-0.55732,0.66196 -1.04882,1.61596 -1.46983,2.6375c-0.42196,1.02259 -0.74726,2.19449 -1.02023,3.35173c-0.6038,2.55671 -0.95128,5.1926 -1.15785,7.80334c-0.18791,2.38552 -0.28761,4.79261 -0.27846,7.1942c0.1352,-0.05889 0.27165,-0.11285 0.40586,-0.17169c3.8765,-1.6937 6.91987,-4.61794 8.595,-8.5234zM302.84357,188.13867c-18.72658,6.59384 -68.60838,30.66052 -56.50749,21.13694c1.50411,2.24399 2.74035,4.69575 3.79768,7.15354c2.7955,6.50126 4.30603,13.55104 4.87374,20.58837c0.39233,4.87341 0.29083,9.76276 -0.14122,14.62975c-0.19862,2.23286 -0.6297,4.46244 -0.58248,6.70592c0.18568,-0.56609 0.37346,-1.13028 0.58582,-1.68369c1.35572,-3.52888 3.99458,-7.464 8.30088,-6.91252c4.02314,0.51572 6.25034,4.54751 7.60233,7.94263c2.2921,5.7527 3.29628,12.2333 3.74506,18.44257c0.12975,0.03149 0.26125,0.0579 0.39196,0.08834c0.07889,-3.37428 0.50249,-6.78298 1.18543,-10.05259c1.26575,-6.06357 3.71754,-12.37428 8.75912,-16.27655c5.28153,-4.08762 13.34506,-4.37974 18.72413,-0.35094c4.06476,3.04484 6.07751,8.00462 7.15285,12.90061c0.34665,-3.3858 0.96628,-6.73932 2.13987,-9.88953c0.8446,-2.26949 2.1498,-4.6774 4.35498,-5.87916c2.43908,-1.32873 4.6797,-0.8972 6.55351,0.37991c-0.08494,-1.18623 -0.16989,-2.37245 -0.27681,-3.55757c-0.65416,-7.26225 -1.70656,-14.49937 -3.3917,-21.59641c-3.20133,-13.48568 -5.40561,-25.56352 -17.26765,-33.76961z" data-paper-data="{&quot;index&quot;:null}" fill="#152345"/><path d="M314.41349,271.78341c-0.1342,0.05884 -0.27181,0.1123 -0.40701,0.1712c-0.00915,-2.4016 0.07294,-4.82168 0.26085,-7.20719c0.20657,-2.61074 0.55754,-5.3158 1.16135,-7.87251c0.27297,-1.15724 0.61591,-2.3399 1.03787,-3.36248c0.42101,-1.02154 0.92388,-1.97811 1.48119,-2.64007c0.17093,-0.20388 0.35316,-0.40039 0.54723,-0.58243c0.01053,-0.00954 0.03096,-0.0266 0.05112,-0.04363c0.10019,-0.07815 0.20508,-0.15251 0.31061,-0.22392c0.41139,-0.28011 0.09239,-0.14268 0.53866,-0.28738c0.3862,-0.12464 0.72608,-0.23522 1.14258,-0.19618c1.63773,0.15158 2.81954,1.97326 3.61315,3.37301c0.14779,3.501 0.33586,7.02599 -1.08135,10.32868c-1.67513,3.90547 -4.77973,6.8492 -8.65623,8.5429z" data-paper-data="{&quot;noHover&quot;:false,&quot;origItem&quot;:[&quot;Path&quot;,{&quot;applyMatrix&quot;:true,&quot;segments&quot;:[[[704.65248,589.44356],[-3.74,7.632],[3.164,-6.454]],[[707.87648,569.05956],[-0.058,7.008],[-1.444,-2.876]],[[701.04048,561.97556],[3.256,0.468],[-0.828,-0.12]],[[698.74848,562.25356],[0.784,-0.21],[-0.906,0.244]],[[697.64848,562.77356],[0.85,-0.518],[-0.218,0.132]],[[697.00848,563.18956],[0.208,-0.146],[-0.042,0.032]],[[696.90248,563.27156],[0.022,-0.018],[-0.406,0.344]],[[695.75648,564.37956],[0.362,-0.39],[-1.18,1.266]],[[692.55448,569.49956],[0.944,-1.998],[-0.946,2]],[[690.17848,576.09156],[0.662,-2.284],[-1.464,5.046]],[[687.07848,591.56156],[0.676,-5.194],[-0.616,4.746]],[[685.79648,605.90356],[0.224,-4.798],[0.276,-0.104]],[[686.62448,605.60156],[-0.274,0.104],[7.914,-2.992]]],&quot;closed&quot;:true,&quot;fillColor&quot;:[0,0,0,1]}]}" fill="#67d440"/><path d="M278.6087,276.99869c0.00829,-0.39092 0.01808,-0.78371 0.03341,-1.17398c0.0175,-0.44645 0.03831,-0.89436 0.06685,-1.34037c0.01248,-0.2089 0.0262,-0.41802 0.04172,-0.62607c0.00947,-0.12964 0.01944,-0.26007 0.02896,-0.38871c0.00566,-0.06637 0.01876,-0.21679 0.02442,-0.28316c0.11565,-1.19936 0.25307,-2.40441 0.43823,-3.59526c0.83186,-5.33676 2.37742,-11.03108 6.00745,-15.0473c3.6205,-4.00673 10.13472,-5.54121 15.01233,-2.77773c4.30351,2.43902 6.32433,8.17737 7.16119,12.83209c0.56268,3.1316 0.81331,6.42246 0.71081,9.62671c-3.0594,1.04065 -6.20405,1.90789 -9.37599,2.50464c-6.63258,1.24615 -13.5036,1.34628 -20.14939,0.26914z" data-paper-data="{&quot;noHover&quot;:false,&quot;origItem&quot;:[&quot;Path&quot;,{&quot;applyMatrix&quot;:true,&quot;segments&quot;:[[[654.7745,613.89956],[-13.374,1.82],[6.396,-0.872]],[[673.7125,609.87556],[-6.216,1.77],[0.528,-6.39]],[[673.2445,590.62556],[0.808,6.312],[-1.202,-9.382]],[[660.2785,564.36356],[8.35,5.306],[-9.464,-6.012]],[[630.1265,568.39556],[7.636,-7.638],[-7.656,7.656]],[[616.6445,597.73156],[2.2,-10.576],[-0.49,2.36]],[[615.3985,604.85156],[0.352,-2.384],[-0.018,0.132]],[[615.3205,605.41356],[0.018,-0.132],[-0.032,0.256]],[[615.2225,606.18556],[0.032,-0.258],[-0.052,0.414]],[[615.0745,607.42956],[0.046,-0.416],[-0.102,0.888]],[[614.8025,610.09556],[0.08,-0.89],[-0.07,0.778]],[[614.6145,612.43356],[0.056,-0.78],[13.166,2.822]]],&quot;closed&quot;:true,&quot;fillColor&quot;:[0,0,0,1]}]}" fill="#67d440"/><path d="M256.38084,265.82337c0.26352,-1.97881 0.70158,-3.99426 1.26917,-5.90032c0.47674,-1.60309 1.09238,-3.22742 2.06792,-4.68849c0.12749,-0.19168 0.19776,-0.28519 0.4425,-0.5739c0.13141,-0.15382 0.7139,-0.72067 0.57443,-0.60749c0.63595,-0.51273 0.97021,-0.6576 1.47768,-0.6612c0.48849,-0.00264 1.02448,0.13763 1.37133,0.30434c0.11493,0.05527 0.22615,0.12391 0.3357,0.19147c0.06035,0.04501 0.24214,0.16917 0.26198,0.18519c0.32603,0.2699 0.64038,0.5654 0.915,0.88796c0.78444,0.9206 1.69951,2.71907 2.23579,4.09878c1.41793,3.65012 2.21831,7.61398 2.7907,11.47302c0.22629,1.52653 0.40019,3.07217 0.55403,4.61137c-5.5637,-1.67749 -11.288,-4.29706 -14.29623,-9.32072z" data-paper-data="{&quot;noHover&quot;:false,&quot;origItem&quot;:[&quot;Path&quot;,{&quot;applyMatrix&quot;:true,&quot;segments&quot;:[[[598.82848,607.90756],[-10.944,-3.912],[-0.152,-3.09]],[[598.16848,598.65556],[0.298,3.072],[-0.754,-7.766]],[[593.75848,575.60356],[2.464,7.434],[-0.932,-2.81]],[[589.74648,567.21156],[1.474,1.918],[-0.516,-0.672]],[[588.01848,565.34756],[0.624,0.572],[-0.038,-0.034]],[[587.51648,564.95156],[0.116,0.096],[-0.212,-0.146]],[[586.86848,564.53556],[0.224,0.122],[-0.676,-0.368]],[[584.17248,563.78956],[0.976,0.044],[-1.014,-0.044]],[[581.16848,564.95956],[1.322,-0.96],[0.29,-0.212]],[[579.96648,566.11356],[0.278,-0.294],[-0.518,0.552]],[[579.03048,567.21356],[0.274,-0.37],[-2.096,2.82]],[[574.47048,576.34156],[1.114,-3.154],[-1.326,3.75]],[[571.36448,587.91756],[0.726,-3.926],[5.502,10.338]]],&quot;closed&quot;:true,&quot;fillColor&quot;:[0,0,0,1]}]}" fill="#67d440"/><path d="M320.1592,221.89421c1.68514,7.09703 2.73767,14.36183 3.39183,21.62408c0.10692,1.18512 0.19063,2.37512 0.27556,3.56135c-1.87381,-1.27711 -4.11542,-1.70614 -6.5545,-0.37741c-2.20519,1.20177 -3.5154,3.6186 -4.36,5.88809c-1.17359,3.15021 -1.80105,6.51246 -2.1477,9.89826c-1.07534,-4.89599 -3.08374,-9.8601 -7.14851,-12.90494c-5.37907,-4.02879 -13.47836,-3.7199 -18.75989,0.36772c-5.04158,3.90228 -7.50679,10.2116 -8.77254,16.27517c-0.68294,3.26961 -1.08428,6.58083 -1.16317,9.95511c-0.1307,-0.03045 -0.28357,0.04085 -0.41332,0.00935c-0.44878,-6.20927 -1.46563,-12.69457 -3.75773,-18.44727c-1.35198,-3.39512 -3.59425,-7.43928 -7.61739,-7.955c-4.3063,-0.55148 -6.86795,3.3201 -8.22366,6.84898c-0.21235,0.55342 -0.47654,1.18211 -0.66222,1.74819c-0.04723,-2.24347 0.37983,-4.47839 0.57845,-6.71126c0.43205,-4.86699 0.52601,-9.77593 0.13368,-14.64934c-0.5677,-7.03732 -2.07412,-14.11607 -4.86962,-20.61732c-1.05732,-2.45779 -2.29098,-4.91438 -3.79509,-7.15837c-12.10089,9.52357 37.84293,-14.5632 56.56951,-21.15704c11.86204,8.20609 14.09497,20.31598 17.2963,33.80166z" data-paper-data="{&quot;noHover&quot;:false,&quot;origItem&quot;:[&quot;Path&quot;,{&quot;applyMatrix&quot;:true,&quot;segments&quot;:[[[671.91,437.44826],[22.866,17.588],[-38.0707,11.28166]],[[556.90648,473.96756],[-25.13176,17.8021],[2.778,4.634]],[[563.77048,488.63956],[-1.864,-5.016],[4.928,13.268]],[[571.42848,530.25556],[-0.424,-14.114],[0.292,9.774]],[[569.67048,559.46356],[1.354,-9.678],[-0.622,4.44]],[[567.83048,572.79956],[0.132,-4.486],[0.428,-1.112]],[[569.17048,569.49556],[-0.48,1.084],[3.064,-6.912]],[[586.44848,556.52556],[-8.546,-1.536],[7.984,1.436]],[[600.83248,573.15756],[-2.358,-6.918],[3.998,11.722]],[[606.45248,610.37356],[-0.27,-12.448],[0.256,0.076]],[[607.22648,610.58956],[-0.258,-0.074],[0.498,-6.732]],[[610.60848,590.62956],[-1.694,6.462],[3.14,-11.984]],[[629.74648,559.00156],[-10.464,7.286],[10.962,-7.632]],[[667.18248,560.18956],[-10.338,-8.59],[7.812,6.492]],[[680.16848,586.67956],[-1.654,-9.888],[1.034,-6.728]],[[685.44048,567.14156],[-2.662,6.174],[1.916,-4.448]],[[694.73248,555.83756],[-4.526,2.178],[5.006,-2.408]],[[707.78448,557.25756],[-3.614,-2.74],[-0.05,-2.378]],[[707.59048,550.12356],[0.094,2.378],[-0.574,-14.572]],[[702.99448,506.64356],[2.65,14.346],[-5.034,-27.26]]],&quot;closed&quot;:true,&quot;fillColor&quot;:[0,0,0,1]}]}" fill="#67d440"/></g><path d="M286.84789,281.15141c0.36557,7.23807 -4.94606,13.38892 -11.86386,13.73831c-6.91778,0.3494 -12.82213,-5.23496 -13.1877,-12.47304c-0.36557,-7.23807 4.94606,-13.38892 11.86385,-13.73831c6.91778,-0.3494 12.82214,5.23496 13.18771,12.47304z" fill="#000000" stroke="#000000" stroke-linecap="butt"/><path d="M320.26167,279.69632c0.37204,7.36618 -4.88243,13.61824 -11.73615,13.9644c-6.85376,0.34616 -12.71143,-5.34471 -13.08347,-12.71084c-0.37204,-7.36618 4.88242,-13.61828 11.73619,-13.96444c6.85376,-0.34616 12.71139,5.3447 13.08344,12.71088z" fill="#000000" stroke="#000000" stroke-linecap="butt"/><path d="M305.41731,281.67096c-4.65325,-0.46992 3.45634,-9.49811 3.45634,-9.49811l7.83865,-0.66232c0,0 9.86851,9.28972 2.64245,9.45649c-5.44572,0.1257 -10.55416,1.0456 -13.93744,0.70394z" fill="#1fba00" stroke="#1fba00" stroke-linecap="round"/><path d="M265.28035,283.72815c-21.06331,1.12685 -12.03937,-45.70892 -12.03937,-45.70892l71.36212,-2.5617c0,0 10.77091,44.63495 -5.34531,45.54439c-42.45366,2.39558 -0.61591,-0.12846 -53.97744,2.72623z" fill="#ff0000" stroke="#000000" stroke-linecap="butt"/><path d="M301.93492,279.89949c0,0 4.88755,-5.0792 4.85225,-9.52941c-0.03531,-4.45021 -4.86168,-4.67077 -4.99952,-9.03183c-0.13784,-4.3611 -8.26256,-6.72245 -6.72517,-11.90773c1.53739,-5.18528 4.76469,-7.35208 4.76469,-7.35208c0,0 8.84146,6.01053 11.66098,11.85602c2.81952,5.84545 -2.52933,4.37877 -2.16343,8.01085c0.36596,3.63208 4.81992,4.48268 5.33393,7.82972c0.51401,3.34705 -2.68482,9.41994 -2.68482,9.41994z" data-paper-data="{&quot;index&quot;:null}" fill="#eac100" stroke="#000000" stroke-linecap="round"/><path d="M269.69028,281.44092c0,0 4.88755,-5.0792 4.85225,-9.52942c-0.03531,-4.45021 -4.86168,-4.67072 -4.99952,-9.03183c-0.13784,-4.3611 -8.26256,-6.72245 -6.72517,-11.90777c1.53739,-5.18528 4.76469,-7.35208 4.76469,-7.35208c0,0 8.84146,6.01058 11.66098,11.85602c2.81952,5.84545 -2.52934,4.37877 -2.16338,8.01084c0.36596,3.63208 4.81992,4.48263 5.33388,7.82968c0.51401,3.34705 -2.68482,9.41994 -2.68482,9.41994z" data-paper-data="{&quot;index&quot;:null}" fill="#eac100" stroke="#eac100" stroke-linecap="round"/></g><g><g data-paper-data="{&quot;index&quot;:null}" stroke="none" stroke-linecap="butt"><path d="M153.81964,185.87716c-0.13329,0.24644 64.41561,18.17727 64.28952,18.42619c-0.82904,1.6392 -1.52463,3.3478 -2.11885,5.08505c-0.02031,0.06466 -0.16057,0.48909 -0.19328,0.58976c-0.0945,0.29673 -0.18693,0.59431 -0.27622,0.89366c-0.21333,0.71256 -0.41033,1.42893 -0.59393,2.15034c-0.38345,1.50818 -0.70145,3.0336 -0.96166,4.56781c-0.63744,3.76788 -0.90965,7.5801 -0.86336,11.40099c0.05829,4.82973 0.59505,9.64834 1.51112,14.38893c0.51663,2.67632 1.3772,5.29828 1.78977,7.99128c0.35162,2.30041 0.25448,4.71604 -0.25341,6.98639c-1.00613,4.49487 -3.59876,8.52282 -7.26433,11.30909c-2.72545,2.07142 -5.89105,3.70693 -8.98846,5.1379c-7.66894,3.54185 -16.13271,5.34229 -24.57247,5.39627c-5.36092,0.03418 -10.72526,-0.57814 -15.95496,-1.74582c-4.89019,-1.09137 -9.81078,-2.37804 -13.60703,-5.82897c-3.40951,-3.10035 -5.60801,-7.32251 -6.2558,-11.87827c-0.42581,-2.99584 -0.57889,-6.05987 -0.75874,-9.07881c-0.44206,-7.44463 -0.4606,-14.91137 0.05007,-22.35384c1.03872,-15.15295 4.3245,-31.95611 14.83297,-43.58694c0.04869,-0.05389 7.51574,1.15899 0.18904,0.14899zM211.57458,260.34233c-0.50596,-1.9311 -1.17452,-3.83721 -1.97322,-5.65855c-0.67113,-1.53191 -1.45995,-3.05518 -2.60851,-4.38454c-0.1502,-0.17446 -0.22853,-0.25794 -0.50707,-0.5142c-0.1494,-0.13641 -0.79407,-0.62646 -0.64169,-0.53138c-0.69442,-0.43024 -1.03683,-0.53241 -1.54085,-0.47329c-0.48507,0.05772 -0.99342,0.26255 -1.31702,0.47084c-0.10723,0.06905 -0.20751,0.15062 -0.30788,0.2312c-0.05432,0.05212 -0.2181,0.19752 -0.23581,0.21587c-0.29019,0.30811 -0.56067,0.63883 -0.79334,0.99284c-0.6647,1.01046 -1.33121,2.89641 -1.69293,4.33179c-0.95614,3.79733 -1.26267,7.75646 -1.35393,11.65665c-0.03597,1.54279 -0.02741,3.09133 0.01008,4.63774c5.31385,-2.35196 10.59758,-5.61818 12.96216,-10.97498zM190.90658,274.15296c-0.05652,-0.3869 -0.11603,-0.77357 -0.17946,-1.15896c-0.07252,-0.44087 -0.14996,-0.88037 -0.23337,-1.31944c-0.03819,-0.20575 -0.0783,-0.41036 -0.11941,-0.6149c-0.02542,-0.12748 -0.05183,-0.25489 -0.07717,-0.38137c-0.01382,-0.06516 -0.04568,-0.21222 -0.0595,-0.27738c-0.26293,-1.17589 -0.55149,-2.34588 -0.88236,-3.50474c-1.48478,-5.19311 -3.69999,-10.59723 -7.79837,-14.13424c-4.08775,-3.52877 -10.68439,-4.25002 -15.18324,-0.90514c-3.96923,2.95199 -5.24731,8.84857 -5.50273,13.57101c-0.1715,3.17713 -0.02519,6.44921 0.47237,9.61625c3.16453,0.65473 6.36968,1.11194 9.59104,1.31228c6.73572,0.41723 13.51038,-0.31348 19.9722,-2.20337zM154.74802,273.38618c0.14044,0.04181 0.28252,0.0785 0.42396,0.12024c-0.2876,-2.38433 -0.68391,-4.76067 -1.16508,-7.1047c-0.52751,-2.56523 -1.19796,-5.13799 -2.11299,-7.60053c-0.41384,-1.11466 -0.88143,-2.23739 -1.42648,-3.20002c-0.54398,-0.9617 -1.14957,-1.84768 -1.7844,-2.43572c-0.19481,-0.1812 -0.39701,-0.35384 -0.61208,-0.51049c-0.01163,-0.00817 -0.03375,-0.02259 -0.05586,-0.037c-0.10907,-0.06518 -0.22084,-0.12615 -0.33439,-0.18398c-0.44285,-0.22714 -0.10686,-0.13052 -0.56758,-0.21897c-0.39864,-0.07597 -0.74462,-0.14479 -1.15311,-0.0546c-1.60646,0.35274 -2.53447,2.29602 -3.14909,3.78309c0.28585,3.49244 0.54062,6.94405 2.35498,10.04637c2.14477,3.66861 5.52608,6.19448 9.58212,7.39631zM142.95708,224.64053c-0.79548,7.25085 -0.94576,14.56255 -0.69775,21.84998c0.04031,1.18925 0.10256,2.37688 0.16481,3.56451c1.70168,-1.49881 3.87183,-2.20383 6.45637,-1.1866c2.33676,0.92014 3.92943,3.14835 5.04792,5.29612c1.55377,2.9811 2.58294,6.23239 3.3452,9.54942c0.46226,-4.99133 1.84687,-10.16177 5.50435,-13.68544c4.84016,-4.66245 12.87801,-5.36872 18.62406,-1.96488c5.48504,3.24956 8.69765,9.20904 10.70278,15.0698c1.08163,3.1602 1.92308,6.49046 2.41822,9.82915c0.12594,-0.04636 0.25317,-0.0888 0.37804,-0.13609c-0.32173,-6.21714 -0.12584,-12.77215 1.43803,-18.76395c0.9222,-3.53614 2.63427,-7.81218 6.56288,-8.82096c4.20519,-1.07925 7.30997,2.49973 9.09125,5.8341c0.2791,0.52294 0.53514,1.05961 0.78933,1.59843c-0.23029,-2.23212 -0.93351,-4.39137 -1.40645,-6.58259c-1.02999,-4.77633 -1.73473,-9.61569 -1.94745,-14.50024c-0.30602,-7.05355 0.32203,-14.23593 2.29297,-21.03275c0.7456,-2.56959 1.66949,-5.15529 2.88486,-7.5679c13.18471,7.95571 -39.28813,-9.76435 -58.68584,-13.99425c-10.75741,9.60864 -11.45275,21.86627 -12.96357,35.64414z" data-paper-data="{&quot;index&quot;:null}" fill="#152345" stroke-width="1"/><path d="M154.77256,273.42972c-4.05604,-1.20183 -7.50052,-3.73948 -9.64529,-7.40809c-1.81436,-3.10232 -2.0632,-6.62354 -2.34905,-10.11598c0.61462,-1.48707 1.56232,-3.44079 3.16878,-3.79353c0.40849,-0.09019 0.75942,-0.02244 1.15806,0.05353c0.46073,0.08846 0.12719,-0.00851 0.57004,0.21863c0.11355,0.05783 0.22682,0.11866 0.33589,0.18384c0.02212,0.01442 0.04449,0.02882 0.05612,0.03698c0.21507,0.15666 0.42018,0.32916 0.61499,0.51036c0.63483,0.58804 1.25201,1.47516 1.79599,2.43686c0.54505,0.96263 1.03147,2.09386 1.44531,3.20851c0.91504,2.46253 1.59749,5.10351 2.125,7.66874c0.48117,2.34403 0.86161,4.73543 1.14921,7.11976c-0.14144,-0.04174 -0.2846,-0.07779 -0.42504,-0.11961z" data-paper-data="{&quot;noHover&quot;:false,&quot;origItem&quot;:[&quot;Path&quot;,{&quot;applyMatrix&quot;:true,&quot;segments&quot;:[[[704.65248,589.44356],[-3.74,7.632],[3.164,-6.454]],[[707.87648,569.05956],[-0.058,7.008],[-1.444,-2.876]],[[701.04048,561.97556],[3.256,0.468],[-0.828,-0.12]],[[698.74848,562.25356],[0.784,-0.21],[-0.906,0.244]],[[697.64848,562.77356],[0.85,-0.518],[-0.218,0.132]],[[697.00848,563.18956],[0.208,-0.146],[-0.042,0.032]],[[696.90248,563.27156],[0.022,-0.018],[-0.406,0.344]],[[695.75648,564.37956],[0.362,-0.39],[-1.18,1.266]],[[692.55448,569.49956],[0.944,-1.998],[-0.946,2]],[[690.17848,576.09156],[0.662,-2.284],[-1.464,5.046]],[[687.07848,591.56156],[0.676,-5.194],[-0.616,4.746]],[[685.79648,605.90356],[0.224,-4.798],[0.276,-0.104]],[[686.62448,605.60156],[-0.274,0.104],[7.914,-2.992]]],&quot;closed&quot;:true,&quot;fillColor&quot;:[0,0,0,1]}]}" fill="#67d440" stroke-width="0.5"/><path d="M170.91911,276.40395c-3.22136,-0.20033 -6.44906,-0.67244 -9.61358,-1.32717c-0.49756,-3.16704 -0.65539,-6.46365 -0.48389,-9.64078c0.25542,-4.72244 1.55186,-10.66648 5.52109,-13.61847c4.49885,-3.34488 11.15274,-2.6269 15.24048,0.90187c4.09838,3.53701 6.33556,8.99678 7.82034,14.18989c0.33086,1.15886 0.6161,2.3377 0.87903,3.51358c0.01382,0.06516 0.0454,0.21281 0.05921,0.27798c0.02534,0.12647 0.05134,0.25467 0.07676,0.38215c0.04111,0.20454 0.08056,0.41037 0.11875,0.61612c0.08342,0.43907 0.15941,0.88097 0.23193,1.32184c0.06343,0.38539 0.12167,0.77396 0.17819,1.16086c-6.46182,1.88989 -13.29257,2.63936 -20.0283,2.22212z" data-paper-data="{&quot;noHover&quot;:false,&quot;origItem&quot;:[&quot;Path&quot;,{&quot;applyMatrix&quot;:true,&quot;segments&quot;:[[[654.7745,613.89956],[-13.374,1.82],[6.396,-0.872]],[[673.7125,609.87556],[-6.216,1.77],[0.528,-6.39]],[[673.2445,590.62556],[0.808,6.312],[-1.202,-9.382]],[[660.2785,564.36356],[8.35,5.306],[-9.464,-6.012]],[[630.1265,568.39556],[7.636,-7.638],[-7.656,7.656]],[[616.6445,597.73156],[2.2,-10.576],[-0.49,2.36]],[[615.3985,604.85156],[0.352,-2.384],[-0.018,0.132]],[[615.3205,605.41356],[0.018,-0.132],[-0.032,0.256]],[[615.2225,606.18556],[0.032,-0.258],[-0.052,0.414]],[[615.0745,607.42956],[0.046,-0.416],[-0.102,0.888]],[[614.8025,610.09556],[0.08,-0.89],[-0.07,0.778]],[[614.6145,612.43356],[0.056,-0.78],[13.166,2.822]]],&quot;closed&quot;:true,&quot;fillColor&quot;:[0,0,0,1]}]}" fill="#67d440" stroke-width="0.5"/><path d="M211.62445,260.34616c-2.36458,5.3568 -7.72142,8.66347 -13.03526,11.01544c-0.03749,-1.54641 -0.05587,-3.1017 -0.0199,-4.64449c0.09127,-3.90019 0.39584,-7.93256 1.35198,-11.72989c0.36173,-1.43539 1.04761,-3.33313 1.71231,-4.34359c0.23267,-0.35401 0.5081,-0.68608 0.79829,-0.99419c0.0177,-0.01835 0.18277,-0.16401 0.23709,-0.21614c0.10036,-0.08058 0.20224,-0.16243 0.30947,-0.23147c0.3236,-0.20829 0.83815,-0.4137 1.32323,-0.47142c0.50402,-0.05912 0.85363,0.04335 1.54804,0.47359c-0.15238,-0.09508 0.49567,0.39546 0.64508,0.53187c0.27854,0.25627 0.35982,0.34038 0.51001,0.51484c1.14857,1.32936 1.96015,2.8652 2.63129,4.39711c0.79871,1.82134 1.4824,3.76724 1.98836,5.69834z" data-paper-data="{&quot;noHover&quot;:false,&quot;origItem&quot;:[&quot;Path&quot;,{&quot;applyMatrix&quot;:true,&quot;segments&quot;:[[[598.82848,607.90756],[-10.944,-3.912],[-0.152,-3.09]],[[598.16848,598.65556],[0.298,3.072],[-0.754,-7.766]],[[593.75848,575.60356],[2.464,7.434],[-0.932,-2.81]],[[589.74648,567.21156],[1.474,1.918],[-0.516,-0.672]],[[588.01848,565.34756],[0.624,0.572],[-0.038,-0.034]],[[587.51648,564.95156],[0.116,0.096],[-0.212,-0.146]],[[586.86848,564.53556],[0.224,0.122],[-0.676,-0.368]],[[584.17248,563.78956],[0.976,0.044],[-1.014,-0.044]],[[581.16848,564.95956],[1.322,-0.96],[0.29,-0.212]],[[579.96648,566.11356],[0.278,-0.294],[-0.518,0.552]],[[579.03048,567.21356],[0.274,-0.37],[-2.096,2.82]],[[574.47048,576.34156],[1.114,-3.154],[-1.326,3.75]],[[571.36448,587.91756],[0.726,-3.926],[5.502,10.338]]],&quot;closed&quot;:true,&quot;fillColor&quot;:[0,0,0,1]}]}" fill="#67d440" stroke-width="0.5"/><path d="M142.90772,224.63249c1.51082,-13.77787 2.23063,-26.07084 12.98805,-35.67948c19.39772,4.2299 71.93458,21.96224 58.74987,14.00653c-1.21537,2.41261 -2.1361,5.00278 -2.88169,7.57237c-1.97094,6.7968 -2.59133,14.00742 -2.28531,21.06097c0.21273,4.88455 0.9124,9.74428 1.9424,14.52061c0.47294,2.19123 1.17283,4.35627 1.40311,6.58839c-0.25419,-0.5388 -0.59402,-1.13005 -0.87311,-1.65299c-1.78127,-3.33437 -4.80158,-6.85983 -9.00677,-5.78059c-3.92861,1.00878 -5.6541,5.29895 -6.5763,8.83509c-1.56387,5.9918 -1.77175,12.55304 -1.45002,18.77019c-0.12487,0.04728 -0.28537,-0.00458 -0.41131,0.04178c-0.49514,-3.33868 -1.30246,-6.57496 -2.38409,-9.73515c-2.00513,-5.86075 -5.23089,-11.8172 -10.71593,-15.06676c-5.74605,-3.40384 -13.82146,-2.7098 -18.66162,1.95265c-3.65748,3.52367 -5.03725,8.69786 -5.49951,13.68919c-0.76227,-3.31704 -1.80028,-6.57602 -3.35405,-9.55711c-1.11849,-2.14776 -2.71724,-4.38422 -5.054,-5.30436c-2.58454,-1.01723 -4.75599,-0.31456 -6.45767,1.18425c-0.06226,-1.18764 -0.1262,-2.37887 -0.16651,-3.56812c-0.24801,-7.28743 -0.10101,-14.62661 0.69447,-21.87745z" data-paper-data="{&quot;noHover&quot;:false,&quot;origItem&quot;:[&quot;Path&quot;,{&quot;applyMatrix&quot;:true,&quot;segments&quot;:[[[671.91,437.44826],[22.866,17.588],[-38.0707,11.28166]],[[556.90648,473.96756],[-25.13176,17.8021],[2.778,4.634]],[[563.77048,488.63956],[-1.864,-5.016],[4.928,13.268]],[[571.42848,530.25556],[-0.424,-14.114],[0.292,9.774]],[[569.67048,559.46356],[1.354,-9.678],[-0.622,4.44]],[[567.83048,572.79956],[0.132,-4.486],[0.428,-1.112]],[[569.17048,569.49556],[-0.48,1.084],[3.064,-6.912]],[[586.44848,556.52556],[-8.546,-1.536],[7.984,1.436]],[[600.83248,573.15756],[-2.358,-6.918],[3.998,11.722]],[[606.45248,610.37356],[-0.27,-12.448],[0.256,0.076]],[[607.22648,610.58956],[-0.258,-0.074],[0.498,-6.732]],[[610.60848,590.62956],[-1.694,6.462],[3.14,-11.984]],[[629.74648,559.00156],[-10.464,7.286],[10.962,-7.632]],[[667.18248,560.18956],[-10.338,-8.59],[7.812,6.492]],[[680.16848,586.67956],[-1.654,-9.888],[1.034,-6.728]],[[685.44048,567.14156],[-2.662,6.174],[1.916,-4.448]],[[694.73248,555.83756],[-4.526,2.178],[5.006,-2.408]],[[707.78448,557.25756],[-3.614,-2.74],[-0.05,-2.378]],[[707.59048,550.12356],[0.094,2.378],[-0.574,-14.572]],[[702.99448,506.64356],[2.65,14.346],[-5.034,-27.26]]],&quot;closed&quot;:true,&quot;fillColor&quot;:[0,0,0,1]}]}" fill="#67d440" stroke-width="0.5"/></g><path d="M194.83015,265.31393c6.90795,-0.50788 12.93876,4.93966 13.47016,12.16745c0.5314,7.22779 -4.63784,13.49878 -11.5458,14.00667c-6.90795,0.50788 -12.93877,-4.93966 -13.47017,-12.16745c-0.5314,-7.22779 4.63784,-13.49878 11.54581,-14.00667z" data-paper-data="{&quot;index&quot;:null}" fill="#000000" stroke="#000000" stroke-width="0.5" stroke-linecap="butt"/><path d="M161.35969,267.77469c6.84403,-0.50318 12.83061,5.0519 13.37142,12.40762c0.5408,7.35567 -4.56896,13.72658 -11.41299,14.22977c-6.84398,0.50318 -12.83057,-5.05186 -13.37137,-12.40758c-0.5408,-7.35572 4.56892,-13.72662 11.41295,-14.2298z" data-paper-data="{&quot;index&quot;:null}" fill="#000000" stroke="#000000" stroke-width="0.5" stroke-linecap="butt"/><path d="M151.00372,283.15342c-7.19131,0.7272 1.45397,-9.71049 1.45397,-9.71049l7.86044,-0.31112c0,0 9.16279,7.9572 4.60324,8.99837c-3.31516,0.75701 -8.49811,0.47523 -13.91764,1.02325z" data-paper-data="{&quot;index&quot;:null}" fill="#1fba00" stroke="#1fba00" stroke-width="0.5" stroke-linecap="round"/><path d="M151.10424,283.17607c-16.10511,1.08848 -10.93079,-44.53517 -10.93079,-44.53517l71.13194,-6.2738c0,0 14.74079,45.36222 -6.30039,46.8461c-53.30543,3.75932 -11.47636,1.0955 -53.90076,3.96288z" data-paper-data="{&quot;index&quot;:null}" fill="#ff0000" stroke="#000000" stroke-width="3.5" stroke-linecap="butt"/><path d="M158.10917,280.48313c0,0 -3.92456,-5.6312 -3.82797,-9.01611c0.09659,-3.38491 4.41134,-4.77922 4.32581,-8.42868c-0.08559,-3.64947 -5.21228,-1.53323 -3.13649,-7.68222c2.07579,-6.14904 10.10701,-13.20577 10.10701,-13.20577c0,0 3.47026,1.75151 5.63645,6.70715c2.16619,4.95564 -5.60458,8.3026 -5.2026,12.64733c0.40197,4.34468 -4.36019,5.15979 -3.84546,9.58027c0.51473,4.42049 5.99232,8.85698 5.99232,8.85698z" data-paper-data="{&quot;index&quot;:null}" fill="#eac100" stroke="#000000" stroke-width="0" stroke-linecap="round"/><path d="M190.29723,278.02924c0,0 -3.92455,-5.63119 -3.82797,-9.01611c0.09654,-3.38491 4.41131,-4.77917 4.32576,-8.42864c-0.08554,-3.64947 -5.21224,-1.53324 -3.13644,-7.68222c2.07579,-6.14899 10.107,-13.20577 10.107,-13.20577c0,0 3.47026,1.75151 5.63645,6.70715c2.16619,4.95568 -5.60457,8.30265 -5.2026,12.64737c0.40197,4.34472 -4.36019,5.15979 -3.84546,9.58027c0.51473,4.42049 5.99232,8.85699 5.99232,8.85699z" data-paper-data="{&quot;index&quot;:null}" fill="#eac100" stroke="#eac100" stroke-width="0" stroke-linecap="round"/></g><g><g data-paper-data="{&quot;index&quot;:null}" stroke="none" stroke-linecap="butt"><path d="M149.06945,194.31366c-0.21776,0.17629 52.48465,41.53488 52.27257,41.71623c-1.39529,1.19476 -2.69404,2.50488 -3.91021,3.88041c-0.04361,0.05189 -0.33618,0.38983 -0.40507,0.47021c-0.20127,0.23763 -0.40094,0.47685 -0.59842,0.71889c-0.47076,0.57587 -0.92792,1.16154 -1.37465,1.75701c-0.93356,1.24502 -1.81332,2.53114 -2.64311,3.84755c-2.03639,3.23363 -3.75264,6.64854 -5.17818,10.19385c-1.80213,4.4813 -3.15824,9.1362 -4.13421,13.86481c-0.55148,2.66936 -0.76455,5.42069 -1.41849,8.06546c-0.55936,2.2589 -1.57731,4.45172 -2.91865,6.35258c-2.65613,3.76312 -6.59754,6.4855 -11.05237,7.64927c-3.31218,0.86504 -6.86321,1.15852 -10.27268,1.28937c-8.44115,0.32293 -16.94692,-1.26729 -24.75942,-4.46063c-4.96244,-2.02853 -9.6796,-4.6552 -14.05905,-7.74286c-4.09533,-2.88675 -8.14368,-5.96549 -10.32233,-10.61025c-1.95634,-4.17248 -2.36357,-8.91528 -1.21095,-13.3702c0.75811,-2.92943 1.79421,-5.81704 2.78828,-8.67329c2.45266,-7.0429 5.30483,-13.94344 8.63624,-20.61825c6.78186,-13.59034 16.27238,-27.84069 30.44342,-34.54035c0.06566,-0.03103 6.49332,3.95811 0.11727,0.21019zM173.77482,285.25505c0.27496,-1.97726 0.39021,-3.99392 0.35272,-5.98234c-0.03093,-1.67219 -0.17382,-3.38161 -0.72336,-5.05027c-0.07163,-0.21878 -0.11187,-0.32595 -0.27054,-0.66958c-0.08551,-0.18335 -0.49237,-0.88351 -0.38823,-0.73717c-0.47577,-0.66404 -0.75263,-0.88997 -1.24068,-1.02906c-0.47,-0.1331 -1.01803,-0.13936 -1.39682,-0.0714c-0.12553,0.02254 -0.24946,0.05931 -0.37309,0.09514c-0.07018,0.02725 -0.27728,0.09854 -0.30066,0.10868c-0.38631,0.17294 -0.7631,0.37433 -1.11396,0.61176c-1.00197,0.67744 -2.34201,2.16247 -3.22755,3.34863c-2.34195,3.13835 -4.14633,6.67571 -5.72934,10.24135c-0.62606,1.4105 -1.21323,2.84344 -1.77285,4.28552c5.80964,-0.1294 11.94282,-1.11443 16.18431,-5.15128zM149.38666,290.06311c0.0965,-0.37892 0.19015,-0.75876 0.27967,-1.13894c0.10246,-0.43488 0.19986,-0.8704 0.29156,-1.30781c0.0438,-0.20463 0.08541,-0.40894 0.12606,-0.61357c0.02552,-0.12746 0.0501,-0.25523 0.07531,-0.38174c0.0123,-0.06547 0.03937,-0.21348 0.05166,-0.27895c0.20913,-1.18664 0.39231,-2.37769 0.53218,-3.57471c0.62482,-5.36494 0.65633,-11.20537 -1.76818,-16.04571c-2.41787,-4.82864 -8.23086,-8.02943 -13.66962,-6.67019c-4.79884,1.20007 -8.24469,6.15277 -10.29523,10.41446c-1.37923,2.86728 -2.50152,5.94436 -3.25917,9.05942c2.66996,1.8205 5.45331,3.47427 8.35036,4.89712c6.05821,2.97357 12.5935,4.90228 19.28542,5.64062zM116.29906,275.46038c0.1136,0.09258 0.23065,0.18103 0.3452,0.27391c0.65072,-2.31178 1.19801,-4.65795 1.65452,-7.0069c0.49875,-2.57098 0.86842,-5.20383 0.96994,-7.82892c0.04626,-1.1881 0.04601,-2.40432 -0.08727,-3.50248c-0.13265,-1.0969 -0.3513,-2.14757 -0.71141,-2.93441c-0.11022,-0.24216 -0.23056,-0.47923 -0.36892,-0.70651c-0.00761,-0.01202 -0.02248,-0.03381 -0.03735,-0.05563c-0.07566,-0.10208 -0.15541,-0.20133 -0.23802,-0.29835c-0.32158,-0.37987 -0.0485,-0.16156 -0.43985,-0.42026c-0.33885,-0.22333 -0.63182,-0.41982 -1.04358,-0.49352c-1.61867,-0.29167 -3.22217,1.1458 -4.36103,2.2825c-1.07816,3.33414 -2.16932,6.61863 -1.6864,10.17994c0.57034,4.2111 2.72139,7.84239 6.00418,10.51058zM124.14514,225.92652c-3.52071,6.38844 -6.46917,13.08099 -9.04057,19.90418c-0.41978,1.11343 -0.81869,2.23379 -1.2176,3.35416c2.14698,-0.72981 4.42142,-0.54676 6.41662,1.38552c1.80375,1.74744 2.41788,4.41661 2.62516,6.82927c0.2889,3.34928 -0.01033,6.74642 -0.58124,10.10168c2.34482,-4.43045 5.60998,-8.67183 10.34068,-10.51948c6.26018,-2.44451 13.95228,-0.0078 17.94914,5.34274c3.81517,5.10782 4.49104,11.84424 4.09007,18.02553c-0.21581,3.3332 -0.7187,6.73111 -1.54455,10.00371c0.13409,0.00559 0.26785,0.0153 0.4013,0.01962c2.09206,-5.86342 4.79184,-11.83985 8.53812,-16.77063c2.21024,-2.91026 5.43404,-6.20006 9.44865,-5.62173c4.29702,0.61956 5.78812,5.11684 6.15132,8.87968c0.05671,0.59003 0.08687,1.1839 0.11449,1.77902c0.64513,-2.14923 0.82565,-4.41293 1.23106,-6.61765c0.88452,-4.8054 2.09354,-9.544 3.77415,-14.13525c2.42799,-6.62956 5.76781,-13.01913 10.19927,-18.5367c1.67577,-2.08577 3.52235,-4.11791 5.57151,-5.87825c9.11518,12.41141 -32.51934,-24.11206 -48.80223,-35.47124c-13.6238,4.73707 -18.97605,15.78635 -25.66535,27.92577z" data-paper-data="{&quot;index&quot;:null}" fill="#152345" stroke-width="1"/><path d="M116.30498,275.51001c-3.28278,-2.66819 -5.48764,-6.33461 -6.05797,-10.54573c-0.48291,-3.56133 0.64046,-6.90781 1.71862,-10.24195c1.13886,-1.1367 2.76457,-2.57624 4.38324,-2.28457c0.41179,0.07369 0.70974,0.2711 1.04857,0.49443c0.39135,0.25871 0.12069,0.04102 0.44226,0.4209c0.08261,0.09702 0.16381,0.19671 0.23947,0.29879c0.01488,0.02181 0.03001,0.0437 0.03759,0.0557c0.13835,0.22728 0.26143,0.46535 0.37165,0.7075c0.36011,0.78683 0.58901,1.84302 0.72166,2.93992c0.1333,1.09816 0.14764,2.32946 0.10139,3.51756c-0.10151,2.62509 -0.48632,5.32554 -0.98506,7.8965c-0.45652,2.34896 -1.02424,4.70293 -1.67497,7.0147c-0.11455,-0.09288 -0.23286,-0.1812 -0.34645,-0.27375z" data-paper-data="{&quot;noHover&quot;:false,&quot;origItem&quot;:[&quot;Path&quot;,{&quot;applyMatrix&quot;:true,&quot;segments&quot;:[[[704.65248,589.44356],[-3.74,7.632],[3.164,-6.454]],[[707.87648,569.05956],[-0.058,7.008],[-1.444,-2.876]],[[701.04048,561.97556],[3.256,0.468],[-0.828,-0.12]],[[698.74848,562.25356],[0.784,-0.21],[-0.906,0.244]],[[697.64848,562.77356],[0.85,-0.518],[-0.218,0.132]],[[697.00848,563.18956],[0.208,-0.146],[-0.042,0.032]],[[696.90248,563.27156],[0.022,-0.018],[-0.406,0.344]],[[695.75648,564.37956],[0.362,-0.39],[-1.18,1.266]],[[692.55448,569.49956],[0.944,-1.998],[-0.946,2]],[[690.17848,576.09156],[0.662,-2.284],[-1.464,5.046]],[[687.07848,591.56156],[0.676,-5.194],[-0.616,4.746]],[[685.79648,605.90356],[0.224,-4.798],[0.276,-0.104]],[[686.62448,605.60156],[-0.274,0.104],[7.914,-2.992]]],&quot;closed&quot;:true,&quot;fillColor&quot;:[0,0,0,1]}]}" fill="#67d440" stroke-width="0.5"/><path d="M130.06884,284.46059c-2.89705,-1.42283 -5.69548,-3.09902 -8.36544,-4.91952c0.75767,-3.11508 1.87875,-6.21922 3.25798,-9.0865c2.05051,-4.2617 5.53157,-9.25116 10.33041,-10.45121c5.43878,-1.35925 11.30587,1.8605 13.72374,6.68916c2.42452,4.84034 2.39189,10.7406 1.76707,16.10553c-0.13987,1.19703 -0.32953,2.39496 -0.53865,3.58161c-0.0123,0.06547 -0.03986,0.21392 -0.05215,0.2794c-0.02521,0.12651 -0.05046,0.25485 -0.07599,0.38231c-0.04064,0.20462 -0.08332,0.40981 -0.12713,0.61444c-0.0917,0.43741 -0.19137,0.87459 -0.29383,1.30947c-0.08953,0.38018 -0.18508,0.76129 -0.28159,1.14021c-6.69192,-0.73833 -13.2862,-2.6713 -19.34441,-5.64487z" data-paper-data="{&quot;noHover&quot;:false,&quot;origItem&quot;:[&quot;Path&quot;,{&quot;applyMatrix&quot;:true,&quot;segments&quot;:[[[654.7745,613.89956],[-13.374,1.82],[6.396,-0.872]],[[673.7125,609.87556],[-6.216,1.77],[0.528,-6.39]],[[673.2445,590.62556],[0.808,6.312],[-1.202,-9.382]],[[660.2785,564.36356],[8.35,5.306],[-9.464,-6.012]],[[630.1265,568.39556],[7.636,-7.638],[-7.656,7.656]],[[616.6445,597.73156],[2.2,-10.576],[-0.49,2.36]],[[615.3985,604.85156],[0.352,-2.384],[-0.018,0.132]],[[615.3205,605.41356],[0.018,-0.132],[-0.032,0.256]],[[615.2225,606.18556],[0.032,-0.258],[-0.052,0.414]],[[615.0745,607.42956],[0.046,-0.416],[-0.102,0.888]],[[614.8025,610.09556],[0.08,-0.89],[-0.07,0.778]],[[614.6145,612.43356],[0.056,-0.78],[13.166,2.822]]],&quot;closed&quot;:true,&quot;fillColor&quot;:[0,0,0,1]}]}" fill="#67d440" stroke-width="0.5"/><path d="M173.81938,285.27775c-4.24151,4.03684 -10.45772,5.03114 -16.26735,5.16054c0.55963,-1.44208 1.14032,-2.88503 1.76639,-4.29553c1.58301,-3.56567 3.41373,-7.17138 5.75567,-10.30973c0.88554,-1.18618 2.24801,-2.67463 3.24997,-3.35208c0.35086,-0.23743 0.73273,-0.43815 1.11903,-0.61109c0.0234,-0.01014 0.23175,-0.08118 0.30194,-0.10843c0.12362,-0.03582 0.24913,-0.07224 0.37465,-0.09477c0.37879,-0.06794 0.93277,-0.05984 1.40278,0.07326c0.48804,0.13911 0.77142,0.36803 1.24719,1.0321c-0.10415,-0.14633 0.30565,0.55556 0.39116,0.73892c0.15868,0.34362 0.20137,0.45251 0.27301,0.6713c0.54953,1.66864 0.70863,3.39843 0.73956,5.07063c0.0375,1.98842 -0.07907,4.04763 -0.35404,6.02488z" data-paper-data="{&quot;noHover&quot;:false,&quot;origItem&quot;:[&quot;Path&quot;,{&quot;applyMatrix&quot;:true,&quot;segments&quot;:[[[598.82848,607.90756],[-10.944,-3.912],[-0.152,-3.09]],[[598.16848,598.65556],[0.298,3.072],[-0.754,-7.766]],[[593.75848,575.60356],[2.464,7.434],[-0.932,-2.81]],[[589.74648,567.21156],[1.474,1.918],[-0.516,-0.672]],[[588.01848,565.34756],[0.624,0.572],[-0.038,-0.034]],[[587.51648,564.95156],[0.116,0.096],[-0.212,-0.146]],[[586.86848,564.53556],[0.224,0.122],[-0.676,-0.368]],[[584.17248,563.78956],[0.976,0.044],[-1.014,-0.044]],[[581.16848,564.95956],[1.322,-0.96],[0.29,-0.212]],[[579.96648,566.11356],[0.278,-0.294],[-0.518,0.552]],[[579.03048,567.21356],[0.274,-0.37],[-2.096,2.82]],[[574.47048,576.34156],[1.114,-3.154],[-1.326,3.75]],[[571.36448,587.91756],[0.726,-3.926],[5.502,10.338]]],&quot;closed&quot;:true,&quot;fillColor&quot;:[0,0,0,1]}]}" fill="#67d440" stroke-width="0.5"/><path d="M124.10268,225.90014c6.6893,-12.13941 12.07773,-23.21191 25.70152,-27.94899c16.2829,11.35918 57.97182,47.91859 48.85663,35.50717c-2.04915,1.76033 -3.89453,3.79782 -5.57031,5.88358c-4.43144,5.51755 -7.77505,11.93613 -10.20303,18.56569c-1.68062,4.59124 -2.90213,9.34672 -3.78665,14.15212c-0.4054,2.20473 -0.59122,4.47248 -1.23639,6.62172c-0.02762,-0.59511 -0.11416,-1.27155 -0.17088,-1.86158c-0.3632,-3.76284 -1.79685,-8.17826 -6.09389,-8.79781c-4.01462,-0.57833 -7.25623,2.71936 -9.46646,5.62961c-3.74629,4.93079 -6.45953,10.90837 -8.55159,16.77178c-0.13344,-0.00434 -0.26171,-0.11388 -0.39578,-0.11948c0.82586,-3.2726 1.32413,-6.57062 1.53994,-9.90382c0.40096,-6.18128 -0.28821,-12.91997 -4.10339,-18.02778c-3.99684,-5.35055 -11.71892,-7.81298 -17.97911,-5.36846c-4.73071,1.84763 -7.99285,6.09435 -10.33765,10.5248c0.57091,-3.35527 0.86494,-6.7629 0.57604,-10.11219c-0.20729,-2.41265 -0.82387,-5.09175 -2.62762,-6.83921c-1.99521,-1.9323 -4.26995,-2.11801 -6.41693,-1.38819c0.39891,-1.12038 0.79763,-2.24471 1.21742,-3.35813c2.57141,-6.8232 5.52738,-13.54237 9.0481,-19.93081z" data-paper-data="{&quot;noHover&quot;:false,&quot;origItem&quot;:[&quot;Path&quot;,{&quot;applyMatrix&quot;:true,&quot;segments&quot;:[[[671.91,437.44826],[22.866,17.588],[-38.0707,11.28166]],[[556.90648,473.96756],[-25.13176,17.8021],[2.778,4.634]],[[563.77048,488.63956],[-1.864,-5.016],[4.928,13.268]],[[571.42848,530.25556],[-0.424,-14.114],[0.292,9.774]],[[569.67048,559.46356],[1.354,-9.678],[-0.622,4.44]],[[567.83048,572.79956],[0.132,-4.486],[0.428,-1.112]],[[569.17048,569.49556],[-0.48,1.084],[3.064,-6.912]],[[586.44848,556.52556],[-8.546,-1.536],[7.984,1.436]],[[600.83248,573.15756],[-2.358,-6.918],[3.998,11.722]],[[606.45248,610.37356],[-0.27,-12.448],[0.256,0.076]],[[607.22648,610.58956],[-0.258,-0.074],[0.498,-6.732]],[[610.60848,590.62956],[-1.694,6.462],[3.14,-11.984]],[[629.74648,559.00156],[-10.464,7.286],[10.962,-7.632]],[[667.18248,560.18956],[-10.338,-8.59],[7.812,6.492]],[[680.16848,586.67956],[-1.654,-9.888],[1.034,-6.728]],[[685.44048,567.14156],[-2.662,6.174],[1.916,-4.448]],[[694.73248,555.83756],[-4.526,2.178],[5.006,-2.408]],[[707.78448,557.25756],[-3.614,-2.74],[-0.05,-2.378]],[[707.59048,550.12356],[0.094,2.378],[-0.574,-14.572]],[[702.99448,506.64356],[2.65,14.346],[-5.034,-27.26]]],&quot;closed&quot;:true,&quot;fillColor&quot;:[0,0,0,1]}]}" fill="#67d440" stroke-width="0.5"/></g><path d="M156.40559,283.41048c6.57272,2.18567 10.04713,9.53242 7.76027,16.40945c-2.28687,6.87704 -9.46899,10.68012 -16.04171,8.49445c-6.57272,-2.18567 -10.04714,-9.53243 -7.76028,-16.40945c2.28687,-6.87704 9.46899,-10.68012 16.04172,-8.49445z" data-paper-data="{&quot;index&quot;:null}" fill="#000000" stroke="#000000" stroke-width="0.5" stroke-linecap="butt"/><path d="M124.55943,272.82044c6.51189,2.16544 9.90415,9.59448 7.57681,16.59324c-2.32732,6.9987 -9.49292,10.9169 -16.00482,8.75147c-6.51184,-2.16543 -9.90412,-9.59444 -7.57679,-16.59319c2.32733,-6.99875 9.49292,-10.91695 16.0048,-8.75152z" data-paper-data="{&quot;index&quot;:null}" fill="#000000" stroke="#000000" stroke-width="0.5" stroke-linecap="butt"/><path d="M109.08894,283.03885c-6.91859,-2.09207 5.07383,-8.40619 5.07383,-8.40619l7.37646,2.73334c0,0 5.40151,10.86727 0.79196,10.07637c-3.35151,-0.57504 -8.02825,-2.82686 -13.24223,-4.40352z" data-paper-data="{&quot;index&quot;:null}" fill="#1fba00" stroke="#1fba00" stroke-width="0.5" stroke-linecap="round"/><path d="M109.17303,283.0984c-15.28683,-5.18387 7.02223,-45.31613 7.02223,-45.31613l68.08121,21.5421c0,0 -3.82257,47.54376 -23.81841,40.82813c-50.65719,-17.01324 -11.01615,-3.39869 -51.28502,-17.05409z" data-paper-data="{&quot;index&quot;:null}" fill="#ff0000" stroke="#000000" stroke-width="3.5" stroke-linecap="butt"/><path d="M116.67495,283.30403c0,0 -1.45931,-6.70694 -0.0694,-9.79484c1.3899,-3.08791 5.90916,-2.7171 7.23259,-6.11922c1.32337,-3.40216 -4.2229,-3.41845 0.05641,-8.29764c4.27932,-4.87924 14.40563,-8.30794 14.40563,-8.30794c0,0 2.53075,2.95057 2.62629,8.35811c0.09555,5.40755 -8.36473,5.51142 -9.6632,9.67703c-1.29845,4.16556 -6.00819,3.0881 -7.23166,7.36698c-1.22347,4.27887 2.1287,10.47963 2.1287,10.47963z" data-paper-data="{&quot;index&quot;:null}" fill="#eac100" stroke="#000000" stroke-width="0" stroke-linecap="round"/><path d="M147.33454,293.40761c0,0 -1.45931,-6.70693 -0.0694,-9.79484c1.38985,-3.08792 5.90911,-2.71707 7.23254,-6.1192c1.32342,-3.40214 -4.22286,-3.41845 0.05646,-8.29763c4.27932,-4.87919 14.40562,-8.30795 14.40562,-8.30795c0,0 2.53075,2.95057 2.62629,8.35811c0.09553,5.40758 -8.36475,5.51147 -9.66321,9.67707c-1.29846,4.1656 -6.00819,3.0881 -7.23166,7.36698c-1.22347,4.27887 2.1287,10.47964 2.1287,10.47964z" data-paper-data="{&quot;index&quot;:null}" fill="#eac100" stroke="#eac100" stroke-width="0" stroke-linecap="round"/></g><g><g stroke="none" stroke-linecap="butt"><path d="M348.54892,209.17825c-7.33279,-0.96481 0.18904,-0.15851 0.22173,-0.09366c7.05608,13.997 5.77824,31.07064 2.77012,45.95828c-1.477,7.31231 -3.47074,14.50795 -5.86705,21.57022c-0.97232,2.86373 -1.93075,5.77802 -3.13415,8.55439c-1.83025,4.22196 -5.06767,7.71183 -9.17605,9.79942c-4.57413,2.32333 -9.65979,2.26204 -14.66444,2.02047c-5.35225,-0.25783 -10.6874,-1.08687 -15.84817,-2.53846c-8.12461,-2.28541 -15.81024,-6.26136 -22.26854,-11.70634c-2.60834,-2.1996 -5.22828,-4.61452 -7.30844,-7.3333c-2.79759,-3.65694 -4.23192,-8.22735 -4.01273,-12.82826c0.111,-2.32382 0.65655,-4.67904 1.60438,-6.8044c1.11049,-2.48782 2.63421,-4.7886 3.84065,-7.23279c2.13787,-4.32919 3.93061,-8.83399 5.26489,-13.47612c1.05573,-3.67244 1.80203,-7.4208 2.18438,-11.22304c0.15505,-1.54839 0.25206,-3.10358 0.28136,-4.65945c0.01384,-0.74428 0.01343,-1.48724 -0.00373,-2.23084c-0.00689,-0.31232 -0.01727,-0.62374 -0.02988,-0.9349c-0.0049,-0.10574 -0.02785,-0.55214 -0.03032,-0.61987c-0.11331,-1.83256 -0.33199,-3.66434 -0.69769,-5.46449c-0.05572,-0.2734 66.93704,-0.48397 66.87371,-0.75689zM282.74354,279.71948c0.44537,-1.48136 0.8634,-2.97244 1.23698,-4.46974c0.94407,-3.78531 1.69614,-7.68443 1.77894,-11.5994c0.03101,-1.47994 -0.11269,-3.47503 -0.48629,-4.62536c-0.1307,-0.40296 -0.30402,-0.79347 -0.50233,-1.16739c-0.01221,-0.02237 -0.13167,-0.20593 -0.17028,-0.27057c-0.07546,-0.10426 -0.15058,-0.20947 -0.23573,-0.30442c-0.25694,-0.28649 -0.69297,-0.61854 -1.14548,-0.80257c-0.47042,-0.19038 -0.82765,-0.18247 -1.61117,0.04867c0.1721,-0.05138 -0.57926,0.25062 -0.75943,0.34263c-0.33642,0.17343 -0.43406,0.2332 -0.62507,0.3617c-1.4594,0.97804 -2.62319,2.23827 -3.67577,3.53797c-1.25219,1.54506 -2.40132,3.2063 -3.40025,4.93467c0.86276,5.79156 5.09384,10.33953 9.59587,14.01382zM308.10147,291.90312c3.15954,0.65925 6.37142,1.06649 9.59639,1.27251c1.3179,-2.92248 2.32486,-6.03919 3.0002,-9.14845c1.00335,-4.62168 1.3312,-10.64628 -1.71538,-14.54338c-3.45334,-4.41614 -10.0057,-5.46622 -14.88151,-3.14494c-4.88825,2.32641 -8.45455,6.95167 -11.2606,11.56677c-0.62573,1.03 -1.21362,2.08191 -1.77833,3.14631c-0.03056,0.05918 -0.10022,0.19256 -0.13079,0.25174c-0.05791,0.11527 -0.1171,0.23114 -0.17534,0.34735c-0.09377,0.18637 -0.1866,0.37307 -0.27787,0.56139c-0.19662,0.40134 -0.38761,0.80468 -0.57421,1.21064c-0.16315,0.35486 -0.32287,0.71202 -0.47975,1.07015c5.73135,3.53246 12.07116,6.02985 18.67717,7.40993zM335.69454,288.7251c2.57062,-2.5116 3.72968,-5.77276 4.92953,-9.06506c-0.19919,-1.5967 -0.57989,-3.71627 -2.03575,-4.48155c-0.37006,-0.19508 -0.7219,-0.22027 -1.12645,-0.25249c-0.46771,-0.03662 -0.11814,-0.04089 -0.6053,0.06098c-0.1248,0.02572 -0.24872,0.05494 -0.37116,0.08893c-0.02514,0.00805 -0.05029,0.01609 -0.06366,0.02091c-0.24885,0.09416 -0.48953,0.20713 -0.72535,0.33034c-0.7678,0.39907 -1.58625,1.09323 -2.36533,1.8767c-0.78035,0.78407 -1.52837,1.74306 -2.22243,2.70846c-1.53406,2.13262 -2.86141,4.43624 -4.04893,6.77044c-1.08429,2.13314 -2.09532,4.31989 -3.00361,6.54312c0.14744,-0.00282 0.29416,-0.0006 0.44066,-0.00377c4.22948,-0.08567 8.15866,-1.62673 11.19775,-4.59701zM345.69739,211.63033c-19.82555,-1.05396 -75.11697,2.14893 -60.29701,-2.03421c0.53361,2.64823 0.74033,5.38622 0.77938,8.06153c0.1021,7.07607 -1.19286,14.16862 -3.35451,20.88975c-1.4977,4.65414 -3.45793,9.13448 -5.71511,13.46799c-1.03592,1.98795 -2.28547,3.88415 -3.09822,5.97577c0.38772,-0.45234 0.77665,-0.90212 1.18417,-1.33257c2.60014,-2.74413 6.54131,-5.37394 10.311,-3.22039c3.52162,2.0124 4.04112,6.58908 3.9947,10.2432c-0.07744,6.19204 -1.62315,12.56521 -3.5786,18.47559c0.1079,0.07865 0.21937,0.15323 0.32856,0.23127c1.36098,-3.08865 3.0537,-6.07752 4.93302,-8.83884c3.48454,-5.12122 8.15965,-10.01812 14.30906,-11.70039c6.44194,-1.76196 14.00637,1.04613 17.4402,6.82318c2.59465,4.36591 2.56169,9.71843 1.68666,14.65417c1.61286,-2.99709 3.4657,-5.86013 5.75294,-8.32378c1.64696,-1.77522 3.7725,-3.50255 6.26945,-3.77155c2.76159,-0.29704 4.66781,0.95712 5.91222,2.8528c0.37431,-1.12882 0.7486,-2.25765 1.10217,-3.39382c2.16758,-6.96202 3.9575,-14.05284 5.10911,-21.25572c2.18896,-13.6865 4.76206,-25.69118 -3.06921,-37.80394z" data-paper-data="{&quot;index&quot;:null}" fill="#152345" stroke-width="1"/><path d="M324.46157,293.3576c-0.1465,0.00315 -0.29411,0.00004 -0.44154,0.00288c0.9083,-2.22322 1.908,-4.42872 2.99229,-6.56186c1.18753,-2.3342 2.54452,-4.70043 4.07857,-6.83304c0.69406,-0.96541 1.46248,-1.92759 2.24282,-2.71167c0.77908,-0.78347 1.60902,-1.47563 2.37682,-1.87474c0.23581,-0.12319 0.47926,-0.23526 0.72811,-0.32943c0.01337,-0.00479 0.03876,-0.01277 0.06391,-0.02082c0.12243,-0.03399 0.24777,-0.06268 0.37256,-0.08839c0.48717,-0.10185 0.13986,-0.09661 0.60757,-0.05999c0.40454,0.03222 0.76089,0.05975 1.13095,0.25483c1.45584,0.76528 1.85277,2.90013 2.05198,4.49683c-1.19984,3.29231 -2.3716,6.62215 -4.94222,9.13376c-3.03912,2.97028 -7.03232,4.50598 -11.2618,4.59165z" data-paper-data="{&quot;noHover&quot;:false,&quot;origItem&quot;:[&quot;Path&quot;,{&quot;applyMatrix&quot;:true,&quot;segments&quot;:[[[704.65248,589.44356],[-3.74,7.632],[3.164,-6.454]],[[707.87648,569.05956],[-0.058,7.008],[-1.444,-2.876]],[[701.04048,561.97556],[3.256,0.468],[-0.828,-0.12]],[[698.74848,562.25356],[0.784,-0.21],[-0.906,0.244]],[[697.64848,562.77356],[0.85,-0.518],[-0.218,0.132]],[[697.00848,563.18956],[0.208,-0.146],[-0.042,0.032]],[[696.90248,563.27156],[0.022,-0.018],[-0.406,0.344]],[[695.75648,564.37956],[0.362,-0.39],[-1.18,1.266]],[[692.55448,569.49956],[0.944,-1.998],[-0.946,2]],[[690.17848,576.09156],[0.662,-2.284],[-1.464,5.046]],[[687.07848,591.56156],[0.676,-5.194],[-0.616,4.746]],[[685.79648,605.90356],[0.224,-4.798],[0.276,-0.104]],[[686.62448,605.60156],[-0.274,0.104],[7.914,-2.992]]],&quot;closed&quot;:true,&quot;fillColor&quot;:[0,0,0,1]}]}" fill="#67d440" stroke-width="0.5"/><path d="M289.37729,284.51021c0.15688,-0.35816 0.31588,-0.71747 0.47903,-1.07233c0.1866,-0.40596 0.37683,-0.812 0.57345,-1.21335c0.09128,-0.18832 0.18379,-0.37637 0.27756,-0.56274c0.05825,-0.11621 0.11724,-0.23296 0.17515,-0.34821c0.03056,-0.05918 0.10009,-0.19321 0.13065,-0.2524c0.56472,-1.06439 1.15174,-2.12572 1.77747,-3.15572c2.80607,-4.61508 6.40827,-9.28822 11.29652,-11.61462c4.87582,-2.32127 11.48251,-1.25288 14.93585,3.16326c3.04657,3.8971 2.72387,9.97232 1.72052,14.594c-0.67535,3.10926 -1.69991,6.24658 -3.0178,9.16906c-3.22498,-0.20601 -6.46254,-0.60486 -9.62208,-1.26411c-6.60601,-1.38007 -12.99495,-3.91038 -18.7263,-7.44285z" data-paper-data="{&quot;noHover&quot;:false,&quot;origItem&quot;:[&quot;Path&quot;,{&quot;applyMatrix&quot;:true,&quot;segments&quot;:[[[654.7745,613.89956],[-13.374,1.82],[6.396,-0.872]],[[673.7125,609.87556],[-6.216,1.77],[0.528,-6.39]],[[673.2445,590.62556],[0.808,6.312],[-1.202,-9.382]],[[660.2785,564.36356],[8.35,5.306],[-9.464,-6.012]],[[630.1265,568.39556],[7.636,-7.638],[-7.656,7.656]],[[616.6445,597.73156],[2.2,-10.576],[-0.49,2.36]],[[615.3985,604.85156],[0.352,-2.384],[-0.018,0.132]],[[615.3205,605.41356],[0.018,-0.132],[-0.032,0.256]],[[615.2225,606.18556],[0.032,-0.258],[-0.052,0.414]],[[615.0745,607.42956],[0.046,-0.416],[-0.102,0.888]],[[614.8025,610.09556],[0.08,-0.89],[-0.07,0.778]],[[614.6145,612.43356],[0.056,-0.78],[13.166,2.822]]],&quot;closed&quot;:true,&quot;fillColor&quot;:[0,0,0,1]}]}" fill="#67d440" stroke-width="0.5"/><path d="M273.0986,265.69615c0.99892,-1.72837 2.17318,-3.42398 3.42538,-4.96903c1.05259,-1.29971 2.24167,-2.56603 3.70107,-3.54407c0.19101,-0.12849 0.29163,-0.1881 0.62808,-0.36153c0.18019,-0.09202 0.93494,-0.39358 0.76284,-0.34222c0.7835,-0.23114 1.14776,-0.23744 1.61817,-0.04707c0.45251,0.18403 0.89435,0.51828 1.1513,0.80478c0.08513,0.09497 0.16172,0.20086 0.23718,0.30511c0.0386,0.06464 0.15923,0.24879 0.17144,0.27117c0.1983,0.37392 0.37605,0.76702 0.50675,1.16999c0.37362,1.15034 0.53286,3.16192 0.50186,4.64187c-0.0828,3.91499 -0.85614,7.88419 -1.8002,11.6695c-0.37356,1.49731 -0.80285,2.99229 -1.24823,4.47367c-4.50202,-3.67427 -8.79289,-8.28062 -9.65566,-14.07218z" data-paper-data="{&quot;noHover&quot;:false,&quot;origItem&quot;:[&quot;Path&quot;,{&quot;applyMatrix&quot;:true,&quot;segments&quot;:[[[598.82848,607.90756],[-10.944,-3.912],[-0.152,-3.09]],[[598.16848,598.65556],[0.298,3.072],[-0.754,-7.766]],[[593.75848,575.60356],[2.464,7.434],[-0.932,-2.81]],[[589.74648,567.21156],[1.474,1.918],[-0.516,-0.672]],[[588.01848,565.34756],[0.624,0.572],[-0.038,-0.034]],[[587.51648,564.95156],[0.116,0.096],[-0.212,-0.146]],[[586.86848,564.53556],[0.224,0.122],[-0.676,-0.368]],[[584.17248,563.78956],[0.976,0.044],[-1.014,-0.044]],[[581.16848,564.95956],[1.322,-0.96],[0.29,-0.212]],[[579.96648,566.11356],[0.278,-0.294],[-0.518,0.552]],[[579.03048,567.21356],[0.274,-0.37],[-2.096,2.82]],[[574.47048,576.34156],[1.114,-3.154],[-1.326,3.75]],[[571.36448,587.91756],[0.726,-3.926],[5.502,10.338]]],&quot;closed&quot;:true,&quot;fillColor&quot;:[0,0,0,1]}]}" fill="#67d440" stroke-width="0.5"/><path d="M348.81633,249.4396c-1.1516,7.20288 -2.95197,14.31932 -5.11955,21.28134c-0.35357,1.13618 -0.73045,2.26803 -1.10477,3.39685c-1.2444,-1.89569 -3.1525,-3.14791 -5.91409,-2.85087c-2.49694,0.26897 -4.63052,2.00265 -6.27749,3.77787c-2.28724,2.46366 -4.15065,5.33179 -5.76351,8.32887c0.87503,-4.93572 0.91366,-10.2906 -1.68099,-14.65648c-3.43383,-5.77706 -11.03771,-8.58328 -17.47966,-6.82132c-6.14941,1.68226 -10.83639,6.57277 -14.32093,11.69399c-1.87933,2.76132 -3.51426,5.66859 -4.87524,8.75725c-0.10918,-0.07803 -0.27768,-0.07049 -0.38559,-0.14913c1.95546,-5.91038 3.49124,-12.29273 3.56868,-18.48477c0.04641,-3.65413 -0.48229,-8.24796 -4.0039,-10.26038c-3.76969,-2.15356 -7.61526,0.44699 -10.21536,3.19112c-0.40752,0.43044 -0.8917,0.91069 -1.2794,1.36301c0.81275,-2.09161 2.0606,-3.99427 3.09653,-5.98224c2.2572,-4.33351 4.21793,-8.83485 5.71563,-13.48899c2.16164,-6.72112 3.47145,-13.83888 3.36936,-20.91493c-0.03904,-2.67529 -0.24154,-5.41678 -0.77514,-8.065c-14.81997,4.18314 40.53645,0.98535 60.362,2.03931c7.83128,12.11276 5.27243,24.158 3.08346,37.84451z" data-paper-data="{&quot;noHover&quot;:false,&quot;origItem&quot;:[&quot;Path&quot;,{&quot;applyMatrix&quot;:true,&quot;segments&quot;:[[[671.91,437.44826],[22.866,17.588],[-38.0707,11.28166]],[[556.90648,473.96756],[-25.13176,17.8021],[2.778,4.634]],[[563.77048,488.63956],[-1.864,-5.016],[4.928,13.268]],[[571.42848,530.25556],[-0.424,-14.114],[0.292,9.774]],[[569.67048,559.46356],[1.354,-9.678],[-0.622,4.44]],[[567.83048,572.79956],[0.132,-4.486],[0.428,-1.112]],[[569.17048,569.49556],[-0.48,1.084],[3.064,-6.912]],[[586.44848,556.52556],[-8.546,-1.536],[7.984,1.436]],[[600.83248,573.15756],[-2.358,-6.918],[3.998,11.722]],[[606.45248,610.37356],[-0.27,-12.448],[0.256,0.076]],[[607.22648,610.58956],[-0.258,-0.074],[0.498,-6.732]],[[610.60848,590.62956],[-1.694,6.462],[3.14,-11.984]],[[629.74648,559.00156],[-10.464,7.286],[10.962,-7.632]],[[667.18248,560.18956],[-10.338,-8.59],[7.812,6.492]],[[680.16848,586.67956],[-1.654,-9.888],[1.034,-6.728]],[[685.44048,567.14156],[-2.662,6.174],[1.916,-4.448]],[[694.73248,555.83756],[-4.526,2.178],[5.006,-2.408]],[[707.78448,557.25756],[-3.614,-2.74],[-0.05,-2.378]],[[707.59048,550.12356],[0.094,2.378],[-0.574,-14.572]],[[702.99448,506.64356],[2.65,14.346],[-5.034,-27.26]]],&quot;closed&quot;:true,&quot;fillColor&quot;:[0,0,0,1]}]}" fill="#67d440" stroke-width="0.5"/></g><path d="M295.40736,291.49361c-2.42509,6.82952 -9.68246,10.48699 -16.20977,8.1692c-6.52731,-2.31779 -9.85283,-9.73313 -7.42773,-16.56264c2.42509,-6.82952 9.68246,-10.48699 16.20976,-8.1692c6.52731,2.31779 9.85284,9.73313 7.42774,16.56264z" fill="#000000" stroke="#000000" stroke-width="0.5" stroke-linecap="butt"/><path d="M326.84631,302.90372c-2.46802,6.95039 -9.71118,10.72322 -16.17804,8.42691c-6.46689,-2.29632 -9.70862,-9.7923 -7.24063,-16.74264c2.46802,-6.95039 9.71119,-10.72326 16.17809,-8.42692c6.46689,2.29632 9.70858,9.79227 7.24057,16.74266z" fill="#000000" stroke="#000000" stroke-width="0.5" stroke-linecap="butt"/><path d="M312.37226,299.0623c-4.12149,-2.21061 6.82031,-7.45948 6.82031,-7.45948l7.49789,2.38009c0,0 5.57505,12.35334 -1.16745,9.74909c-5.08132,-1.96262 -10.15408,-3.06241 -13.15074,-4.66969z" fill="#1fba00" stroke="#1fba00" stroke-width="0.5" stroke-linecap="round"/><path d="M274.48943,285.64228c-19.89844,-6.99895 6.32072,-46.84337 6.32072,-46.84337l66.93605,24.87326c0,0 -7.08317,45.36651 -22.32613,40.05504c-40.15329,-13.9916 -0.52024,-0.35384 -50.93063,-18.08496z" fill="#ff0000" stroke="#000000" stroke-width="3.5" stroke-linecap="butt"/><path d="M309.82982,296.09565c0,0 6.45631,-2.82886 8.12246,-6.95555c1.66615,-4.12668 -2.71057,-6.17292 -1.17322,-10.25635c1.53737,-4.08348 -5.07071,-9.36745 -1.67038,-13.5732c3.40034,-4.20576 7.21038,-4.97652 7.21038,-4.97652c0,0 5.87755,8.93041 6.25215,15.40955c0.37464,6.47908 -4.00931,3.08167 -5.05757,6.57838c-1.04824,3.49673 2.74376,5.98313 1.94119,9.27293c-0.80258,3.2898 -6.07737,7.68174 -6.07737,7.68174z" data-paper-data="{&quot;index&quot;:null}" fill="#eac100" stroke="#000000" stroke-width="0" stroke-linecap="round"/><path d="M279.43851,285.21164c0,0 6.45631,-2.82886 8.12247,-6.95556c1.66615,-4.12668 -2.71058,-6.17287 -1.17322,-10.25635c1.53737,-4.08348 -5.07071,-9.36745 -1.67035,-13.57323c3.40034,-4.20576 7.21038,-4.97652 7.21038,-4.97652c0,0 5.87754,8.93046 6.25215,15.40955c0.37464,6.47908 -4.00931,3.08166 -5.05753,6.5784c-1.04824,3.49673 2.74378,5.98308 1.94116,9.27287c-0.80258,3.2898 -6.07737,7.68174 -6.07737,7.68174z" data-paper-data="{&quot;index&quot;:null}" fill="#eac100" stroke="#eac100" stroke-width="0" stroke-linecap="round"/></g><path d="M27.19454,121.79471c2.682,-1.246 5.838,-1.188 8.716,-0.879c3.508,0.377 6.96,1.154 10.355,2.102c4.923,1.374 9.78,3.073 14.498,5.046c0.01,0 0.014,0.001 0.025,0.001c0.435,0.027 0.867,0.064 1.303,0.076c1.696,0.049 3.397,-0.059 5.083,-0.248c0.272,-0.031 0.544,-0.064 0.816,-0.099c0.007,-0.001 0.008,-0.001 0.015,-0.002c0.017,-0.002 0.028,-0.004 0.055,-0.008c0.171,-0.024 0.342,-0.049 0.513,-0.075c0.681,-0.103 1.36,-0.219 2.037,-0.347c1.506,-0.284 3.002,-0.627 4.484,-1.017c3.84,-1.01 7.603,-2.327 11.261,-3.867c11.009,-4.634 21.211,-11.157 30.702,-18.358c6.736,-5.111 13.135,-10.671 19.278,-16.479c7.479,-7.071 14.203,-14.844 21.539,-22.044c11.792,-11.573 26.18,-21.338 42.656,-24.467c13.16,-2.499 26.603,-0.538 38.936,4.495c12.208,4.982 23.184,12.43 33.379,20.711c9.121,7.409 17.548,15.587 26.102,23.628c5.648,5.31 11.56,10.19 18.125,14.34c6.705,4.238 13.839,7.807 21.226,10.693c8.374,3.273 17.094,5.789 25.965,7.322c-2.787,-4.772 -4.837,-9.965 -5.791,-15.386c-1.654,-9.397 0.301,-18.938 5.559,-26.915c12.051,-18.286 36.109,-25.474 57.022,-22.716c19.706,2.599 40.821,15.096 44.889,35.988c0.442,2.268 0.672,4.577 0.683,6.887c-0.079,18.084 -12.466,34.452 -27.889,43.325c-0.522,2.206 -1.242,4.381 -1.995,6.512c-2.145,6.065 -4.87,11.941 -8.103,17.502c-4.408,7.581 -9.808,14.633 -16.097,20.751c-7.644,7.436 -16.619,13.487 -26.411,17.715c-12.268,5.297 -25.511,7.818 -38.841,8.184c-1.773,0.049 -6.267,0.699 -6.749,1.02c-0.002,0.001 -0.005,0.003 -0.007,0.004c1.55269,1.29673 -12.7423,5.56049 -27.35812,13.5223c-25.42302,13.84893 -66.65672,15.15351 -71.66288,15.2897c-16.472,0.447 -37.75569,-2.81909 -49.136,-4.501c-11.38031,-1.68191 -62.03898,-23.77348 -61.514,-24.205c-13.474,-8.075 -26.083,-17.721 -37.084,-28.941c-9.758,-9.952 -18.227,-21.168 -25.007,-33.341c-9.322,1.603 -18.897,0.675 -27.512,-3.403c-6.427,-3.042 -12.611,-7.995 -15.926,-14.405c-2.18,-4.212 -3.477,-10.932 1.861,-13.411zM63.07154,131.92071c3.914,10.247 8.958,20.036 15.006,29.171c3.504,-1.917 7.008,-3.835 10.512,-5.752c-3.286,-4.637 -6.281,-9.481 -8.927,-14.521c-1.801,-3.431 -3.421,-6.95 -4.909,-10.527c-1.284,0.308 -2.573,0.592 -3.874,0.82c-2.543,0.446 -5.191,0.815 -7.808,0.809zM126.10454,101.70071c-10.192,8.404 -21.132,16.087 -33.057,21.84c-4.718,2.276 -9.621,4.285 -14.664,5.778c6.476,15.432 16.105,29.383 27.923,41.215c11.139,11.152 24.057,20.401 37.881,27.932c3.835,2.089 7.752,4.043 11.725,5.882c0.122,-3.168 0.468,-5.75 1.686,-9.547c1.589,-4.954 9.735,-29.705 9.735,-29.705c0,0 8.084,-24.772 9.736,-29.706c1.266,-3.782 2.516,-6.069 4.294,-8.696l-0.327,-0.377c-7.308,-8.411 -17.803,-20.491 -21.357,-24.582c-6.209,-7.185 -9.513,-11.867 -13.683,-18.296c-6.337,6.396 -12.944,12.533 -19.892,18.262zM173.81154,230.68171c10.231,3.281 20.716,5.727 31.329,7.337l2.305,-14.46c0.01,-0.065 0.021,-0.131 0.031,-0.196c-2.905,-0.365 -5.807,-0.799 -8.705,-1.323c-16.415,-2.964 -32.316,-8.476 -47.345,-15.671c-6.034,-2.888 -11.916,-6.102 -17.615,-9.609c-2.56,3.572 -5.121,7.143 -7.681,10.715l-0.218,0.304c14.848,9.75 30.983,17.477 47.899,22.903zM253.83754,126.99271h-0.032c-19.93,-0.007 -37,-0.014 -37,-0.014c0,0 -14.659,0.005 -34.287,0.012h-0.052c-0.119,3.198 -0.463,5.79 -1.689,9.613c-1.59,4.954 -9.736,29.706 -9.736,29.706c0,0 -8.084,24.771 -9.736,29.705c-1.283,3.835 -2.548,6.132 -4.366,8.804c8.91,4.063 18.126,7.483 27.539,10.106c21.424,5.969 43.604,7.297 65.68,5.078c9.698,-0.975 19.372,-2.473 28.893,-4.619c-1.819,-3.103 -3.081,-5.744 -4.351,-10.095c-1.631,-5.592 -9.611,-33.65 -9.611,-33.65c0,0 -8.043,-28.041 -9.611,-33.65c-1.234,-4.417 -1.552,-7.341 -1.641,-10.996zM247.49754,53.54671c-11.436,-6.162 -24.152,-10.212 -37.252,-9.761c-15.696,0.54 -30.166,7.722 -42.108,17.589c-7.93,6.551 -14.558,14.382 -21.761,21.682c5.802,5.035 9.984,8.958 16.246,16.119c3.465,3.982 13.511,15.527 20.789,23.892c19.176,0.007 33.393,0.012 33.393,0.012c0,0 16.617,-0.006 36.202,-0.013c7.799,-7.594 17.34,-16.885 20.814,-20.268c6.825,-6.613 11.314,-10.178 17.501,-14.71c-4.113,-3.931 -8.185,-7.907 -12.417,-11.671c-9.684,-8.616 -19.963,-16.705 -31.407,-22.871zM347.51354,122.15871c-14.979,-4.564 -29.28,-11.539 -41.652,-21.184c-4.96,-3.867 -9.585,-8.158 -14.152,-12.517c-4.695,6.076 -8.374,10.473 -15.166,17.132c-3.556,3.469 -13.478,13.148 -21.368,20.844l-0.333,0.325c1.839,3.13 3.109,5.777 4.386,10.158c1.631,5.592 9.611,33.65 9.611,33.65c0,0 8.043,28.04 9.611,33.65c1.228,4.393 1.548,7.31 1.64,10.937c6.511,-1.503 12.95,-3.308 19.264,-5.497c11.883,-4.119 23.328,-9.632 33.62,-16.894c7.898,-5.573 15.055,-12.243 21.011,-19.867c4.468,-5.719 8.4,-12.37 11.337,-19.187c0.124,-0.287 0.096,-0.225 0.098,-0.229c0.073,-0.174 0.145,-0.348 0.217,-0.522c0.161,-0.392 0.319,-0.786 0.475,-1.18c0.281,-0.715 0.553,-1.435 0.814,-2.158c0.487,-1.346 0.939,-2.705 1.354,-4.075c0.693,-2.285 1.285,-4.602 1.759,-6.943c0.189,-0.935 0.36,-1.874 0.509,-2.817c0.062,-0.391 0.118,-0.783 0.174,-1.174c0.003,-0.019 0.004,-0.023 0.005,-0.035c0.003,-0.03 0.006,-0.051 0.011,-0.095c0.021,-0.172 0.043,-0.344 0.063,-0.516c0.093,-0.796 0.153,-1.593 0.21,-2.391c-1.424,-1.598 -2.767,-3.285 -4.018,-5.041c-6.593,-0.782 -13.154,-2.447 -19.48,-4.374zM373.81154,174.69971c0.747,-1.332 1.476,-2.675 2.161,-4.041c3.013,-6.004 5.387,-12.292 7.019,-18.885c0.525,-2.118 0.969,-4.258 1.304,-6.414c0.049,-0.312 0.093,-0.625 0.137,-0.937c0.009,-0.079 0.082,-0.637 0.102,-0.811c0.028,-0.244 0.048,-0.488 0.071,-0.732c-3.669,-2.216 -7.09,-4.844 -10.188,-7.794c-0.084,0.597 -0.171,1.195 -0.265,1.785c-0.773,4.833 -2.075,9.583 -3.765,14.174c-2.113,5.744 -4.828,11.258 -8.074,16.443c3.765,2.361 7.529,4.723 11.294,7.085c0.068,0.041 0.136,0.084 0.204,0.127zM462.32854,106.23771c0.368,-2 0.538,-4.024 0.547,-6.057c-0.09,-19.437 -17.214,-33.127 -34.681,-37.693c-19.508,-5.1 -42.896,-0.75 -56.973,14.413c-5.918,6.375 -9.664,14.655 -9.626,23.428c0.039,9.007 3.773,17.674 9.031,24.85c12.067,16.471 33.33,25.481 53.4,20.35c18.331,-4.685 34.816,-20.359 38.302,-39.291zM380.93654,204.07771c9.81,-3.718 18.919,-9.287 26.691,-16.333c6.549,-5.937 11.955,-12.584 16.541,-20.056c1.877,-3.058 3.59,-6.215 5.135,-9.453c0.354,-0.742 0.699,-1.488 1.035,-2.238c0.141,-0.315 0.28,-0.63 0.418,-0.946c0.077,-0.177 0.153,-0.354 0.23,-0.531c0.054,-0.124 0.092,-0.215 0.117,-0.273c0.521,-1.242 1.019,-2.494 1.489,-3.757c0.565,-1.516 1.043,-3.048 1.5,-4.586c-0.655,0.302 -1.313,0.594 -1.974,0.868c-10.316,4.272 -21.845,5.14 -32.671,2.373c-3.912,-1 -7.702,-2.455 -11.299,-4.294c-0.199,1.507 -0.472,3.008 -0.769,4.484c-1.25,6.222 -3.266,12.264 -5.777,18.086c-3.652,8.466 -8.519,16.351 -14.278,23.543c-5.845,7.299 -12.659,13.775 -20.091,19.439c11.491,-0.33 22.913,-2.237 33.703,-6.326zM359.63254,194.15971c4.62,-4.99 8.737,-10.43 12.281,-16.225c-3.775,-2.368 -7.55,-4.736 -11.325,-7.104c-0.109,-0.068 -0.218,-0.137 -0.327,-0.205c-5.331,7.761 -11.815,14.691 -19.122,20.623c-9.539,7.744 -20.265,13.792 -31.585,18.519c-4.097,1.711 -8.269,3.224 -12.488,4.594c1.988,4.623 3.977,9.246 5.965,13.869c0.125,0.29 0.249,0.58 0.374,0.87c9.282,-3.201 18.304,-7.138 26.851,-11.986c10.861,-6.161 20.882,-13.78 29.376,-22.955zM283.65054,234.78071c5.455,-1.282 10.871,-2.775 16.211,-4.499c-1.99,-4.627 -3.98,-9.254 -5.97,-13.881c-0.132,-0.306 -0.263,-0.611 -0.395,-0.917c-9.801,2.954 -19.857,5.087 -29.969,6.6c-17.403,2.604 -34.918,3.503 -52.344,1.706l-2.323,14.57c-0.01,0.061 -0.02,0.123 -0.029,0.184c6.475,0.861 12.992,1.418 19.524,1.653c18.574,0.669 37.204,-1.164 55.295,-5.416zM122.81654,205.68771c2.507,-3.498 5.014,-6.995 7.522,-10.493l0.295,-0.412c-6.536,-4.211 -12.799,-8.844 -18.697,-13.917c-7.805,-6.713 -14.929,-14.245 -21.117,-22.474c-3.542,1.938 -7.083,3.876 -10.625,5.814c2.647,3.786 5.465,7.455 8.458,10.983c9.918,11.685 21.528,21.849 34.164,30.499zM27.19154,129.21971c0.001,0.007 0.001,0.01 0.001,0.016c0.023,0.146 0.047,0.292 0.077,0.437c0.051,0.247 0.106,0.492 0.17,0.736c0.154,0.588 0.35,1.166 0.577,1.73c0.014,0.024 0.213,0.482 0.25,0.56c0.127,0.268 0.26,0.533 0.399,0.795c0.342,0.644 0.717,1.27 1.119,1.878c0.791,1.197 1.625,2.224 2.624,3.294c2.372,2.539 5.138,4.654 8.157,6.367c7.988,4.533 17.319,5.84 26.323,4.503c-1.061,-2.031 -2.079,-4.086 -3.044,-6.167c-1.835,-3.953 -3.492,-7.986 -4.997,-12.076c-0.793,-0.32 -1.589,-0.631 -2.387,-0.936c-2.56,-0.975 -5.146,-1.882 -7.759,-2.703c-3.13,-0.985 -6.303,-1.859 -9.527,-2.479c-2.711,-0.521 -5.522,-0.928 -8.345,-0.571c-0.006,0.001 -0.006,0.001 -0.011,0.001c-0.032,0.006 -0.065,0.012 -0.12,0.022c-0.115,0.021 -0.231,0.041 -0.346,0.065c-0.276,0.056 -0.55,0.122 -0.82,0.203c-0.074,0.022 -0.493,0.18 -0.551,0.192c-0.189,0.089 -0.375,0.184 -0.556,0.289c-0.1,0.058 -0.195,0.125 -0.289,0.193c-0.01,0.009 -0.008,0.008 -0.02,0.019c-0.133,0.124 -0.254,0.256 -0.374,0.391c-0.021,0.055 -0.22,0.354 -0.264,0.433c-0.004,0.006 -0.008,0.015 -0.012,0.023c-0.037,0.095 -0.075,0.191 -0.101,0.288c-0.059,0.22 -0.116,0.436 -0.165,0.659c-0.021,0.095 -0.034,0.139 -0.043,0.167c0.002,0.032 0.003,0.079 0.001,0.172c-0.011,0.504 -0.013,0.995 0.033,1.499z" fill="#152345" stroke="none" stroke-width="1" stroke-linecap="butt"/><path d="M70.86344,131.06436c1.301,-0.228 2.60259,-0.51453 3.88659,-0.82253c1.488,3.577 3.14239,7.10657 4.94339,10.53758c2.646,5.04 5.64997,9.95346 8.93597,14.59046c-3.504,1.917 -7.04066,3.85432 -10.54466,5.77132c-6.048,-9.135 -11.13321,-19.01015 -15.04721,-29.25715c2.617,0.006 5.28291,-0.37367 7.82591,-0.81967z" data-paper-data="{&quot;noHover&quot;:false,&quot;origItem&quot;:[&quot;Path&quot;,{&quot;applyMatrix&quot;:true,&quot;segments&quot;:[[[121.91387,270.89],[5.234,0.012],[7.828,20.494]],[[151.92587,329.232],[-12.096,-18.27],[7.008,-3.834]],[[172.94987,317.728],[-7.008,3.834],[-6.572,-9.274]],[[155.09587,288.686],[5.292,10.08],[-3.602,-6.862]],[[145.27787,267.632],[2.976,7.154],[-2.568,0.616]],[[137.52987,269.272],[2.602,-0.456],[-5.086,0.892]]],&quot;closed&quot;:true,&quot;fillColor&quot;:[0,0,0,1]}]}" fill="#55af34" stroke="none" stroke-width="0.5" stroke-linecap="butt"/><path d="M88.60625,175.16979c-2.993,-3.528 -5.80554,-7.20695 -8.45254,-10.99295c3.542,-1.938 7.09757,-3.88968 10.63957,-5.82768c6.188,8.229 13.38747,15.7947 21.19247,22.5077c5.898,5.073 12.15641,9.7374 18.69241,13.94841l-0.2954,0.41279c-2.508,3.498 -5.02958,7.01193 -7.53659,10.50993c-12.636,-8.65 -24.32192,-18.87319 -34.23992,-30.55819z" data-paper-data="{&quot;noHover&quot;:false,&quot;origItem&quot;:[&quot;Path&quot;,{&quot;applyMatrix&quot;:true,&quot;segments&quot;:[[[241.40387,418.424],[-25.272,-17.3],[5.014,-6.996]],[[256.44787,397.438],[-5.016,6.996],[0,0]],[[257.03787,396.614],[0,0],[-13.072,-8.422]],[[219.64387,368.78],[11.796,10.146],[-15.61,-13.426]],[[177.40987,323.832],[12.376,16.458],[-7.084,3.876]],[[156.15987,335.46],[7.084,-3.876],[5.294,7.572]],[[173.07587,357.426],[-5.986,-7.056],[19.836,23.37]]],&quot;closed&quot;:true,&quot;fillColor&quot;:[0,0,0,1]}]}" fill="#55af34" stroke="none" stroke-width="0.5" stroke-linecap="butt"/><path d="M125.86387,207.76724l0.2181,-0.3044c2.56,-3.572 5.12722,-7.1577 7.68722,-10.7297c5.699,3.507 11.58281,6.7183 17.61681,9.6063c15.029,7.195 31.02003,12.74344 47.43503,15.70744c2.898,0.524 5.79999,0.95807 8.70499,1.32307c-0.01,0.065 -0.02104,0.13124 -0.03104,0.19624l-2.31038,14.47616c-10.613,-1.61 -21.11845,-4.03556 -31.34945,-7.31656c-16.916,-5.426 -33.12327,-13.20855 -47.97127,-22.95855z" data-paper-data="{&quot;noHover&quot;:false,&quot;origItem&quot;:[&quot;Path&quot;,{&quot;applyMatrix&quot;:true,&quot;segments&quot;:[[[343.39387,468.412],[-33.832,-10.852],[20.462,6.562]],[[406.05187,483.086],[-21.226,-3.22],[0,0]],[[410.66187,454.166],[0,0],[0.02,-0.13]],[[410.72387,453.774],[-0.02,0.13],[-5.81,-0.73]],[[393.31387,451.128],[5.796,1.048],[-32.83,-5.928]],[[298.62387,419.786],[30.058,14.39],[-12.068,-5.776]],[[263.39387,400.568],[11.398,7.014],[-5.12,7.144]],[[248.03187,421.998],[5.12,-7.144],[0,0]],[[247.59587,422.606],[0,0],[29.696,19.5]]],&quot;closed&quot;:true,&quot;fillColor&quot;:[0,0,0,1]}]}" fill="#55af34" stroke="none" stroke-width="0.5" stroke-linecap="butt"/><path d="M228.31033,240.21809c-6.532,-0.235 -13.05248,-0.802 -19.52748,-1.663c0.009,-0.061 0.01896,-0.12318 0.02896,-0.18418l2.32196,-14.58595c17.426,1.797 35.033,0.87597 52.43599,-1.72803c10.112,-1.513 20.17344,-3.63434 29.97444,-6.58835c0.132,0.306 0.26335,0.61216 0.39535,0.91816c1.99,4.627 3.98192,9.27057 5.97192,13.89757c-5.34,1.724 -10.75725,3.22581 -16.21225,4.50781c-18.091,4.252 -36.81488,6.09496 -55.38888,5.42596z" data-paper-data="{&quot;noHover&quot;:false,&quot;origItem&quot;:[&quot;Path&quot;,{&quot;applyMatrix&quot;:true,&quot;segments&quot;:[[[563.07187,476.61],[-36.182,8.504],[10.91,-2.564]],[[595.49387,467.612],[-10.68,3.448],[-3.98,-9.254]],[[583.55387,439.85],[3.98,9.254],[-0.264,-0.612]],[[582.76387,438.016],[0.264,0.612],[-19.602,5.908]],[[522.82587,451.216],[20.224,-3.026],[-34.806,5.208]],[[418.13787,454.628],[34.852,3.594],[0,0]],[[413.49187,483.768],[0,0],[-0.02,0.122]],[[413.43387,484.136],[0.018,-0.122],[12.95,1.722]],[[452.48187,487.442],[-13.064,-0.47],[37.148,1.338]]],&quot;closed&quot;:true,&quot;fillColor&quot;:[0,0,0,1]}]}" fill="#55af34" stroke="none" stroke-width="0.5" stroke-linecap="butt"/><path d="M330.24462,217.16327c-8.547,4.848 -17.5935,8.7707 -26.8755,11.9717c-0.125,-0.29 -0.24972,-0.58077 -0.37472,-0.87077c-1.988,-4.623 -3.98649,-9.26142 -5.97449,-13.88442c4.219,-1.37 8.39116,-2.8826 12.48816,-4.5936c11.32,-4.727 22.12302,-10.83304 31.66202,-18.57704c7.307,-5.932 13.72739,-12.78491 19.05839,-20.54591c0.109,0.068 0.28449,0.0623 0.39349,0.1303c3.775,2.368 7.55972,4.74791 11.33472,7.1159c-3.544,5.795 -7.65538,11.24922 -12.27538,16.23922c-8.494,9.175 -18.57567,16.85362 -29.43667,23.01462z" data-paper-data="{&quot;noHover&quot;:false,&quot;origItem&quot;:[&quot;Path&quot;,{&quot;applyMatrix&quot;:true,&quot;segments&quot;:[[[715.03587,395.368],[-16.988,18.35],[9.24,-9.98]],[[739.59787,362.918],[-7.088,11.59],[-7.55,-4.736]],[[716.94787,348.71],[7.55,4.736],[-0.218,-0.136]],[[716.29387,348.3],[0.218,0.136],[-10.662,15.522]],[[678.04987,389.546],[14.614,-11.864],[-19.078,15.488]],[[614.87987,426.584],[22.64,-9.454],[-8.194,3.422]],[[589.90387,435.772],[8.438,-2.74],[3.976,9.246]],[[601.83387,463.51],[-3.976,-9.246],[0.25,0.58]],[[602.58187,465.25],[-0.25,-0.58],[18.564,-6.402]],[[656.28387,441.278],[-17.094,9.696],[21.722,-12.322]]],&quot;closed&quot;:true,&quot;fillColor&quot;:[0,0,0,1]}]}" fill="#55af34" stroke="none" stroke-width="0.5" stroke-linecap="butt"/><path d="M373.60791,174.62271c-3.765,-2.362 -7.56251,-4.73656 -11.32751,-7.09755c3.246,-5.185 5.96294,-10.77552 8.07594,-16.51952c1.69,-4.591 3.02511,-9.35189 3.79811,-14.18489c0.094,-0.59 0.18149,-1.18797 0.26549,-1.78498c3.098,2.95 6.55059,5.59128 10.21959,7.80729c-0.023,0.244 -0.04198,0.48898 -0.06998,0.73298c-0.02,0.174 -0.09185,0.73316 -0.10085,0.81216c-0.044,0.312 -0.08664,0.62649 -0.13563,0.93849c-0.335,2.156 -0.76902,4.31348 -1.29402,6.43148c-1.632,6.593 -4.04565,12.94592 -7.05865,18.94992c-0.685,1.366 -1.42098,2.70962 -2.16798,4.04162c-0.068,-0.043 -0.13652,-0.08599 -0.20452,-0.12699z" data-paper-data="{&quot;noHover&quot;:false,&quot;origItem&quot;:[&quot;Path&quot;,{&quot;applyMatrix&quot;:true,&quot;segments&quot;:[[[743.39387,356.448],[-0.136,-0.086],[1.494,-2.664]],[[747.71587,348.366],[-1.37,2.732],[6.026,-12.008]],[[761.75387,310.596],[-3.264,13.186],[1.05,-4.236]],[[764.36187,297.768],[-0.67,4.312],[0.098,-0.624]],[[764.63587,295.894],[-0.088,0.624],[0.018,-0.158]],[[764.83987,294.272],[-0.04,0.348],[0.056,-0.488]],[[764.98187,292.808],[-0.046,0.488],[-7.338,-4.432]],[[744.60587,277.22],[6.196,5.9],[-0.168,1.194]],[[744.07587,280.79],[0.188,-1.18],[-1.546,9.666]],[[736.54587,309.138],[3.38,-9.182],[-4.226,11.488]],[[720.39787,342.024],[6.492,-10.37],[7.53,4.722]],[[742.98587,356.194],[-7.53,-4.724],[0.136,0.082]]],&quot;closed&quot;:true,&quot;fillColor&quot;:[0,0,0,1]}]}" fill="#55af34" stroke="none" stroke-width="0.5" stroke-linecap="butt"/><path d="M255.51459,137.95407c1.568,5.609 9.62488,33.68214 9.62488,33.68214c0,0 7.97384,28.08466 9.60484,33.67666c1.27,4.351 2.52961,6.99589 4.34861,10.09889c-9.521,2.146 -19.20774,3.65693 -28.90574,4.63192c-22.076,2.219 -44.31632,0.8887 -65.74032,-5.0803c-9.413,-2.623 -18.64195,-6.05915 -27.55195,-10.12215c1.818,-2.672 3.08103,-4.97343 4.36402,-8.80843c1.652,-4.934 9.73326,-29.73118 9.73326,-29.73118c0,0 8.16007,-24.77937 9.75007,-29.73337c1.226,-3.823 1.57513,-6.41945 1.69413,-9.61745l0.05203,-0.00002c19.628,-0.007 34.31586,-0.02208 34.31586,-0.02208c0,0 17.10156,0.01721 37.03157,0.02421l0.03202,0.00001c0.089,3.655 0.41274,6.58412 1.64674,11.00112z" data-paper-data="{&quot;noHover&quot;:false,&quot;origItem&quot;:[&quot;Path&quot;,{&quot;applyMatrix&quot;:true,&quot;segments&quot;:[[[503.44587,261.034],[0.178,7.31],[0,0]],[[503.38187,261.034],[0,0],[-39.86,-0.014]],[429.38187,261.006],[[360.80787,261.03],[39.256,-0.014],[0,0]],[[360.70387,261.03],[0,0],[-0.238,6.396]],[[357.32587,280.256],[2.452,-7.646],[-3.18,9.908]],[337.85387,339.668],[[318.38187,399.078],[3.304,-9.868],[-2.566,7.67]],[[309.64987,416.686],[3.636,-5.344],[17.82,8.126]],[[364.72787,436.898],[-18.826,-5.246],[42.848,11.938]],[[496.08787,447.054],[-44.152,4.438],[19.396,-1.95]],[[553.87387,437.816],[-19.042,4.292],[-3.638,-6.206]],[[545.17187,417.626],[2.54,8.702],[-3.262,-11.184]],[525.94987,350.326],[[506.72787,283.026],[3.136,11.218],[-2.468,-8.834]]],&quot;closed&quot;:true,&quot;fillColor&quot;:[0,0,0,1]}]}" fill="#55af34" stroke="none" stroke-width="0.5" stroke-linecap="butt"/><path d="M367.03883,126.51153c1.251,1.756 2.59592,3.44773 4.01992,5.04573c-0.057,0.798 -0.11643,1.59671 -0.20943,2.39271c-0.02,0.172 -0.04188,0.34438 -0.06288,0.51638c-0.005,0.044 -0.00798,0.06507 -0.01098,0.09507c-0.001,0.012 -0.00199,0.01603 -0.00499,0.03503c-0.056,0.391 -0.11176,0.78386 -0.17376,1.17486c-0.149,0.943 -0.31945,1.88413 -0.50845,2.81913c-0.474,2.341 -1.06504,4.66365 -1.75804,6.94864c-0.415,1.37 -0.86672,2.7326 -1.35372,4.0786c-0.261,0.723 -0.53296,1.445 -0.81396,2.16c-0.156,0.394 -0.31401,0.78912 -0.47501,1.18112c-0.072,0.174 -0.14401,0.3485 -0.21701,0.5225c-0.002,0.004 0.02599,-0.05778 -0.09801,0.22922c-2.937,6.817 -6.87449,13.48903 -11.34249,19.20803c-5.956,7.624 -13.13549,14.31606 -21.0335,19.88906c-10.292,7.262 -21.7704,12.77877 -33.6534,16.89777c-6.314,2.189 -12.76459,3.98971 -19.27559,5.49271c-0.092,-3.627 -0.41647,-6.54662 -1.64447,-10.93962c-1.568,-5.61 -9.62953,-33.67219 -9.62953,-33.67219c0,0 -7.98218,-28.09094 -9.61318,-33.68294c-1.277,-4.381 -2.54473,-7.03444 -4.38373,-10.16444l0.33313,-0.32531c7.89,-7.696 17.82685,-17.39418 21.38285,-20.86318c6.792,-6.659 10.48605,-11.06413 15.18105,-17.14012c4.567,4.359 9.201,8.64789 14.161,12.51489c12.372,9.645 26.71785,16.63698 41.69684,21.20098c6.326,1.927 12.89434,3.60336 19.48734,4.38536z" data-paper-data="{&quot;noHover&quot;:false,&quot;origItem&quot;:[&quot;Path&quot;,{&quot;applyMatrix&quot;:true,&quot;segments&quot;:[[[690.79787,251.366],[12.652,3.854],[-29.958,-9.128]],[[607.49387,208.998],[24.744,19.29],[-9.92,-7.734]],[[579.18987,183.964],[9.134,8.718],[-9.39,12.152]],[[548.85787,218.228],[13.584,-13.318],[-7.112,6.938]],[[506.12187,259.916],[15.78,-15.392],[0,0]],[[505.45587,260.566],[0,0],[3.678,6.26]],[[514.22787,280.882],[-2.554,-8.762],[3.262,11.184]],[533.44987,348.182],[[552.67187,415.482],[-3.136,-11.22],[2.456,8.786]],[[555.95187,437.356],[-0.184,-7.254],[13.022,-3.006]],[[594.47987,426.362],[-12.628,4.378],[23.766,-8.238]],[[661.71987,392.574],[-20.584,14.524],[15.796,-11.146]],[[703.74187,352.84],[-11.912,15.248],[8.936,-11.438]],[[726.41587,314.466],[-5.874,13.634],[0.248,-0.574]],[[726.61187,314.008],[-0.004,0.008],[0.146,-0.348]],[[727.04587,312.964],[-0.144,0.348],[0.322,-0.784]],[[727.99587,310.604],[-0.312,0.788],[0.562,-1.43]],[[729.62387,306.288],[-0.522,1.446],[0.974,-2.692]],[[732.33187,298.138],[-0.83,2.74],[1.386,-4.57]],[[735.84987,284.252],[-0.948,4.682],[0.378,-1.87]],[[736.86787,278.618],[-0.298,1.886],[0.124,-0.782]],[[737.21587,276.27],[-0.112,0.782],[0.006,-0.038]],[[737.22587,276.2],[-0.002,0.024],[0.006,-0.06]],[[737.24787,276.01],[-0.01,0.088],[0.042,-0.344]],[[737.37387,274.978],[-0.04,0.344],[0.186,-1.592]],[[737.79387,270.196],[-0.114,1.596],[-2.848,-3.196]],[[729.75787,260.114],[2.502,3.512],[-13.186,-1.564]]],&quot;closed&quot;:true,&quot;fillColor&quot;:[0,0,0,1]}]}" fill="#55af34" stroke="none" stroke-width="0.5" stroke-linecap="butt"/><path d="M278.95419,76.41193c4.232,3.764 8.30423,7.749 12.41723,11.68c-6.187,4.532 -10.67874,8.11041 -17.50374,14.72341c-3.474,3.383 -13.02952,12.69526 -20.82852,20.28925c-19.585,0.007 -36.23721,0.02506 -36.23721,0.02506c0,0 -14.24775,-0.01766 -33.42375,-0.02466c-7.278,-8.365 -17.33882,-19.93378 -20.80382,-23.91578c-6.262,-7.161 -10.44585,-11.09775 -16.24785,-16.13274c7.203,-7.3 13.83514,-15.15068 21.76514,-21.70168c11.942,-9.867 26.44725,-17.07793 42.14325,-17.61793c13.1,-0.451 25.86122,3.61178 37.29722,9.77378c11.444,6.166 21.73806,14.2853 31.42206,22.9013z" data-paper-data="{&quot;noHover&quot;:false,&quot;origItem&quot;:[&quot;Path&quot;,{&quot;applyMatrix&quot;:true,&quot;segments&quot;:[[[490.76587,114.142],[22.888,12.332],[-22.872,-12.324]],[[416.26187,94.62],[26.2,-0.902],[-31.392,1.08]],[[332.04587,129.798],[23.884,-19.734],[-15.86,13.102]],[[288.52387,173.162],[14.406,-14.6],[11.604,10.07]],[[321.01587,205.4],[-12.524,-14.322],[6.93,7.964]],[[362.59387,253.184],[-14.556,-16.73],[38.352,0.014]],[429.37987,253.208],[[501.78387,253.182],[-39.17,0.014],[15.598,-15.188]],[[543.41187,212.646],[-6.948,6.766],[13.65,-13.226]],[[578.41387,183.226],[-12.374,9.064],[-8.226,-7.862]],[[553.57987,159.884],[8.464,7.528],[-19.368,-17.232]]],&quot;closed&quot;:true,&quot;fillColor&quot;:[0,0,0,1]}]}" fill="#55af34" stroke="none" stroke-width="0.5" stroke-linecap="butt"/><path d="M146.00942,83.3904c4.17,6.429 7.48998,11.11849 13.69898,18.30349c3.554,4.091 14.06742,16.19558 21.37542,24.60658l0.32714,0.3774c-1.778,2.627 -3.02622,4.92097 -4.29222,8.70298c-1.652,4.934 -9.74169,29.7395 -9.74169,29.7395c0,0 -8.1656,24.77028 -9.7546,29.72428c-1.218,3.797 -1.56813,6.38101 -1.69013,9.54901c-3.973,-1.839 -7.89709,-3.79056 -11.73209,-5.87956c-13.824,-7.531 -26.78782,-16.79092 -37.92682,-27.94291c-11.818,-11.832 -21.46198,-25.83407 -27.93798,-41.26607c5.043,-1.493 9.95035,-3.51256 14.66835,-5.78856c11.925,-5.753 22.90431,-13.46161 33.09631,-21.86561c6.948,-5.729 13.57234,-11.86451 19.90934,-18.26051z" data-paper-data="{&quot;noHover&quot;:false,&quot;origItem&quot;:[&quot;Path&quot;,{&quot;applyMatrix&quot;:true,&quot;segments&quot;:[[[247.97987,210.45],[13.896,-11.458],[-20.384,16.808]],[[181.86587,254.13],[23.85,-11.506],[-9.436,4.552]],[[152.53787,265.686],[10.086,-2.986],[12.952,30.864]],[[208.38387,348.116],[-23.636,-23.664],[22.278,22.304]],[[284.14587,403.98],[-27.648,-15.062],[7.67,4.178]],[[307.59587,415.744],[-7.946,-3.678],[0.244,-6.336]],[[310.96787,396.65],[-2.436,7.594],[3.178,-9.908]],[330.43787,337.24],[[349.90987,277.828],[-3.304,9.868],[2.532,-7.564]],[[358.49787,260.436],[-3.556,5.254],[0,0]],[[357.84387,259.682],[0,0],[-14.616,-16.822]],[[315.12987,210.518],[7.108,8.182],[-12.418,-14.37]],[[287.76387,173.926],[8.34,12.858],[-12.674,12.792]]],&quot;closed&quot;:true,&quot;fillColor&quot;:[0,0,0,1]}]}" fill="#55af34" stroke="none" stroke-width="0.5" stroke-linecap="butt"/><path d="M27.11346,127.69908c0.002,-0.093 0.00116,-0.14031 -0.00084,-0.17231c0.009,-0.028 0.02216,-0.07234 0.04316,-0.16734c0.049,-0.223 0.10668,-0.44032 0.16568,-0.66032c0.026,-0.097 0.06432,-0.19359 0.10132,-0.28859c0.004,-0.008 0.00803,-0.01705 0.01203,-0.02305c0.044,-0.079 0.24356,-0.37899 0.26456,-0.43399c0.12,-0.135 0.24161,-0.26801 0.37461,-0.39201c0.012,-0.011 0.01003,-0.01005 0.02004,-0.01905c0.094,-0.068 0.18938,-0.13561 0.28938,-0.19361c0.181,-0.105 0.36768,-0.20104 0.55668,-0.29004c0.058,-0.012 0.47762,-0.1709 0.55162,-0.1929c0.27,-0.081 0.5449,-0.14823 0.8209,-0.20423c0.115,-0.024 0.23138,-0.0445 0.34638,-0.0655c0.055,-0.01 0.08814,-0.01618 0.12014,-0.02218c0.005,0 0.00501,-0.00001 0.01101,-0.00101c2.823,-0.357 5.64617,0.03885 8.35716,0.55985c3.224,0.62 6.43287,1.48668 9.56287,2.47168c2.613,0.821 5.23075,1.74776 7.79075,2.72276c0.798,0.305 1.59828,0.623 2.39128,0.94299c1.505,4.09 3.16434,8.16258 4.99934,12.11558c0.965,2.081 1.97854,4.14521 3.03954,6.17621c-9.004,1.337 -18.40945,0.04219 -26.39745,-4.49081c-3.019,-1.713 -5.80285,-3.86167 -8.17485,-6.40067c-0.999,-1.07 -1.83293,-2.10724 -2.62393,-3.30424c-0.402,-0.608 -0.77628,-1.23861 -1.11828,-1.88261c-0.139,-0.262 -0.27161,-0.52876 -0.3986,-0.79676c-0.037,-0.078 -0.2357,-0.53719 -0.2497,-0.56119c-0.227,-0.564 -0.42191,-1.14551 -0.57591,-1.73351c-0.064,-0.244 -0.11848,-0.49041 -0.16948,-0.73741c-0.03,-0.145 -0.05367,-0.29183 -0.07667,-0.43783c0,-0.006 0.00001,-0.00903 -0.00099,-0.01603c-0.046,-0.504 -0.04274,-0.99786 -0.03174,-1.50186z" data-paper-data="{&quot;noHover&quot;:false,&quot;origItem&quot;:[&quot;Path&quot;,{&quot;applyMatrix&quot;:true,&quot;segments&quot;:[[[50.15387,265.488],[-0.092,-1.008],[0.002,0.014]],[[50.15587,265.52],[0,-0.012],[0.046,0.292]],[[50.30987,266.394],[-0.06,-0.29],[0.102,0.494]],[[50.64987,267.866],[-0.128,-0.488],[0.308,1.176]],[[51.80387,271.326],[-0.454,-1.128],[0.028,0.048]],[[52.30387,272.446],[-0.074,-0.156],[0.254,0.536]],[[53.10187,274.036],[-0.278,-0.524],[0.684,1.288]],[[55.33987,277.792],[-0.804,-1.216],[1.582,2.394]],[[60.58787,284.38],[-1.998,-2.14],[4.744,5.078]],[[76.90187,297.114],[-6.038,-3.426],[15.976,9.066]],[[129.54787,306.12],[-18.008,2.674],[-2.122,-4.062]],[[123.45987,293.786],[1.93,4.162],[-3.67,-7.906]],[[113.46587,269.634],[3.01,8.18],[-1.586,-0.64]],[[108.69187,267.762],[1.596,0.61],[-5.12,-1.95]],[[93.17387,262.356],[5.226,1.642],[-6.26,-1.97]],[[74.11987,257.398],[6.448,1.24],[-5.422,-1.042]],[[57.42987,256.256],[5.646,-0.714],[-0.012,0.002]],[[57.40787,256.258],[0.01,0],[-0.064,0.012]],[[57.16787,256.302],[0.11,-0.02],[-0.23,0.042]],[[56.47587,256.432],[0.23,-0.048],[-0.552,0.112]],[[54.83587,256.838],[0.54,-0.162],[-0.148,0.044]],[[53.73387,257.222],[0.116,-0.024],[-0.378,0.178]],[[52.62187,257.8],[0.362,-0.21],[-0.2,0.116]],[[52.04387,258.186],[0.188,-0.136],[-0.02,0.018]],[[52.00387,258.224],[0.024,-0.022],[-0.266,0.248]],[[51.25587,259.006],[0.24,-0.27],[-0.042,0.11]],[[50.72787,259.872],[0.088,-0.158],[-0.008,0.012]],[[50.70387,259.918],[0.008,-0.016],[-0.074,0.19]],[[50.50187,260.494],[0.052,-0.194],[-0.118,0.44]],[[50.17187,261.812],[0.098,-0.446],[-0.042,0.19]],[[50.08587,262.146],[0.018,-0.056],[0.004,0.064]],[[50.08787,262.49],[0.004,-0.186],[-0.022,1.008]]],&quot;closed&quot;:true,&quot;fillColor&quot;:[0,0,0,1]}]}" fill="#67d440" stroke="none" stroke-width="0.5" stroke-linecap="butt"/><path d="M347.19363,210.43383c7.432,-5.664 14.2425,-12.14531 20.0875,-19.44431c5.759,-7.192 10.63622,-15.1392 14.28822,-23.6052c2.511,-5.822 4.55443,-11.87627 5.80443,-18.09827c0.297,-1.476 0.57194,-2.97719 0.77094,-4.48419c3.597,1.839 7.40556,3.29608 11.31756,4.29608c10.826,2.767 22.38038,1.91692 32.69637,-2.35507c0.661,-0.274 1.31927,-0.56564 1.97427,-0.86764c-0.457,1.538 -0.9334,3.07233 -1.4984,4.58832c-0.47,1.263 -0.96669,2.51714 -1.48769,3.75914c-0.025,0.058 -0.06291,0.14917 -0.1169,0.27317c-0.077,0.177 -0.15282,0.35433 -0.22982,0.53133c-0.138,0.316 -0.27666,0.6316 -0.41766,0.9466c-0.336,0.75 -0.68022,1.49751 -1.03422,2.23951c-1.545,3.238 -3.25475,6.40321 -5.13175,9.46121c-4.586,7.472 -9.997,14.15883 -16.546,20.09583c-7.772,7.046 -16.9412,12.63632 -26.7512,16.35432c-10.79,4.089 -22.23465,5.97919 -33.72565,6.30919z" data-paper-data="{&quot;noHover&quot;:false,&quot;origItem&quot;:[&quot;Path&quot;,{&quot;applyMatrix&quot;:true,&quot;segments&quot;:[[[757.64387,415.204],[-21.58,8.178],[19.62,-7.436]],[[811.02587,382.538],[-15.544,14.092],[13.098,-11.874]],[[844.10787,342.426],[-9.172,14.944],[3.754,-6.116]],[[854.37787,323.52],[-3.09,6.476],[0.708,-1.484]],[[856.44787,319.044],[-0.672,1.5],[0.282,-0.63]],[[857.28387,317.152],[-0.276,0.632],[0.154,-0.354]],[[857.74387,316.09],[-0.154,0.354],[0.108,-0.248]],[[857.97787,315.544],[-0.05,0.116],[1.042,-2.484]],[[860.95587,308.03],[-0.94,2.526],[1.13,-3.032]],[[863.95587,298.858],[-0.914,3.076],[-1.31,0.604]],[[860.00787,300.594],[1.322,-0.548],[-20.632,8.544]],[[794.66587,305.34],[21.652,5.534],[-7.824,-2]],[[772.06787,296.752],[7.194,3.678],[-0.398,3.014]],[[770.52987,305.72],[0.594,-2.952],[-2.5,12.444]],[[758.97587,341.892],[5.022,-11.644],[-7.304,16.932]],[[730.41987,388.978],[11.518,-14.384],[-11.69,14.598]],[[690.23787,427.856],[14.864,-11.328],[22.982,-0.66]]],&quot;closed&quot;:true,&quot;fillColor&quot;:[0,0,0,1]}]}" fill="#67d440" stroke="none" stroke-width="0.5" stroke-linecap="butt"/><path d="M424.04011,145.57684c-20.07,5.131 -41.39101,-3.90419 -53.45801,-20.37519c-5.258,-7.176 -8.99746,-15.86926 -9.03645,-24.87626c-0.038,-8.773 3.71604,-17.07703 9.63404,-23.45203c14.077,-15.163 37.5249,-19.53227 57.0329,-14.43227c17.467,4.566 34.62283,18.29915 34.71283,37.73615c-0.009,2.033 -0.17894,4.063 -0.54694,6.063c-3.486,18.932 -20.00736,34.6516 -38.33837,39.3366z" data-paper-data="{&quot;noHover&quot;:false,&quot;origItem&quot;:[&quot;Path&quot;,{&quot;applyMatrix&quot;:true,&quot;segments&quot;:[[[920.42787,219.524],[-6.972,37.864],[0.736,-4]],[[921.52187,207.41],[-0.018,4.066],[-0.18,-38.874]],[[852.15987,132.024],[34.934,9.132],[-39.016,-10.2]],[[738.21387,160.85],[28.154,-30.326],[-11.836,12.75]],[[718.96187,207.706],[-0.076,-17.546],[0.078,18.014]],[[737.02387,257.406],[-10.516,-14.352],[24.134,32.942]],[[843.82387,298.106],[-40.14,10.262],[36.662,-9.37]]],&quot;closed&quot;:true,&quot;fillColor&quot;:[0,0,0,1]}]}" fill="#67d440" stroke="none" stroke-width="0.5" stroke-linecap="butt"/><path d="M445.13125,138.43125c-0.41044,0.283 -0.80978,0.443 -1.17086,0.579c-0.36163,0.136 -0.68166,0.256 -0.95344,0.358c-0.27177,0.106 -0.50695,0.087 -0.67833,0.111c-0.1725,0.008 -0.41598,0.018 -0.72104,0.031c-0.3045,0.011 -0.66724,0.04 -1.09043,-0.046c-0.84195,-0.103 -1.88247,-0.417 -2.98732,-1.052c-1.10652,-0.622 -2.27459,-1.555 -3.40163,-2.739c-1.12593,-1.188 -2.21026,-2.619 -3.20585,-4.147c-1.99672,-3.054 -3.61795,-6.511 -4.72724,-9.167c-1.11095,-2.662 -1.71829,-4.547 -1.71829,-4.547c0,0 0.79924,1.894 2.17476,4.425c1.37108,2.527 3.34062,5.692 5.55698,8.164c1.10596,1.233 2.26628,2.293 3.39443,3.062c1.12926,0.768 2.22302,1.226 3.17257,1.433c0.95177,0.223 1.75379,0.149 2.34449,0.05c0.59181,-0.16 0.97673,-0.264 1.08377,-0.293c0.05269,-0.018 0.16418,-0.023 0.32669,-0.035c0.16195,-0.037 0.37494,-0.086 0.63174,-0.145c0.25847,-0.05 0.5613,-0.109 0.90019,-0.175c0.33722,-0.127 0.71105,-0.268 1.11317,-0.419c1.60958,-0.654 3.66288,-2.051 5.57474,-3.99c1.91852,-1.911 3.69782,-4.266 4.95243,-6.186c1.26237,-1.91 2.02501,-3.349 2.02501,-3.349c0,0 -0.56351,1.512 -1.56743,3.653c-1.00169,2.141 -2.45098,4.917 -4.16872,7.445c-1.7133,2.525 -3.70614,4.781 -5.54035,6.123c-0.45481,0.34 -0.9074,0.59 -1.32006,0.856z" fill="#152345" stroke="none" stroke-width="1" stroke-linecap="butt"/><path d="M416.35854,75.89671c2.911,0.22 5.899,0.672 8.596,1.837c1.533,0.662 3.157,1.699 3.523,3.395c0.063,0.152 0.095,0.33 0.085,0.535c0.01,0.196 -0.02,0.368 -0.078,0.516c-0.723,3.759 -7.066,4.651 -10.007,5.031c-5.544,0.716 -12.003,0.635 -17.203,-1.674c-1.414,-0.628 -3.021,-1.615 -3.402,-3.236c-0.392,-1.666 0.822,-3.013 2.122,-3.846c1.977,-1.267 4.465,-1.817 6.751,-2.177c3.174,-0.501 6.409,-0.623 9.613,-0.381zM403.21754,79.69371c-0.817,0.286 -2.632,0.886 -2.897,1.846c-0.177,0.641 1.217,1.371 1.833,1.664c3.98,1.89 9.012,2.015 13.319,1.782c2.486,-0.134 4.996,-0.472 7.369,-1.252c0.845,-0.278 3.171,-1.048 3.222,-2.071c-0.039,-0.782 -1.659,-1.477 -2.344,-1.756c-1.979,-0.806 -4.169,-1.194 -6.284,-1.413c-4.666,-0.483 -9.749,-0.363 -14.218,1.2z" fill="#152345" stroke="none" stroke-width="1" stroke-linecap="butt"/><path d="M434.83454,69.47771c-0.627,2.591 -4.678,3.24 -6.839,3.525c-3.772,0.499 -8.12,0.429 -11.655,-1.143c-1.05,-0.467 -2.151,-1.219 -2.426,-2.407c-0.293,-1.264 0.563,-2.318 1.564,-2.961c1.324,-0.851 2.98,-1.238 4.513,-1.483c2.122,-0.339 4.282,-0.436 6.426,-0.277c2.04,0.151 4.128,0.468 6.008,1.309c1.075,0.48 2.09,1.222 2.396,2.357c0.067,0.157 0.103,0.339 0.091,0.553c0.011,0.2 -0.018,0.376 -0.078,0.527zM416.35154,68.96971c-0.022,0.057 -0.002,0.184 0,0zM432.17254,68.74971c-0.328,-0.257 -0.733,-0.439 -1.118,-0.591c-1.212,-0.477 -2.544,-0.72 -3.833,-0.856c-2.982,-0.314 -6.196,-0.244 -9.067,0.701c-0.464,0.153 -0.924,0.333 -1.337,0.599c-0.123,0.079 -0.221,0.162 -0.335,0.249c-0.052,0.039 -0.09,0.064 -0.112,0.079c0.011,0.013 0.023,0.028 0.01,0.015c0.282,0.304 0.658,0.5 1.031,0.671c2.559,1.171 5.757,1.236 8.51,1.085c1.585,-0.087 3.179,-0.307 4.691,-0.804c0.484,-0.159 0.994,-0.348 1.414,-0.646c0.104,-0.074 0.309,-0.255 0.347,-0.284c0.004,-0.003 0.005,-0.008 0.009,-0.011c-0.027,-0.035 -0.099,-0.121 -0.21,-0.207z" fill="#152345" stroke="none" stroke-width="1" stroke-linecap="butt"/><path d="M409.49954,72.52071c-0.627,2.591 -4.678,3.239 -6.839,3.525c-3.772,0.499 -8.12,0.429 -11.655,-1.143c-1.05,-0.467 -2.151,-1.219 -2.426,-2.408c-0.293,-1.264 0.563,-2.318 1.564,-2.961c1.324,-0.851 2.98,-1.238 4.513,-1.483c2.122,-0.34 4.282,-0.437 6.426,-0.278c2.04,0.151 4.128,0.468 6.008,1.309c1.075,0.48 2.09,1.222 2.396,2.358c0.067,0.157 0.103,0.339 0.091,0.553c0.011,0.201 -0.018,0.377 -0.078,0.528zM391.01654,72.01171c-0.022,0.058 -0.002,0.184 0,0zM406.83754,71.79171c-0.328,-0.257 -0.733,-0.439 -1.118,-0.59c-1.212,-0.476 -2.544,-0.721 -3.833,-0.856c-2.982,-0.314 -6.196,-0.244 -9.068,0.701c-0.464,0.153 -0.924,0.333 -1.337,0.599c-0.123,0.079 -0.221,0.162 -0.335,0.249c-0.052,0.039 -0.09,0.064 -0.112,0.079c0.011,0.013 0.023,0.028 0.01,0.015c0.282,0.304 0.658,0.5 1.031,0.671c2.559,1.171 5.757,1.236 8.51,1.085c1.585,-0.087 3.179,-0.307 4.691,-0.804c0.484,-0.16 0.994,-0.348 1.413,-0.646c0.104,-0.074 0.309,-0.255 0.347,-0.284c0.004,-0.003 0.005,-0.008 0.009,-0.011c-0.025,-0.035 -0.097,-0.121 -0.208,-0.208z" fill="#152345" stroke="none" stroke-width="1" stroke-linecap="butt"/><path d="M436.04954,119.76871c-2.869,0 -5.196,-4.146 -5.196,-9.262c0,-5.115 2.326,-9.262 5.196,-9.262c2.869,0 5.196,4.147 5.196,9.262c0,5.115 -2.327,9.262 -5.196,9.262z" fill="#152345" stroke="none" stroke-width="1" stroke-linecap="butt"/><path d="M420.28546,33.89172c0,0 59.34415,6.81476 44.69632,57.2045c-1.51987,5.2285 -107.70251,23.49333 -108.29362,-7.27254c-1.14742,-59.72002 63.5973,-49.93196 63.5973,-49.93196z" fill="#ff0000" stroke="#000000" stroke-width="3.5" stroke-linecap="round"/><path d="M401.34775,146.84853l-2.02522,-45.56752" fill="none" stroke="#152345" stroke-width="3.5" stroke-linecap="round"/></g></g></svg>