<svg version="1.1" xmlns="http://www.w3.org/2000/svg" xmlns:xlink="http://www.w3.org/1999/xlink" width="1027.02703" height="408.40841" viewBox="0,0,1027.02703,408.40841"><g transform="translate(104.09508,-83.3521)"><g data-paper-data="{&quot;isPaintingLayer&quot;:true}" fill-rule="nonzero" stroke="none" stroke-linecap="butt" stroke-linejoin="miter" stroke-miterlimit="10" stroke-dasharray="" stroke-dashoffset="0" style="mix-blend-mode: normal"><path d="M220.38547,213.74375c0.03606,-0.23437 0.06923,-0.46585 0.1024,-0.69806c-0.00288,0.05913 -0.00361,0.11827 -0.00649,0.1774c-0.03245,0.67066 -0.07572,1.34131 -0.12404,2.00908c-0.04832,-0.11033 -0.10024,-0.21923 -0.14928,-0.32956c0.05913,-0.38725 0.11971,-0.78243 0.1774,-1.15887z" fill="none" stroke-width="1"/><path d="M359.34473,167.7872c0,0 -0.08221,0.52427 -0.22572,1.44227c-0.07572,0.45864 -0.14928,1.01969 -0.26898,1.65645c-0.12692,0.63604 -0.27043,1.35357 -0.42691,2.136c-0.6584,3.1254 -1.79563,7.24453 -3.1218,11.29515c-1.31679,4.05423 -2.74969,8.05725 -3.75784,11.06367c-1.01608,3.00569 -1.63193,5.01334 -1.63193,5.01334c0,0 -0.8394,1.96149 -1.44876,5.03064c-2.93719,14.79915 -0.60287,26.67553 -0.60287,26.67553h-215.67658c0.05913,-0.19254 0.1774,-0.57619 0.34615,-1.12497c0.22355,-0.8156 0.53148,-1.99106 0.77883,-3.4427c0.20264,-1.20141 0.36562,-2.59681 0.45215,-4.10254c-0.14351,-2.40138 -0.25096,-5.06742 -0.24447,-7.81279c-0.41033,-3.73476 -1.25406,-7.40246 -1.9788,-10.19253c-0.79758,-3.02589 -1.44876,-5.03064 -1.44876,-5.03064c0,0 -0.61585,-2.00764 -1.63193,-5.01334c-1.00815,-3.00642 -2.44104,-7.00872 -3.75784,-11.06367c-1.32617,-4.05062 -2.4634,-8.16975 -3.1218,-11.29515c-0.15649,-0.78315 -0.29999,-1.49996 -0.42691,-2.136c-0.11899,-0.63676 -0.19254,-1.19853 -0.26898,-1.65645c-0.14351,-0.91801 -0.22572,-1.44227 -0.22572,-1.44227c0,0 0.12908,0.51489 0.3548,1.41559c0.11682,0.44927 0.23942,0.99805 0.41537,1.61967c0.18317,0.61873 0.38941,1.31679 0.61441,2.07831c0.93171,3.0367 2.41941,6.9943 4.091,10.87905c1.66222,3.88836 3.44559,7.73779 4.73065,10.6656c1.29228,2.92421 2.10355,4.91093 2.10355,4.91093c0,0 0.64109,1.4978 1.53818,3.90207c0.22644,-1.39468 0.4673,-2.70137 0.69373,-3.86529c0.73195,-3.65255 1.22016,-6.08783 1.22016,-6.08783c0,0 0.11538,-0.60431 0.3173,-1.6615c0.19975,-1.05791 0.46657,-2.56436 0.71825,-4.37585c0.25312,-1.81221 0.45936,-3.9237 0.51489,-6.20754c0.06058,-2.28384 -0.02524,-4.73354 -0.23797,-7.18251c-0.42114,-4.90084 -1.33554,-9.78076 -2.07976,-13.42322c-0.74782,-3.64462 -1.29011,-6.06836 -1.29011,-6.06836c0,0 0.7269,2.37254 1.7538,5.95514c1.02401,3.58188 2.31845,8.39546 3.13261,13.34606c0.40888,2.47277 0.69157,4.97728 0.81128,7.34477c0.12476,2.36749 0.08005,4.5958 -0.0375,6.4859c-0.11538,1.89154 -0.27043,3.45785 -0.39013,4.54748c-0.12187,1.08892 -0.19182,1.71126 -0.19182,1.71126c0,0 -0.29855,2.4634 -0.7471,6.1585c-0.12404,1.07089 -0.24951,2.24994 -0.35768,3.48813c0.17956,-0.59854 0.4197,-1.28506 0.73844,-2.02711c0.95767,-2.28312 2.61556,-4.83522 3.63741,-7.6599c1.07089,-2.82253 1.63554,-5.84841 1.805,-8.14307c0.08942,-1.14805 0.09952,-2.11221 0.09231,-2.78719c-0.01947,-0.67498 -0.03101,-1.06151 -0.03101,-1.06151c0,0 0.05913,0.38292 0.16226,1.05214c0.09014,0.6721 0.2012,1.63698 0.25456,2.80522c0.11538,2.33215 -0.06995,5.49217 -0.81993,8.57863c-0.36273,1.53962 -0.8769,3.07132 -1.39468,4.43499c-0.51345,1.36799 -0.97858,2.60618 -1.27929,3.65832c-0.3036,1.05142 -0.45432,1.91245 -0.51345,2.50739c-0.05481,0.5971 -0.05625,0.9418 -0.05625,0.9418c0,0 -0.07356,1.31607 0.3072,3.35977c0.82859,-1.61318 1.61246,-3.09656 2.25427,-4.36504c1.26776,-2.47999 2.01557,-4.15086 2.01557,-4.15086c0,0 0.1875,-0.41826 0.51561,-1.15093c0.16875,-0.36562 0.33677,-0.81705 0.55095,-1.33194c0.21706,-0.51417 0.44278,-1.09901 0.66777,-1.74371c0.94541,-2.56508 1.8764,-6.13038 2.3372,-9.79519c0.46874,-3.66265 0.44566,-7.39885 0.17884,-10.18388c-0.13053,-1.39323 -0.29494,-2.5521 -0.42908,-3.35977c-0.14134,-0.80767 -0.22211,-1.2692 -0.22211,-1.2692c0,0 0.12764,0.45143 0.35047,1.24107c0.21562,0.79253 0.49903,1.93337 0.77378,3.32011c0.55311,2.7706 0.96921,6.55152 0.87257,10.36416c-0.08654,3.80904 -0.67354,7.62313 -1.39107,10.42258c-0.16802,0.70455 -0.34182,1.34275 -0.51345,1.90236c-0.16802,0.56032 -0.29927,1.05863 -0.43484,1.45381c-0.26249,0.79541 -0.41249,1.25045 -0.41249,1.25045c0,0 -0.60287,1.82375 -1.63193,4.47176c-1.01896,2.65162 -2.71724,13.23501 -2.42662,14.26262c0.05048,-0.0649 0.09663,-0.13053 0.14711,-0.19543c0.09086,-0.11755 0.18677,-0.23076 0.27836,-0.34759c0.60575,-1.48266 1.33338,-3.00858 2.10427,-4.45085c0.52643,-0.97498 1.06079,-1.92183 1.5865,-2.83839c0.1536,-1.59732 0.38148,-3.06771 0.59494,-4.32393c0.25528,-1.43578 0.50119,-2.61123 0.67282,-3.43189c0.17451,-0.81705 0.27475,-1.28434 0.27475,-1.28434c0,0 0.42114,-1.86414 0.98363,-4.62176c0.56465,-2.75185 1.12569,-6.47003 1.50501,-10.23075c0.38725,-3.75856 0.61297,-7.54741 0.77089,-10.3894c0.14567,-2.84488 0.2423,-4.74075 0.2423,-4.74075c0,0 0.09375,1.89659 0.23509,4.74219c0.12836,2.84704 0.28557,6.64743 0.27764,10.46584c0.00144,3.81625 -0.18605,7.65486 -0.47883,10.52858c-0.28918,2.86796 -0.5185,4.74147 -0.5185,4.74147c0,0 -0.00433,0.04399 -0.01298,0.11971c0.05336,-0.12043 0.11105,-0.24591 0.15649,-0.35336c0.31874,-0.70599 0.48749,-1.1156 0.48749,-1.1156c0,0 0.16442,-0.41177 0.45215,-1.13218c0.15,-0.35913 0.31442,-0.80118 0.49109,-1.31247c0.17596,-0.51201 0.40095,-1.08242 0.58989,-1.72279c0.82786,-2.5384 1.69467,-6.02004 2.16846,-9.58822c0.03678,-0.27764 0.06707,-0.556 0.0988,-0.83363c-0.08726,-0.84229 -0.15288,-1.31968 -0.15288,-1.31968c0,0 -0.06923,-0.58051 -0.1911,-1.59732c-0.09807,-1.02041 -0.36634,-2.46196 -0.62595,-4.20494c-0.59349,-3.47299 -1.56054,-8.09186 -2.74969,-12.67324c-1.17257,-4.58498 -2.53263,-9.13319 -3.56818,-12.53911c-1.04925,-3.40376 -1.74875,-5.67245 -1.74875,-5.67245c0,0 0.88051,2.20595 2.20019,5.51525c1.30742,3.31434 3.03165,7.74572 4.58065,12.25498c0.78532,2.25932 1.51727,4.54027 2.16485,6.69358c-0.00505,-0.04183 -0.00793,-0.06707 -0.00793,-0.06707c0,0 0.01298,0.05841 0.03678,0.16586c0.63027,2.10067 1.17978,4.07802 1.61607,5.78856c0.40816,1.75308 0.80046,3.20545 0.98579,4.24316c0.20913,1.03267 0.32884,1.62328 0.32884,1.62328c0,0 0.12908,0.58845 0.31802,1.6276c0.11178,0.75359 0.29062,1.73866 0.46657,2.90474c0.3548,-1.99033 0.57186,-4.14942 0.55383,-6.33662c0.01154,-4.28932 -0.88916,-8.57214 -1.97519,-11.63985c-0.5185,-1.54612 -1.08387,-2.78719 -1.48049,-3.65544c-0.42691,-0.85455 -0.67066,-1.34348 -0.67066,-1.34348c0,0 0.28629,0.46657 0.78676,1.28218c0.47162,0.83291 1.14805,2.02856 1.80861,3.5415c1.36583,2.9992 2.67686,7.28347 3.05762,11.74081c0.05409,0.55816 0.09303,1.11776 0.11827,1.67664c0.16875,-0.6447 0.3411,-1.29155 0.51922,-1.93769c1.02329,-3.73548 2.16701,-7.42337 3.03165,-10.18532c0.87474,-2.75762 1.45742,-4.59652 1.45742,-4.59652c0,0 -0.39735,1.88649 -0.99445,4.71695c-0.587,2.83118 -1.35862,6.60777 -2.00187,10.39589c-0.6483,3.78741 -1.1567,7.58274 -1.41198,10.43267c-0.27259,2.84849 -0.36201,4.75517 -0.36201,4.75517c0,0 -0.12692,1.90308 -0.19831,4.76454c-0.07644,2.86147 -0.08798,6.67844 0.01875,10.50262c0.0137,0.556 0.03029,1.11199 0.04759,1.66582c0.27836,-0.69157 3.25593,-18.77261 3.32732,-19.73604c0.07356,-0.96344 0.11538,-1.51366 0.11538,-1.51366c0,0 0.2012,-2.18937 0.50335,-5.47198c0.31946,-3.2754 0.78604,-7.61952 1.11848,-11.96725c0.33172,-4.34629 0.46441,-8.70627 0.34542,-11.97951c-0.01731,-0.81921 -0.05625,-1.56847 -0.09952,-2.23264c-0.03606,-0.66489 -0.07283,-1.2454 -0.12115,-1.72063c-0.08509,-0.95334 -0.13341,-1.49852 -0.13341,-1.49852c0,0 0.09591,0.53869 0.26394,1.48193c0.09014,0.47162 0.1774,1.04709 0.27115,1.70837c0.10168,0.66056 0.20624,1.40766 0.29494,2.22615c0.40672,3.26891 0.65768,7.66567 0.70671,12.06244c0.04832,4.39604 -0.0375,8.78343 -0.06995,12.05955c-0.01442,3.27035 -0.0238,5.45034 -0.0238,5.45034c0,0 0.00577,0.54229 0.01659,1.49203c0.00721,0.60143 0.02091,1.37953 0.04615,2.27014c0.36057,-1.13363 0.68796,-2.21317 0.96632,-3.19391c0.49037,-1.67448 0.83219,-3.08574 1.10406,-4.06865c0.25384,-0.98579 0.37066,-1.55477 0.37066,-1.55477c0,0 0.13053,-0.56681 0.3584,-1.5591c0.25023,-0.99012 0.49686,-2.42013 0.83075,-4.13499c0.60287,-3.43477 1.22305,-8.06302 1.34059,-12.73382c0.16442,-4.6708 -0.26538,-9.35529 -0.86681,-12.82468c-0.15649,-0.86608 -0.2524,-1.67376 -0.42259,-2.36893c-0.16298,-0.69878 -0.30504,-1.30742 -0.42186,-1.80861c-0.23437,-1.00526 -0.3685,-1.57929 -0.3685,-1.57929c0,0 0.17956,0.56104 0.4947,1.54323c0.15721,0.49181 0.34903,1.08964 0.56898,1.77544c0.22788,0.68436 0.38869,1.48121 0.61657,2.33936c0.887,3.43405 1.70837,8.13658 1.9276,12.89896c0.14495,2.58455 0.13485,5.16766 0.04543,7.56688c0.25096,-0.9519 0.54229,-2.06605 0.86104,-3.30929c0.87041,-3.4564 1.91966,-7.90221 2.56652,-12.56074c-0.84661,-3.21987 -1.73,-6.25513 -2.52902,-8.6868c-0.52931,-1.74731 -1.07882,-3.16507 -1.41343,-4.17754c-0.35047,-1.00671 -0.55023,-1.58217 -0.55023,-1.58217c0,0 0.24447,0.55744 0.6721,1.53313c0.41249,0.98147 1.07377,2.35811 1.7401,4.06144c0.74638,1.78553 1.56847,3.9136 2.40138,6.20682c0.28124,-2.73455 0.40095,-5.48424 0.3274,-8.06446c-0.06995,-2.61844 -0.34254,-5.05877 -0.71609,-7.12771c-0.35336,-2.07543 -0.86176,-3.76072 -1.20718,-4.94266c-0.40095,-1.16536 -0.63027,-1.83168 -0.63027,-1.83168c0,0 0.27403,0.65046 0.75431,1.7877c0.42547,1.15742 1.05142,2.81676 1.55044,4.8857c0.5185,2.06101 0.96344,4.51359 1.21511,7.16881c0.25672,2.65522 0.32523,5.50804 0.22139,8.35508c-0.04038,1.16752 -0.11682,2.32855 -0.21057,3.47876c0.30432,0.89421 0.6072,1.79563 0.90142,2.70354c0.7507,2.41076 1.45237,4.83594 2.06894,7.11545c1.01247,-2.87084 2.01197,-6.16138 2.76772,-9.53342c1.15454,-4.96718 1.79779,-10.05768 2.04154,-13.89557c0.11899,-1.91894 0.1673,-3.52347 0.18028,-4.647c0.00577,-1.12425 0.00937,-1.76678 0.00937,-1.76678c0,0 0.04471,0.64181 0.12259,1.7639c0.07067,1.12353 0.14278,2.73094 0.16586,4.66431c0.04255,3.86457 -0.22067,9.04016 -1.0168,14.16743c-0.7334,4.98089 -1.98889,9.87595 -3.16507,13.5624c0.1298,0.54302 0.25384,1.07089 0.36634,1.5728c0.4435,1.78842 0.70239,3.30136 0.93603,4.35133c0.21778,1.05358 0.34182,1.65573 0.34182,1.65573c0,0 0.10673,0.60503 0.29278,1.66438c0.17019,1.06151 0.48821,2.56941 0.73628,4.39821c0.35696,2.25643 0.70816,4.99242 1.01247,7.91591c0.07356,-0.33749 0.14639,-0.67282 0.21562,-0.99012c0.67931,-3.19103 1.09252,-5.32126 1.09252,-5.32126c0,0 0.43052,-2.12807 0.98147,-5.3328c0.53941,-3.20473 1.16896,-7.49404 1.49419,-11.81725c0.3447,-4.32105 0.33605,-8.67094 0.11394,-11.92759c-0.06058,-0.81488 -0.1161,-1.56126 -0.16514,-2.22326c-0.07932,-0.65912 -0.14928,-1.23386 -0.20624,-1.70693c-0.11466,-0.94829 -0.18028,-1.49059 -0.18028,-1.49059c0,0 0.1125,0.53364 0.31009,1.46823c0.0988,0.46802 0.2185,1.03699 0.35624,1.6889c0.10745,0.65768 0.2286,1.40045 0.36057,2.21028c0.50912,3.24439 0.9043,7.6289 0.93892,12.02927c0.05481,4.40037 -0.2012,8.80002 -0.46225,12.08768c-0.27259,3.28694 -0.5185,5.46909 -0.5185,5.46909c0,0 -0.2286,2.18504 -0.62883,5.44818c-0.41537,3.24944 -1.66222,13.05688 -1.72568,13.62226c0,0 3.62876,-9.15554 3.99942,-12.01052c0.16226,-1.42929 0.35985,-2.61412 0.46874,-3.44487c0.11827,-0.83003 0.18533,-1.30453 0.18533,-1.30453c0,0 0.07716,-0.47234 0.21274,-1.30021c0.14423,-0.82642 0.30865,-2.01125 0.57979,-3.42179c0.49758,-2.82829 1.27497,-6.57387 2.14971,-10.28844c0.90719,-3.7088 1.91101,-7.38443 2.74825,-10.11393c0.3959,-1.37088 0.78676,-2.49585 1.03122,-3.28982c0.25312,-0.79181 0.39807,-1.24396 0.39807,-1.24396c0,0 -0.0988,0.46513 -0.27115,1.27857c-0.1637,0.81488 -0.43845,1.96942 -0.69445,3.37059c-0.55744,2.79224 -1.18411,6.53421 -1.70981,10.28123c-0.49326,3.75423 -0.88555,7.51207 -1.09324,10.33532c-0.12692,1.4091 -0.17019,2.58888 -0.23004,3.41097c-0.05048,0.82282 -0.07932,1.293 -0.07932,1.293c0,0 -0.01947,0.47018 -0.05264,1.29444c-0.02452,0.82426 -0.10096,1.99755 -0.11827,3.41025c-0.07932,2.78503 -0.07211,6.48517 0.03173,10.18676c0.19687,-0.29927 0.39446,-0.59854 0.58989,-0.89709c1.2079,-1.84611 2.35523,-3.68284 3.29126,-5.4489c0.09663,-0.17451 0.18605,-0.34975 0.27403,-0.52427l2.36316,-22.05017l0.46585,14.92679c0.12331,-0.38581 0.23725,-0.74782 0.3036,-1.06007c0.2286,-0.91801 0.35913,-1.44227 0.35913,-1.44227c0,0 0.03317,-0.13125 0.09447,-0.37788c0.06923,-0.24519 0.14423,-0.61008 0.22788,-1.07738c0.0887,-0.4673 0.19615,-1.03411 0.31946,-1.68529c0.12836,-0.65119 0.19975,-1.39828 0.31874,-2.20884c0.42763,-3.24655 0.62522,-7.65702 0.40528,-12.08479c-0.19975,-4.4285 -0.78387,-8.85338 -1.29444,-12.15907c-0.26754,-1.6514 -0.49398,-3.02949 -0.67498,-3.98932c-0.17379,-0.962 -0.27259,-1.5115 -0.27259,-1.5115c0,0 0.14495,0.53941 0.40023,1.48338c0.26321,0.94252 0.60575,2.2961 1.01536,3.92442c0.79325,3.25953 1.76101,7.64332 2.34874,12.11364c0.6072,4.46527 0.7983,9.01348 0.64253,12.43743c-0.0512,0.85455 -0.06058,1.64275 -0.13557,2.3372c-0.07067,0.69517 -0.13269,1.30165 -0.18317,1.8014c-0.04687,0.50119 -0.09375,0.89349 -0.14351,1.15887c-0.04255,0.26682 -0.0649,0.40888 -0.0649,0.40888c0,0 -0.03966,0.24879 -0.11178,0.69806c0.3173,-0.8906 0.62667,-1.7365 0.91656,-2.51316c1.26487,-3.37059 2.14105,-5.59241 2.14105,-5.59241c0,0 0.87041,-2.21821 2.17639,-5.54626c0.52354,-1.32761 1.10478,-2.83839 1.70765,-4.45518c0.23797,-2.66964 0.37499,-5.67173 0.36489,-8.69401c-0.01442,-4.63979 -0.3036,-9.2976 -0.5596,-12.78718c-0.27331,-3.49102 -0.45504,-5.81812 -0.45504,-5.81812c0,0 0.37138,2.30547 0.92954,5.76332c0.54013,3.46145 1.21295,8.09186 1.61174,12.77564c0.08293,0.96993 0.14711,1.93986 0.2012,2.90401c0.22139,-0.6483 0.44061,-1.30093 0.65551,-1.95572c0.65551,-2.27086 1.39828,-4.5309 1.86341,-6.70152c0.24086,-1.08315 0.55095,-2.12014 0.70743,-3.12612c0.17451,-1.00454 0.33893,-1.955 0.49109,-2.8319c0.07356,-0.43917 0.15432,-0.86032 0.21274,-1.26199c0.03894,-0.40384 0.07572,-0.78748 0.11033,-1.14733c0.06923,-0.72186 0.1298,-1.35069 0.17956,-1.86918c0.09952,-1.03916 0.15649,-1.63265 0.15649,-1.63265c0,0 -0.00937,0.59566 -0.02524,1.6377c-0.00793,0.5221 -0.01803,1.1567 -0.02957,1.88433c-0.00577,0.36489 -0.01154,0.75287 -0.01803,1.16175c-0.02596,0.40744 -0.07356,0.83435 -0.11178,1.28074c-0.08149,0.89421 -0.17091,1.86341 -0.26466,2.88815c-0.07716,1.02978 -0.3036,2.09057 -0.45936,3.20473c-0.29567,2.2348 -0.85743,4.56335 -1.33843,6.91858c-0.62522,2.59104 -1.31175,5.15973 -1.97735,7.52577c-0.80335,5.91908 -2.1086,13.83571 -2.542,17.32889c-0.95767,7.71976 0.99156,21.72422 0.99156,21.72422c-0.57475,-4.91743 0.11466,-14.06287 0.32956,-16.58108c0.21562,-2.56003 0.53797,-5.11934 0.95695,-7.5027c0.41321,-2.38912 0.94036,-4.57633 1.40694,-6.42099c0.48532,-1.82952 0.88988,-3.354 1.17257,-4.42128c0.28413,-1.05719 0.44638,-1.6615 0.44638,-1.6615c0,0 0.15865,-0.60215 0.43629,-1.65717c0.26754,-1.05358 0.65263,-2.55715 1.03555,-4.36648c0.38004,-1.81005 0.75431,-3.92586 0.94685,-6.21691c0.20336,-2.29249 0.23509,-4.77536 0.19254,-7.27193c-0.10673,-4.99098 -0.34831,-10.05408 -0.02524,-13.82922c0.12404,-1.88865 0.38653,-3.44487 0.57402,-4.52729c0.23293,-1.07449 0.36634,-1.68818 0.36634,-1.68818c0,0 -0.08654,0.6209 -0.23653,1.70765c-0.10456,1.09108 -0.24591,2.65017 -0.22644,4.52513c-0.03461,3.75423 0.58268,8.70844 1.07449,13.72826c0.23365,2.51172 0.39735,5.05011 0.3685,7.45654c-0.01875,2.40859 -0.24158,4.65205 -0.49109,6.54936c-0.1637,1.2317 -0.33749,2.31845 -0.49109,3.23069c0.24086,-1.03627 0.4947,-2.08841 0.76008,-3.1391c0.99517,-3.75928 2.12086,-7.47025 3.07709,-10.21345c0.44783,-1.38025 0.90214,-2.50378 1.18194,-3.30136c0.29134,-0.79325 0.45792,-1.24684 0.45792,-1.24684c0,0 -0.12115,0.4673 -0.33244,1.28651c-0.19903,0.82209 -0.53869,1.97952 -0.84806,3.39439c-0.67859,2.81387 -1.42713,6.59695 -2.03937,10.39085c-0.56898,3.80327 -1.00166,7.61447 -1.21079,10.48027c-0.13413,1.42929 -0.16442,2.62782 -0.22355,3.46145c-0.04759,0.83508 -0.075,1.31175 -0.075,1.31175c0,0 -0.0137,0.47739 -0.03822,1.31391c-0.01226,0.83652 -0.08582,2.02711 -0.07428,3.46001c-0.03822,2.86291 2.38768,10.46945 2.38768,10.46945c-0.16658,-2.40859 -0.3036,-4.97439 -0.35913,-7.5539c-0.12764,-5.29242 0.15577,-10.62666 0.69734,-14.57271c0.11322,-0.9894 0.24447,-1.88865 0.37788,-2.6819c0.12692,-0.79397 0.23797,-1.48626 0.32956,-2.05596c0.20769,-1.13146 0.32595,-1.77832 0.32595,-1.77832c0,0 0.46946,-2.59032 1.3067,-6.41234c0.81488,-3.82779 2.02495,-8.87935 2.93358,-13.96984c0.92738,-5.08689 1.46246,-10.24229 1.41847,-14.13138c-0.04471,-1.93913 -0.09663,-3.56457 -0.24374,-4.69099c-0.11466,-1.13218 -0.17956,-1.77904 -0.17956,-1.77904c0,0 0.1125,0.64037 0.30937,1.76173c0.23076,1.1192 0.40239,2.73887 0.59061,4.68955c0.33244,3.90711 0.17668,9.16275 -0.3822,14.36503c-0.54013,5.20732 -1.37953,10.35551 -1.9074,14.20854c-0.55095,3.85231 -0.82209,6.40873 -0.82209,6.40873c0,0 -0.06995,0.63893 -0.1911,1.75813c-0.04832,0.55888 -0.10673,1.23747 -0.17307,2.01557c-0.07283,0.77811 -0.13557,1.65429 -0.17379,2.60907c-0.24014,3.81409 -0.13629,8.90314 0.36057,13.99076c0.22211,2.32783 2.55354,6.52339 2.55354,6.52339c0.03317,-2.54849 0.19903,-5.1929 0.43917,-7.81855c0.59133,-5.93495 1.52304,-11.7235 2.08769,-16.05032c0.2935,-2.16557 0.50263,-3.96336 0.63171,-5.22319c0.1262,-1.25982 0.19831,-1.97952 0.19831,-1.97952c0,0 0.05625,-0.71969 0.15216,-1.98096c0.05409,-0.63027 0.10168,-1.39684 0.13918,-2.27807c0.04687,-0.88051 0.09663,-1.87495 0.11466,-2.9617c0.075,-2.17278 0.0512,-4.71334 -0.0101,-7.43852c-0.08654,-2.72517 -0.25023,-5.63351 -0.481,-8.54113c-0.47883,-5.8138 -1.23531,-11.6175 -1.87928,-15.95946c-0.64037,-4.3434 -1.12137,-7.23299 -1.12137,-7.23299c0,0 0.66849,2.85065 1.59155,7.1479c0.92738,4.29653 2.06389,10.05263 2.92781,15.87076c0.42331,2.90978 0.78027,5.83327 1.04853,8.58512c0.24302,2.7533 0.43557,5.3328 0.50407,7.55101c0.05336,1.10839 0.06995,2.12591 0.08077,3.02877c0.02019,0.90286 0.02308,1.69034 0.0101,2.33936c-0.0137,1.29732 -0.02308,2.04009 -0.02308,2.04009c0,0 -0.02596,0.74061 -0.07067,2.03649c-0.04759,1.29444 -0.14134,3.14343 -0.29422,5.34578c-0.17235,2.6545 -0.43845,5.8275 -0.66633,9.18366c0.45143,-2.71075 0.94469,-5.23328 1.42064,-7.35559c0.88555,-4.03764 1.55333,-6.68421 1.55333,-6.68421c0,0 0.51561,-2.12302 1.31391,-5.41501c-0.25384,-2.54705 -0.58845,-4.95925 -0.92305,-6.89766c-0.23797,-1.35934 -0.44855,-2.49225 -0.61946,-3.28045c-0.16442,-0.79036 -0.25889,-1.2418 -0.25889,-1.2418c0,0 0.14062,0.43989 0.38581,1.20862c0.25168,0.76801 0.57907,1.87495 0.95839,3.20905c0.35408,1.25766 0.73195,2.7295 1.09757,4.31239c0.87762,-3.75856 1.91678,-8.42142 2.52686,-13.14775c0.71609,-5.3602 0.77883,-10.80694 0.22211,-14.84674c-0.30288,-2.00981 -0.58845,-3.69294 -0.92522,-4.83666c-0.29711,-1.1567 -0.46657,-1.81726 -0.46657,-1.81726c0,0 0.21562,0.64758 0.59277,1.78048c0.41754,1.12425 0.82209,2.78719 1.26992,4.79555c0.84806,4.03115 1.17545,9.56947 0.82859,15.06885c-0.32163,5.50443 -1.20862,10.93891 -1.8663,14.99025c-0.34687,2.04514 -0.63532,3.74342 -0.83508,4.92319c0.50624,3.2379 0.83796,6.42604 0.99733,8.89882c0.08582,1.39828 0.14639,2.56724 0.16514,3.38573c0.0238,0.81921 0.0375,1.28723 0.0375,1.28723c0,0 0.05048,1.87423 -0.01947,4.68738c-0.06202,2.8081 1.42496,11.03987 1.42496,11.03987c-0.0512,-1.08531 -0.10024,-2.18648 -0.14567,-3.28838c-0.16802,-4.57056 -0.27043,-9.14472 -0.25096,-12.58021c-0.01803,-1.71486 0.03894,-3.1492 0.04615,-4.14942c0.01731,-1.00094 0.0274,-1.5728 0.0274,-1.5728c0,0 0.02163,-0.57186 0.05913,-1.57352c0.05048,-1.00166 0.07067,-2.43023 0.18894,-4.14509c0.18605,-3.429 0.59205,-7.99307 1.20574,-12.5218c0.66777,-4.52513 1.53818,-9.00627 2.39201,-12.31628c0.18677,-0.83291 0.39302,-1.58794 0.59061,-2.25355c0.18966,-0.66705 0.3548,-1.24829 0.49109,-1.72712c0.27259,-0.9555 0.42763,-1.50213 0.42763,-1.50213c0,0 -0.10889,0.55744 -0.29999,1.53386c-0.09519,0.48749 -0.21129,1.07882 -0.34398,1.75813c-0.1399,0.67643 -0.28124,1.44299 -0.39735,2.28672c-0.5697,3.354 -1.05646,7.8611 -1.33843,12.36964c-0.22788,4.51575 -0.24879,9.02934 -0.14783,12.41291c0.02524,1.69034 0.12404,3.10088 0.15721,4.08596c0.04615,0.98507 0.07211,1.54828 0.07211,1.54828c0,0 0.0375,0.56321 0.10384,1.54828c0.07644,0.98507 0.13774,2.39129 0.29855,4.07802c0.26538,3.37347 0.74565,7.86471 1.29011,12.34945c0.19759,1.56342 0.40167,3.12324 0.60503,4.63835c0,0 1.92543,-13.80182 2.17927,-16.35464c0.25023,-2.54777 0.59061,-5.93134 0.73772,-9.31924c0.1637,-3.3879 0.07788,-6.78517 -0.17596,-9.32501c-0.06707,-0.63388 -0.1125,-1.21944 -0.18173,-1.73361c-0.08005,-0.51345 -0.15,-0.96055 -0.20697,-1.32905c-0.11538,-0.73916 -0.18101,-1.16175 -0.18101,-1.16175c0,0 0.1125,0.41249 0.30937,1.13363c0.0988,0.36201 0.2185,0.80118 0.35624,1.30526c0.12692,0.50696 0.23725,1.08531 0.37643,1.71414c0.54085,2.51749 1.0132,5.93927 1.23242,9.37909c0.23581,3.4391 0.27547,6.87964 0.31153,9.44688c0.03245,2.5622 0.05409,4.27057 0.05409,4.27057c0,0 0.00721,0.42475 0.02019,1.16896c0.00505,0.42547 0.01659,0.96272 0.03317,1.5728c0.34326,-1.55405 0.7096,-2.99776 1.06512,-4.23379c0.7846,-2.73383 1.41415,-4.49051 1.41415,-4.49051c0,0 0.23581,-0.70022 0.64686,-1.8663c-0.09735,-0.90575 -0.21201,-2.00187 -0.28773,-3.26386c-0.08509,-1.23891 -0.13125,-2.62782 -0.14134,-4.10038c-0.66633,-2.36533 -1.35213,-4.93401 -1.97735,-7.52577c-0.481,-2.35523 -1.04276,-4.68378 -1.33843,-6.91858c-0.15577,-1.11415 -0.3822,-2.17495 -0.45936,-3.20473c-0.09375,-1.02473 -0.18245,-1.99394 -0.26466,-2.88815c-0.03894,-0.44638 -0.08582,-0.8733 -0.11178,-1.28074c-0.00649,-0.40888 -0.01226,-0.79686 -0.01803,-1.16175c-0.01154,-0.72763 -0.02163,-1.36223 -0.02957,-1.88433c-0.01586,-1.04204 -0.02524,-1.6377 -0.02524,-1.6377c0,0 0.05697,0.59349 0.15649,1.63265c0.04976,0.5185 0.11033,1.14733 0.17956,1.86918c0.03461,0.36057 0.07139,0.74349 0.11033,1.14733c0.05769,0.40167 0.13918,0.82282 0.21274,1.26199c0.15216,0.8769 0.31658,1.82736 0.49109,2.8319c0.15649,1.00598 0.46657,2.04298 0.70743,3.12612c0.46513,2.17062 1.2079,4.43066 1.86341,6.70152c0.2149,0.65479 0.43412,1.3067 0.65551,1.95572c0.05409,-0.96344 0.11827,-1.93409 0.2012,-2.90401c0.39807,-4.68378 1.07089,-9.31419 1.61174,-12.77564c0.55744,-3.45785 0.92954,-5.76332 0.92954,-5.76332c0,0 -0.18173,2.32711 -0.45504,5.81812c-0.256,3.48958 -0.5459,8.14667 -0.5596,12.78718c-0.00937,3.02228 0.12764,6.02437 0.36489,8.69401c0.15,0.40095 0.29711,0.79181 0.4435,1.17834c0.63676,-1.8151 1.29588,-3.78813 1.86558,-5.79072c1.03195,-3.51049 1.61246,-7.13564 1.68457,-9.89038c0.05264,-0.68941 -0.00577,-1.31824 -0.00577,-1.88c0.00144,-0.56249 -0.04687,-1.04925 -0.09086,-1.4502c-0.0786,-0.80479 -0.12404,-1.26487 -0.12404,-1.26487c0,0 0.09303,0.45359 0.25456,1.24684c0.08582,0.39735 0.18533,0.88123 0.2423,1.44444c0.05841,0.56176 0.18317,1.19564 0.20192,1.8937c0.21778,2.78647 0.00865,6.56017 -0.67138,10.24013c-0.5697,3.24367 -1.35934,6.4282 -1.99394,8.97742c1.25045,3.18742 2.07831,5.29746 2.07831,5.29746c0,0 0.87618,2.22254 2.14105,5.59241c0.2899,0.77666 0.59926,1.62328 0.91656,2.51316c-0.07211,-0.44927 -0.11178,-0.69806 -0.11178,-0.69806c0,0 -0.02236,-0.14206 -0.0649,-0.40888c-0.04976,-0.26538 -0.09735,-0.6584 -0.14351,-1.15887c-0.05048,-0.49903 -0.1125,-1.1055 -0.18317,-1.8014c-0.075,-0.69445 -0.08509,-1.48266 -0.13557,-2.3372c-0.15504,-3.42395 0.03606,-7.97216 0.64325,-12.43743c0.58773,-4.47032 1.55549,-8.85338 2.34874,-12.11364c0.40961,-1.62832 0.75214,-2.9819 1.01536,-3.92442c0.25528,-0.94397 0.40095,-1.48338 0.40095,-1.48338c0,0 -0.09952,0.54951 -0.27259,1.5115c-0.18101,0.95983 -0.40744,2.33792 -0.67498,3.98932c-0.51056,3.30641 -1.09468,7.73058 -1.29444,12.15907c-0.21923,4.42777 -0.02236,8.83752 0.406,12.08479c0.11899,0.81056 0.19038,1.55765 0.31874,2.20884c0.12331,0.65046 0.23076,1.218 0.31946,1.68529c0.08365,0.46802 0.15937,0.83291 0.22788,1.07738c0.06202,0.24663 0.09447,0.37788 0.09447,0.37788c0,0 0.13053,0.52427 0.35913,1.44227c0.06707,0.31225 0.18028,0.67426 0.3036,1.06007l0.46585,-14.92679c0,0 5.96091,28.07237 5.97677,28.09689l0.56032,0.10889c0.08582,-3.45929 0.08798,-6.86666 0.0137,-9.47212c-0.01731,-1.41198 -0.09375,-2.58599 -0.11827,-3.41025c-0.03389,-0.82354 -0.05264,-1.29444 -0.05264,-1.29444c0,0 -0.02885,-0.47018 -0.07932,-1.293c-0.05913,-0.82209 -0.10312,-2.00187 -0.22932,-3.41097c-0.20769,-2.82397 -0.59998,-6.58109 -1.09324,-10.33532c-0.52571,-3.74774 -1.15238,-7.489 -1.70981,-10.28123c-0.256,-1.40117 -0.53076,-2.55498 -0.69445,-3.37059c-0.17235,-0.81344 -0.27115,-1.27857 -0.27115,-1.27857c0,0 0.14495,0.45215 0.39807,1.24396c0.24447,0.79469 0.63532,1.91966 1.03122,3.28982c0.83652,2.7295 1.84106,6.40513 2.74825,10.11393c0.87546,3.71457 1.65284,7.46087 2.14971,10.28844c0.27115,1.41054 0.43557,2.59537 0.57979,3.42179c0.13557,0.82714 0.21274,1.30021 0.21274,1.30021c0,0 0.06707,0.47451 0.18533,1.30453c0.10889,0.83147 0.30648,2.01557 0.46874,3.44487c0.37066,2.85498 3.90279,11.18626 3.90279,11.18626c-0.03534,-0.29422 -0.06851,-0.58773 -0.10601,-0.88411c-0.55383,-4.33258 -1.10766,-8.66445 -1.52304,-11.91388c-0.40095,-3.26242 -0.62883,-5.44818 -0.62883,-5.44818c0,0 -0.24591,-2.18216 -0.5185,-5.46909c-0.26105,-3.28838 -0.51705,-7.68731 -0.46225,-12.08768c0.03461,-4.40037 0.4298,-8.78488 0.93892,-12.02927c0.13197,-0.80984 0.25312,-1.55188 0.36057,-2.21028c0.13774,-0.65191 0.25745,-1.22088 0.35624,-1.6889c0.19759,-0.93387 0.31009,-1.46823 0.31009,-1.46823c0,0 -0.06562,0.54229 -0.18028,1.49059c-0.05697,0.47307 -0.1262,1.04781 -0.20624,1.70693c-0.04904,0.662 -0.10456,1.40838 -0.16514,2.22326c-0.22211,3.25665 -0.23148,7.60654 0.11394,11.92759c0.32523,4.32249 0.95478,8.6118 1.49419,11.81725c0.55167,3.20473 0.98219,5.3328 0.98219,5.3328c0,0 0.41321,2.13024 1.09252,5.32126c0.06923,0.3173 0.14206,0.65263 0.21562,0.99012c0.30432,-2.92421 0.65551,-5.65947 1.01247,-7.91591c0.24807,-1.8288 0.56609,-3.3367 0.73628,-4.39821c0.18605,-1.05935 0.29278,-1.66438 0.29278,-1.66438c0,0 0.12404,-0.60215 0.34182,-1.65573c0.23293,-1.04997 0.49254,-2.56292 0.93603,-4.35133c0.1125,-0.50191 0.23581,-1.02978 0.36634,-1.5728c-1.17617,-3.68645 -2.43167,-8.58152 -3.16507,-13.5624c-0.79541,-5.12728 -1.05863,-10.30287 -1.0168,-14.16743c0.0238,-1.93337 0.09591,-3.54078 0.16586,-4.66431c0.07788,-1.12281 0.12259,-1.7639 0.12259,-1.7639c0,0 0.00361,0.64253 0.00937,1.76678c0.01298,1.12353 0.06058,2.72806 0.18028,4.647c0.24374,3.83788 0.887,8.92838 2.04154,13.89557c0.75647,3.37203 1.75524,6.66185 2.76772,9.53342c0.61657,-2.27951 1.31896,-4.70469 2.06894,-7.11545c0.29494,-0.90791 0.5971,-1.80933 0.90142,-2.70354c-0.09375,-1.15021 -0.17091,-2.31124 -0.21057,-3.47876c-0.10456,-2.84704 -0.03606,-5.70058 0.22067,-8.35508c0.25168,-2.65522 0.69662,-5.10708 1.21511,-7.16881c0.49903,-2.06822 1.12497,-3.72827 1.55044,-4.8857c0.48028,-1.13795 0.75431,-1.7877 0.75431,-1.7877c0,0 -0.22932,0.66633 -0.63027,1.83168c-0.34542,1.18122 -0.85382,2.86724 -1.20718,4.94266c-0.37283,2.06894 -0.64614,4.50854 -0.71609,7.12771c-0.07356,2.58022 0.04615,5.32991 0.3274,8.06446c0.83291,-2.29321 1.65573,-4.42128 2.40138,-6.20682c0.66633,-1.7026 1.32761,-3.07925 1.7401,-4.06144c0.42763,-0.9757 0.6721,-1.53313 0.6721,-1.53313c0,0 -0.20048,0.57547 -0.55023,1.58217c-0.33461,1.01247 -0.88411,2.43023 -1.41343,4.17754c-0.79902,2.43167 -1.68241,5.46621 -2.52902,8.68608c0.64614,4.65854 1.69539,9.10434 2.5658,12.56074c0.31874,1.24252 0.60936,2.35739 0.86104,3.30929c-0.09014,-2.39922 -0.09952,-4.98233 0.04543,-7.56688c0.2185,-4.76166 1.0406,-9.46491 1.9276,-12.89896c0.2286,-0.85815 0.38941,-1.65429 0.61657,-2.33936c0.21923,-0.6858 0.41105,-1.2829 0.56898,-1.77544c0.31442,-0.98219 0.4947,-1.54323 0.4947,-1.54323c0,0 -0.13413,0.57475 -0.3685,1.57929c-0.11682,0.50191 -0.25889,1.11055 -0.42186,1.80861c-0.17019,0.6959 -0.2661,1.50285 -0.42259,2.36893c-0.60143,3.46938 -1.03122,8.1546 -0.86681,12.82468c0.11682,4.6708 0.737,9.29833 1.34059,12.73382c0.33389,1.71558 0.57979,3.14559 0.83075,4.13499c0.22788,0.99228 0.3584,1.5591 0.3584,1.5591c0,0 0.11682,0.56898 0.37066,1.55477c0.27115,0.98219 0.61369,2.39417 1.10406,4.06865c0.27764,0.98074 0.60575,2.06029 0.96632,3.19391c0.02452,-0.8906 0.03822,-1.66943 0.04615,-2.27014c0.01082,-0.94974 0.01659,-1.49203 0.01659,-1.49203c0,0 -0.00937,-2.17999 -0.0238,-5.45034c-0.03173,-3.27612 -0.11827,-7.66351 -0.06995,-12.05955c0.04904,-4.39677 0.30071,-8.79353 0.70671,-12.06244c0.0887,-0.81849 0.19326,-1.56559 0.29494,-2.22615c0.09375,-0.662 0.18101,-1.23675 0.27115,-1.70837c0.1673,-0.94325 0.26321,-1.48193 0.26321,-1.48193c0,0 -0.04904,0.54446 -0.13341,1.49852c-0.04904,0.47595 -0.08582,1.05574 -0.12115,1.72063c-0.04327,0.66417 -0.08149,1.41415 -0.0988,2.23264c-0.11827,3.27251 0.0137,7.6325 0.34542,11.97951c0.33316,4.34773 0.79902,8.69185 1.11848,11.96725c0.30216,3.28333 0.50335,5.47198 0.50335,5.47198c0,0 0.04183,0.55023 0.11538,1.51366c0.07139,0.96344 0.16947,2.34225 0.24374,4.00447c0.11827,2.34441 0.18173,5.26357 0.08221,8.36013c0.70311,1.805 1.43794,3.58332 2.13745,5.27727c0.29855,0.70599 0.58628,1.40333 0.86464,2.09418c0.01731,-0.55383 0.03317,-1.10911 0.04759,-1.66582c0.10673,-3.82418 0.09519,-7.64116 0.01875,-10.50262c-0.07139,-2.86147 -0.19831,-4.76454 -0.19831,-4.76454c0,0 -0.08942,-1.90596 -0.36201,-4.75517c-0.25528,-2.84993 -0.76368,-6.64455 -1.41198,-10.43267c-0.64325,-3.78741 -1.41487,-7.56471 -2.00187,-10.39589c-0.59638,-2.82974 -0.99445,-4.71695 -0.99445,-4.71695c0,0 0.58268,1.83818 1.45669,4.59652c0.86464,2.76195 2.00836,6.44984 3.03165,10.18532c0.17812,0.64686 0.35047,1.29372 0.51922,1.93841c0.02524,-0.55888 0.06418,-1.1192 0.11827,-1.67736c0.38076,-4.45734 1.69178,-8.74161 3.05762,-11.74081c0.65984,-1.51294 1.33699,-2.70859 1.80861,-3.5415c0.50047,-0.8156 0.78676,-1.28218 0.78676,-1.28218c0,0 -0.24374,0.48821 -0.67066,1.34348c-0.3959,0.86825 -0.962,2.11004 -1.48049,3.65544c-1.08603,3.06771 -1.98673,7.35054 -1.97519,11.63985c-0.03606,4.29292 0.82786,8.48705 1.88072,11.48337c0.24374,0.75575 0.49903,1.43722 0.74133,2.03649c0.22499,0.60431 0.45432,1.1192 0.64181,1.54323c0.36273,0.85238 0.60287,1.32617 0.60287,1.32617c0,0 0.23293,0.47667 0.64037,1.30958c0.12331,0.23293 0.26466,0.49975 0.4161,0.78604c-0.04255,-0.15144 -0.09158,-0.32379 -0.14639,-0.51778c-0.11755,-0.3923 -0.24086,-0.8733 -0.36994,-1.42857c-0.12836,-0.55527 -0.29855,-1.17329 -0.42619,-1.86269c-0.58484,-2.73599 -1.09901,-6.43109 -1.19853,-10.12691c-0.09663,-3.69798 0.20624,-7.37289 0.63893,-10.08436c0.22355,-1.35501 0.42619,-2.47854 0.61224,-3.25593c0.17379,-0.77883 0.27259,-1.22377 0.27259,-1.22377c0,0 -0.05192,0.45287 -0.14278,1.2454c-0.10312,0.78892 -0.18677,1.92543 -0.26682,3.28333c-0.14567,2.71868 -0.06058,6.34888 0.40961,9.9149c0.47307,3.5689 1.34059,7.05054 2.16846,9.58822c0.18894,0.64037 0.41393,1.21151 0.58989,1.72279c0.17668,0.51201 0.3411,0.95406 0.49109,1.31247c0.28773,0.72041 0.45215,1.13218 0.45215,1.13218c0,0 0.16875,0.40961 0.48749,1.1156c0.04543,0.10745 0.10312,0.23293 0.15649,0.35264c-0.00793,-0.07572 -0.01298,-0.11899 -0.01298,-0.11899c0,0 -0.2286,-1.87351 -0.5185,-4.74147c-0.29278,-2.87373 -0.47956,-6.71233 -0.47883,-10.52858c-0.00793,-3.81914 0.14928,-7.6188 0.27764,-10.46584c0.14062,-2.8456 0.23509,-4.74219 0.23509,-4.74219c0,0 0.09663,1.89659 0.2423,4.74075c0.15793,2.84272 0.38292,6.63084 0.77089,10.3894c0.38004,3.76072 0.94036,7.4789 1.50501,10.23075c0.56321,2.75834 0.98363,4.62176 0.98363,4.62176c0,0 0.10024,0.4673 0.27475,1.28434c0.17163,0.82137 0.41754,1.9961 0.67282,3.43189c0.21346,1.25694 3.67923,10.12979 4.28499,11.61245c0.09158,0.11682 0.1875,0.23004 0.27836,0.34759c0.04976,0.0649 0.09663,0.13053 0.14639,0.19543c0.29062,-1.02834 -1.40766,-11.61101 -2.42662,-14.26262c-1.02906,-2.64801 -1.63193,-4.47176 -1.63193,-4.47176c0,0 -0.15,-0.45432 -0.41249,-1.25045c-0.13557,-0.39518 -0.26682,-0.89349 -0.43484,-1.45381c-0.17163,-0.5596 -0.34542,-1.19781 -0.51345,-1.90236c-0.71753,-2.79873 -1.30453,-6.61282 -1.39107,-10.42258c-0.09663,-3.81265 0.31874,-7.59356 0.87257,-10.36416c0.27475,-1.38674 0.55816,-2.52758 0.77378,-3.32011c0.22283,-0.78964 0.35047,-1.24107 0.35047,-1.24107c0,0 -0.08077,0.46153 -0.22211,1.2692c-0.13341,0.80839 -0.29855,1.96654 -0.42908,3.35977c-0.26682,2.78503 -0.2899,6.52123 0.17884,10.18388c0.46008,3.66553 1.39179,7.23011 2.3372,9.79519c0.22499,0.6447 0.44999,1.22954 0.66777,1.74371c0.21346,0.51489 0.3822,0.96632 0.55095,1.33194c0.32812,0.73195 0.51561,1.15093 0.51561,1.15093c0,0 0.74782,1.67087 2.01557,4.15086c0.64181,1.26848 1.42569,2.75185 2.25427,4.36504c0.38148,-2.0437 0.3072,-3.35977 0.3072,-3.35977c0,0 -0.00144,-0.3447 -0.05625,-0.9418c-0.05841,-0.59494 -0.20913,-1.45525 -0.51273,-2.50739c-0.30071,-1.05286 -0.76585,-2.29033 -1.27929,-3.65832c-0.51778,-1.36295 -1.03195,-2.89536 -1.39468,-4.43499c-0.7507,-3.08646 -0.93603,-6.24648 -0.81993,-8.57863c0.05336,-1.16824 0.16442,-2.13312 0.25456,-2.80522c0.10312,-0.66921 0.16226,-1.05214 0.16226,-1.05214c0,0 -0.01154,0.38581 -0.03173,1.06151c-0.00649,0.6757 0.00288,1.63986 0.09231,2.78719c0.16947,2.29393 0.73412,5.31982 1.805,8.14307c1.02257,2.82469 2.67974,5.37679 3.63741,7.6599c0.31874,0.74205 0.55888,1.42857 0.73844,2.02711c-0.10889,-1.23819 -0.23365,-2.41725 -0.35768,-3.48813c-0.44855,-3.6951 -0.74782,-6.1585 -0.74782,-6.1585c0,0 -0.06995,-0.62234 -0.19182,-1.71126c-0.11971,-1.08964 -0.27475,-2.65594 -0.39013,-4.54748c-0.11755,-1.88938 -0.16226,-4.11841 -0.0375,-6.4859c0.11971,-2.36749 0.40239,-4.87199 0.81128,-7.34477c0.81416,-4.9506 2.1086,-9.76418 3.13261,-13.34606c1.0269,-3.5826 1.7538,-5.95514 1.7538,-5.95514c0,0 -0.54302,2.42374 -1.29011,6.06836c-0.74421,3.64246 -1.65861,8.52238 -2.07976,13.42322c-0.21346,2.44898 -0.29927,4.8994 -0.23797,7.18251c0.05625,2.28384 0.26177,4.39532 0.51561,6.20754c0.25168,1.81149 0.5185,3.31867 0.71825,4.37585c0.20192,1.05719 0.3173,1.6615 0.3173,1.6615c0,0 0.48821,2.43528 1.22016,6.08783c0.22572,1.16391 0.4673,2.47061 0.69373,3.86529c0.89709,-2.40427 1.53818,-3.90207 1.53818,-3.90207c0,0 0.812,-1.98745 2.10355,-4.91093c1.28579,-2.92853 3.06843,-6.77723 4.73065,-10.6656c1.67231,-3.88476 3.1593,-7.84235 4.091,-10.87905c0.22499,-0.76152 0.43124,-1.45958 0.61441,-2.07831c0.17524,-0.62162 0.29855,-1.1704 0.41537,-1.61967c0.22572,-0.9007 0.34831,-1.41559 0.34831,-1.41559zM157.80603,198.31072c-0.05769,0.30071 -0.11682,0.59782 -0.17668,0.87906c-0.12764,0.68941 -0.29783,1.30742 -0.42619,1.86269c-0.12908,0.55527 -0.25312,1.03627 -0.36994,1.42857c-0.05481,0.19399 -0.10384,0.36634 -0.14639,0.51778c0.15144,-0.28629 0.29278,-0.55383 0.4161,-0.78604c0.28413,-0.58124 0.481,-0.98363 0.57547,-1.17689c0.05985,-0.9245 0.10312,-1.83673 0.12764,-2.72517zM177.91057,190.14241c0.74638,-1.82159 1.41343,-3.29631 1.87351,-4.33042c0.46369,-1.0269 0.72907,-1.6139 0.72907,-1.6139c0,0 0.26321,-0.58412 0.72474,-1.60669c0.45359,-1.00887 1.09396,-2.43744 1.79491,-4.16744c-0.48677,-2.93719 -1.14877,-6.34455 -1.91389,-9.78004c-0.37211,3.01074 -0.84589,5.81668 -1.2692,8.15677c-0.77522,4.18259 -1.34275,6.9431 -1.34275,6.9431c0,0 -0.13702,0.69085 -0.37788,1.90019c-0.23293,1.20574 -0.56609,2.92925 -0.9656,4.99675c-0.16586,0.88123 -0.33605,1.83385 -0.5048,2.82397c0.41537,-1.20213 0.84445,-2.31989 1.25189,-3.32227zM182.63401,196.98888c0.62234,-2.57518 1.30165,-5.12367 1.86991,-7.05343c-0.05192,-0.50912 -0.0988,-0.96344 -0.13053,-1.35646c-0.10024,-1.05069 -0.15793,-1.6514 -0.15793,-1.6514c0,0 -0.075,-0.59854 -0.20697,-1.64563c-0.05336,-0.37643 -0.10529,-0.81416 -0.1637,-1.30093c-0.31946,0.87546 -0.50047,1.37232 -0.50047,1.37232c0,0 -0.21995,0.60287 -0.60503,1.65717c-0.37715,1.05214 -0.92522,2.55138 -1.50862,4.34629c-1.16247,3.58332 -2.43528,8.40989 -2.14322,13.14054c0.10096,2.15403 0.47234,4.2922 0.95911,6.32003c0.2798,-1.89587 0.46441,-3.15136 0.46441,-3.15136c0,0 0.23365,-1.34348 0.58412,-3.35833c0.36417,-2.01053 0.92089,-4.67512 1.5389,-7.31881zM184.75415,192.93321c-0.01442,-0.26249 -0.03173,-0.51705 -0.04976,-0.76585c-0.19831,1.56486 -0.39446,3.3165 -0.56249,5.07103c-0.23653,2.67686 -0.40888,5.35155 -0.48388,7.35847c-0.06058,2.00548 -0.10168,3.34174 -0.10168,3.34174c0,0 -0.00577,1.33482 -0.01514,3.33814c0.00216,1.11488 0.02885,2.43888 0.075,3.8487c0,0 1.43218,-3.71962 1.58073,-8.97381c0.13557,-4.79988 -0.15793,-9.61562 -0.44278,-13.21842zM244.62212,186.26847c-0.36706,2.73959 -0.69806,5.9162 -0.92377,9.22116c0.08509,-0.59494 0.16514,-1.16896 0.23221,-1.69972c0.34831,-2.69921 0.48821,-4.50998 0.48821,-4.50998c0,0 0.10529,-1.15598 0.20336,-3.01146zM265.2668,208.29052c-0.03606,-0.33677 -0.06851,-0.6721 -0.11105,-1.01031c-0.52427,-4.51287 -1.41559,-9.08703 -2.00908,-12.55714c-0.01442,-0.08149 -0.0274,-0.15937 -0.04183,-0.24014c-0.40023,2.51532 -0.73844,5.63712 -0.8495,8.75964c-0.05409,1.51294 3.01146,5.04867 3.01146,5.04795zM296.47178,211.27602c-0.00937,-2.00259 -0.01514,-3.33814 -0.01514,-3.33814c0,0 -0.0411,-1.33699 -0.1024,-3.34174c-0.075,-2.0062 -0.24735,-4.68089 -0.48388,-7.35847c-0.16875,-1.75452 -0.36417,-3.50616 -0.56249,-5.07103c-0.01803,0.24951 0.00577,0.5084 -0.04976,0.76585c-2.54922,11.88432 1.16175,21.41701 1.16175,21.41701c0.03173,-1.11704 0.04976,-2.16557 0.05192,-3.07348zM298.7823,191.35825c-0.58412,-1.79563 -1.13146,-3.29487 -1.50862,-4.34629c-0.38509,-1.0543 -0.60503,-1.65717 -0.60503,-1.65717c0,0 -0.18173,-0.49686 -0.50047,-1.37232c-0.05841,0.48749 -0.11033,0.92522 -0.1637,1.30093c-0.13197,1.04709 -0.20697,1.64563 -0.20697,1.64563c0,0 -0.05697,0.59998 -0.15793,1.6514c-0.03173,0.39302 -0.0786,0.84733 -0.13053,1.35646c0.56826,1.92976 1.24756,4.47825 1.86991,7.05343c0.61801,2.64296 1.17473,5.30756 1.5389,7.31809c0.35047,2.01485 0.58412,3.35833 0.58412,3.35833c0,0 0.18533,1.25478 0.46441,3.15136c0.48677,-2.02783 0.85815,-4.166 0.95911,-6.32003c0.29206,-4.73065 -0.98147,-9.55721 -2.14322,-13.13982zM303.35358,193.46613c-0.16875,-0.99012 -0.33893,-1.94274 -0.5048,-2.82397c-0.39951,-2.0675 -0.73267,-3.79029 -0.9656,-4.99675c-0.24014,-1.20934 -0.37788,-1.90019 -0.37788,-1.90019c0,0 -0.56753,-2.76051 -1.34275,-6.9431c-0.42331,-2.34009 -0.89637,-5.14603 -1.2692,-8.15677c-0.76513,3.43549 -1.42785,6.84214 -1.91389,9.77932c0.70094,1.73 1.34131,3.15857 1.79491,4.16744c0.46153,1.02257 0.72474,1.60669 0.72474,1.60669c0,0 0.26538,0.587 0.72907,1.6139c0.46008,1.03411 1.12714,2.50811 1.87351,4.33042c0.40816,1.00166 0.83724,2.11942 1.25189,3.32299zM321.66682,207.25424c-0.36778,-0.75719 -0.68219,-1.46463 -0.96921,-2.0848c-0.17524,-0.41465 -0.32956,-0.78027 -0.47307,-1.12065c0.00649,0.04904 0.02524,0.09663 0.01875,0.14639c-1.69395,12.88093 6.37917,16.02869 6.37917,16.02869c0.17091,-0.55672 -4.22009,-11.45452 -4.95565,-12.96963z" fill="#a8c72b" stroke-width="1"/><path d="M-104.09508,491.76051v-408.40841h1027.02703v408.40841z" fill="#a8c72b" stroke-width="0"/></g></g></svg>