<svg version="1.1" xmlns="http://www.w3.org/2000/svg" xmlns:xlink="http://www.w3.org/1999/xlink" width="345.32453" height="103.411" viewBox="0,0,345.32453,103.411"><defs><linearGradient x1="240" y1="128.2945" x2="240" y2="231.7055" gradientUnits="userSpaceOnUse" id="color-1"><stop offset="0" stop-color="#aee525"/><stop offset="1" stop-color="#a8c72b"/></linearGradient></defs><g transform="translate(-67.33774,-128.2945)"><g data-paper-data="{&quot;isPaintingLayer&quot;:true}" fill="url(#color-1)" fill-rule="nonzero" stroke="none" stroke-width="1" stroke-linecap="butt" stroke-linejoin="miter" stroke-miterlimit="10" stroke-dasharray="" stroke-dashoffset="0" style="mix-blend-mode: normal"><path d="M69.88166,180.0375c-1.36296,-9.526 -2.54392,-19.102 -2.54392,-19.102c0,0 2.28493,8.747 4.71786,17.279c2.42493,8.548 4.99385,16.873 4.99385,16.873c0,0 1.21746,3.963 2.85791,9.081l0.34899,-10.343l1.21046,-35.882l3.4944,35.277l1.02897,10.388c0.65898,-3.959 1.09447,-6.824 1.09447,-6.824c0,0 1.23546,-8.029 2.22443,-16.272c1.00347,-8.226 1.75195,-16.64 1.75195,-16.64c0,0 0.43149,8.493 0.59448,17.1c0.17949,8.596 0.087,17.276 0.087,17.276c0,0 -0.046,5.224 -0.23099,11.637c0.29599,-1.63 0.59698,-3.315 0.89147,-5.009c1.67345,-9.54 3.13991,-19.274 3.13991,-19.274c0,0 1.47846,-9.719 2.74542,-19.614c1.27896,-9.882 2.34143,-19.923 2.34143,-19.923c0,0 0.1125,10.254 -0.006,20.563c-0.1045,10.302 -0.44049,20.641 -0.44049,20.641c0,0 -0.32149,10.334 -0.87747,20.683c-0.0505,0.963 -0.1035,1.923 -0.157,2.878l2.81142,-24.466l4.27187,-37.066l0.41799,38.028l0.34999,31.036h0.18999c-0.012,-1.958 -0.0195,-4.014 -0.016,-6.073c0.0025,-9.154 0.19949,-18.247 0.19949,-18.247c0,0 0.18549,-9.101 0.56298,-18.124c0.36599,-9.033 0.92197,-17.973 0.92197,-17.973c0,0 0.62398,8.93 1.43296,17.745c0.79848,8.827 1.77895,17.525 1.77895,17.525c0,0 0.96997,8.71 2.11844,17.278c0.017,0.128 0.0345,0.256 0.0515,0.384c-0.0635,-2.105 -0.1115,-4.295 -0.1375,-6.483c-0.0275,-5.368 0.069,-10.688 0.24199,-14.652c0.061,-1.982 0.18199,-3.627 0.23399,-4.775c0.0625,-1.148 0.098,-1.803 0.098,-1.803c0,0 0.047,-0.654 0.129,-1.797c0.0915,-1.14 0.17699,-2.772 0.36249,-4.711c0.32049,-3.887 0.87847,-9.007 1.54745,-14.022c0.70548,-5.008 1.51945,-9.904 2.22243,-13.495c0.32649,-1.809 0.66648,-3.271 0.87147,-4.31c0.21499,-1.031 0.33799,-1.621 0.33799,-1.621c0,0 -0.0525,0.631 -0.1435,1.735c-0.081,1.108 -0.24249,2.664 -0.35249,4.564c-0.27099,3.777 -0.49699,8.831 -0.60648,13.851c-0.0735,5.035 -0.0325,10.028 0.0945,13.753c0.038,1.86 0.1385,3.408 0.17649,4.486c0.0475,1.078 0.075,1.694 0.075,1.694c0,0 0.038,0.615 0.105,1.69c0.0765,1.073 0.1395,2.606 0.29749,4.43c0.17649,2.435 0.45399,5.4 0.78698,8.494c1.12947,-5.983 1.90444,-10.679 1.90444,-10.679c0,0 1.61145,-9.618 2.84641,-19.556c1.25746,-9.913 2.12294,-20.096 2.12294,-20.096c0,0 0.31449,10.297 0.21449,20.709c-0.075,10.4 -0.56748,20.856 -0.56748,20.856c0,0 -0.36699,8.195 -1.06847,17.318c0.038,-0.115 0.0775,-0.224 0.1155,-0.339c1.04447,-3.264 2.01944,-6.68 2.67492,-9.335c0.66098,-2.648 1.06447,-4.474 1.06447,-4.474c0,0 0.40049,-1.814 0.94247,-4.617c0.40749,-2.085 0.85697,-4.742 1.27796,-7.587c-0.0145,-0.646 -0.029,-1.321 -0.043,-2.054c-0.0905,-4.432 -0.081,-10.337 0.042,-16.195c0.1585,-5.865 0.42999,-11.676 0.72948,-16.001c0.1245,-2.165 0.29649,-3.956 0.38499,-5.21c0.0985,-1.252 0.1545,-1.968 0.1545,-1.968c0,0 0.0175,0.724 0.048,1.991c0.0405,1.266 0.0525,3.07 0.149,5.231c0.143,4.321 0.46199,10.05 0.88847,15.707c0.46199,5.658 1.02997,11.238 1.54545,15.372c0.50998,4.135 0.89597,6.852 0.89597,6.852c0,0 0.38749,2.726 1.03647,6.747c0.062,0.388 0.1405,0.836 0.20849,1.246c0.116,-1.398 0.19399,-2.227 0.19399,-2.227c0,0 0.74898,-8.274 1.94994,-16.18c1.17546,-7.941 2.78042,-15.423 2.78042,-15.423c0,0 -0.46249,8.107 -0.44899,16.119c-0.012,6.567 0.28199,13.002 0.38999,15.132c0.52398,-5.741 0.87497,-9.981 0.87497,-9.981c0,0 0.87347,-10.426 1.56445,-20.951c0.70148,-10.516 1.21746,-21.121 1.21746,-21.121c0,0 0.166,2.646 0.39149,6.624c-0.29049,-5.578 -0.54098,-9.512 -0.54098,-9.512c0,0 1.89744,11.203 3.4814,22.673c1.60245,11.449 2.88341,23.134 2.88341,23.134c0,0 1.24996,11.225 2.21443,22.852c-0.22349,-11.498 -0.1295,-21.634 -0.1295,-21.634c0,0 0.0795,-13.404 0.65248,-26.669c0.52898,-13.282 1.54445,-26.364 1.54445,-26.364c0,0 0.1625,13.244 0.81298,26.336c0.60698,13.11 1.69245,26.009 1.69245,26.009c0,0 0.46249,5.715 1.21396,13.251c0.38699,-2.709 0.72298,-5.276 0.96997,-7.465c0.25849,-2.031 0.39799,-3.751 0.53198,-4.948c0.123,-1.201 0.19349,-1.888 0.19349,-1.888c0,0 0.0585,-0.69 0.16,-1.898c0.091,-1.21 0.27249,-2.938 0.39849,-5.029c0.30849,-4.178 0.57798,-9.8 0.72148,-15.483c0.102,-5.674 0.0755,-11.401 -0.058,-15.698c-0.0375,-2.156 -0.1485,-3.935 -0.18949,-5.195c-0.052,-1.258 -0.082,-1.977 -0.082,-1.977c0,0 0.102,0.691 0.28099,1.9c0.16749,1.214 0.46049,2.934 0.71798,5.04c0.57248,4.192 1.19196,9.872 1.68345,15.644c0.45049,5.774 0.77198,11.631 0.90097,16.052c0.093,2.211 0.0925,4.056 0.128,5.352c0.0245,1.297 0.0385,2.038 0.0385,2.038c0,0 0.001,0.741 0.0035,2.037c-0.009,1.295 0.0295,3.16 -0.0185,5.388c-0.004,0.436 -0.0105,0.897 -0.0175,1.36c0.0405,-0.439 0.083,-0.898 0.131,-1.398c0.28599,-2.929 0.72798,-6.793 1.25996,-10.578c0.52598,-3.789 1.14647,-7.493 1.65995,-10.222c0.50298,-2.735 0.87797,-4.514 0.87797,-4.514c0,0 -0.35849,7.719 -0.19849,15.315c0.0615,3.798 0.21549,7.558 0.37449,10.353c0.087,1.477 0.16749,2.675 0.22499,3.489c0.32649,-4.5 0.54748,-7.547 0.54748,-7.547l3.2909,-45.358l1.16297,37.47c0.1635,-1.576 0.33799,-3.199 0.52098,-4.819c0.98397,-8.999 2.21343,-17.814 2.21343,-17.814c0,0 -0.062,9.156 0.134,18.241c0.166,9.092 0.58048,18.09 0.58048,18.09c0,0 0.0835,1.931 0.23499,4.87c0.96447,-5.984 1.59495,-11.018 1.59495,-11.018c0,0 1.07597,-8.378 1.70695,-17.066c0.65798,-8.662 0.84947,-17.551 0.84947,-17.551c0,0 0.98647,8.659 1.50795,17.609c0.45349,7.369 0.58148,14.861 0.61248,17.255c0.0045,-0.747 0.012,-1.47 0.0255,-2.127c0.056,-2.94 0.14,-4.874 0.14,-4.874c0,0 0.31649,-7.799 1.26646,-15.168c0.47949,-3.688 1.04997,-7.273 1.55345,-9.893c0.49899,-2.623 0.86997,-4.317 0.86997,-4.317c0,0 -0.36049,7.423 -0.076,14.639c0.146,3.613 0.38349,7.158 0.63698,9.779c0.24849,2.621 0.45299,4.331 0.45299,4.331c0,0 0.75798,6.441 2.02094,12.574c0.89797,-5.489 1.59245,-10.521 1.59245,-10.521c0,0 0.89897,-6.43 1.61195,-13.027c0.72348,-6.582 1.25446,-13.312 1.25446,-13.312c0,0 0.64898,6.679 1.10097,13.495c0.46399,6.803 0.72648,13.723 0.72648,13.723c0,0 0.013,0.328 0.033,0.887c0.32599,-2.139 0.51198,-3.482 0.51198,-3.482c0,0 1.29996,-9.159 2.09694,-18.68c0.82698,-9.492 1.12497,-19.252 1.12497,-19.252c0,0 0.88297,9.599 1.22946,19.47c0.37899,9.847 0.21099,19.859 0.21099,19.859c0,0 -0.008,0.623 -0.0315,1.71c0.35549,-3.362 0.92797,-8.548 1.59445,-13.679c1.10247,-8.622 2.45643,-17.021 2.45643,-17.021c0,0 -0.19299,8.826 -0.116,17.582c0.061,8.766 0.38799,17.434 0.38799,17.434c0,0 0.31149,8.68 0.88247,17.229c0.0185,0.284 0.038,0.567 0.057,0.85c0.33549,-2.293 0.67948,-4.764 0.99597,-7.266c1.22946,-9.506 2.04644,-19.303 2.04644,-19.303c0,0 0.84097,-9.774 1.25296,-19.765c0.43749,-9.972 0.43299,-20.095 0.43299,-20.095c0,0 1.17746,9.831 1.92294,19.939c0.77098,10.085 1.09997,20.379 1.09997,20.379c0,0 0.20199,5.833 0.25899,13.158c0.19799,-1.598 0.31199,-2.573 0.31199,-2.573c0,0 1.04897,-8.825 1.79295,-17.862c0.76198,-9.019 1.20896,-18.211 1.20896,-18.211c0,0 0.73298,9.106 1.14697,18.38c0.43299,9.258 0.54148,18.643 0.54148,18.643c0,0 0.019,1.412 0.031,3.679c0.19299,-1.599 0.38699,-3.119 0.57448,-4.422c0.47449,-3.341 0.83547,-5.523 0.83547,-5.523c0,0 0.36149,-2.193 0.96697,-5.406c0.59998,-3.218 1.50795,-7.409 2.50143,-11.467c1.02447,-4.04 2.13144,-7.943 3.03441,-10.767c0.89747,-2.829 1.53145,-4.646 1.53145,-4.646c0,0 -1.51095,8.388 -2.33693,16.948c-0.40899,4.287 -0.71548,8.564 -0.86147,11.779c-0.151,3.213 -0.20649,5.343 -0.20649,5.343c0,0 -0.0435,1.69 -0.065,4.295l5.78433,-26.436l-1.34946,29.384l-0.78198,17.025c0.20899,-1.496 0.41549,-3.025 0.61148,-4.566c0.67898,-5.315 1.26246,-10.69 1.62945,-14.748c0.20799,-2.029 0.31099,-3.724 0.41649,-4.914c0.0955,-1.191 0.15,-1.871 0.15,-1.871c0,0 0.18999,-2.717 0.42399,-6.83c0.19749,-4.106 0.41299,-9.621 0.36649,-15.157c-0.063,-5.517 -0.27099,-11.104 -0.69548,-15.211c-0.1465,-2.091 -0.40649,-3.762 -0.53948,-4.97c-0.147,-1.202 -0.23099,-1.889 -0.23099,-1.889c0,0 0.153,0.636 0.42099,1.748c0.25499,1.123 0.69248,2.693 1.05697,4.697c0.85997,3.934 1.66595,9.443 2.32893,15.063c0.35749,3.116 0.63148,6.256 0.84847,9.18c0.047,-0.777 0.091,-1.552 0.1435,-2.33c0.39349,-5.22 0.91297,-10.349 1.40896,-14.131c0.21999,-1.9 0.47949,-3.45 0.62498,-4.544c0.156,-1.089 0.24549,-1.711 0.24549,-1.711c0,0 -0.0165,0.647 -0.046,1.78c-0.018,1.135 -0.0955,2.737 -0.0945,4.675c-0.0555,3.863 0.019,9.001 0.21749,14.072c0.23899,5.078 0.59898,10.079 0.97147,13.782c0.1585,1.856 0.36499,3.381 0.47399,4.452c0.1195,1.068 0.18799,1.678 0.18799,1.678c0,0 0.08,0.605 0.21999,1.664c0.1505,1.054 0.31549,2.573 0.60098,4.356c0.51598,3.587 1.33646,8.272 2.25843,12.82c0.0915,0.431 0.18699,0.848 0.27999,1.276l-0.70698,-15.399l-1.34946,-29.384l5.78483,26.437c-0.021,-2.605 -0.065,-4.295 -0.065,-4.295c0,0 -0.0555,-2.13 -0.20649,-5.343c-0.146,-3.215 -0.45249,-7.492 -0.86147,-11.779c-0.82598,-8.56 -2.33693,-16.948 -2.33693,-16.948c0,0 0.63348,1.817 1.53145,4.646c0.90297,2.824 2.01044,6.726 3.03441,10.767c0.99347,4.058 1.90094,8.249 2.50143,11.467c0.60598,3.212 0.96697,5.406 0.96697,5.406c0,0 0.36099,2.182 0.83547,5.523c0.18699,1.303 0.38149,2.823 0.57448,4.423c0.012,-2.266 0.031,-3.679 0.031,-3.679c0,0 0.1085,-9.385 0.54148,-18.643c0.41399,-9.273 1.14697,-18.38 1.14697,-18.38c0,0 0.44699,9.193 1.20896,18.211c0.74398,9.036 1.79345,17.862 1.79345,17.862c0,0 0.114,0.976 0.31199,2.573c0.057,-7.326 0.25899,-13.158 0.25899,-13.158c0,0 0.32899,-10.294 1.09997,-20.379c0.74548,-10.108 1.92294,-19.939 1.92294,-19.939c0,0 -0.005,10.123 0.43299,20.095c0.41199,9.991 1.25296,19.765 1.25296,19.765c0,0 0.81698,9.798 2.04644,19.303c0.31699,2.501 0.66048,4.973 0.99597,7.266c0.019,-0.283 0.0385,-0.566 0.057,-0.85c0.57098,-8.549 0.88247,-17.229 0.88247,-17.229c0,0 0.32699,-8.667 0.38799,-17.434c0.0775,-8.756 -0.116,-17.582 -0.116,-17.582c0,0 1.35396,8.399 2.45643,17.021c0.66648,5.131 1.23946,10.316 1.59445,13.679c-0.023,-1.087 -0.0315,-1.709 -0.0315,-1.709c0,0 -0.16799,-10.012 0.21099,-19.859c0.34649,-9.871 1.22946,-19.47 1.22946,-19.47c0,0 0.29799,9.76 1.12497,19.252c0.79698,9.522 2.09694,18.68 2.09694,18.68c0,0 0.18599,1.343 0.51198,3.482c0.02,-0.559 0.033,-0.886 0.033,-0.886c0,0 0.26249,-6.92 0.72648,-13.723c0.45199,-6.817 1.10097,-13.495 1.10097,-13.495c0,0 0.53048,6.73 1.25446,13.312c0.71248,6.597 1.61195,13.027 1.61195,13.027c0,0 0.69398,5.033 1.59245,10.521c1.26296,-6.134 2.02094,-12.574 2.02094,-12.574c0,0 0.20449,-1.71 0.45299,-4.331c0.25349,-2.62 0.49099,-6.165 0.63698,-9.779c0.28449,-7.216 -0.076,-14.639 -0.076,-14.639c0,0 0.37149,1.695 0.86997,4.317c0.50348,2.62 1.07397,6.205 1.55345,9.893c0.94997,7.369 1.26646,15.168 1.26646,15.168c0,0 0.084,1.934 0.14,4.874c0.0135,0.657 0.021,1.38 0.0255,2.127c0.031,-2.394 0.159,-9.886 0.61248,-17.255c0.52148,-8.95 1.50795,-17.609 1.50795,-17.609c0,0 0.19099,8.889 0.84897,17.551c0.63148,8.688 1.70695,17.066 1.70695,17.066c0,0 0.62998,5.034 1.59495,11.018c0.1515,-2.939 0.23499,-4.87 0.23499,-4.87c0,0 0.41499,-8.998 0.58048,-18.09c0.19599,-9.085 0.134,-18.241 0.134,-18.241c0,0 1.22946,8.815 2.21343,17.814c0.18249,1.62 0.35699,3.243 0.52098,4.819l1.16297,-37.47l3.2904,45.358c0,0 0.22099,3.047 0.54748,7.547c0.0575,-0.814 0.138,-2.013 0.22499,-3.49c0.159,-2.795 0.31299,-6.555 0.37449,-10.353c0.16,-7.596 -0.19799,-15.315 -0.19799,-15.315c0,0 0.37499,1.78 0.87747,4.514c0.51348,2.729 1.13397,6.433 1.65995,10.222c0.53198,3.785 0.97397,7.649 1.25996,10.578c0.048,0.499 0.0905,0.959 0.131,1.399c-0.007,-0.463 -0.0135,-0.925 -0.0175,-1.361c-0.048,-2.227 -0.0095,-4.092 -0.0185,-5.388c0.0025,-1.296 0.0035,-2.037 0.0035,-2.037c0,0 0.014,-0.741 0.0385,-2.038c0.0355,-1.296 0.035,-3.141 0.128,-5.352c0.129,-4.421 0.45049,-10.279 0.90097,-16.052c0.49149,-5.772 1.11097,-11.451 1.68345,-15.644c0.25749,-2.106 0.54998,-3.826 0.71798,-5.04c0.17849,-1.209 0.28099,-1.9 0.28099,-1.9c0,0 -0.03,0.719 -0.0825,1.977c-0.041,1.26 -0.152,3.039 -0.18949,5.195c-0.1335,4.296 -0.16,10.024 -0.058,15.698c0.143,5.684 0.41299,11.305 0.72148,15.483c0.126,2.091 0.30749,3.819 0.39849,5.029c0.102,1.208 0.16,1.898 0.16,1.898c0,0 0.0705,0.687 0.19349,1.888c0.134,1.197 0.27349,2.916 0.53198,4.948c0.24699,2.189 0.58248,4.757 0.96997,7.465c0.75198,-7.537 1.21396,-13.252 1.21396,-13.252c0,0 1.08547,-12.899 1.69245,-26.009c0.64998,-13.092 0.81298,-26.336 0.81298,-26.336c0,0 1.01497,13.082 1.54395,26.364c0.57298,13.265 0.65248,26.669 0.65248,26.669c0,0 0.094,10.137 -0.1295,21.635c0.96397,-11.627 2.21443,-22.853 2.21443,-22.853c0,0 1.28146,-11.684 2.88341,-23.134c1.58345,-11.47 3.4814,-22.673 3.4814,-22.673c0,0 -0.25049,3.929 -0.54048,9.501c0.22549,-3.972 0.39099,-6.613 0.39099,-6.613c0,0 0.51598,10.605 1.21746,21.121c0.69048,10.525 1.56445,20.951 1.56445,20.951c0,0 0.35099,4.24 0.87497,9.981c0.1075,-2.13 0.40199,-8.564 0.38999,-15.132c0.0135,-8.012 -0.44899,-16.119 -0.44899,-16.119c0,0 1.60495,7.482 2.78042,15.423c1.20096,7.906 1.94994,16.18 1.94994,16.18c0,0 0.078,0.829 0.19399,2.227c0.068,-0.409 0.1465,-0.857 0.20849,-1.245c0.64898,-4.021 1.03647,-6.747 1.03647,-6.747c0,0 0.38649,-2.717 0.89597,-6.852c0.51548,-4.134 1.08347,-9.715 1.54545,-15.372c0.42599,-5.657 0.74498,-11.386 0.88797,-15.707c0.0965,-2.161 0.1085,-3.964 0.149,-5.231c0.0305,-1.267 0.048,-1.991 0.048,-1.991c0,0 0.0565,0.716 0.1545,1.968c0.0885,1.255 0.26099,3.046 0.38549,5.21c0.29949,4.325 0.57098,10.136 0.72948,16.001c0.123,5.857 0.1325,11.762 0.042,16.195c-0.014,0.733 -0.0285,1.409 -0.043,2.055c0.42149,2.845 0.87047,5.501 1.27796,7.586c0.54198,2.803 0.94247,4.617 0.94247,4.617c0,0 0.40349,1.826 1.06447,4.474c0.65548,2.655 1.63045,6.072 2.67492,9.335c0.0385,0.115 0.0775,0.225 0.116,0.339c-0.70198,-9.123 -1.06847,-17.318 -1.06847,-17.318c0,0 -0.49299,-10.456 -0.56748,-20.856c-0.0995,-10.412 0.21449,-20.709 0.21449,-20.709c0,0 0.86597,10.183 2.12294,20.096c1.23496,9.939 2.84641,19.556 2.84641,19.556c0,0 0.77498,4.696 1.90444,10.679c0.33299,-3.094 0.61048,-6.059 0.78698,-8.494c0.1575,-1.825 0.22049,-3.357 0.29749,-4.43c0.067,-1.076 0.105,-1.69 0.105,-1.69c0,0 0.0275,-0.616 0.075,-1.694c0.038,-1.078 0.1385,-2.626 0.17649,-4.486c0.1265,-3.725 0.16799,-8.718 0.0945,-13.753c-0.1095,-5.02 -0.33549,-10.075 -0.60648,-13.851c-0.11,-1.901 -0.27149,-3.456 -0.35249,-4.564c-0.091,-1.104 -0.143,-1.735 -0.143,-1.735c0,0 0.1225,0.589 0.33749,1.621c0.20549,1.039 0.54498,2.501 0.87147,4.31c0.70298,3.591 1.51695,8.487 2.22243,13.495c0.66898,5.016 1.22696,10.136 1.54745,14.022c0.18599,1.939 0.27099,3.57 0.36299,4.711c0.0815,1.144 0.1285,1.797 0.1285,1.797c0,0 0.0355,0.656 0.098,1.803c0.0525,1.149 0.17299,2.794 0.23399,4.775c0.17299,3.964 0.26999,9.284 0.24199,14.652c-0.026,2.187 -0.074,4.377 -0.1375,6.483c0.017,-0.128 0.0345,-0.256 0.0515,-0.384c1.14847,-8.568 2.11844,-17.278 2.11844,-17.278c0,0 0.98047,-8.699 1.77895,-17.525c0.80948,-8.815 1.43296,-17.745 1.43296,-17.745c0,0 0.55598,8.941 0.92197,17.973c0.37749,9.023 0.56298,18.124 0.56298,18.124c0,0 0.19749,9.093 0.19999,18.247c0.0035,2.059 -0.0035,4.115 -0.016,6.073h0.039c0.0535,-3.626 0.119,-8.048 0.18449,-12.478c0.0955,-10.416 0.19099,-20.832 0.19099,-20.832c0,0 0.0375,-10.43 0.075,-20.861c-0.0205,-10.443 -0.041,-20.887 -0.041,-20.887c0,0 1.19196,10.182 2.38393,20.363c1.13647,10.219 2.27293,20.439 2.27293,20.439c0,0 1.08047,10.257 2.16144,20.514c0.34549,3.471 0.69048,6.933 0.99647,10.01c-0.1305,-2.156 -0.26049,-4.414 -0.37899,-6.679c-0.55548,-10.35 -0.87747,-20.683 -0.87747,-20.683c0,0 -0.33649,-10.339 -0.44049,-20.641c-0.118,-10.309 -0.006,-20.563 -0.006,-20.563c0,0 1.06247,10.042 2.34143,19.923c1.26696,9.895 2.74542,19.614 2.74542,19.614c0,0 1.46646,9.734 3.13991,19.274c0.29449,1.694 0.59498,3.379 0.89097,5.009c-0.18499,-6.413 -0.23099,-11.637 -0.23099,-11.637c0,0 -0.0925,-8.681 0.087,-17.276c0.163,-8.608 0.59448,-17.1 0.59448,-17.1c0,0 0.74848,8.414 1.75195,16.64c0.98897,8.244 2.22443,16.272 2.22443,16.272c0,0 0.43549,2.865 1.09447,6.824l1.02897,-10.388l3.4944,-35.277l1.21046,35.882l0.34899,10.343c1.64045,-5.117 2.85791,-9.081 2.85791,-9.081c0,0 2.56892,-8.325 4.99385,-16.873c2.43293,-8.532 4.71786,-17.279 4.71786,-17.279c0,0 -1.18096,9.576 -2.54392,19.102c-1.35146,9.526 -2.88491,18.99 -2.88491,18.99c0,0 -1.52195,9.465 -3.2249,18.855c-0.92597,5.142 -1.90444,10.247 -2.60192,13.824h-322.81133c-0.69748,-3.576 -1.67595,-8.682 -2.60192,-13.824c-1.70345,-9.39 -3.2249,-18.855 -3.2249,-18.855c0,0 -1.53345,-9.465 -2.88691,-18.989z"/></g></g></svg>